<svg xmlns="http://www.w3.org/2000/svg" xml:space="preserve" viewBox="0 0 500 214.82"><path fill="#09a7df" fill-rule="evenodd" d="M500 174.72h-2.48l-3.12 6.58-3.12-6.58h-2.48l4.46 8.8v6.16h2.26v-6.16Zm-25.68-62.54c6.82 0 12.36-5.54 12.36-12.36 0-6.82-5.52-12.36-12.36-12.36S461.96 93 461.96 99.82c0 6.84 5.54 12.36 12.36 12.36m0-37.34c13.8 0 24.98 11.18 24.98 24.98l-.02 28.46-13.3-6.36c-3.7 1.88-7.56 2.88-11.66 2.88-13.78 0-24.98-11.2-24.98-24.98 0-13.78 11.2-24.98 24.98-24.98m-37.48 15.1c-3.06-1.7-9.56-4.44-13.84-4.44-2.6 0-5.42 1.26-5.42 3.72 0 2.04 2.14 3.08 4.34 3.84 2.32.82 5.4 1.52 8.5 2.58 6.12 2.1 11.9 5.48 11.9 13.6 0 9.16-9.94 15.64-20.26 15.64-6.4 0-12.5-1.56-17.9-4.6v-10.5c5.88 2.68 12.58 4.3 16.2 4.3 3 0 6.64-.98 6.64-3.9 0-1.02-.58-1.78-1.34-2.36-.76-.56-1.82-1.02-3-1.44-2.32-.82-5.42-1.56-8.52-2.68-6.14-2.22-11.96-5.8-11.96-14.22 0-8.88 8.54-14.88 19.4-14.88 7.3 0 13.18 2.1 19.16 6.94zm-162.2 34.88c-4.08 0-7.94-.98-11.34-2.72l-1.02-.52v11.88l-12.6 6-.02-39.62c0-13.8 11.18-24.98 24.98-24.98s24.98 11.18 24.98 24.98c-.02 13.78-11.2 24.98-24.98 24.98m0-37.34c-6.84 0-12.36 5.54-12.36 12.36 0 6.82 5.54 12.36 12.36 12.36 6.82 0 12.36-5.54 12.36-12.36-.02-6.84-5.54-12.36-12.36-12.36m92.66 24.7c6.82 0 12.36-5.54 12.36-12.36 0-6.82-5.54-12.36-12.36-12.36-6.82 0-12.36 5.54-12.36 12.36.02 6.84 5.54 12.36 12.36 12.36m0-37.34c13.8 0 24.98 11.18 24.98 24.98l-.02 28.46-13.3-6.36c-3.7 1.88-7.56 2.88-11.64 2.88-13.8 0-24.98-11.2-24.98-24.98 0-13.78 11.18-24.98 24.96-24.98m-43.98 49.36h-14.38V99.84c0-13.8 11.18-24.98 24.98-24.98 3.02 0 6.02.52 8.68 1.5l-6.26 12.04c-.62-.1-1.28-.16-1.94-.16-6.14 0-11.1 5.04-11.1 11.28zm-63.48 82.98c0-2.88.04-4.54-1.42-6-1.02-1.02-2.36-1.6-3.96-1.6s-2.9.56-3.92 1.6c-1.48 1.46-1.44 3.12-1.44 6s-.02 4.54 1.44 6c1.02 1.04 2.32 1.6 3.92 1.6s2.92-.56 3.96-1.6c1.46-1.46 1.42-3.12 1.42-6m-2.28 0c0 3-.14 3.84-.88 4.64-.52.56-1.34.92-2.22.92-.88 0-1.7-.36-2.22-.92-.74-.8-.88-1.64-.88-4.64s.14-3.84.88-4.64c.52-.56 1.34-.92 2.22-.92.88 0 1.7.36 2.22.92.74.8.88 1.64.88 4.64m15.18-5.44v-2.04h-9.56v14.94h2.26v-6.32h6.22v-2.04h-6.22v-4.56h7.3zm17.1 8.66c0-1.28-.4-2.36-1.22-3.06-.62-.58-1.4-.9-2.8-1.12l-1.7-.24c-.7-.1-1.3-.36-1.68-.7-.4-.36-.56-.84-.56-1.38 0-1.32.96-2.34 2.72-2.34 1.26 0 2.34.28 3.26 1.16l1.44-1.42c-1.28-1.2-2.66-1.7-4.64-1.7-3.12 0-5 1.78-5 4.38 0 1.22.36 2.16 1.08 2.86.66.62 1.62 1.02 2.84 1.2l1.76.26c.88.12 1.26.28 1.64.62.4.36.58.9.58 1.56 0 1.46-1.14 2.28-3.08 2.28-1.54 0-2.72-.34-3.82-1.42l-1.52 1.5c1.44 1.44 3.04 1.98 5.28 1.98 3.18-.04 5.42-1.68 5.42-4.42m13.26-3.22c0-2.88.04-4.54-1.42-6-1.04-1.02-2.34-1.6-3.94-1.6s-2.9.56-3.94 1.6c-1.46 1.46-1.44 3.12-1.44 6s-.02 4.54 1.44 6c1.04 1.04 2.32 1.6 3.94 1.6 1.6 0 2.92-.56 3.94-1.6 1.46-1.46 1.42-3.12 1.42-6m-2.28 0c0 3-.14 3.84-.88 4.64-.52.56-1.34.92-2.22.92-.88 0-1.7-.36-2.24-.92-.74-.8-.88-1.64-.88-4.64s.14-3.84.88-4.64c.54-.56 1.34-.92 2.24-.92.88 0 1.7.36 2.22.92.74.8.88 1.64.88 4.64m15.92 2.44v-9.9h-2.26v9.8c0 2-1.24 3.24-3.12 3.24-1.88 0-3.08-1.24-3.08-3.24v-9.8H306v9.9c0 3.1 2.3 5.16 5.36 5.16 3.04 0 5.38-2.06 5.38-5.16m12.62-7.88v-2.04h-10.5v2.04h4.12v12.92h2.26v-12.92zm13.2 12.92v-14.94h-2.26v6.38h-6.06v-6.38h-2.26v14.94h2.26v-6.54h6.06v6.54zm19.94 0-5.48-14.94h-1.84l-5.48 14.94h2.42l1.04-3h5.9l1.04 3zm-4.08-4.94h-4.6l2.34-6.64zm15.96-7.98v-2.04h-9.56v14.94h2.26v-6.32h6.22v-2.04h-6.22v-4.56h7.3zm13.4 12.92-3.44-6.62c1.68-.46 2.98-1.82 2.98-3.96 0-2.54-1.82-4.36-4.64-4.36h-5.8v14.94h2.26v-6.3h2.84l3.16 6.3zm-2.72-10.56c0 1.48-1.02 2.34-2.54 2.34h-3.36v-4.68h3.36c1.52-.02 2.54.86 2.54 2.34m8.48-4.38h-2.26v14.96h2.26zm14.48 10.48h-2.28c-.36 1.5-1.38 2.56-3.04 2.56-.88 0-1.68-.34-2.2-.9-.74-.8-.9-1.66-.9-4.66s.16-3.86.9-4.66c.52-.56 1.32-.9 2.2-.9 1.66 0 2.66 1.04 3.04 2.56h2.3c-.52-2.98-2.58-4.6-5.34-4.6-1.54 0-2.9.56-3.92 1.6-1.46 1.46-1.46 3.12-1.46 6s-.02 4.54 1.46 6c1.04 1.04 2.38 1.6 3.92 1.6 2.7-.02 4.82-1.64 5.32-4.6m14.02 4.46-5.48-14.94h-1.84l-5.48 14.94h2.42l1.02-3h5.9l1.04 3zm-4.08-4.94h-4.6l2.34-6.64zM260.1 179.26c0-2.6-1.88-4.54-4.78-4.54h-5.68v14.94h2.26v-5.86h3.4c2.92 0 4.8-1.94 4.8-4.54m-2.28 0c0 1.56-1.06 2.48-2.64 2.48h-3.28v-4.98h3.28c1.58 0 2.64.92 2.64 2.5M273 189.68l-5.48-14.94h-1.82l-5.48 14.94h2.42l1.04-3h5.9l1.04 3zm-4.08-4.94h-4.6l2.32-6.64zm15.54.68c0-1.28-.4-2.36-1.22-3.06-.62-.56-1.4-.9-2.78-1.12l-1.7-.24c-.7-.12-1.3-.36-1.68-.7-.4-.36-.56-.84-.56-1.38 0-1.32.96-2.34 2.74-2.34 1.26 0 2.34.28 3.26 1.16l1.46-1.42c-1.28-1.2-2.66-1.7-4.64-1.7-3.1 0-5 1.78-5 4.38 0 1.22.34 2.16 1.08 2.86.66.6 1.62 1.02 2.84 1.2l1.76.24c.88.12 1.26.28 1.64.62.4.36.58.9.58 1.56 0 1.44-1.12 2.3-3.08 2.3-1.54 0-2.72-.34-3.82-1.44l-1.52 1.5c1.44 1.46 3.04 1.98 5.28 1.98 3.12-.02 5.36-1.66 5.36-4.4m12.18 0c0-1.28-.4-2.36-1.22-3.06-.62-.56-1.4-.9-2.8-1.12l-1.7-.24c-.7-.12-1.3-.36-1.68-.7-.4-.36-.58-.84-.58-1.38 0-1.32.96-2.34 2.74-2.34 1.26 0 2.34.28 3.26 1.16l1.46-1.42c-1.28-1.2-2.66-1.7-4.64-1.7-3.1 0-4.98 1.78-4.98 4.38 0 1.22.36 2.16 1.08 2.86.64.6 1.62 1.02 2.84 1.2l1.76.24c.88.12 1.26.28 1.64.62.4.36.58.9.58 1.56 0 1.44-1.14 2.3-3.08 2.3-1.54 0-2.72-.34-3.82-1.44l-1.5 1.5c1.42 1.46 3.04 1.98 5.28 1.98 3.12-.02 5.36-1.66 5.36-4.4m12.6 4.26v-2.04h-7.28v-4.5h6.2v-2.02h-6.2v-4.36h7.28v-2.04h-9.56v14.94h9.56zm14.36 0v-14.94h-2.26v10.5l-6.9-10.5h-2.08v14.94h2.26v-10.52l6.92 10.52zm14.4-5.8v-2.28h-5.46v1.92h3.18v.84c0 .96-.2 1.72-.76 2.36-.58.68-1.44 1.04-2.44 1.04-.88 0-1.68-.34-2.2-.9-.74-.8-.9-1.66-.9-4.66s.16-3.84.9-4.64c.52-.56 1.32-.92 2.2-.92 1.68 0 2.78.96 3.14 2.6h2.28c-.42-2.56-2.26-4.64-5.44-4.64-1.6 0-2.9.56-3.92 1.6-1.46 1.46-1.44 3.12-1.44 6s-.02 4.54 1.44 6c1.02 1.04 2.38 1.6 3.92 1.6 1.58 0 2.98-.5 4.12-1.7 1.02-1.06 1.38-2.28 1.38-4.22m12.88 5.8v-2.04h-7.3v-4.5h6.22v-2.02h-6.22v-4.36h7.3v-2.04h-9.56v14.94h9.56zm14 0-3.44-6.62c1.68-.46 2.98-1.82 2.98-3.96 0-2.54-1.8-4.36-4.64-4.36h-5.8v14.94h2.26v-6.3h2.84l3.16 6.3zm-2.72-10.56c0 1.48-1.04 2.34-2.54 2.34h-3.36v-4.68h3.36c1.5-.02 2.54.86 2.54 2.34m21.3 10.56-3.44-6.62c1.68-.46 2.98-1.82 2.98-3.96 0-2.54-1.8-4.36-4.64-4.36h-5.8v14.94h2.26v-6.3h2.84l3.14 6.3zm-2.74-10.56c0 1.48-1.04 2.34-2.54 2.34h-3.36v-4.68h3.36c1.52-.02 2.54.86 2.54 2.34m16.8 10.56-5.48-14.94h-1.82l-5.48 14.94h2.42l1.02-3h5.9l1.02 3zm-4.08-4.94h-4.6l2.32-6.64zm8.68-10.02h-2.26v14.94h2.26zm13.58 14.96v-2.04h-7.2v-12.92h-2.26v14.94h9.46zm18.62 0-5.48-14.94h-1.82l-5.48 14.94h2.42l1.04-3h5.9l1.02 3zm-4.08-4.94h-4.6l2.34-6.64zm16.28-.86v-2.28h-5.46v1.92h3.18v.84c0 .96-.2 1.72-.76 2.36-.58.68-1.44 1.04-2.44 1.04-.88 0-1.68-.34-2.2-.9-.74-.8-.9-1.66-.9-4.66s.16-3.84.9-4.64c.52-.56 1.32-.92 2.2-.92 1.68 0 2.76.96 3.14 2.6h2.28c-.42-2.56-2.26-4.64-5.44-4.64-1.6 0-2.9.56-3.94 1.6-1.46 1.46-1.46 3.12-1.46 6s-.02 4.54 1.46 6c1.02 1.04 2.38 1.6 3.94 1.6s2.98-.5 4.12-1.7c1.02-1.06 1.38-2.28 1.38-4.22m12.88 5.8v-2.04h-7.28v-4.5h6.22v-2.02h-6.22v-4.36h7.28v-2.04h-9.56v14.94h9.56zm14.36 0v-14.94h-2.26v10.5l-6.92-10.5h-2.08v14.94h2.26v-10.52l6.9 10.52zm14.06-4.48h-2.3c-.36 1.52-1.38 2.56-3.04 2.56-.88 0-1.68-.34-2.2-.9-.74-.8-.9-1.66-.9-4.66s.16-3.86.9-4.66c.52-.56 1.32-.9 2.2-.9 1.66 0 2.66 1.04 3.02 2.56h2.32c-.54-2.98-2.58-4.6-5.34-4.6-1.56 0-2.9.56-3.92 1.6-1.46 1.46-1.46 3.12-1.46 6s-.02 4.54 1.46 6c1.02 1.04 2.38 1.6 3.92 1.6 2.72 0 4.84-1.62 5.34-4.6M119.62 36.26c-1.3-.4-2.64-.78-3.98-1.1l-16.9 31.42c-1.04.04-2.06.12-3.06.24l13.74-32.86c-1.36-.2-2.72-.36-4.1-.46L93.54 67.16c-1.02.2-2 .44-2.98.72l8.42-34.6c-1.38.02-2.76.08-4.12.18l-6.34 35.08c-.98.36-1.92.74-2.84 1.18l2.92-35.5c-1.36.22-2.7.5-4.04.82l-.78 35.66c-.9.5-1.78 1.02-2.62 1.62l-2.7-35.52c-1.3.44-2.58.92-3.86 1.44l4.8 35.36c-.82.62-1.58 1.3-2.34 2l-8.2-34.66a57.06 57.06 0 0 0-3.58 2.04l10.28 34.16c-.7.74-1.38 1.54-2 2.34L60.04 46.52c-1.1.82-2.18 1.68-3.22 2.58L72.3 81.22c-.58.84-1.1 1.72-1.6 2.62L52.18 53.4c-.96.98-1.88 2-2.78 3.04l20.3 29.3c-.42.92-.82 1.88-1.18 2.84L45.5 61.42c-.8 1.12-1.56 2.26-2.28 3.44l24.66 25.76c-.28.98-.52 1.98-.72 3L40.14 70.4a69.38 69.38 0 0 0-1.7 3.74l28.38 21.6c-.12.96-.2 1.96-.24 2.94l-30.32-18.6c-.4 1.3-.78 2.64-1.1 3.98l31.42 16.9c.04 1.04.12 2.06.24 3.06L33.96 90.28c-.2 1.34-.36 2.72-.46 4.1l33.66 11.76c.2 1.02.44 2.02.72 2.98L33.3 100.7c.02 1.38.08 2.76.18 4.12l35.08 6.36c.36.98.74 1.92 1.18 2.84l-35.5-2.92c.24 1.36.5 2.7.82 4.04l35.66.8c.5.9 1.04 1.78 1.62 2.62l-35.54 2.68c.44 1.3.92 2.6 1.44 3.86l35.36-4.8c.62.8 1.3 1.58 2 2.34l-34.68 8.2a57.06 57.06 0 0 0 2.04 3.58l34.16-10.28c.74.7 1.54 1.38 2.34 2L46.5 139.66c.82 1.1 1.68 2.18 2.56 3.22l32.12-15.48c.84.58 1.72 1.12 2.62 1.6l-30.4 18.52c.98.96 2 1.88 3.04 2.78l29.3-20.3c.92.44 1.88.82 2.84 1.18l-27.16 23.04c1.12.8 2.26 1.56 3.44 2.28l25.76-24.64c.98.28 1.98.52 2.98.7l-23.2 27c1.22.6 2.48 1.18 3.74 1.7l21.6-28.4c.96.12 1.94.2 2.94.24l-18.6 30.32c1.3.4 2.62.78 3.96 1.1l16.9-31.42c1.04-.04 2.06-.12 3.06-.24l-13.74 32.86c1.36.2 2.72.34 4.1.46l11.76-33.66c1.02-.2 2-.44 2.98-.72l-8.42 34.58c1.38-.02 2.76-.08 4.12-.18l6.36-35.08c.96-.36 1.92-.74 2.84-1.18l-2.9 35.5c1.36-.24 2.7-.52 4.04-.82l.78-35.66c.9-.5 1.78-1.04 2.62-1.6l2.68 35.52c1.3-.44 2.6-.92 3.86-1.44l-4.8-35.36c.8-.64 1.58-1.3 2.34-2l8.2 34.66a57.06 57.06 0 0 0 3.58-2.04l-10.24-34.1c.7-.76 1.36-1.54 2-2.34l13.52 32.94c1.1-.82 2.18-1.68 3.22-2.56l-15.48-32.12c.58-.84 1.12-1.72 1.6-2.62l18.5 30.42c.96-.98 1.88-2 2.78-3.04l-20.3-29.3c.44-.92.82-1.88 1.18-2.84l23.04 27.16c.78-1.12 1.54-2.26 2.28-3.44l-24.66-25.78c.28-.98.52-1.98.72-3l27 23.22c.6-1.22 1.18-2.48 1.72-3.74l-28.38-21.6c.12-.96.2-1.96.24-2.94l30.32 18.6c.4-1.32.78-2.62 1.1-3.98l-31.42-16.9c-.04-1.04-.12-2.06-.24-3.06l32.86 13.74c.2-1.36.34-2.72.46-4.1l-33.66-11.78c-.2-1.02-.44-2.02-.72-2.98l34.6 8.42c-.02-1.38-.08-2.76-.18-4.12l-35.08-6.36c-.36-.96-.74-1.92-1.18-2.84l35.5 2.9c-.22-1.36-.5-2.7-.82-4.04l-35.66-.8c-.5-.9-1.04-1.78-1.62-2.62l35.54-2.68c-.44-1.3-.92-2.6-1.44-3.86l-35.36 4.8c-.62-.82-1.3-1.6-2-2.34l34.68-8.2c-.64-1.22-1.32-2.42-2.04-3.6L122.6 75.54c-.74-.7-1.54-1.36-2.34-2l32.96-13.52c-.82-1.1-1.68-2.18-2.58-3.22l-32.12 15.48c-.84-.58-1.72-1.1-2.62-1.6l30.42-18.5c-.98-.96-2-1.88-3.04-2.78l-29.3 20.3c-.92-.44-1.88-.82-2.84-1.18L138.3 45.5c-1.12-.8-2.26-1.56-3.44-2.28l-25.78 24.64c-.98-.28-1.98-.52-3-.7l23.22-27.02a69.38 69.38 0 0 0-3.74-1.7l-21.6 28.38c-.96-.12-1.94-.2-2.94-.24ZM95.1 0h9.52l16.04 36.6 4.04 1.48L110.78.48l9.4 1.48 10.12 38.66 3.76 2.08-7.88-39.28 9.04 2.94 3.94 39.76 3.4 2.64-1.62-40.04 8.48 4.32-2.32 39.88 2.94 3.14 4.66-39.8 7.7 5.6-8.54 39.02 2.4 3.56 10.84-38.58 6.72 6.74-14.54 37.22 1.82 3.9 16.74-36.42 5.6 7.7-20.18 34.5 1.18 4.14 22.24-33.36 4.32 8.48-25.34 30.9.54 4.26 27.16-29.46 2.94 9.04-29.86 26.58-.16 4.3 31.44-24.84 1.48 9.4-33.62 21.56-.82 4.22L199.7 95.1v9.52l-36.6 16.04-1.48 4.04 37.58-13.92-1.48 9.38-38.66 10.12-2.08 3.76 39.3-7.86-2.94 9.04-39.74 3.96-2.64 3.4 40.04-1.62-4.32 8.46-39.88-2.32-3.14 2.94 39.8 4.66-5.6 7.7-39.02-8.54-3.58 2.42 38.58 10.82-6.72 6.72-37.22-14.54-3.9 1.82 36.42 16.74-7.7 5.6-34.52-20.18-4.14 1.18 33.36 22.22-8.48 4.32-30.9-25.32-4.26.54 29.46 27.16-9.04 2.94-26.56-29.86-4.3-.14 24.84 31.44-9.4 1.48-21.58-33.64-4.22-.82 19.64 34.94H95.1l-16.04-36.6-4.04-1.48 13.92 37.58-9.4-1.48-10.12-38.66-3.76-2.08 7.86 39.28-9.04-2.94-3.94-39.72-3.38-2.64L58.78 191l-8.46-4.32 2.32-39.88-2.94-3.14-4.66 39.8-7.7-5.6 8.54-39.02-2.42-3.56-10.86 38.54-6.72-6.72 14.54-37.22-1.82-3.9-16.74 36.42-5.6-7.7 20.18-34.48-1.18-4.14-22.22 33.34-4.32-8.46 25.32-30.92-.54-4.26-27.14 29.46-2.94-9.04 29.84-26.56.14-4.3-31.44 24.82-1.48-9.38 33.64-21.56.82-4.22L0 104.62V95.1l36.6-16.04 1.48-4.04-37.6 13.9 1.48-9.4L40.62 69.4l2.08-3.76-39.28 7.88 2.94-9.04 39.74-3.94 2.64-3.4-40.02 1.62 4.32-8.48 39.88 2.34 3.14-2.94L16.28 45l5.6-7.7 39.02 8.54 3.56-2.42L25.88 32.6l6.72-6.72 37.22 14.54 3.9-1.82L37.3 21.86l7.7-5.6 34.48 20.18 4.14-1.18-33.34-22.22 8.48-4.32 30.9 25.32 4.26-.52L64.48 6.36l9.04-2.94 26.56 29.84 4.3.14L79.54 1.98 88.94.5l21.56 33.64 4.22.82z" clip-rule="evenodd"/></svg>