<?xml version="1.0" encoding="UTF-8"?>
<svg id="Layer_2" data-name="Layer 2" xmlns="http://www.w3.org/2000/svg" viewBox="0 0 156.46 208.43">
  <defs>
    <style>
      .cls-1 {
        fill: #c2c7cc;
      }

      .cls-2 {
        fill: #fff;
      }

      .cls-3 {
        fill: #373a3a;
      }

      .cls-4 {
        fill: none;
        stroke: #373a3a;
        stroke-linecap: round;
        stroke-linejoin: round;
        stroke-width: 2.5px;
      }
    </style>
  </defs>
  <g id="icons">
    <g>
      <g>
        <g>
          <polygon class="cls-1" points="42.95 16.43 42.95 27.96 12.82 16.95 12.82 47.44 1.43 43.27 1.43 1.25 42.95 16.43"/>
          <polygon class="cls-1" points="42.73 154.84 42.73 166.38 1.25 151.2 1.25 109.18 12.66 113.35 12.66 143.83 42.73 154.84"/>
        </g>
        <g>
          <polygon class="cls-4" points="42.73 154.84 12.66 143.83 12.66 113.35 1.25 109.18 1.25 151.2 42.73 166.38 42.73 154.84"/>
          <polygon class="cls-4" points="12.82 47.44 12.82 16.95 42.95 27.96 42.95 16.43 1.43 1.25 1.43 43.27 12.82 47.44"/>
        </g>
      </g>
      <g>
        <g>
          <path class="cls-2" d="M57.06,154.02c-28.01-5.11-37.05-35.71-37.05-68.11,0-22.29.42-33.02,1.63-41.91,6.18,11.26,21.71,17.08,38.12,17.08,18.54,0,28.9-3.82,41.47-11.42,1.2,17.43,3.43,34.84,3.87,52.29,2.39-1.7,4.85-3.3,7.39-4.78,3.65-9.28,10.58-23.35,18.77-23.35,1.02,0,1.99.22,2.89.67,2.4,1.21,4.16,4.13,4.16,9.13,0,4.63-4.83,31.78-19.27,33.4,1.63,9.79,4.83,19.43,10.27,27.53-10.23,16.56-26.37,24.45-41.67,24.45-12.38,0-22.27-6.23-30.57-14.97Z"/>
          <path class="cls-3" d="M136.08,59.49c0,5.17-.78,10.01-1.94,15-.89-.46-1.87-.67-2.89-.67-8.19,0-15.12,14.08-18.77,23.35-2.53,1.47-4.99,3.08-7.39,4.78-.45-17.45-2.68-34.86-3.87-52.29-12.57,7.6-22.93,11.42-41.47,11.42-16.41,0-31.94-5.82-38.12-17.08-1.81-3.29-2.81-7.04-2.81-11.26,0-13.01,11.73-26.93,32.91-26.93,14.17,0,19.57,3.79,27.59,9.56,6.06-1.94,12.4-2.86,17.49-2.86,24.36,0,39.27,22.33,39.27,46.98Z"/>
        </g>
        <g>
          <path class="cls-4" d="M21.64,44c-1.21,8.9-1.63,19.62-1.63,41.91,0,32.4,9.05,62.99,37.05,68.11,2.69.49,5.54.74,8.59.74,11.83,0,24.49-6.26,33.49-14.47"/>
          <path class="cls-4" d="M124.7,104.61c.22-.5.33-1.17.33-1.89,0-2.19-1.03-4.87-3.13-4.87-.79,0-1.53.28-2.2.74,2.17-7.55,6.66-14.8,9.24-14.8,1.74,0,2.74,2.57,2.74,5.34,0,2-.6,4.04-1.25,6.91"/>
          <path class="cls-4" d="M57.06,154.02c8.3,8.74,18.19,14.97,30.57,14.97,15.29,0,31.43-7.89,41.67-24.45-5.44-8.1-8.64-17.74-10.27-27.53,14.44-1.62,19.27-28.77,19.27-33.4,0-5-1.76-7.92-4.16-9.13-.89-.45-1.87-.67-2.89-.67-8.19,0-15.12,14.08-18.77,23.35-2.53,1.47-4.99,3.08-7.39,4.78-.45-17.45-2.68-34.86-3.87-52.29-12.57,7.6-22.93,11.42-41.47,11.42-16.41,0-31.94-5.82-38.12-17.08-1.81-3.3-2.81-7.04-2.81-11.26,0-13.01,11.73-26.93,32.91-26.93,14.17,0,19.57,3.79,27.59,9.56,6.06-1.94,12.4-2.86,17.49-2.86,24.36,0,39.27,22.33,39.27,46.98,0,5.17-.78,10.01-1.94,15"/>
          <path class="cls-4" d="M46.84,84.99c-.06,20.12-10.16,20.76-10.16,26.21,0,2.89,4.16,6.96,10.24,6.96.4,0,.8-.02,1.19-.06"/>
          <path class="cls-4" d="M27.96,89.01c.92,2.84,3.32,5.97,5.97,5.97,1.06,0,2.17-.51,3.25-1.76"/>
          <path class="cls-4" d="M63.2,98.2c.88,3.59,3.36,6.08,6.28,6.08,1.41,0,2.91-.59,4.41-1.9"/>
          <path class="cls-4" d="M24.31,76.06c2.28-.38,4.53-.6,6.75-.6,3.77,0,7.46.63,11.1,2.2"/>
          <path class="cls-4" d="M62.82,83.6c5.82.9,11.21,3.33,16.05,6.63"/>
          <path class="cls-4" d="M49.73,131.19c2.42.84,5.07,1.35,7.69,1.35,3,0,5.98-.66,8.54-2.17"/>
        </g>
      </g>
      <g>
        <g>
          <polygon class="cls-1" points="155.21 57.22 155.21 99.23 143.81 95.07 143.81 64.6 113.74 53.6 113.74 42.04 155.21 57.22"/>
          <polygon class="cls-1" points="155.03 165.16 155.03 207.18 113.51 192 113.51 180.45 143.65 191.46 143.65 160.99 155.03 165.16"/>
        </g>
        <g>
          <polygon class="cls-4" points="113.74 53.6 143.81 64.6 143.81 95.07 155.21 99.23 155.21 57.22 113.74 42.04 113.74 53.6"/>
          <polygon class="cls-4" points="143.65 160.99 143.65 191.46 113.51 180.45 113.51 192 155.03 207.18 155.03 165.16 143.65 160.99"/>
        </g>
      </g>
    </g>
  </g>
</svg>