<?xml version="1.0" encoding="UTF-8"?>
<svg id="Layer_2" data-name="Layer 2" xmlns="http://www.w3.org/2000/svg" viewBox="0 0 172.06 220.86">
  <defs>
    <style>
      .cls-1 {
        fill: #f6d84c;
      }

      .cls-2 {
        fill: #969a9e;
      }

      .cls-3 {
        fill: #fff;
      }

      .cls-4 {
        fill: #dae0e5;
      }

      .cls-5 {
        fill: none;
        stroke: #373a3a;
        stroke-linecap: round;
        stroke-linejoin: round;
        stroke-width: 2.5px;
      }

      .cls-6 {
        fill: #5f646b;
      }
    </style>
  </defs>
  <g id="icons">
    <g>
      <g>
        <g>
          <path class="cls-2" d="M170.81,44.5v96.66c0,2.28-.79,4.06-2.07,5.13l-13.31,11.17h0c1.28-1.07,2.05-2.86,2.05-5.13V55.67c0-4.74-3.39-9.82-7.59-11.36L63.47,12.86c-2.08-.76-3.97-.49-5.34.53l13.13-11.01c1.38-1.17,3.34-1.48,5.52-.7l86.44,31.47c4.19,1.52,7.6,6.6,7.6,11.35Z"/>
          <path class="cls-3" d="M157.49,55.67v96.66c0,2.27-.78,4.06-2.05,5.12-1.38,1.18-3.34,1.5-5.53.71l-86.44-31.46c-4.19-1.53-7.6-6.61-7.6-11.36V18.68c0-2.27.79-4.06,2.07-5.13l.19-.16c1.37-1.02,3.26-1.29,5.34-.53l86.44,31.46c4.19,1.53,7.59,6.61,7.59,11.36ZM142.81,130.74v-9.67c0-2.29-1.65-4.75-3.67-5.49l-10.42-3.78c-2.02-.75-3.66.52-3.66,2.81v9.67c0,2.3,1.64,4.75,3.66,5.49l10.42,3.79c2.02.74,3.67-.52,3.67-2.82ZM142.81,101.29v-9.67c0-2.29-1.65-4.75-3.67-5.49l-10.42-3.78c-2.02-.75-3.66.52-3.66,2.81v9.67c0,2.3,1.64,4.75,3.66,5.49l10.42,3.79c2.02.74,3.67-.52,3.67-2.82ZM142.81,71.83v-9.67c0-2.29-1.65-4.75-3.67-5.49l-10.42-3.78c-2.02-.75-3.66.52-3.66,2.81v9.67c0,2.3,1.64,4.75,3.66,5.49l10.42,3.79c2.02.74,3.67-.52,3.67-2.82ZM115.55,120.82v-9.67c0-2.29-1.64-4.75-3.66-5.49l-10.42-3.79c-2.02-.74-3.67.53-3.67,2.82v9.67c0,2.3,1.65,4.75,3.67,5.49l10.42,3.79c2.02.74,3.66-.53,3.66-2.82ZM115.55,91.37v-9.67c0-2.29-1.64-4.75-3.66-5.49l-10.42-3.79c-2.02-.74-3.67.53-3.67,2.82v9.67c0,2.3,1.65,4.75,3.67,5.49l10.42,3.79c2.02.74,3.66-.53,3.66-2.82ZM115.55,61.92v-9.67c0-2.29-1.64-4.75-3.66-5.49l-10.42-3.79c-2.02-.74-3.67.53-3.67,2.82v9.67c0,2.3,1.65,4.75,3.67,5.49l10.42,3.79c2.02.74,3.66-.53,3.66-2.82ZM88.31,110.91v-9.67c0-2.29-1.65-4.75-3.67-5.49l-10.41-3.79c-2.02-.74-3.67.53-3.67,2.82v9.67c0,2.29,1.65,4.75,3.67,5.49l10.41,3.79c2.02.74,3.67-.53,3.67-2.82ZM88.31,81.45v-9.67c0-2.29-1.65-4.75-3.67-5.49l-10.41-3.79c-2.02-.74-3.67.53-3.67,2.82v9.67c0,2.29,1.65,4.75,3.67,5.49l10.41,3.79c2.02.74,3.67-.53,3.67-2.82ZM88.31,52v-9.67c0-2.29-1.65-4.75-3.67-5.49l-10.41-3.79c-2.02-.74-3.67.53-3.67,2.82v9.67c0,2.29,1.65,4.75,3.67,5.49l10.41,3.79c2.02.74,3.67-.53,3.67-2.82Z"/>
          <path class="cls-6" d="M142.81,121.07v9.67c0,2.3-1.65,3.56-3.67,2.82l-10.42-3.79c-2.02-.74-3.66-3.19-3.66-5.49v-9.67c0-2.29,1.64-3.56,3.66-2.81l10.42,3.78c2.02.74,3.67,3.2,3.67,5.49Z"/>
          <path class="cls-1" d="M142.81,91.62v9.67c0,2.3-1.65,3.56-3.67,2.82l-10.42-3.79c-2.02-.74-3.66-3.19-3.66-5.49v-9.67c0-2.29,1.64-3.56,3.66-2.81l10.42,3.78c2.02.74,3.67,3.2,3.67,5.49Z"/>
          <path class="cls-6" d="M142.81,62.16v9.67c0,2.3-1.65,3.56-3.67,2.82l-10.42-3.79c-2.02-.74-3.66-3.19-3.66-5.49v-9.67c0-2.29,1.64-3.56,3.66-2.81l10.42,3.78c2.02.74,3.67,3.2,3.67,5.49Z"/>
          <path class="cls-1" d="M115.55,111.15v9.67c0,2.29-1.64,3.56-3.66,2.82l-10.42-3.79c-2.02-.74-3.67-3.19-3.67-5.49v-9.67c0-2.29,1.65-3.56,3.67-2.82l10.42,3.79c2.02.74,3.66,3.2,3.66,5.49Z"/>
          <path class="cls-6" d="M115.55,81.7v9.67c0,2.29-1.64,3.56-3.66,2.82l-10.42-3.79c-2.02-.74-3.67-3.19-3.67-5.49v-9.67c0-2.29,1.65-3.56,3.67-2.82l10.42,3.79c2.02.74,3.66,3.2,3.66,5.49Z"/>
          <path class="cls-6" d="M115.55,52.25v9.67c0,2.29-1.64,3.56-3.66,2.82l-10.42-3.79c-2.02-.74-3.67-3.19-3.67-5.49v-9.67c0-2.29,1.65-3.56,3.67-2.82l10.42,3.79c2.02.74,3.66,3.2,3.66,5.49Z"/>
          <path class="cls-6" d="M88.31,101.24v9.67c0,2.29-1.65,3.56-3.67,2.82l-10.41-3.79c-2.02-.74-3.67-3.2-3.67-5.49v-9.67c0-2.29,1.65-3.56,3.67-2.82l10.41,3.79c2.02.74,3.67,3.2,3.67,5.49Z"/>
          <path class="cls-6" d="M88.31,71.78v9.67c0,2.29-1.65,3.56-3.67,2.82l-10.41-3.79c-2.02-.74-3.67-3.2-3.67-5.49v-9.67c0-2.29,1.65-3.56,3.67-2.82l10.41,3.79c2.02.74,3.67,3.2,3.67,5.49Z"/>
          <path class="cls-1" d="M88.31,42.33v9.67c0,2.29-1.65,3.56-3.67,2.82l-10.41-3.79c-2.02-.74-3.67-3.2-3.67-5.49v-9.67c0-2.29,1.65-3.56,3.67-2.82l10.41,3.79c2.02.74,3.67,3.2,3.67,5.49Z"/>
        </g>
        <g>
          <path class="cls-5" d="M58.13,13.39c1.37-1.02,3.26-1.29,5.34-.53l86.44,31.46c4.19,1.53,7.59,6.61,7.59,11.36v96.66c0,2.27-.78,4.05-2.05,5.12-1.39,1.17-3.34,1.5-5.53.71l-86.44-31.46c-4.19-1.53-7.6-6.61-7.6-11.36V18.68c0-2.27.79-4.06,2.07-5.13"/>
          <path class="cls-5" d="M84.64,54.82l-10.41-3.79c-2.02-.74-3.67-3.2-3.67-5.49v-9.67c0-2.29,1.65-3.56,3.67-2.82l10.41,3.79c2.02.74,3.67,3.2,3.67,5.49v9.67c0,2.29-1.65,3.56-3.67,2.82Z"/>
          <path class="cls-5" d="M111.89,64.74l-10.42-3.79c-2.02-.74-3.67-3.19-3.67-5.49v-9.67c0-2.29,1.65-3.56,3.67-2.82l10.42,3.79c2.02.74,3.66,3.2,3.66,5.49v9.67c0,2.29-1.64,3.56-3.66,2.82Z"/>
          <path class="cls-5" d="M139.14,74.66l-10.42-3.79c-2.02-.74-3.66-3.19-3.66-5.49v-9.67c0-2.29,1.64-3.56,3.66-2.81l10.42,3.78c2.02.74,3.67,3.2,3.67,5.49v9.67c0,2.3-1.65,3.56-3.67,2.82Z"/>
          <path class="cls-5" d="M84.64,84.28l-10.41-3.79c-2.02-.74-3.67-3.2-3.67-5.49v-9.67c0-2.29,1.65-3.56,3.67-2.82l10.41,3.79c2.02.74,3.67,3.2,3.67,5.49v9.67c0,2.29-1.65,3.56-3.67,2.82Z"/>
          <path class="cls-5" d="M111.89,94.19l-10.42-3.79c-2.02-.74-3.67-3.19-3.67-5.49v-9.67c0-2.29,1.65-3.56,3.67-2.82l10.42,3.79c2.02.74,3.66,3.2,3.66,5.49v9.67c0,2.29-1.64,3.56-3.66,2.82Z"/>
          <path class="cls-5" d="M139.14,104.11l-10.42-3.79c-2.02-.74-3.66-3.19-3.66-5.49v-9.67c0-2.29,1.64-3.56,3.66-2.81l10.42,3.78c2.02.74,3.67,3.2,3.67,5.49v9.67c0,2.3-1.65,3.56-3.67,2.82Z"/>
          <path class="cls-5" d="M84.64,113.73l-10.41-3.79c-2.02-.74-3.67-3.2-3.67-5.49v-9.67c0-2.29,1.65-3.56,3.67-2.82l10.41,3.79c2.02.74,3.67,3.2,3.67,5.49v9.67c0,2.29-1.65,3.56-3.67,2.82Z"/>
          <path class="cls-5" d="M111.89,123.65l-10.42-3.79c-2.02-.74-3.67-3.19-3.67-5.49v-9.67c0-2.29,1.65-3.56,3.67-2.82l10.42,3.79c2.02.74,3.66,3.2,3.66,5.49v9.67c0,2.29-1.64,3.56-3.66,2.82Z"/>
          <path class="cls-5" d="M139.14,133.56l-10.42-3.79c-2.02-.74-3.66-3.19-3.66-5.49v-9.67c0-2.29,1.64-3.56,3.66-2.81l10.42,3.78c2.02.74,3.67,3.2,3.67,5.49v9.67c0,2.3-1.65,3.56-3.67,2.82Z"/>
          <path class="cls-5" d="M57.93,13.55l13.32-11.17c1.38-1.17,3.34-1.48,5.52-.7l86.44,31.47c4.19,1.52,7.6,6.6,7.6,11.35v96.66c0,2.28-.79,4.06-2.07,5.13l-13.31,11.17"/>
        </g>
      </g>
      <g>
        <g>
          <path class="cls-3" d="M96.31,107.18c4.36-1.17,8.31-.81,10.98,2.37,2.9,3.45,3.72,8.79,4.03,13.75,3.38-.91,6.48-.52,8.84,2.3,5.09,6.06-1.1,28.86-6.63,33.5-2.88,2.42-7.12,3.87-11.74,3.25-3.09,10.37-5.17,23.84-20.98,37.09-6.96,5.85-24.19,14.77-32.51,18.17,5.25-2.68,8.53-7.93,8.53-15.08,0-13.93-12.44-29.76-27.79-35.34-10.17-3.7-19.07-1.97-23.91,3.67,7.13-8.77,10.75-20.14,15.14-30.55,5.36-12.71,11.2-23.35,17.64-33.3l24.7-42.85c.94-1.63,1.74-3.33,2.37-5.1l5.39-14.84c1.37-3.79,5.46-5.87,9.33-4.74,5.43,1.57,8.71,7.07,7.51,12.59l-2.85,13.25c-1.12,5.2-3,10.23-5.56,14.91l-13.93,25.46c9.59-7.33,20.33-14.08,27.3-5.79,1.71,2.04,2.92,4.72,4.15,7.28Z"/>
          <path class="cls-4" d="M29.04,167.19c15.34,5.58,27.79,21.41,27.79,35.34,0,7.15-3.27,12.4-8.53,15.08-.01.01-.02.01-.04.01-4.99,2.54-11.76,2.74-19.22.03-15.34-5.59-27.79-21.42-27.79-35.35,0-4.55,1.37-8.3,3.66-11.17.07-.09.14-.18.21-.27,4.87-5.62,13.74-7.37,23.91-3.67Z"/>
        </g>
        <g>
          <path class="cls-5" d="M5.12,170.86c7.13-8.77,10.75-20.14,15.14-30.55,5.36-12.71,11.2-23.35,17.64-33.3l24.7-42.85c.94-1.63,1.74-3.33,2.37-5.1l5.39-14.84c1.37-3.79,5.46-5.87,9.33-4.74,5.43,1.57,8.71,7.07,7.51,12.59l-2.85,13.25c-1.12,5.2-3,10.23-5.56,14.91l-13.93,25.46"/>
          <path class="cls-5" d="M57.88,111.13c2.2-1.7,4.55-3.58,6.97-5.43h.01c9.59-7.34,20.33-14.09,27.3-5.8,1.71,2.04,2.92,4.72,4.15,7.28"/>
          <path class="cls-5" d="M75.5,119.72c.08-.07.17-.14.27-.22,5.15-4.45,13.39-10.4,20.54-12.31,4.36-1.17,8.31-.81,10.98,2.37,2.9,3.45,3.72,8.79,4.03,13.75"/>
          <path class="cls-5" d="M92.58,134.39c5.41-3.42,12.54-9.42,18.73-11.08,3.38-.91,6.48-.52,8.84,2.3,5.09,6.06-1.1,28.86-6.63,33.5-2.88,2.42-7.12,3.87-11.74,3.25"/>
          <path class="cls-5" d="M48.3,217.61c8.32-3.39,25.55-12.32,32.51-18.17,15.81-13.25,17.89-26.72,20.98-37.09,1.53-5.15,3.3-9.54,7.14-12.76,1.46-1.22,3.02-2.32,4.42-3.33"/>
          <path class="cls-5" d="M5.12,170.86c4.87-5.62,13.74-7.37,23.91-3.67,15.34,5.58,27.79,21.41,27.79,35.34,0,7.15-3.27,12.4-8.53,15.08-.01.01-.02.01-.04.01-4.99,2.54-11.76,2.74-19.22.03-15.34-5.59-27.79-21.42-27.79-35.35,0-4.55,1.37-8.3,3.66-11.17.07-.09.14-.18.21-.27Z"/>
        </g>
      </g>
    </g>
  </g>
</svg>