<?xml version="1.0" encoding="UTF-8" standalone="no"?>
<!DOCTYPE svg PUBLIC "-//W3C//DTD SVG 1.1//EN" "http://www.w3.org/Graphics/SVG/1.1/DTD/svg11.dtd">
<svg width="100%" height="100%" viewBox="0 0 210 227" version="1.1" xmlns="http://www.w3.org/2000/svg" xmlns:xlink="http://www.w3.org/1999/xlink" xml:space="preserve" xmlns:serif="http://www.serif.com/" style="fill-rule:evenodd;clip-rule:evenodd;stroke-linejoin:round;stroke-miterlimit:2;">
    <g transform="matrix(1,0,0,1,-1888.48,-658.229)">
        <g id="business-continuity-icon" transform="matrix(1,0,0,1,38.5439,-902.229)">
            <path d="M2019.17,1682.54L2017.66,1681.87L2019,1682.64L2019.17,1682.54Z" style="fill:rgb(150,154,158);fill-rule:nonzero;"/>
            <path d="M2021.2,1688.97L2019,1687.7L2016.8,1688.97L2019,1690.24L2021.2,1688.97Z" style="fill:rgb(150,154,158);fill-rule:nonzero;"/>
            <path d="M2019,1695.3L2016.8,1696.57L2019,1697.84L2021.2,1696.57L2019,1695.3Z" style="fill:rgb(150,154,158);fill-rule:nonzero;"/>
            <path d="M2021.2,1704.17L2019,1702.9L2016.8,1704.17L2019,1705.44L2021.2,1704.17Z" style="fill:rgb(150,154,158);fill-rule:nonzero;"/>
            <path d="M2014.8,1681.37L2012.6,1680.1L2010.4,1681.37L2012.6,1682.64L2014.8,1681.37Z" style="fill:rgb(150,154,158);fill-rule:nonzero;"/>
            <path d="M2013.6,1692.77L2015.8,1694.04L2018,1692.77L2015.8,1691.5L2013.6,1692.77Z" style="fill:rgb(150,154,158);fill-rule:nonzero;"/>
            <path d="M2010.4,1688.97L2012.6,1690.24L2014.8,1688.97L2012.6,1687.7L2010.4,1688.97Z" style="fill:rgb(150,154,158);fill-rule:nonzero;"/>
            <path d="M2015.8,1686.44L2018,1685.17L2015.8,1683.9L2013.6,1685.17L2015.8,1686.44Z" style="fill:rgb(150,154,158);fill-rule:nonzero;"/>
            <path d="M2014.8,1696.57L2012.6,1695.3L2010.4,1696.57L2012.6,1697.84L2014.8,1696.57Z" style="fill:rgb(150,154,158);fill-rule:nonzero;"/>
            <path d="M2012.6,1702.9L2010.4,1704.17L2012.6,1705.44L2014.8,1704.17L2012.6,1702.9Z" style="fill:rgb(150,154,158);fill-rule:nonzero;"/>
            <path d="M2018,1700.37L2015.8,1699.1L2013.6,1700.37L2015.8,1701.64L2018,1700.37Z" style="fill:rgb(150,154,158);fill-rule:nonzero;"/>
            <path d="M2013.68,1711.13L2012.6,1710.5L2010.4,1711.77L2011.78,1712.57L2013.68,1711.13Z" style="fill:rgb(150,154,158);fill-rule:nonzero;"/>
            <path d="M2017.31,1708.37L2017.9,1707.92L2015.8,1706.7L2013.6,1707.97L2015.8,1709.24L2017.31,1708.37Z" style="fill:rgb(150,154,158);fill-rule:nonzero;"/>
            <path d="M2007.2,1685.17L2009.4,1686.44L2011.6,1685.17L2009.4,1683.9L2007.2,1685.17Z" style="fill:rgb(150,154,158);fill-rule:nonzero;"/>
            <path d="M2006.2,1682.64L2008.4,1681.37L2006.2,1680.1L2004,1681.37L2006.2,1682.64Z" style="fill:rgb(150,154,158);fill-rule:nonzero;"/>
            <path d="M2010.04,1678.47L2007.56,1677.36L2007.2,1677.57L2009.4,1678.84L2010.04,1678.47Z" style="fill:rgb(150,154,158);fill-rule:nonzero;"/>
            <path d="M2004,1688.97L2006.2,1690.24L2008.4,1688.97L2006.2,1687.7L2004,1688.97Z" style="fill:rgb(150,154,158);fill-rule:nonzero;"/>
            <path d="M2009.4,1699.1L2007.2,1700.37L2009.4,1701.64L2011.6,1700.37L2009.4,1699.1Z" style="fill:rgb(150,154,158);fill-rule:nonzero;"/>
            <path d="M2004,1696.57L2006.2,1697.84L2008.4,1696.57L2006.2,1695.3L2004,1696.57Z" style="fill:rgb(150,154,158);fill-rule:nonzero;"/>
            <path d="M2007.2,1692.77L2009.4,1694.04L2011.6,1692.77L2009.4,1691.5L2007.2,1692.77Z" style="fill:rgb(150,154,158);fill-rule:nonzero;"/>
            <path d="M2008.4,1704.17L2006.2,1702.9L2004,1704.17L2006.2,1705.44L2008.4,1704.17Z" style="fill:rgb(150,154,158);fill-rule:nonzero;"/>
            <path d="M2008.4,1711.77L2006.2,1710.5L2004,1711.77L2006.2,1713.04L2008.4,1711.77Z" style="fill:rgb(150,154,158);fill-rule:nonzero;"/>
            <path d="M2009.4,1706.7L2007.2,1707.97L2009.4,1709.24L2011.6,1707.97L2009.4,1706.7Z" style="fill:rgb(150,154,158);fill-rule:nonzero;"/>
            <path d="M2009.46,1714.34L2009.4,1714.3L2007.2,1715.57L2007.56,1715.78L2009.46,1714.34Z" style="fill:rgb(150,154,158);fill-rule:nonzero;"/>
            <path d="M2000.91,1674.4L1998.43,1673.29L1997.6,1673.77L1999.8,1675.04L2000.91,1674.4Z" style="fill:rgb(150,154,158);fill-rule:nonzero;"/>
            <path d="M1997.6,1681.37L1999.8,1682.64L2002,1681.37L1999.8,1680.1L1997.6,1681.37Z" style="fill:rgb(150,154,158);fill-rule:nonzero;"/>
            <path d="M2003,1678.84L2005.2,1677.57L2003,1676.3L2000.8,1677.57L2003,1678.84Z" style="fill:rgb(150,154,158);fill-rule:nonzero;"/>
            <path d="M1997.6,1688.97L1999.8,1690.24L2002,1688.97L1999.8,1687.7L1997.6,1688.97Z" style="fill:rgb(150,154,158);fill-rule:nonzero;"/>
            <path d="M2000.8,1685.17L2003,1686.44L2005.2,1685.17L2003,1683.9L2000.8,1685.17Z" style="fill:rgb(150,154,158);fill-rule:nonzero;"/>
            <path d="M1997.6,1696.57L1999.8,1697.84L2002,1696.57L1999.8,1695.3L1997.6,1696.57Z" style="fill:rgb(150,154,158);fill-rule:nonzero;"/>
            <path d="M2000.8,1692.77L2003,1694.04L2005.2,1692.77L2003,1691.5L2000.8,1692.77Z" style="fill:rgb(150,154,158);fill-rule:nonzero;"/>
            <path d="M1997.6,1704.17L1999.8,1705.44L2002,1704.17L1999.8,1702.9L1997.6,1704.17Z" style="fill:rgb(150,154,158);fill-rule:nonzero;"/>
            <path d="M2000.8,1700.37L2003,1701.64L2005.2,1700.37L2003,1699.1L2000.8,1700.37Z" style="fill:rgb(150,154,158);fill-rule:nonzero;"/>
            <path d="M2002,1711.77L1999.8,1710.5L1997.6,1711.77L1999.8,1713.04L2002,1711.77Z" style="fill:rgb(150,154,158);fill-rule:nonzero;"/>
            <path d="M2005.2,1707.97L2003,1706.7L2000.8,1707.97L2003,1709.24L2005.2,1707.97Z" style="fill:rgb(150,154,158);fill-rule:nonzero;"/>
            <path d="M2002,1719.37L1999.8,1718.1L1997.6,1719.37L1999.8,1720.64L2002,1719.37Z" style="fill:rgb(150,154,158);fill-rule:nonzero;"/>
            <path d="M2005.2,1715.57L2003,1714.3L2000.8,1715.57L2003,1716.84L2005.2,1715.57Z" style="fill:rgb(150,154,158);fill-rule:nonzero;"/>
            <path d="M1998.25,1722.85L1996.6,1721.9L1994.4,1723.17L1996.35,1724.3L1998.25,1722.85Z" style="fill:rgb(150,154,158);fill-rule:nonzero;"/>
            <path d="M1993.4,1675.04L1995.6,1673.77L1993.4,1672.5L1991.2,1673.77L1993.4,1675.04Z" style="fill:rgb(150,154,158);fill-rule:nonzero;"/>
            <path d="M1991.2,1681.37L1993.4,1682.64L1995.6,1681.37L1993.4,1680.1L1991.2,1681.37Z" style="fill:rgb(150,154,158);fill-rule:nonzero;"/>
            <path d="M1996.6,1678.84L1998.8,1677.57L1996.6,1676.3L1994.4,1677.57L1996.6,1678.84Z" style="fill:rgb(150,154,158);fill-rule:nonzero;"/>
            <path d="M1991.2,1688.97L1993.4,1690.24L1995.6,1688.97L1993.4,1687.7L1991.2,1688.97Z" style="fill:rgb(150,154,158);fill-rule:nonzero;"/>
            <path d="M1994.4,1685.17L1996.6,1686.44L1998.8,1685.17L1996.6,1683.9L1994.4,1685.17Z" style="fill:rgb(150,154,158);fill-rule:nonzero;"/>
            <path d="M1991.2,1696.57L1993.4,1697.84L1995.6,1696.57L1993.4,1695.3L1991.2,1696.57Z" style="fill:rgb(150,154,158);fill-rule:nonzero;"/>
            <path d="M1994.4,1692.77L1996.6,1694.04L1998.8,1692.77L1996.6,1691.5L1994.4,1692.77Z" style="fill:rgb(150,154,158);fill-rule:nonzero;"/>
            <path d="M1995.6,1704.17L1993.4,1702.9L1991.2,1704.17L1993.4,1705.44L1995.6,1704.17Z" style="fill:rgb(150,154,158);fill-rule:nonzero;"/>
            <path d="M1994.4,1700.37L1996.6,1701.64L1998.8,1700.37L1996.6,1699.1L1994.4,1700.37Z" style="fill:rgb(150,154,158);fill-rule:nonzero;"/>
            <path d="M1995.6,1711.77L1993.4,1710.5L1991.2,1711.77L1993.4,1713.04L1995.6,1711.77Z" style="fill:rgb(150,154,158);fill-rule:nonzero;"/>
            <path d="M1998.8,1707.97L1996.6,1706.7L1994.4,1707.97L1996.6,1709.24L1998.8,1707.97Z" style="fill:rgb(150,154,158);fill-rule:nonzero;"/>
            <path d="M1995.6,1719.37L1993.4,1718.1L1991.2,1719.37L1993.4,1720.64L1995.6,1719.37Z" style="fill:rgb(150,154,158);fill-rule:nonzero;"/>
            <path d="M1998.8,1715.57L1996.6,1714.3L1994.4,1715.57L1996.6,1716.84L1998.8,1715.57Z" style="fill:rgb(150,154,158);fill-rule:nonzero;"/>
            <path d="M1987,1675.04L1989.2,1673.77L1987,1672.5L1984.8,1673.77L1987,1675.04Z" style="fill:rgb(150,154,158);fill-rule:nonzero;"/>
            <path d="M1991.78,1670.33L1989.3,1669.22L1988,1669.97L1990.2,1671.24L1991.78,1670.33Z" style="fill:rgb(150,154,158);fill-rule:nonzero;"/>
            <path d="M1984.8,1681.37L1987,1682.64L1989.2,1681.37L1987,1680.1L1984.8,1681.37Z" style="fill:rgb(150,154,158);fill-rule:nonzero;"/>
            <path d="M1988,1677.57L1990.2,1678.84L1992.4,1677.57L1990.2,1676.3L1988,1677.57Z" style="fill:rgb(150,154,158);fill-rule:nonzero;"/>
            <path d="M1984.8,1688.97L1987,1690.24L1989.2,1688.97L1987,1687.7L1984.8,1688.97Z" style="fill:rgb(150,154,158);fill-rule:nonzero;"/>
            <path d="M1988,1685.17L1990.2,1686.44L1992.4,1685.17L1990.2,1683.9L1988,1685.17Z" style="fill:rgb(150,154,158);fill-rule:nonzero;"/>
            <path d="M1989.2,1696.57L1987,1695.3L1984.8,1696.57L1987,1697.84L1989.2,1696.57Z" style="fill:rgb(150,154,158);fill-rule:nonzero;"/>
            <path d="M1988,1692.77L1990.2,1694.04L1992.4,1692.77L1990.2,1691.5L1988,1692.77Z" style="fill:rgb(150,154,158);fill-rule:nonzero;"/>
            <path d="M1989.2,1704.17L1987,1702.9L1984.8,1704.17L1987,1705.44L1989.2,1704.17Z" style="fill:rgb(150,154,158);fill-rule:nonzero;"/>
            <path d="M1992.4,1700.37L1990.2,1699.1L1988,1700.37L1990.2,1701.64L1992.4,1700.37Z" style="fill:rgb(150,154,158);fill-rule:nonzero;"/>
            <path d="M1989.2,1711.77L1987,1710.5L1984.8,1711.77L1987,1713.04L1989.2,1711.77Z" style="fill:rgb(150,154,158);fill-rule:nonzero;"/>
            <path d="M1992.4,1707.97L1990.2,1706.7L1988,1707.97L1990.2,1709.24L1992.4,1707.97Z" style="fill:rgb(150,154,158);fill-rule:nonzero;"/>
            <path d="M1986.19,1718.57L1987.92,1720.11L1989.2,1719.37L1987,1718.1L1986.19,1718.57Z" style="fill:rgb(150,154,158);fill-rule:nonzero;"/>
            <path d="M1992.4,1715.57L1990.2,1714.3L1988,1715.57L1990.2,1716.84L1992.4,1715.57Z" style="fill:rgb(150,154,158);fill-rule:nonzero;"/>
            <path d="M1992.4,1723.17L1990.2,1721.9L1990.04,1721.99L1991.78,1723.53L1992.4,1723.17Z" style="fill:rgb(150,154,158);fill-rule:nonzero;"/>
            <path d="M1982.65,1666.26L1980.17,1665.15L1978.4,1666.17L1980.6,1667.44L1982.65,1666.26Z" style="fill:rgb(150,154,158);fill-rule:nonzero;"/>
            <path d="M1978.4,1673.77L1980.6,1675.04L1982.8,1673.77L1980.6,1672.5L1978.4,1673.77Z" style="fill:rgb(150,154,158);fill-rule:nonzero;"/>
            <path d="M1983.8,1671.24L1986,1669.97L1983.8,1668.7L1981.6,1669.97L1983.8,1671.24Z" style="fill:rgb(150,154,158);fill-rule:nonzero;"/>
            <path d="M1978.4,1681.37L1980.6,1682.64L1982.8,1681.37L1980.6,1680.1L1978.4,1681.37Z" style="fill:rgb(150,154,158);fill-rule:nonzero;"/>
            <path d="M1981.6,1677.57L1983.8,1678.84L1986,1677.57L1983.8,1676.3L1981.6,1677.57Z" style="fill:rgb(150,154,158);fill-rule:nonzero;"/>
            <path d="M1978.4,1688.97L1980.6,1690.24L1982.8,1688.97L1980.6,1687.7L1978.4,1688.97Z" style="fill:rgb(150,154,158);fill-rule:nonzero;"/>
            <path d="M1981.6,1685.17L1983.8,1686.44L1986,1685.17L1983.8,1683.9L1981.6,1685.17Z" style="fill:rgb(150,154,158);fill-rule:nonzero;"/>
            <path d="M1982.8,1696.57L1980.6,1695.3L1978.4,1696.57L1980.6,1697.84L1982.8,1696.57Z" style="fill:rgb(150,154,158);fill-rule:nonzero;"/>
            <path d="M1986,1692.77L1983.8,1691.5L1981.6,1692.77L1983.8,1694.04L1986,1692.77Z" style="fill:rgb(150,154,158);fill-rule:nonzero;"/>
            <path d="M1982.8,1704.17L1980.6,1702.9L1978.4,1704.17L1980.6,1705.44L1982.8,1704.17Z" style="fill:rgb(150,154,158);fill-rule:nonzero;"/>
            <path d="M1986,1700.37L1983.8,1699.1L1981.6,1700.37L1983.8,1701.64L1986,1700.37Z" style="fill:rgb(150,154,158);fill-rule:nonzero;"/>
            <path d="M1982.34,1715.14L1984.07,1716.68L1986,1715.57L1983.8,1714.3L1982.34,1715.14Z" style="fill:rgb(150,154,158);fill-rule:nonzero;"/>
            <path d="M1980.6,1710.5L1978.49,1711.72L1978.82,1712.02L1980.6,1713.04L1982.8,1711.77L1980.6,1710.5Z" style="fill:rgb(150,154,158);fill-rule:nonzero;"/>
            <path d="M1986,1707.97L1983.8,1706.7L1981.6,1707.97L1983.8,1709.24L1986,1707.97Z" style="fill:rgb(150,154,158);fill-rule:nonzero;"/>
            <path d="M1976.4,1666.17L1974.2,1664.9L1972,1666.17L1974.2,1667.44L1976.4,1666.17Z" style="fill:rgb(150,154,158);fill-rule:nonzero;"/>
            <path d="M1972,1673.77L1974.2,1675.04L1976.4,1673.77L1974.2,1672.5L1972,1673.77Z" style="fill:rgb(150,154,158);fill-rule:nonzero;"/>
            <path d="M1977.4,1671.24L1979.6,1669.97L1977.4,1668.7L1975.2,1669.97L1977.4,1671.24Z" style="fill:rgb(150,154,158);fill-rule:nonzero;"/>
            <path d="M1974.2,1682.64L1976.4,1681.37L1974.2,1680.1L1972,1681.37L1974.2,1682.64Z" style="fill:rgb(150,154,158);fill-rule:nonzero;"/>
            <path d="M1975.2,1677.57L1977.4,1678.84L1979.6,1677.57L1977.4,1676.3L1975.2,1677.57Z" style="fill:rgb(150,154,158);fill-rule:nonzero;"/>
            <path d="M1972,1688.97L1974.2,1690.24L1976.4,1688.97L1974.2,1687.7L1972,1688.97Z" style="fill:rgb(150,154,158);fill-rule:nonzero;"/>
            <path d="M1975.2,1685.17L1977.4,1686.44L1979.6,1685.17L1977.4,1683.9L1975.2,1685.17Z" style="fill:rgb(150,154,158);fill-rule:nonzero;"/>
            <path d="M1976.4,1696.57L1974.2,1695.3L1972,1696.57L1974.2,1697.84L1976.4,1696.57Z" style="fill:rgb(150,154,158);fill-rule:nonzero;"/>
            <path d="M1979.6,1692.77L1977.4,1691.5L1975.2,1692.77L1977.4,1694.04L1979.6,1692.77Z" style="fill:rgb(150,154,158);fill-rule:nonzero;"/>
            <path d="M1974.2,1702.9L1972,1704.17L1974.2,1705.44L1976.4,1704.17L1974.2,1702.9Z" style="fill:rgb(150,154,158);fill-rule:nonzero;"/>
            <path d="M1979.6,1700.37L1977.4,1699.1L1975.2,1700.37L1977.4,1701.64L1979.6,1700.37Z" style="fill:rgb(150,154,158);fill-rule:nonzero;"/>
            <path d="M1977.4,1706.7L1975.2,1707.97L1977.4,1709.24L1979.6,1707.97L1977.4,1706.7Z" style="fill:rgb(150,154,158);fill-rule:nonzero;"/>
            <path d="M1972.65,1662.06L1972.41,1662.82L1973.2,1662.37L1972.65,1662.06Z" style="fill:rgb(150,154,158);fill-rule:nonzero;"/>
            <path d="M1969.19,1673.3L1968.84,1674.44L1970,1673.77L1969.19,1673.3Z" style="fill:rgb(150,154,158);fill-rule:nonzero;"/>
            <path d="M1973.2,1669.97L1971,1668.7L1970.52,1668.98L1970,1670.67L1971,1671.24L1973.2,1669.97Z" style="fill:rgb(150,154,158);fill-rule:nonzero;"/>
            <path d="M1970,1681.37L1967.8,1680.1L1966.95,1680.59L1966.54,1681.91L1967.8,1682.64L1970,1681.37Z" style="fill:rgb(150,154,158);fill-rule:nonzero;"/>
            <path d="M1973.2,1677.57L1971,1676.3L1968.8,1677.57L1971,1678.84L1973.2,1677.57Z" style="fill:rgb(150,154,158);fill-rule:nonzero;"/>
            <path d="M1965.6,1688.97L1967.8,1690.24L1970,1688.97L1967.8,1687.7L1965.6,1688.97Z" style="fill:rgb(150,154,158);fill-rule:nonzero;"/>
            <path d="M1968.8,1685.17L1971,1686.44L1973.2,1685.17L1971,1683.9L1968.8,1685.17Z" style="fill:rgb(150,154,158);fill-rule:nonzero;"/>
            <path d="M1971,1699.1L1968.8,1700.37L1971,1701.64L1973.2,1700.37L1971,1699.1Z" style="fill:rgb(150,154,158);fill-rule:nonzero;"/>
            <path d="M1967.8,1695.3L1965.6,1696.57L1967.8,1697.84L1970,1696.57L1967.8,1695.3Z" style="fill:rgb(150,154,158);fill-rule:nonzero;"/>
            <path d="M1973.2,1692.77L1971,1691.5L1968.8,1692.77L1971,1694.04L1973.2,1692.77Z" style="fill:rgb(150,154,158);fill-rule:nonzero;"/>
            <path d="M1965.73,1684.55L1965.26,1686.06L1966.8,1685.17L1965.73,1684.55Z" style="fill:rgb(150,154,158);fill-rule:nonzero;"/>
            <path d="M1966.8,1692.77L1964.6,1691.5L1963.37,1692.21L1963.08,1693.16L1964.6,1694.04L1966.8,1692.77Z" style="fill:rgb(150,154,158);fill-rule:nonzero;"/>
            <path d="M1964.41,1699.21L1966.15,1700.75L1966.8,1700.37L1964.6,1699.1L1964.41,1699.21Z" style="fill:rgb(150,154,158);fill-rule:nonzero;"/>
            <path d="M1961.9,1696.98L1962.29,1697.32L1963.6,1696.57L1962.27,1695.8L1961.9,1696.98Z" style="fill:rgb(150,154,158);fill-rule:nonzero;"/>
            <path d="M2020.31,1746.15L2021.5,1745.1L2020,1745.97L2020.31,1746.15Z" style="fill:rgb(150,154,158);fill-rule:nonzero;"/>
            <path d="M2017.89,1741.54L2016.8,1742.17L2019,1743.44L2020.56,1742.54L2017.89,1741.54Z" style="fill:rgb(150,154,158);fill-rule:nonzero;"/>
            <path d="M2013.6,1745.97L2015.8,1747.24L2018,1745.97L2015.8,1744.7L2013.6,1745.97Z" style="fill:rgb(150,154,158);fill-rule:nonzero;"/>
            <path d="M2014.8,1742.17L2012.6,1740.9L2010.4,1742.17L2012.6,1743.44L2014.8,1742.17Z" style="fill:rgb(150,154,158);fill-rule:nonzero;"/>
            <path d="M2010.4,1749.77L2012.6,1751.04L2014.8,1749.77L2012.6,1748.5L2010.4,1749.77Z" style="fill:rgb(150,154,158);fill-rule:nonzero;"/>
            <path d="M2008.4,1742.17L2006.2,1740.9L2004,1742.17L2006.2,1743.44L2008.4,1742.17Z" style="fill:rgb(150,154,158);fill-rule:nonzero;"/>
            <path d="M2010.74,1738.87L2008.07,1737.87L2007.2,1738.37L2009.4,1739.64L2010.74,1738.87Z" style="fill:rgb(150,154,158);fill-rule:nonzero;"/>
            <path d="M2008.4,1749.77L2006.2,1748.5L2004,1749.77L2006.2,1751.04L2008.4,1749.77Z" style="fill:rgb(150,154,158);fill-rule:nonzero;"/>
            <path d="M2011.6,1745.97L2009.4,1744.7L2007.2,1745.97L2009.4,1747.24L2011.6,1745.97Z" style="fill:rgb(150,154,158);fill-rule:nonzero;"/>
            <path d="M2004,1757.37L2006.19,1758.64L2007.93,1757.1L2006.2,1756.1L2004,1757.37Z" style="fill:rgb(150,154,158);fill-rule:nonzero;"/>
            <path d="M2007.2,1753.57L2009.4,1754.84L2011.6,1753.57L2009.4,1752.3L2007.2,1753.57Z" style="fill:rgb(150,154,158);fill-rule:nonzero;"/>
            <path d="M1997.6,1734.57L1999.8,1735.84L2000.92,1735.2L1998.24,1734.2L1997.6,1734.57Z" style="fill:rgb(150,154,158);fill-rule:nonzero;"/>
            <path d="M2002,1742.17L1999.8,1740.9L1997.6,1742.17L1999.8,1743.44L2002,1742.17Z" style="fill:rgb(150,154,158);fill-rule:nonzero;"/>
            <path d="M2005.2,1738.37L2003,1737.1L2000.8,1738.37L2003,1739.64L2005.2,1738.37Z" style="fill:rgb(150,154,158);fill-rule:nonzero;"/>
            <path d="M1999.8,1751.04L2002,1749.77L1999.8,1748.5L1997.6,1749.77L1999.8,1751.04Z" style="fill:rgb(150,154,158);fill-rule:nonzero;"/>
            <path d="M2003,1747.24L2005.2,1745.97L2003,1744.7L2000.8,1745.97L2003,1747.24Z" style="fill:rgb(150,154,158);fill-rule:nonzero;"/>
            <path d="M2000.8,1761.17L2002.33,1762.05L2004.07,1760.52L2003,1759.9L2000.8,1761.17Z" style="fill:rgb(150,154,158);fill-rule:nonzero;"/>
            <path d="M2002,1757.37L1999.8,1756.1L1997.6,1757.37L1999.8,1758.64L2002,1757.37Z" style="fill:rgb(150,154,158);fill-rule:nonzero;"/>
            <path d="M2005.2,1753.57L2003,1752.3L2000.8,1753.57L2003,1754.84L2005.2,1753.57Z" style="fill:rgb(150,154,158);fill-rule:nonzero;"/>
            <path d="M1999.27,1764C1999.44,1764.36 1999.56,1764.54 1999.61,1764.45L2000.2,1763.93L1999.8,1763.7L1999.27,1764Z" style="fill:rgb(150,154,158);fill-rule:nonzero;"/>
            <path d="M1995.6,1734.57L1993.4,1733.3L1991.2,1734.57L1993.4,1735.84L1995.6,1734.57Z" style="fill:rgb(150,154,158);fill-rule:nonzero;"/>
            <path d="M1993.4,1740.9L1992.33,1741.52L1992.78,1743.09L1993.4,1743.44L1995.6,1742.17L1993.4,1740.9Z" style="fill:rgb(150,154,158);fill-rule:nonzero;"/>
            <path d="M1996.6,1739.64L1998.8,1738.37L1996.6,1737.1L1994.4,1738.37L1996.6,1739.64Z" style="fill:rgb(150,154,158);fill-rule:nonzero;"/>
            <path d="M1994.85,1750.2L1995.6,1749.77L1994.54,1749.16L1994.85,1750.2Z" style="fill:rgb(150,154,158);fill-rule:nonzero;"/>
            <path d="M1998.8,1745.97L1996.6,1744.7L1994.4,1745.97L1996.6,1747.24L1998.8,1745.97Z" style="fill:rgb(150,154,158);fill-rule:nonzero;"/>
            <path d="M1996.6,1752.3L1995.64,1752.86C1995.81,1753.45 1995.98,1754.02 1996.15,1754.59L1996.6,1754.84L1998.8,1753.57L1996.6,1752.3Z" style="fill:rgb(150,154,158);fill-rule:nonzero;"/>
            <path d="M1998.32,1761.45L1998.8,1761.17L1998.08,1760.76C1998.16,1761 1998.24,1761.23 1998.32,1761.45Z" style="fill:rgb(150,154,158);fill-rule:nonzero;"/>
            <path d="M1989.56,1731.67L1990.2,1732.04L1991.09,1731.52L1989.33,1730.87L1989.56,1731.67Z" style="fill:rgb(150,154,158);fill-rule:nonzero;"/>
            <path d="M1991.25,1737.71L1991.58,1738.85L1992.4,1738.37L1991.25,1737.71Z" style="fill:rgb(150,154,158);fill-rule:nonzero;"/>
            <path d="M2056.84,1672.82L2055.2,1673.77L2057.4,1675.04L2059.51,1673.82L2056.84,1672.82Z" style="fill:rgb(150,154,158);fill-rule:nonzero;"/>
            <path d="M2052,1677.57L2054.2,1678.84L2054.87,1678.46L2056.08,1677.39L2054.2,1676.3L2052,1677.57Z" style="fill:rgb(150,154,158);fill-rule:nonzero;"/>
            <path d="M2051,1675.04L2053.2,1673.77L2051,1672.5L2048.8,1673.77L2051,1675.04Z" style="fill:rgb(150,154,158);fill-rule:nonzero;"/>
            <path d="M2048.8,1681.37L2050.47,1682.34L2052.21,1680.8L2051,1680.1L2048.8,1681.37Z" style="fill:rgb(150,154,158);fill-rule:nonzero;"/>
            <path d="M2044.6,1675.04L2046.8,1673.77L2044.6,1672.5L2042.4,1673.77L2044.6,1675.04Z" style="fill:rgb(150,154,158);fill-rule:nonzero;"/>
            <path d="M2049.69,1670.15L2047.02,1669.15L2045.6,1669.97L2047.8,1671.24L2049.69,1670.15Z" style="fill:rgb(150,154,158);fill-rule:nonzero;"/>
            <path d="M2045.6,1685.17L2046.61,1685.76L2048.35,1684.22L2047.8,1683.9L2045.6,1685.17Z" style="fill:rgb(150,154,158);fill-rule:nonzero;"/>
            <path d="M2044.6,1680.1L2042.4,1681.37L2044.6,1682.64L2046.8,1681.37L2044.6,1680.1Z" style="fill:rgb(150,154,158);fill-rule:nonzero;"/>
            <path d="M2045.6,1677.57L2047.8,1678.84L2050,1677.57L2047.8,1676.3L2045.6,1677.57Z" style="fill:rgb(150,154,158);fill-rule:nonzero;"/>
            <path d="M2042.74,1689.17L2044.05,1688.02L2042.4,1688.97L2042.74,1689.17Z" style="fill:rgb(150,154,158);fill-rule:nonzero;"/>
            <path d="M2039.86,1666.48L2037.19,1665.48L2036,1666.17L2038.2,1667.44L2039.86,1666.48Z" style="fill:rgb(150,154,158);fill-rule:nonzero;"/>
            <path d="M2040.4,1673.77L2038.2,1672.5L2036,1673.77L2038.2,1675.04L2040.4,1673.77Z" style="fill:rgb(150,154,158);fill-rule:nonzero;"/>
            <path d="M2041.4,1671.24L2043.6,1669.97L2041.4,1668.7L2039.2,1669.97L2041.4,1671.24Z" style="fill:rgb(150,154,158);fill-rule:nonzero;"/>
            <path d="M2041.4,1683.9L2039.2,1685.17L2041.4,1686.44L2043.6,1685.17L2041.4,1683.9Z" style="fill:rgb(150,154,158);fill-rule:nonzero;"/>
            <path d="M2040.4,1681.37L2038.2,1680.1L2036,1681.37L2038.2,1682.64L2040.4,1681.37Z" style="fill:rgb(150,154,158);fill-rule:nonzero;"/>
            <path d="M2043.6,1677.57L2041.4,1676.3L2039.2,1677.57L2041.4,1678.84L2043.6,1677.57Z" style="fill:rgb(150,154,158);fill-rule:nonzero;"/>
            <path d="M2036,1688.97L2038.2,1690.24L2040.4,1688.97L2038.2,1687.7L2036,1688.97Z" style="fill:rgb(150,154,158);fill-rule:nonzero;"/>
            <path d="M2031.8,1667.44L2034,1666.17L2031.8,1664.9L2029.6,1666.17L2031.8,1667.44Z" style="fill:rgb(150,154,158);fill-rule:nonzero;"/>
            <path d="M2034,1673.77L2031.8,1672.5L2029.6,1673.77L2031.8,1675.04L2034,1673.77Z" style="fill:rgb(150,154,158);fill-rule:nonzero;"/>
            <path d="M2035,1671.24L2037.2,1669.97L2035,1668.7L2032.8,1669.97L2035,1671.24Z" style="fill:rgb(150,154,158);fill-rule:nonzero;"/>
            <path d="M2034,1681.37L2031.8,1680.1L2031.43,1680.32L2032.07,1682.49L2034,1681.37Z" style="fill:rgb(150,154,158);fill-rule:nonzero;"/>
            <path d="M2037.2,1677.57L2035,1676.3L2032.8,1677.57L2035,1678.84L2037.2,1677.57Z" style="fill:rgb(150,154,158);fill-rule:nonzero;"/>
            <path d="M2032,1690.12C2031.69,1689.46 2031.28,1688.84 2030.76,1688.3L2029.6,1688.97L2031.8,1690.24L2032,1690.12Z" style="fill:rgb(150,154,158);fill-rule:nonzero;"/>
            <path d="M2037.2,1685.17L2035,1683.9L2032.86,1685.14L2032.89,1685.22L2035,1686.44L2037.2,1685.17Z" style="fill:rgb(150,154,158);fill-rule:nonzero;"/>
            <path d="M2029.6,1696.57L2031.21,1697.5C2031.68,1696.91 2032.03,1696.26 2032.27,1695.58L2031.8,1695.3L2029.6,1696.57Z" style="fill:rgb(150,154,158);fill-rule:nonzero;"/>
            <path d="M2034.88,1691.57C2035.16,1692.41 2035.42,1693.13 2035.63,1693.68L2037.2,1692.77L2035,1691.5L2034.88,1691.57Z" style="fill:rgb(150,154,158);fill-rule:nonzero;"/>
            <path d="M2027.6,1666.17L2027.32,1666.01L2027.4,1666.29L2027.6,1666.17Z" style="fill:rgb(150,154,158);fill-rule:nonzero;"/>
            <path d="M2030.04,1662.81L2027.37,1661.81L2026.4,1662.37L2028.6,1663.64L2030.04,1662.81Z" style="fill:rgb(150,154,158);fill-rule:nonzero;"/>
            <path d="M2028.15,1668.96L2028.77,1671.14L2030.8,1669.97L2028.6,1668.7L2028.15,1668.96Z" style="fill:rgb(150,154,158);fill-rule:nonzero;"/>
            <path d="M2030.8,1677.57L2030.59,1677.45L2030.65,1677.66L2030.8,1677.57Z" style="fill:rgb(150,154,158);fill-rule:nonzero;"/>
            <path d="M2028.6,1694.04L2030.8,1692.77L2028.6,1691.5L2026.4,1692.77L2028.6,1694.04Z" style="fill:rgb(150,154,158);fill-rule:nonzero;"/>
            <path d="M2025.4,1690.24L2027.6,1688.97L2025.4,1687.7L2023.2,1688.97L2025.4,1690.24Z" style="fill:rgb(150,154,158);fill-rule:nonzero;"/>
            <path d="M2024.4,1685.17L2022.2,1683.9L2020,1685.17L2022.2,1686.44L2024.4,1685.17Z" style="fill:rgb(150,154,158);fill-rule:nonzero;"/>
            <path d="M2026.4,1700.37L2027.21,1700.84L2029.11,1699.4L2028.6,1699.1L2026.4,1700.37Z" style="fill:rgb(150,154,158);fill-rule:nonzero;"/>
            <path d="M2025.4,1695.3L2023.2,1696.57L2025.4,1697.84L2027.6,1696.57L2025.4,1695.3Z" style="fill:rgb(150,154,158);fill-rule:nonzero;"/>
            <path d="M2020,1700.37L2022.2,1701.64L2024.4,1700.37L2022.2,1699.1L2020,1700.37Z" style="fill:rgb(150,154,158);fill-rule:nonzero;"/>
            <path d="M2024.4,1692.77L2022.2,1691.5L2020,1692.77L2022.2,1694.04L2024.4,1692.77Z" style="fill:rgb(150,154,158);fill-rule:nonzero;"/>
            <path d="M2054.51,1728.37C2055.97,1730.18 2054.62,1732.34 2051.47,1733.19C2048.33,1734.04 2044.59,1733.26 2043.13,1731.44C2041.66,1729.62 2043.02,1727.47 2046.16,1726.63C2049.31,1725.78 2053.04,1726.56 2054.51,1728.37Z" style="fill:white;fill-rule:nonzero;"/>
            <path d="M2035.19,1662.63L2035.19,1694.02L2014.41,1711.46L2014.41,1680.07L2035.19,1662.63Z" style="fill:rgb(194,199,204);fill-rule:nonzero;"/>
            <path d="M2035.19,1662.63L2014.41,1680.07L1983.43,1668.78L2004.2,1651.34L2035.19,1662.63Z" style="fill:white;fill-rule:nonzero;"/>
            <path d="M2014.41,1680.07L2014.41,1711.46L1983.43,1700.17L1983.43,1668.78L2014.41,1680.07Z" style="fill:rgb(95,100,107);fill-rule:nonzero;"/>
            <path d="M1984.68,1699.3L2013.17,1709.67L2013.17,1680.94L1984.68,1670.57L1984.68,1699.3ZM2014.42,1712.71C2014.27,1712.71 2014.13,1712.68 2013.99,1712.63L1983,1701.35C1982.5,1701.17 1982.18,1700.7 1982.18,1700.17L1982.18,1668.78C1982.18,1668.37 1982.38,1667.99 1982.71,1667.76C1983.04,1667.52 1983.47,1667.47 1983.85,1667.61L2014.84,1678.89C2015.34,1679.07 2015.67,1679.54 2015.67,1680.07L2015.67,1711.46C2015.67,1711.86 2015.47,1712.25 2015.13,1712.48C2014.92,1712.63 2014.67,1712.71 2014.42,1712.71Z" style="fill:rgb(55,58,58);fill-rule:nonzero;"/>
            <path d="M2014.42,1681.32C2014.06,1681.32 2013.71,1681.16 2013.46,1680.87C2013.01,1680.34 2013.08,1679.55 2013.61,1679.11L2034.39,1661.67C2034.92,1661.23 2035.71,1661.3 2036.15,1661.83C2036.59,1662.35 2036.53,1663.14 2036,1663.59L2015.22,1681.02C2014.98,1681.22 2014.7,1681.32 2014.42,1681.32Z" style="fill:rgb(55,58,58);fill-rule:nonzero;"/>
            <path d="M2014.42,1712.71C2014.06,1712.71 2013.71,1712.55 2013.46,1712.26C2013.01,1711.73 2013.08,1710.94 2013.61,1710.5L2033.94,1693.44L2033.94,1663.5L2004.46,1652.77L1984.23,1669.74C1983.7,1670.18 1982.91,1670.11 1982.47,1669.59C1982.02,1669.06 1982.09,1668.27 1982.62,1667.82L2003.4,1650.39C2003.74,1650.1 2004.21,1650.01 2004.63,1650.17L2035.62,1661.45C2036.12,1661.63 2036.44,1662.1 2036.44,1662.63L2036.44,1694.02C2036.44,1694.39 2036.28,1694.74 2036,1694.98L2015.22,1712.41C2014.98,1712.61 2014.7,1712.71 2014.42,1712.71Z" style="fill:rgb(55,58,58);fill-rule:nonzero;"/>
            <path d="M2048.82,1727.53C2048.21,1727.53 2047.67,1727.08 2047.59,1726.46L2045.14,1709.55L2025.97,1702.57C2025.32,1702.34 2024.98,1701.62 2025.22,1700.97C2025.45,1700.32 2026.17,1699.99 2026.82,1700.22L2046.7,1707.46C2047.13,1707.62 2047.44,1708 2047.51,1708.46L2050.06,1726.1C2050.16,1726.78 2049.68,1727.42 2049,1727.52L2048.82,1727.53Z" style="fill:rgb(255,97,0);fill-rule:nonzero;"/>
            <path d="M2048.8,1727.54C2048.04,1727.54 2047.26,1727.63 2046.49,1727.83C2044.81,1728.28 2044.01,1729.08 2043.83,1729.63C2043.79,1729.75 2043.67,1730.13 2044.1,1730.66C2045.11,1731.91 2048.25,1732.76 2051.14,1731.98C2052.82,1731.53 2053.62,1730.73 2053.8,1730.18C2053.87,1729.97 2053.92,1729.63 2053.54,1729.16C2052.79,1728.24 2050.9,1727.54 2048.8,1727.54ZM2051.47,1733.19M2048.83,1734.78C2046.08,1734.78 2043.46,1733.84 2042.15,1732.23C2041.33,1731.2 2041.08,1730 2041.46,1728.85C2041.97,1727.28 2043.57,1726.03 2045.84,1725.42C2049.47,1724.44 2053.71,1725.39 2055.48,1727.59C2056.3,1728.61 2056.55,1729.8 2056.18,1730.96C2055.67,1732.53 2054.07,1733.79 2051.79,1734.4C2050.83,1734.66 2049.82,1734.78 2048.83,1734.78Z" style="fill:rgb(255,97,0);fill-rule:nonzero;"/>
            <path d="M1944.8,1684.24C1947.44,1683.66 1949.22,1681.4 1949.22,1678.09C1949.22,1673.12 1945.25,1667.66 1940.36,1665.87C1935.46,1664.1 1931.49,1666.67 1931.49,1671.63C1931.49,1674.95 1933.27,1678.49 1935.91,1681.01L1934.66,1693.35L1946.05,1697.49L1944.8,1684.24ZM1995.04,1643.88L1995.04,1720.83C1995.04,1722.3 1994.27,1723.79 1992.68,1725.09L1985.65,1730.8C1981.58,1734.11 1973.62,1734.9 1967.87,1732.55L1907.03,1707.61C1903.52,1706.18 1901.66,1703.9 1901.66,1701.6L1901.66,1624.65C1901.66,1626.95 1903.52,1629.23 1907.03,1630.67L1967.87,1655.6C1973.62,1657.95 1981.58,1657.17 1985.65,1653.85L1992.68,1648.14C1994.27,1646.84 1995.04,1645.35 1995.04,1643.88Z" style="fill:rgb(150,154,158);fill-rule:nonzero;"/>
            <path d="M1995.04,1643.88C1995.04,1645.35 1994.27,1646.84 1992.68,1648.14L1985.65,1653.85C1981.58,1657.17 1973.62,1657.95 1967.87,1655.6L1907.03,1630.67C1903.52,1629.23 1901.66,1626.95 1901.66,1624.65C1901.66,1623.18 1902.42,1621.69 1904.01,1620.4L1911.04,1614.69C1912.97,1613.11 1915.79,1612.1 1918.84,1611.74L1918.84,1625.38C1918.85,1626.78 1920,1628.14 1922.1,1628.99C1925.58,1630.42 1930.4,1629.94 1932.89,1627.93C1933.85,1627.14 1934.31,1626.25 1934.31,1625.35L1934.31,1615.19L1961.75,1626.43L1961.75,1642.73C1961.74,1642.86 1961.74,1642.99 1961.75,1643.11C1961.86,1644.46 1962.98,1645.74 1965.01,1646.57C1968.49,1648 1973.33,1647.53 1975.8,1645.52C1976.76,1644.73 1977.22,1643.83 1977.22,1642.93L1977.22,1632.78L1989.67,1637.87C1993.17,1639.31 1995.04,1641.58 1995.04,1643.88Z" style="fill:rgb(218,224,229);fill-rule:nonzero;"/>
            <path d="M1977.22,1600.39L1977.22,1642.93C1977.22,1643.83 1976.76,1644.73 1975.8,1645.52C1973.33,1647.53 1968.49,1648 1965.01,1646.57C1962.98,1645.74 1961.85,1644.46 1961.75,1643.11L1961.75,1600.39C1961.75,1590.46 1955.82,1581.61 1946.62,1577.85C1943.83,1576.7 1940.78,1577.01 1938.26,1578.7C1935.75,1580.39 1934.31,1583.09 1934.31,1586.12L1934.31,1625.35C1934.31,1626.25 1933.85,1627.14 1932.89,1627.93C1930.4,1629.94 1925.58,1630.42 1922.1,1628.99C1920,1628.14 1918.85,1626.78 1918.84,1625.38L1918.84,1586.12C1918.84,1577.97 1922.87,1570.39 1929.64,1565.85C1936.4,1561.32 1944.94,1560.45 1952.48,1563.53C1967.51,1569.68 1977.22,1584.15 1977.22,1600.39Z" style="fill:rgb(255,97,0);fill-rule:nonzero;"/>
            <path d="M1961.75,1642.73L1961.75,1643.11C1961.74,1642.99 1961.74,1642.86 1961.75,1642.73Z" style="fill:white;fill-rule:nonzero;"/>
            <path d="M1949.22,1678.09C1949.22,1681.4 1947.44,1683.66 1944.8,1684.24L1946.05,1697.49L1934.66,1693.35L1935.91,1681.01C1933.27,1678.49 1931.49,1674.95 1931.49,1671.63C1931.49,1666.67 1935.46,1664.1 1940.36,1665.87C1945.25,1667.66 1949.22,1673.12 1949.22,1678.09Z" style="fill:rgb(255,97,0);fill-rule:nonzero;"/>
            <path d="M1961.75,1627.68C1961.59,1627.68 1961.43,1627.65 1961.28,1627.59L1933.84,1616.35C1933.2,1616.09 1932.89,1615.36 1933.16,1614.72C1933.42,1614.08 1934.15,1613.77 1934.79,1614.04L1962.22,1625.28C1962.86,1625.54 1963.17,1626.27 1962.91,1626.91C1962.71,1627.39 1962.24,1627.68 1961.75,1627.68Z" style="fill:rgb(55,58,58);fill-rule:nonzero;"/>
            <path d="M1975.26,1658.22C1972.55,1658.22 1969.81,1657.74 1967.4,1656.75L1906.55,1631.82C1902.7,1630.24 1900.41,1627.56 1900.41,1624.65C1900.41,1622.73 1901.38,1620.93 1903.22,1619.43L1910.25,1613.72C1912.29,1612.04 1915.29,1610.9 1918.69,1610.49C1919.38,1610.42 1920,1610.9 1920.08,1611.59C1920.16,1612.27 1919.67,1612.89 1918.99,1612.98C1916.06,1613.33 1913.51,1614.28 1911.83,1615.65L1904.8,1621.37C1903.56,1622.38 1902.91,1623.51 1902.91,1624.65C1902.91,1626.51 1904.62,1628.33 1907.5,1629.51L1968.35,1654.44C1973.7,1656.63 1981.11,1655.93 1984.87,1652.88L1991.89,1647.17C1993.13,1646.16 1993.79,1645.03 1993.79,1643.88C1993.79,1642.02 1992.07,1640.21 1989.19,1639.03L1976.75,1633.93C1976.11,1633.67 1975.8,1632.94 1976.07,1632.3C1976.33,1631.66 1977.06,1631.36 1977.7,1631.62L1990.14,1636.71C1993.99,1638.29 1996.29,1640.97 1996.29,1643.88C1996.29,1645.8 1995.31,1647.61 1993.47,1649.11L1986.44,1654.82C1983.71,1657.04 1979.53,1658.22 1975.26,1658.22Z" style="fill:rgb(55,58,58);fill-rule:nonzero;"/>
            <path d="M1975.26,1735.17C1972.55,1735.17 1969.81,1734.69 1967.4,1733.7L1906.55,1708.77C1902.7,1707.19 1900.41,1704.51 1900.41,1701.6L1900.41,1624.65C1900.41,1623.96 1900.96,1623.4 1901.66,1623.4C1902.35,1623.4 1902.91,1623.96 1902.91,1624.65L1902.91,1701.6C1902.91,1703.46 1904.62,1705.28 1907.5,1706.46L1968.35,1731.39C1973.7,1733.58 1981.11,1732.88 1984.87,1729.83L1991.89,1724.12C1993.13,1723.11 1993.79,1721.97 1993.79,1720.83L1993.79,1643.88C1993.79,1643.19 1994.35,1642.63 1995.04,1642.63C1995.73,1642.63 1996.29,1643.19 1996.29,1643.88L1996.29,1720.83C1996.29,1722.75 1995.31,1724.56 1993.47,1726.06L1986.44,1731.77C1983.71,1733.99 1979.53,1735.17 1975.26,1735.17Z" style="fill:rgb(55,58,58);fill-rule:nonzero;"/>
            <path d="M1969.5,1648.66C1967.79,1648.66 1966.06,1648.35 1964.53,1647.72C1962.13,1646.74 1960.66,1645.1 1960.5,1643.21C1960.49,1643.02 1960.49,1642.81 1960.51,1642.62C1960.57,1641.94 1961.17,1641.44 1961.86,1641.49C1962.55,1641.55 1963.06,1642.16 1963,1642.84L1963,1643.01C1963.07,1643.91 1964,1644.81 1965.48,1645.41C1968.54,1646.67 1972.89,1646.27 1975.01,1644.55C1975.45,1644.19 1975.97,1643.62 1975.97,1642.93L1975.97,1600.39C1975.97,1584.65 1966.57,1570.64 1952.01,1564.69C1944.86,1561.76 1936.76,1562.59 1930.33,1566.89C1923.92,1571.2 1920.09,1578.39 1920.09,1586.12L1920.09,1625.29C1920.09,1625.99 1919.53,1626.54 1918.84,1626.54C1918.15,1626.54 1917.59,1625.99 1917.59,1625.29L1917.59,1586.12C1917.59,1577.55 1921.83,1569.59 1928.94,1564.81C1936.06,1560.05 1945.03,1559.13 1952.95,1562.37C1968.46,1568.71 1978.47,1583.63 1978.47,1600.39L1978.47,1642.93C1978.47,1644.23 1977.8,1645.49 1976.59,1646.49C1974.85,1647.9 1972.2,1648.66 1969.5,1648.66Z" style="fill:rgb(55,58,58);fill-rule:nonzero;"/>
            <path d="M1961.75,1644.36C1961.06,1644.36 1960.5,1643.8 1960.5,1643.11L1960.5,1600.39C1960.5,1590.96 1954.87,1582.57 1946.15,1579.01C1943.74,1578.02 1941.12,1578.29 1938.95,1579.74C1936.8,1581.19 1935.56,1583.52 1935.56,1586.12L1935.56,1625.35C1935.56,1626.26 1935.23,1627.62 1933.68,1628.89C1930.82,1631.2 1925.53,1631.75 1921.62,1630.14C1919.12,1629.13 1917.6,1627.35 1917.59,1625.39L1918.84,1625.29L1920.09,1625.29C1920.1,1626.27 1921.05,1627.21 1922.57,1627.83C1925.6,1629.08 1929.97,1628.68 1932.1,1626.95C1932.54,1626.6 1933.06,1626.03 1933.06,1625.35L1933.06,1586.12C1933.06,1582.67 1934.7,1579.59 1937.56,1577.67C1940.43,1575.74 1943.91,1575.39 1947.1,1576.7C1956.76,1580.64 1963,1589.94 1963,1600.39L1963,1643.11C1963,1643.8 1962.44,1644.36 1961.75,1644.36Z" style="fill:rgb(55,58,58);fill-rule:nonzero;"/>
            <path d="M1936.01,1692.51L1944.62,1695.64L1943.55,1684.36C1943.5,1683.73 1943.91,1683.16 1944.53,1683.02C1946.68,1682.54 1947.97,1680.7 1947.97,1678.09C1947.97,1673.62 1944.36,1668.67 1939.93,1667.05C1937.88,1666.3 1936,1666.41 1934.65,1667.35C1933.42,1668.21 1932.74,1669.73 1932.74,1671.63C1932.74,1674.49 1934.29,1677.74 1936.78,1680.11C1937.06,1680.38 1937.2,1680.76 1937.16,1681.14L1936.01,1692.51ZM1946.05,1698.74C1945.9,1698.74 1945.76,1698.72 1945.62,1698.67L1934.24,1694.52C1933.7,1694.33 1933.36,1693.79 1933.42,1693.22L1934.61,1681.48C1931.87,1678.66 1930.24,1675.02 1930.24,1671.63C1930.24,1668.9 1931.3,1666.65 1933.22,1665.3C1935.22,1663.9 1937.98,1663.68 1940.78,1664.7C1946.22,1666.69 1950.47,1672.57 1950.47,1678.09C1950.47,1681.47 1948.84,1684.08 1946.14,1685.14L1947.29,1697.37C1947.33,1697.8 1947.15,1698.22 1946.81,1698.48C1946.59,1698.65 1946.32,1698.74 1946.05,1698.74Z" style="fill:rgb(55,58,58);fill-rule:nonzero;"/>
            <path d="M2024.15,1780.99C2025.61,1782.8 2024.25,1784.96 2021.11,1785.8C2017.97,1786.65 2014.23,1785.86 2012.77,1784.05C2011.3,1782.23 2012.66,1780.08 2015.8,1779.23C2018.94,1778.38 2022.67,1779.16 2024.15,1780.99Z" style="fill:white;fill-rule:nonzero;"/>
            <path d="M2000.11,1732.8L2000.11,1764.19L1979.33,1781.63L1979.33,1750.24L2000.11,1732.8Z" style="fill:rgb(194,199,204);fill-rule:nonzero;"/>
            <path d="M2000.11,1732.8L1979.33,1750.24L1948.35,1738.96L1969.12,1721.52L2000.11,1732.8Z" style="fill:white;fill-rule:nonzero;"/>
            <path d="M1979.33,1750.24L1979.33,1781.63L1948.35,1770.35L1948.35,1738.96L1979.33,1750.24Z" style="fill:white;fill-rule:nonzero;"/>
            <path d="M1910.74,1752.09C1911.36,1753.72 1909.97,1755.42 1907.25,1756.15C1904.11,1757 1900.38,1756.22 1898.91,1754.4C1897.45,1752.59 1898.8,1750.43 1901.95,1749.59C1905.08,1748.74 1908.84,1749.51 1910.29,1751.33C1910.49,1751.58 1910.64,1751.84 1910.74,1752.09Z" style="fill:white;fill-rule:nonzero;"/>
            <path d="M1949.6,1769.48L1978.09,1779.84L1978.09,1751.11L1949.6,1740.75L1949.6,1769.48ZM1979.34,1782.88C1979.19,1782.88 1979.05,1782.85 1978.91,1782.8L1947.92,1771.53C1947.42,1771.35 1947.1,1770.88 1947.1,1770.35L1947.1,1738.96C1947.1,1738.55 1947.29,1738.17 1947.63,1737.94C1947.96,1737.71 1948.39,1737.65 1948.77,1737.79L1979.76,1749.06C1980.26,1749.24 1980.59,1749.71 1980.59,1750.24L1980.59,1781.63C1980.59,1782.04 1980.39,1782.42 1980.05,1782.65C1979.84,1782.8 1979.59,1782.88 1979.34,1782.88Z" style="fill:rgb(55,58,58);fill-rule:nonzero;"/>
            <path d="M1979.34,1751.49C1978.98,1751.49 1978.63,1751.34 1978.38,1751.04C1977.93,1750.51 1978,1749.72 1978.53,1749.28L1999.31,1731.84C1999.84,1731.4 2000.63,1731.47 2001.07,1732C2001.52,1732.53 2001.45,1733.31 2000.92,1733.76L1980.14,1751.19C1979.9,1751.39 1979.62,1751.49 1979.34,1751.49Z" style="fill:rgb(55,58,58);fill-rule:nonzero;"/>
            <path d="M1979.34,1782.88C1978.98,1782.88 1978.63,1782.73 1978.38,1782.43C1977.93,1781.9 1978,1781.11 1978.53,1780.67L1998.86,1763.61L1998.86,1733.67L1969.38,1722.94L1949.15,1739.92C1948.62,1740.37 1947.83,1740.3 1947.39,1739.77C1946.94,1739.24 1947.01,1738.45 1947.54,1738.01L1968.32,1720.56C1968.66,1720.27 1969.13,1720.19 1969.55,1720.34L2000.54,1731.63C2001.04,1731.8 2001.36,1732.27 2001.36,1732.8L2001.36,1764.19C2001.36,1764.56 2001.2,1764.91 2000.92,1765.15L1980.14,1782.59C1979.9,1782.78 1979.62,1782.88 1979.34,1782.88Z" style="fill:rgb(55,58,58);fill-rule:nonzero;"/>
            <path d="M2012.53,1782.11C2012.39,1782.11 2012.24,1782.08 2012.1,1782.03L1989.58,1773.84C1988.94,1773.6 1988.6,1772.89 1988.84,1772.24C1989.07,1771.59 1989.79,1771.26 1990.44,1771.49L2012.96,1779.68C2013.6,1779.92 2013.94,1780.63 2013.7,1781.28C2013.52,1781.79 2013.04,1782.11 2012.53,1782.11Z" style="fill:rgb(255,97,0);fill-rule:nonzero;"/>
            <path d="M1948.35,1753.41C1948.2,1753.41 1948.06,1753.38 1947.92,1753.33L1935.85,1748.94L1910.95,1753.32C1910.27,1753.44 1909.63,1752.99 1909.51,1752.31C1909.39,1751.63 1909.84,1750.98 1910.52,1750.86L1935.75,1746.42C1935.96,1746.38 1936.19,1746.4 1936.39,1746.48L1948.77,1750.98C1949.42,1751.22 1949.76,1751.94 1949.52,1752.58C1949.34,1753.09 1948.86,1753.41 1948.35,1753.41Z" style="fill:rgb(255,97,0);fill-rule:nonzero;"/>
            <path d="M2018.43,1780.14C2017.67,1780.14 2016.89,1780.23 2016.13,1780.44C2014.45,1780.89 2013.65,1781.69 2013.47,1782.24C2013.4,1782.45 2013.36,1782.79 2013.74,1783.26C2014.75,1784.52 2017.89,1785.37 2020.78,1784.6C2022.46,1784.15 2023.26,1783.34 2023.44,1782.79C2023.51,1782.58 2023.56,1782.24 2023.18,1781.77C2022.43,1780.85 2020.53,1780.14 2018.43,1780.14ZM2021.11,1785.8M2018.48,1787.39C2015.73,1787.39 2013.1,1786.45 2011.79,1784.83C2010.97,1783.81 2010.72,1782.62 2011.09,1781.46C2011.61,1779.89 2013.21,1778.63 2015.48,1778.02C2019.11,1777.04 2023.34,1778 2025.12,1780.2C2025.94,1781.22 2026.19,1782.41 2025.82,1783.56C2025.31,1785.14 2023.71,1786.4 2021.44,1787.01C2020.47,1787.27 2019.47,1787.39 2018.48,1787.39Z" style="fill:rgb(255,97,0);fill-rule:nonzero;"/>
            <path d="M1904.61,1750.49C1903.84,1750.49 1903.05,1750.58 1902.27,1750.79C1900.6,1751.24 1899.79,1752.04 1899.62,1752.59C1899.55,1752.81 1899.5,1753.14 1899.88,1753.62C1900.89,1754.87 1904.04,1755.72 1906.93,1754.94C1908.21,1754.6 1909.18,1753.99 1909.52,1753.32C1909.66,1753.05 1909.67,1752.8 1909.57,1752.54C1909.52,1752.41 1909.43,1752.25 1909.31,1752.11C1908.58,1751.19 1906.7,1750.49 1904.61,1750.49ZM1904.61,1757.74C1901.87,1757.74 1899.24,1756.8 1897.94,1755.19C1897.11,1754.17 1896.87,1752.97 1897.24,1751.82C1897.75,1750.24 1899.35,1748.99 1901.62,1748.38C1905.28,1747.39 1909.52,1748.35 1911.27,1750.55C1911.54,1750.89 1911.76,1751.27 1911.9,1751.64C1912.26,1752.56 1912.2,1753.56 1911.75,1754.45C1911.07,1755.79 1909.59,1756.82 1907.58,1757.36C1906.61,1757.62 1905.61,1757.74 1904.61,1757.74Z" style="fill:rgb(255,97,0);fill-rule:nonzero;"/>
            <path d="M1913.62,1683.97L1913.62,1715.36L1892.84,1732.8L1892.84,1701.41L1913.62,1683.97Z" style="fill:rgb(194,199,204);fill-rule:nonzero;"/>
            <path d="M1913.62,1683.97L1892.84,1701.41L1861.86,1690.12L1882.63,1672.69L1913.62,1683.97Z" style="fill:white;fill-rule:nonzero;"/>
            <path d="M1892.84,1701.41L1892.84,1732.8L1861.86,1721.52L1861.86,1690.12L1892.84,1701.41Z" style="fill:white;fill-rule:nonzero;"/>
            <path d="M1863.16,1739.41C1864.62,1741.22 1863.27,1743.38 1860.12,1744.23C1856.98,1745.07 1853.24,1744.28 1851.78,1742.47C1850.31,1740.66 1851.67,1738.5 1854.81,1737.65C1856.9,1737.09 1859.25,1737.26 1861.02,1737.95C1861.92,1738.31 1862.67,1738.8 1863.16,1739.41Z" style="fill:white;fill-rule:nonzero;"/>
            <path d="M1863.11,1720.64L1891.59,1731.01L1891.59,1702.28L1863.11,1691.91L1863.11,1720.64ZM1892.85,1734.05C1892.7,1734.05 1892.56,1734.03 1892.42,1733.97L1861.43,1722.69C1860.93,1722.51 1860.61,1722.04 1860.61,1721.51L1860.61,1690.12C1860.61,1689.72 1860.8,1689.33 1861.14,1689.1C1861.47,1688.87 1861.9,1688.81 1862.28,1688.95L1893.27,1700.23C1893.77,1700.41 1894.09,1700.88 1894.09,1701.41L1894.09,1732.8C1894.09,1733.21 1893.9,1733.59 1893.56,1733.82C1893.35,1733.97 1893.1,1734.05 1892.85,1734.05Z" style="fill:rgb(55,58,58);fill-rule:nonzero;"/>
            <path d="M1892.85,1702.66C1892.49,1702.66 1892.13,1702.51 1891.89,1702.21C1891.44,1701.68 1891.51,1700.9 1892.04,1700.45L1912.82,1683.01C1913.35,1682.57 1914.14,1682.64 1914.58,1683.17C1915.03,1683.7 1914.96,1684.49 1914.43,1684.93L1893.65,1702.37C1893.41,1702.56 1893.13,1702.66 1892.85,1702.66Z" style="fill:rgb(55,58,58);fill-rule:nonzero;"/>
            <path d="M1892.85,1734.05C1892.49,1734.05 1892.13,1733.9 1891.89,1733.6C1891.44,1733.07 1891.51,1732.29 1892.04,1731.84L1912.37,1714.78L1912.37,1684.85L1882.89,1674.11L1862.66,1691.08C1862.13,1691.53 1861.34,1691.46 1860.9,1690.93C1860.45,1690.4 1860.52,1689.61 1861.05,1689.17L1881.83,1671.73C1882.17,1671.44 1882.64,1671.36 1883.06,1671.51L1914.05,1682.8C1914.55,1682.98 1914.87,1683.45 1914.87,1683.97L1914.87,1715.36C1914.87,1715.73 1914.71,1716.08 1914.43,1716.32L1893.65,1733.76C1893.41,1733.95 1893.13,1734.05 1892.85,1734.05Z" style="fill:rgb(55,58,58);fill-rule:nonzero;"/>
            <path d="M1861.02,1739.2C1860.66,1739.2 1860.31,1739.05 1860.06,1738.76C1859.62,1738.23 1859.69,1737.44 1860.22,1737L1874.13,1725.32C1874.66,1724.88 1875.44,1724.95 1875.89,1725.47C1876.33,1726 1876.26,1726.79 1875.73,1727.24L1861.82,1738.91C1861.59,1739.11 1861.3,1739.2 1861.02,1739.2Z" style="fill:rgb(255,97,0);fill-rule:nonzero;"/>
            <path d="M1857.44,1738.56C1856.65,1738.56 1855.87,1738.66 1855.14,1738.86C1853.46,1739.31 1852.66,1740.11 1852.48,1740.66C1852.41,1740.87 1852.37,1741.21 1852.75,1741.68C1853.76,1742.94 1856.91,1743.79 1859.79,1743.02C1861.47,1742.57 1862.27,1741.77 1862.45,1741.22C1862.52,1741.01 1862.57,1740.67 1862.18,1740.19C1861.84,1739.77 1861.29,1739.4 1860.57,1739.12C1859.63,1738.75 1858.53,1738.56 1857.44,1738.56ZM1860.12,1744.23M1857.49,1745.81C1854.74,1745.81 1852.11,1744.87 1850.8,1743.25C1849.98,1742.23 1849.73,1741.04 1850.1,1739.88C1850.62,1738.31 1852.21,1737.05 1854.49,1736.44C1856.75,1735.83 1859.36,1735.96 1861.48,1736.79C1862.6,1737.23 1863.52,1737.86 1864.13,1738.62C1864.95,1739.64 1865.2,1740.84 1864.83,1741.99C1864.31,1743.57 1862.72,1744.82 1860.44,1745.43C1859.48,1745.69 1858.48,1745.81 1857.49,1745.81Z" style="fill:rgb(255,97,0);fill-rule:nonzero;"/>
        </g>
    </g>
</svg>
