<?xml version="1.0" encoding="UTF-8" standalone="no"?>
<!DOCTYPE svg PUBLIC "-//W3C//DTD SVG 1.1//EN" "http://www.w3.org/Graphics/SVG/1.1/DTD/svg11.dtd">
<svg width="100%" height="100%" viewBox="0 0 264 202" version="1.1" xmlns="http://www.w3.org/2000/svg" xmlns:xlink="http://www.w3.org/1999/xlink" xml:space="preserve" xmlns:serif="http://www.serif.com/" style="fill-rule:evenodd;clip-rule:evenodd;stroke-linejoin:round;stroke-miterlimit:2;">
    <g transform="matrix(1,0,0,1,-1396.82,-1043.4)">
        <g id="consulting-icon" transform="matrix(1,0,0,1,438.201,367.95)">
            <path d="M1221.79,749.339L1220,750.371L1222.2,751.641L1222.35,751.551C1222.36,750.78 1222.16,750.017 1221.79,749.339Z" style="fill:rgb(150,154,158);fill-rule:nonzero;"/>
            <path d="M1219.7,747.438C1219.58,747.384 1219.46,747.326 1219.33,747.282L1216.97,746.472L1216.8,746.571L1219,747.841L1219.7,747.438Z" style="fill:rgb(150,154,158);fill-rule:nonzero;"/>
            <path d="M1216.8,754.171L1219,755.441L1221.2,754.171L1219,752.901L1216.8,754.171Z" style="fill:rgb(150,154,158);fill-rule:nonzero;"/>
            <path d="M1213.6,757.971L1215.45,759.043L1217.34,757.594L1215.8,756.701L1213.6,757.971Z" style="fill:rgb(150,154,158);fill-rule:nonzero;"/>
            <path d="M1215.8,751.641L1218,750.371L1215.8,749.101L1213.6,750.371L1215.8,751.641Z" style="fill:rgb(150,154,158);fill-rule:nonzero;"/>
            <path d="M1214.8,746.571L1212.6,745.301L1210.4,746.571L1212.6,747.841L1214.8,746.571Z" style="fill:rgb(150,154,158);fill-rule:nonzero;"/>
            <path d="M1214.8,754.171L1212.6,752.901L1210.4,754.171L1212.6,755.441L1214.8,754.171Z" style="fill:rgb(150,154,158);fill-rule:nonzero;"/>
            <path d="M1210.4,761.771L1211.25,762.266L1213.14,760.816L1212.6,760.501L1210.4,761.771Z" style="fill:rgb(150,154,158);fill-rule:nonzero;"/>
            <path d="M1206.2,747.841L1208.4,746.571L1206.2,745.301L1204,746.571L1206.2,747.841Z" style="fill:rgb(150,154,158);fill-rule:nonzero;"/>
            <path d="M1209.58,743.935L1208.68,743.624L1209.4,744.041L1209.58,743.935Z" style="fill:rgb(150,154,158);fill-rule:nonzero;"/>
            <path d="M1209.4,756.701L1207.2,757.971L1209.4,759.241L1211.6,757.971L1209.4,756.701Z" style="fill:rgb(150,154,158);fill-rule:nonzero;"/>
            <path d="M1204,754.171L1206.2,755.441L1208.4,754.171L1206.2,752.901L1204,754.171Z" style="fill:rgb(150,154,158);fill-rule:nonzero;"/>
            <path d="M1211.6,750.371L1209.4,749.101L1207.2,750.371L1209.4,751.641L1211.6,750.371Z" style="fill:rgb(150,154,158);fill-rule:nonzero;"/>
            <path d="M1206.2,760.501L1204,761.771L1206.2,763.041L1208.4,761.771L1206.2,760.501Z" style="fill:rgb(150,154,158);fill-rule:nonzero;"/>
            <path d="M1200.8,750.371L1203,751.641L1205.2,750.371L1203,749.101L1200.8,750.371Z" style="fill:rgb(150,154,158);fill-rule:nonzero;"/>
            <path d="M1199.8,747.841L1202,746.571L1199.8,745.301L1197.6,746.571L1199.8,747.841Z" style="fill:rgb(150,154,158);fill-rule:nonzero;"/>
            <path d="M1203,744.041L1205.2,742.771L1203.74,741.929L1202.81,741.61L1200.8,742.771L1203,744.041Z" style="fill:rgb(150,154,158);fill-rule:nonzero;"/>
            <path d="M1197.6,754.171L1199.8,755.441L1202,754.171L1199.8,752.901L1197.6,754.171Z" style="fill:rgb(150,154,158);fill-rule:nonzero;"/>
            <path d="M1203,764.301L1200.8,765.571L1203,766.841L1205.2,765.571L1203,764.301Z" style="fill:rgb(150,154,158);fill-rule:nonzero;"/>
            <path d="M1197.6,761.771L1199.8,763.041L1202,761.771L1199.8,760.501L1197.6,761.771Z" style="fill:rgb(150,154,158);fill-rule:nonzero;"/>
            <path d="M1203,759.241L1205.2,757.971L1203,756.701L1200.8,757.971L1203,759.241Z" style="fill:rgb(150,154,158);fill-rule:nonzero;"/>
            <path d="M1197.6,769.371L1199.8,770.641L1201.98,769.384L1201.99,769.369L1199.8,768.101L1197.6,769.371Z" style="fill:rgb(150,154,158);fill-rule:nonzero;"/>
            <path d="M1196.6,741.501L1194.4,742.771L1196.6,744.041L1198.8,742.771L1196.6,741.501Z" style="fill:rgb(150,154,158);fill-rule:nonzero;"/>
            <path d="M1192.66,738.126L1191.2,738.971L1193.4,740.241L1195.42,739.073L1192.66,738.126Z" style="fill:rgb(150,154,158);fill-rule:nonzero;"/>
            <path d="M1194.4,750.371L1196.6,751.641L1198.8,750.371L1196.6,749.101L1194.4,750.371Z" style="fill:rgb(150,154,158);fill-rule:nonzero;"/>
            <path d="M1191.2,746.571L1193.4,747.841L1195.6,746.571L1193.4,745.301L1191.2,746.571Z" style="fill:rgb(150,154,158);fill-rule:nonzero;"/>
            <path d="M1196.6,756.701L1194.4,757.971L1196.6,759.241L1198.8,757.971L1196.6,756.701Z" style="fill:rgb(150,154,158);fill-rule:nonzero;"/>
            <path d="M1191.2,754.171L1193.4,755.441L1195.6,754.171L1193.4,752.901L1191.2,754.171Z" style="fill:rgb(150,154,158);fill-rule:nonzero;"/>
            <path d="M1194.4,765.571L1196.6,766.841L1198.8,765.571L1196.6,764.301L1194.4,765.571Z" style="fill:rgb(150,154,158);fill-rule:nonzero;"/>
            <path d="M1191.2,761.771L1193.4,763.041L1195.6,761.771L1193.4,760.501L1191.2,761.771Z" style="fill:rgb(150,154,158);fill-rule:nonzero;"/>
            <path d="M1194.4,773.171L1195.91,774.041L1197.79,772.592L1196.6,771.901L1194.4,773.171Z" style="fill:rgb(150,154,158);fill-rule:nonzero;"/>
            <path d="M1191.2,769.371L1193.4,770.641L1195.6,769.371L1193.4,768.101L1191.2,769.371Z" style="fill:rgb(150,154,158);fill-rule:nonzero;"/>
            <path d="M1191.2,776.971L1191.7,777.264L1193.59,775.814L1193.4,775.701L1191.2,776.971Z" style="fill:rgb(150,154,158);fill-rule:nonzero;"/>
            <path d="M1184.8,738.971L1187,740.241L1189.2,738.971L1187,737.701L1184.8,738.971Z" style="fill:rgb(150,154,158);fill-rule:nonzero;"/>
            <path d="M1188,750.371L1190.2,751.641L1192.4,750.371L1190.2,749.101L1188,750.371Z" style="fill:rgb(150,154,158);fill-rule:nonzero;"/>
            <path d="M1187,745.301L1184.8,746.571L1187,747.841L1189.2,746.571L1187,745.301Z" style="fill:rgb(150,154,158);fill-rule:nonzero;"/>
            <path d="M1192.4,742.771L1190.2,741.501L1188,742.771L1190.2,744.041L1192.4,742.771Z" style="fill:rgb(150,154,158);fill-rule:nonzero;"/>
            <path d="M1184.8,754.171L1187,755.441L1189.2,754.171L1187,752.901L1184.8,754.171Z" style="fill:rgb(150,154,158);fill-rule:nonzero;"/>
            <path d="M1188,765.571L1190.2,766.841L1192.4,765.571L1190.2,764.301L1188,765.571Z" style="fill:rgb(150,154,158);fill-rule:nonzero;"/>
            <path d="M1184.8,761.771L1187,763.041L1189.2,761.771L1187,760.501L1184.8,761.771Z" style="fill:rgb(150,154,158);fill-rule:nonzero;"/>
            <path d="M1188,757.971L1190.2,759.241L1192.4,757.971L1190.2,756.701L1188,757.971Z" style="fill:rgb(150,154,158);fill-rule:nonzero;"/>
            <path d="M1184.8,769.371L1187,770.641L1189.2,769.371L1187,768.101L1184.8,769.371Z" style="fill:rgb(150,154,158);fill-rule:nonzero;"/>
            <path d="M1184.8,776.971L1187,778.241L1189.2,776.971L1187,775.701L1184.8,776.971Z" style="fill:rgb(150,154,158);fill-rule:nonzero;"/>
            <path d="M1188,773.171L1190.2,774.441L1192.4,773.171L1190.2,771.901L1188,773.171Z" style="fill:rgb(150,154,158);fill-rule:nonzero;"/>
            <path d="M1183.8,741.501L1181.6,742.771L1183.8,744.041L1186,742.771L1183.8,741.501Z" style="fill:rgb(150,154,158);fill-rule:nonzero;"/>
            <path d="M1180.6,737.701L1178.4,738.971L1180.6,740.241L1182.8,738.971L1180.6,737.701Z" style="fill:rgb(150,154,158);fill-rule:nonzero;"/>
            <path d="M1182.52,734.641L1181.6,735.171L1183.8,736.441L1185.27,735.589L1182.52,734.641Z" style="fill:rgb(150,154,158);fill-rule:nonzero;"/>
            <path d="M1183.8,749.101L1181.6,750.371L1183.8,751.641L1186,750.371L1183.8,749.101Z" style="fill:rgb(150,154,158);fill-rule:nonzero;"/>
            <path d="M1178.4,746.571L1180.6,747.841L1182.8,746.571L1180.6,745.301L1178.4,746.571Z" style="fill:rgb(150,154,158);fill-rule:nonzero;"/>
            <path d="M1183.8,756.701L1181.6,757.971L1183.8,759.241L1186,757.971L1183.8,756.701Z" style="fill:rgb(150,154,158);fill-rule:nonzero;"/>
            <path d="M1180.6,752.901L1178.4,754.171L1180.6,755.441L1182.8,754.171L1180.6,752.901Z" style="fill:rgb(150,154,158);fill-rule:nonzero;"/>
            <path d="M1181.6,765.571L1183.8,766.841L1186,765.571L1183.8,764.301L1181.6,765.571Z" style="fill:rgb(150,154,158);fill-rule:nonzero;"/>
            <path d="M1178.4,761.771L1180.6,763.041L1182.8,761.771L1180.6,760.501L1178.4,761.771Z" style="fill:rgb(150,154,158);fill-rule:nonzero;"/>
            <path d="M1183.8,771.901L1181.6,773.171L1183.8,774.441L1186,773.171L1183.8,771.901Z" style="fill:rgb(150,154,158);fill-rule:nonzero;"/>
            <path d="M1178.4,769.371L1180.6,770.641L1182.8,769.371L1180.6,768.101L1178.4,769.371Z" style="fill:rgb(150,154,158);fill-rule:nonzero;"/>
            <path d="M1181.6,780.771L1183.8,782.041L1186,780.771L1183.8,779.501L1181.6,780.771Z" style="fill:rgb(150,154,158);fill-rule:nonzero;"/>
            <path d="M1178.4,776.971L1180.6,778.241L1182.8,776.971L1180.6,775.701L1178.4,776.971Z" style="fill:rgb(150,154,158);fill-rule:nonzero;"/>
            <path d="M1178.4,784.571L1180.56,785.817L1182.45,784.368L1180.6,783.301L1178.4,784.571Z" style="fill:rgb(150,154,158);fill-rule:nonzero;"/>
            <path d="M1172,731.371L1174.2,732.641L1175.13,732.105L1172.37,731.157L1172,731.371Z" style="fill:rgb(150,154,158);fill-rule:nonzero;"/>
            <path d="M1177.4,741.501L1175.2,742.771L1177.4,744.041L1179.6,742.771L1177.4,741.501Z" style="fill:rgb(150,154,158);fill-rule:nonzero;"/>
            <path d="M1172,738.971L1174.2,740.241L1176.4,738.971L1174.2,737.701L1172,738.971Z" style="fill:rgb(150,154,158);fill-rule:nonzero;"/>
            <path d="M1175.2,735.171L1177.4,736.441L1179.6,735.171L1177.4,733.901L1175.2,735.171Z" style="fill:rgb(150,154,158);fill-rule:nonzero;"/>
            <path d="M1175.2,750.371L1177.4,751.641L1179.6,750.371L1177.4,749.101L1175.2,750.371Z" style="fill:rgb(150,154,158);fill-rule:nonzero;"/>
            <path d="M1174.2,745.301L1172,746.571L1174.2,747.841L1176.4,746.571L1174.2,745.301Z" style="fill:rgb(150,154,158);fill-rule:nonzero;"/>
            <path d="M1177.4,756.701L1175.2,757.971L1177.4,759.241L1179.6,757.971L1177.4,756.701Z" style="fill:rgb(150,154,158);fill-rule:nonzero;"/>
            <path d="M1172,754.171L1174.2,755.441L1176.4,754.171L1174.2,752.901L1172,754.171Z" style="fill:rgb(150,154,158);fill-rule:nonzero;"/>
            <path d="M1175.2,765.571L1177.4,766.841L1179.6,765.571L1177.4,764.301L1175.2,765.571Z" style="fill:rgb(150,154,158);fill-rule:nonzero;"/>
            <path d="M1174.2,760.501L1172,761.771L1174.2,763.041L1176.4,761.771L1174.2,760.501Z" style="fill:rgb(150,154,158);fill-rule:nonzero;"/>
            <path d="M1177.4,771.901L1175.2,773.171L1177.4,774.441L1179.6,773.171L1177.4,771.901Z" style="fill:rgb(150,154,158);fill-rule:nonzero;"/>
            <path d="M1172,769.371L1174.2,770.641L1176.4,769.371L1174.2,768.101L1172,769.371Z" style="fill:rgb(150,154,158);fill-rule:nonzero;"/>
            <path d="M1175.2,780.771L1177.4,782.041L1179.6,780.771L1177.4,779.501L1175.2,780.771Z" style="fill:rgb(150,154,158);fill-rule:nonzero;"/>
            <path d="M1173.49,776.109L1174,778.126L1174.2,778.241L1176.4,776.971L1174.2,775.701L1173.49,776.109Z" style="fill:rgb(150,154,158);fill-rule:nonzero;"/>
            <path d="M1176.4,784.571L1175.49,784.044L1175.72,784.964L1176.4,784.571Z" style="fill:rgb(150,154,158);fill-rule:nonzero;"/>
            <path d="M1177.4,787.101L1176.4,787.678L1176.68,788.792L1178.25,787.59L1177.4,787.101Z" style="fill:rgb(150,154,158);fill-rule:nonzero;"/>
            <path d="M1167.8,730.101L1165.6,731.371L1167.8,732.641L1170,731.371L1167.8,730.101Z" style="fill:rgb(150,154,158);fill-rule:nonzero;"/>
            <path d="M1167.8,737.701L1165.6,738.971L1167.8,740.241L1170,738.971L1167.8,737.701Z" style="fill:rgb(150,154,158);fill-rule:nonzero;"/>
            <path d="M1171,733.901L1168.8,735.171L1171,736.441L1173.2,735.171L1171,733.901Z" style="fill:rgb(150,154,158);fill-rule:nonzero;"/>
            <path d="M1171,749.101L1168.8,750.371L1171,751.641L1173.2,750.371L1171,749.101Z" style="fill:rgb(150,154,158);fill-rule:nonzero;"/>
            <path d="M1166.01,746.335L1166.15,746.887L1167.8,747.841L1170,746.571L1167.8,745.301L1166.01,746.335Z" style="fill:rgb(150,154,158);fill-rule:nonzero;"/>
            <path d="M1168.8,742.771L1171,744.041L1173.2,742.771L1171,741.501L1168.8,742.771Z" style="fill:rgb(150,154,158);fill-rule:nonzero;"/>
            <path d="M1167.8,752.901L1167.68,752.972L1168.23,755.19L1170,754.171L1167.8,752.901Z" style="fill:rgb(150,154,158);fill-rule:nonzero;"/>
            <path d="M1169.87,761.696L1169.9,761.827L1170,761.771L1169.87,761.696Z" style="fill:rgb(150,154,158);fill-rule:nonzero;"/>
            <path d="M1168.91,757.904L1168.95,758.061L1171,759.241L1173.2,757.971L1171,756.701L1168.91,757.904Z" style="fill:rgb(150,154,158);fill-rule:nonzero;"/>
            <path d="M1173.2,765.571L1171,764.301L1170.58,764.541L1171.14,766.759L1173.2,765.571Z" style="fill:rgb(150,154,158);fill-rule:nonzero;"/>
            <path d="M1173.2,773.171L1172.68,772.87L1172.81,773.396L1173.2,773.171Z" style="fill:rgb(150,154,158);fill-rule:nonzero;"/>
            <path d="M1162.42,732.053L1163.6,731.371L1162.02,730.457L1162.42,732.053Z" style="fill:rgb(150,154,158);fill-rule:nonzero;"/>
            <path d="M1164.6,728.841L1164.98,728.62L1163.09,727.973L1164.6,728.841Z" style="fill:rgb(150,154,158);fill-rule:nonzero;"/>
            <path d="M1165.81,742.201L1164.82,741.632L1165.32,743.622L1166.8,742.771L1165.81,742.201Z" style="fill:rgb(150,154,158);fill-rule:nonzero;"/>
            <path d="M1164.6,733.901L1163.1,734.766L1163.34,735.713L1164.6,736.441L1166.8,735.171L1164.6,733.901Z" style="fill:rgb(150,154,158);fill-rule:nonzero;"/>
            <path d="M1135.8,806.101L1133.6,807.371L1135.8,808.641L1136,808.526C1135.95,807.776 1135.97,807.024 1136.09,806.268L1135.8,806.101Z" style="fill:rgb(150,154,158);fill-rule:nonzero;"/>
            <path d="M1135.8,813.701L1133.6,814.971L1135.8,816.241L1136.92,815.595C1136.9,815.159 1136.87,814.724 1136.82,814.29L1135.8,813.701Z" style="fill:rgb(150,154,158);fill-rule:nonzero;"/>
            <path d="M1134.08,822.847C1134.43,822.508 1134.75,822.134 1135.06,821.728L1133.6,822.571L1134.08,822.847Z" style="fill:rgb(150,154,158);fill-rule:nonzero;"/>
            <path d="M1128.35,800.438L1129.4,801.041L1131.6,799.771L1130.96,799.402C1130.07,799.428 1129.17,799.746 1128.35,800.438Z" style="fill:rgb(150,154,158);fill-rule:nonzero;"/>
            <path d="M1132.6,809.901L1130.4,811.171L1132.6,812.441L1134.8,811.171L1132.6,809.901Z" style="fill:rgb(150,154,158);fill-rule:nonzero;"/>
            <path d="M1127.2,807.371L1129.4,808.641L1131.6,807.371L1129.4,806.101L1127.2,807.371Z" style="fill:rgb(150,154,158);fill-rule:nonzero;"/>
            <path d="M1130.4,803.571L1132.6,804.841L1134.8,803.571L1132.6,802.301L1130.4,803.571Z" style="fill:rgb(150,154,158);fill-rule:nonzero;"/>
            <path d="M1129.4,813.701L1127.2,814.971L1129.4,816.241L1131.6,814.971L1129.4,813.701Z" style="fill:rgb(150,154,158);fill-rule:nonzero;"/>
            <path d="M1127.2,822.571L1129.4,823.841L1131.6,822.571L1129.4,821.301L1127.2,822.571Z" style="fill:rgb(150,154,158);fill-rule:nonzero;"/>
            <path d="M1130.4,818.771L1132.6,820.041L1134.8,818.771L1132.6,817.501L1130.4,818.771Z" style="fill:rgb(150,154,158);fill-rule:nonzero;"/>
            <path d="M1124,811.171L1126.2,812.441L1128.4,811.171L1126.2,809.901L1124,811.171Z" style="fill:rgb(150,154,158);fill-rule:nonzero;"/>
            <path d="M1121.63,807.85L1123,808.641L1125.2,807.371L1123.13,806.176L1121.63,807.85Z" style="fill:rgb(150,154,158);fill-rule:nonzero;"/>
            <path d="M1117.6,811.171L1119.8,812.441L1122,811.171L1119.8,809.901L1117.6,811.171Z" style="fill:rgb(150,154,158);fill-rule:nonzero;"/>
            <path d="M1124.96,804.128L1126.2,804.841L1128.4,803.571L1126.46,802.453L1124.96,804.128Z" style="fill:rgb(150,154,158);fill-rule:nonzero;"/>
            <path d="M1120.8,814.971L1123,816.241L1125.2,814.971L1123,813.701L1120.8,814.971Z" style="fill:rgb(150,154,158);fill-rule:nonzero;"/>
            <path d="M1124,826.371L1125.99,827.523C1126.76,827.084 1127.54,826.696 1128.31,826.322L1126.2,825.101L1124,826.371Z" style="fill:rgb(150,154,158);fill-rule:nonzero;"/>
            <path d="M1120.8,822.571L1123,823.841L1125.2,822.571L1123,821.301L1120.8,822.571Z" style="fill:rgb(150,154,158);fill-rule:nonzero;"/>
            <path d="M1117.6,826.371L1119.8,827.641L1122,826.371L1119.8,825.101L1117.6,826.371Z" style="fill:rgb(150,154,158);fill-rule:nonzero;"/>
            <path d="M1124,818.771L1126.2,820.041L1128.4,818.771L1126.2,817.501L1124,818.771Z" style="fill:rgb(150,154,158);fill-rule:nonzero;"/>
            <path d="M1117.6,818.771L1119.8,820.041L1122,818.771L1119.8,817.501L1117.6,818.771Z" style="fill:rgb(150,154,158);fill-rule:nonzero;"/>
            <path d="M1120.8,830.171L1121.69,830.684C1122.27,830.156 1122.87,829.663 1123.5,829.19L1123,828.901L1120.8,830.171Z" style="fill:rgb(150,154,158);fill-rule:nonzero;"/>
            <path d="M1118.25,834.348C1118.67,833.834 1119.1,833.334 1119.55,832.846L1117.6,833.971L1118.25,834.348Z" style="fill:rgb(150,154,158);fill-rule:nonzero;"/>
            <path d="M1114.4,814.971L1116.6,816.241L1118.8,814.971L1116.6,813.701L1114.4,814.971Z" style="fill:rgb(150,154,158);fill-rule:nonzero;"/>
            <path d="M1114.4,822.571L1116.6,823.841L1118.8,822.571L1116.6,821.301L1114.4,822.571Z" style="fill:rgb(150,154,158);fill-rule:nonzero;"/>
            <path d="M1114.4,830.171L1116.6,831.441L1118.8,830.171L1116.6,828.901L1114.4,830.171Z" style="fill:rgb(150,154,158);fill-rule:nonzero;"/>
            <path d="M1115.31,838.295C1115.72,837.696 1116.13,837.104 1116.56,836.521L1114.4,837.771L1115.31,838.295Z" style="fill:rgb(150,154,158);fill-rule:nonzero;"/>
            <path d="M1109.1,806.736L1108,807.371L1110.2,808.641L1110.76,808.317C1110.25,807.725 1109.7,807.2 1109.1,806.736Z" style="fill:rgb(150,154,158);fill-rule:nonzero;"/>
            <path d="M1110.2,813.701L1108,814.971L1110.2,816.241L1112.4,814.971L1110.2,813.701Z" style="fill:rgb(150,154,158);fill-rule:nonzero;"/>
            <path d="M1114.51,810.546C1113.97,811.056 1113.44,811.58 1112.9,812.096C1112.72,811.573 1112.49,811.066 1112.24,810.569L1111.2,811.171L1113.4,812.441L1115.6,811.171L1114.51,810.546Z" style="fill:rgb(150,154,158);fill-rule:nonzero;"/>
            <path d="M1111.2,826.371L1113.4,827.641L1115.6,826.371L1113.4,825.101L1111.2,826.371Z" style="fill:rgb(150,154,158);fill-rule:nonzero;"/>
            <path d="M1108,822.571L1110.2,823.841L1112.4,822.571L1110.2,821.301L1108,822.571Z" style="fill:rgb(150,154,158);fill-rule:nonzero;"/>
            <path d="M1111.2,818.771L1113.4,820.041L1115.6,818.771L1113.4,817.501L1111.2,818.771Z" style="fill:rgb(150,154,158);fill-rule:nonzero;"/>
            <path d="M1108,830.171L1110.2,831.441L1112.4,830.171L1110.2,828.901L1108,830.171Z" style="fill:rgb(150,154,158);fill-rule:nonzero;"/>
            <path d="M1111.2,841.571L1112.61,842.385C1113,841.768 1113.4,841.151 1113.8,840.535L1113.4,840.301L1111.2,841.571Z" style="fill:rgb(150,154,158);fill-rule:nonzero;"/>
            <path d="M1108,837.771L1110.2,839.041L1112.4,837.771L1110.2,836.501L1108,837.771Z" style="fill:rgb(150,154,158);fill-rule:nonzero;"/>
            <path d="M1111.2,833.971L1113.4,835.241L1115.6,833.971L1113.4,832.701L1111.2,833.971Z" style="fill:rgb(150,154,158);fill-rule:nonzero;"/>
            <path d="M1108,845.371L1109.95,846.499C1110.35,845.89 1110.76,845.275 1111.16,844.653L1110.2,844.101L1108,845.371Z" style="fill:rgb(150,154,158);fill-rule:nonzero;"/>
            <path d="M1104.8,811.171L1107,812.441L1109.2,811.171L1107,809.901L1104.8,811.171Z" style="fill:rgb(150,154,158);fill-rule:nonzero;"/>
            <path d="M1103.8,808.641L1106,807.371L1103.8,806.101L1101.6,807.371L1103.8,808.641Z" style="fill:rgb(150,154,158);fill-rule:nonzero;"/>
            <path d="M1101.6,814.971L1103.8,816.241L1106,814.971L1103.8,813.701L1101.6,814.971Z" style="fill:rgb(150,154,158);fill-rule:nonzero;"/>
            <path d="M1104.8,826.371L1107,827.641L1109.2,826.371L1107,825.101L1104.8,826.371Z" style="fill:rgb(150,154,158);fill-rule:nonzero;"/>
            <path d="M1101.6,822.571L1103.8,823.841L1106,822.571L1103.8,821.301L1101.6,822.571Z" style="fill:rgb(150,154,158);fill-rule:nonzero;"/>
            <path d="M1107,817.501L1104.8,818.771L1107,820.041L1109.2,818.771L1107,817.501Z" style="fill:rgb(150,154,158);fill-rule:nonzero;"/>
            <path d="M1101.6,830.171L1103.8,831.441L1106,830.171L1103.8,828.901L1101.6,830.171Z" style="fill:rgb(150,154,158);fill-rule:nonzero;"/>
            <path d="M1101.6,837.771L1103.8,839.041L1106,837.771L1103.8,836.501L1101.6,837.771Z" style="fill:rgb(150,154,158);fill-rule:nonzero;"/>
            <path d="M1104.8,833.971L1107,835.241L1109.2,833.971L1107,832.701L1104.8,833.971Z" style="fill:rgb(150,154,158);fill-rule:nonzero;"/>
            <path d="M1103.8,846.641L1106,845.371L1103.8,844.101L1101.6,845.371L1103.8,846.641Z" style="fill:rgb(150,154,158);fill-rule:nonzero;"/>
            <path d="M1104.8,841.571L1107,842.841L1109.2,841.571L1107,840.301L1104.8,841.571Z" style="fill:rgb(150,154,158);fill-rule:nonzero;"/>
            <path d="M1103.8,854.241L1104.48,853.85C1104.8,853.454 1105.13,853.055 1105.45,852.653L1103.8,851.701L1101.6,852.971L1103.8,854.241Z" style="fill:rgb(150,154,158);fill-rule:nonzero;"/>
            <path d="M1107.51,850.01C1107.82,849.591 1108.13,849.162 1108.43,848.73L1107,847.901L1104.8,849.171L1107,850.441L1107.31,850.26L1107.51,850.01Z" style="fill:rgb(150,154,158);fill-rule:nonzero;"/>
            <path d="M1098.4,811.171L1100.6,812.441L1102.8,811.171L1100.6,809.901L1098.4,811.171Z" style="fill:rgb(150,154,158);fill-rule:nonzero;"/>
            <path d="M1095.2,807.371L1097.4,808.641L1099.6,807.371L1097.4,806.101L1095.2,807.371Z" style="fill:rgb(150,154,158);fill-rule:nonzero;"/>
            <path d="M1100.6,804.841L1102.8,803.571L1101.96,803.087L1100.38,802.424L1098.4,803.571L1100.6,804.841Z" style="fill:rgb(150,154,158);fill-rule:nonzero;"/>
            <path d="M1095.2,814.971L1097.4,816.241L1099.6,814.971L1097.4,813.701L1095.2,814.971Z" style="fill:rgb(150,154,158);fill-rule:nonzero;"/>
            <path d="M1095.2,822.571L1097.4,823.841L1099.6,822.571L1097.4,821.301L1095.2,822.571Z" style="fill:rgb(150,154,158);fill-rule:nonzero;"/>
            <path d="M1098.4,818.771L1100.6,820.041L1102.8,818.771L1100.6,817.501L1098.4,818.771Z" style="fill:rgb(150,154,158);fill-rule:nonzero;"/>
            <path d="M1097.4,831.441L1099.6,830.171L1097.4,828.901L1095.2,830.171L1097.4,831.441Z" style="fill:rgb(150,154,158);fill-rule:nonzero;"/>
            <path d="M1100.6,827.641L1102.8,826.371L1100.6,825.101L1098.4,826.371L1100.6,827.641Z" style="fill:rgb(150,154,158);fill-rule:nonzero;"/>
            <path d="M1097.4,839.041L1099.6,837.771L1097.4,836.501L1095.2,837.771L1097.4,839.041Z" style="fill:rgb(150,154,158);fill-rule:nonzero;"/>
            <path d="M1100.6,835.241L1102.8,833.971L1100.6,832.701L1098.4,833.971L1100.6,835.241Z" style="fill:rgb(150,154,158);fill-rule:nonzero;"/>
            <path d="M1097.4,846.641L1099.6,845.371L1097.4,844.101L1095.2,845.371L1097.4,846.641Z" style="fill:rgb(150,154,158);fill-rule:nonzero;"/>
            <path d="M1100.6,842.841L1102.8,841.571L1100.6,840.301L1098.4,841.571L1100.6,842.841Z" style="fill:rgb(150,154,158);fill-rule:nonzero;"/>
            <path d="M1097.4,854.241L1099.6,852.971L1097.4,851.701L1095.2,852.971L1097.4,854.241Z" style="fill:rgb(150,154,158);fill-rule:nonzero;"/>
            <path d="M1100.6,850.441L1102.8,849.171L1100.6,847.901L1098.4,849.171L1100.6,850.441Z" style="fill:rgb(150,154,158);fill-rule:nonzero;"/>
            <path d="M1097.24,861.751C1097.78,861.22 1098.32,860.679 1098.84,860.136L1097.4,859.301L1095.2,860.571L1097.24,861.751Z" style="fill:rgb(150,154,158);fill-rule:nonzero;"/>
            <path d="M1100.6,858.041L1101.06,857.772C1101.46,857.335 1101.87,856.906 1102.26,856.462L1100.6,855.501L1098.4,856.771L1100.6,858.041Z" style="fill:rgb(150,154,158);fill-rule:nonzero;"/>
            <path d="M1091,801.041L1093.2,799.771L1091,798.501L1088.8,799.771L1091,801.041Z" style="fill:rgb(150,154,158);fill-rule:nonzero;"/>
            <path d="M1092,826.371L1094.2,827.641L1096.4,826.371L1094.2,825.101L1092,826.371Z" style="fill:rgb(150,154,158);fill-rule:nonzero;"/>
            <path d="M1091,823.841L1093.2,822.571L1091,821.301L1088.8,822.571L1091,823.841Z" style="fill:rgb(150,154,158);fill-rule:nonzero;"/>
            <path d="M1091,831.441L1093.2,830.171L1091,828.901L1088.8,830.171L1091,831.441Z" style="fill:rgb(150,154,158);fill-rule:nonzero;"/>
            <path d="M1091,839.041L1093.2,837.771L1091,836.501L1088.8,837.771L1091,839.041Z" style="fill:rgb(150,154,158);fill-rule:nonzero;"/>
            <path d="M1094.2,835.241L1096.4,833.971L1094.2,832.701L1092,833.971L1094.2,835.241Z" style="fill:rgb(150,154,158);fill-rule:nonzero;"/>
            <path d="M1091,846.641L1093.2,845.371L1091,844.101L1088.8,845.371L1091,846.641Z" style="fill:rgb(150,154,158);fill-rule:nonzero;"/>
            <path d="M1092,841.571L1094.2,842.841L1096.4,841.571L1094.2,840.301L1092,841.571Z" style="fill:rgb(150,154,158);fill-rule:nonzero;"/>
            <path d="M1091,854.241L1093.2,852.971L1091,851.701L1088.8,852.971L1091,854.241Z" style="fill:rgb(150,154,158);fill-rule:nonzero;"/>
            <path d="M1094.2,850.441L1096.4,849.171L1094.2,847.901L1092,849.171L1094.2,850.441Z" style="fill:rgb(150,154,158);fill-rule:nonzero;"/>
            <path d="M1091,861.841L1093.2,860.571L1091,859.301L1088.8,860.571L1091,861.841Z" style="fill:rgb(150,154,158);fill-rule:nonzero;"/>
            <path d="M1092,856.771L1094.2,858.041L1096.4,856.771L1094.2,855.501L1092,856.771Z" style="fill:rgb(150,154,158);fill-rule:nonzero;"/>
            <path d="M1089.53,868.593C1090.14,868.103 1090.75,867.609 1091.35,867.105L1091,866.901L1088.8,868.171L1089.53,868.593Z" style="fill:rgb(150,154,158);fill-rule:nonzero;"/>
            <path d="M1093.51,865.246C1094.09,864.736 1094.65,864.208 1095.21,863.685L1094.2,863.101L1092,864.371L1093.51,865.246Z" style="fill:rgb(150,154,158);fill-rule:nonzero;"/>
            <path d="M1084.6,801.041L1086.8,799.771L1084.6,798.501L1082.4,799.771L1084.6,801.041Z" style="fill:rgb(150,154,158);fill-rule:nonzero;"/>
            <path d="M1087.89,797.189L1087.24,796.917L1087.8,797.241L1087.89,797.189Z" style="fill:rgb(150,154,158);fill-rule:nonzero;"/>
            <path d="M1082.4,807.371L1084.6,808.641L1086.8,807.371L1084.6,806.101L1082.4,807.371Z" style="fill:rgb(150,154,158);fill-rule:nonzero;"/>
            <path d="M1082.4,814.971L1084.6,816.241L1086.8,814.971L1084.6,813.701L1082.4,814.971Z" style="fill:rgb(150,154,158);fill-rule:nonzero;"/>
            <path d="M1085.6,826.371L1087.8,827.641L1090,826.371L1087.8,825.101L1085.6,826.371Z" style="fill:rgb(150,154,158);fill-rule:nonzero;"/>
            <path d="M1086.8,822.571L1084.6,821.301L1082.4,822.571L1084.6,823.841L1086.8,822.571Z" style="fill:rgb(150,154,158);fill-rule:nonzero;"/>
            <path d="M1084.6,831.441L1086.8,830.171L1084.6,828.901L1082.4,830.171L1084.6,831.441Z" style="fill:rgb(150,154,158);fill-rule:nonzero;"/>
            <path d="M1084.6,839.041L1086.8,837.771L1084.6,836.501L1082.4,837.771L1084.6,839.041Z" style="fill:rgb(150,154,158);fill-rule:nonzero;"/>
            <path d="M1087.8,835.241L1090,833.971L1087.8,832.701L1085.6,833.971L1087.8,835.241Z" style="fill:rgb(150,154,158);fill-rule:nonzero;"/>
            <path d="M1084.6,846.641L1086.8,845.371L1084.6,844.101L1082.4,845.371L1084.6,846.641Z" style="fill:rgb(150,154,158);fill-rule:nonzero;"/>
            <path d="M1085.6,841.571L1087.8,842.841L1090,841.571L1087.8,840.301L1085.6,841.571Z" style="fill:rgb(150,154,158);fill-rule:nonzero;"/>
            <path d="M1084.6,854.241L1086.8,852.971L1084.6,851.701L1082.4,852.971L1084.6,854.241Z" style="fill:rgb(150,154,158);fill-rule:nonzero;"/>
            <path d="M1087.8,850.441L1090,849.171L1087.8,847.901L1085.6,849.171L1087.8,850.441Z" style="fill:rgb(150,154,158);fill-rule:nonzero;"/>
            <path d="M1076.72,792.521C1076.57,792.459 1076.42,792.395 1076.27,792.331L1078.2,793.441L1078.5,793.266L1076.72,792.521Z" style="fill:rgb(150,154,158);fill-rule:nonzero;"/>
            <path d="M1078.2,801.041L1080.4,799.771L1078.2,798.501L1076,799.771L1078.2,801.041Z" style="fill:rgb(150,154,158);fill-rule:nonzero;"/>
            <path d="M1081.4,797.241L1083.6,795.971L1081.4,794.701L1079.2,795.971L1081.4,797.241Z" style="fill:rgb(150,154,158);fill-rule:nonzero;"/>
            <path d="M1076,807.371L1078.2,808.641L1080.4,807.371L1078.2,806.101L1076,807.371Z" style="fill:rgb(150,154,158);fill-rule:nonzero;"/>
            <path d="M1079.2,803.571L1081.4,804.841L1083.6,803.571L1081.4,802.301L1079.2,803.571Z" style="fill:rgb(150,154,158);fill-rule:nonzero;"/>
            <path d="M1080.4,814.971L1078.2,813.701L1076,814.971L1078.2,816.241L1080.4,814.971Z" style="fill:rgb(150,154,158);fill-rule:nonzero;"/>
            <path d="M1083.6,811.171L1081.4,809.901L1079.2,811.171L1081.4,812.441L1083.6,811.171Z" style="fill:rgb(150,154,158);fill-rule:nonzero;"/>
            <path d="M1078.2,823.841L1080.4,822.571L1078.2,821.301L1076,822.571L1078.2,823.841Z" style="fill:rgb(150,154,158);fill-rule:nonzero;"/>
            <path d="M1081.4,820.041L1083.6,818.771L1081.4,817.501L1079.2,818.771L1081.4,820.041Z" style="fill:rgb(150,154,158);fill-rule:nonzero;"/>
            <path d="M1080.4,830.171L1078.2,828.901L1076,830.171L1078.2,831.441L1080.4,830.171Z" style="fill:rgb(150,154,158);fill-rule:nonzero;"/>
            <path d="M1081.4,827.641L1083.6,826.371L1081.4,825.101L1079.2,826.371L1081.4,827.641Z" style="fill:rgb(150,154,158);fill-rule:nonzero;"/>
            <path d="M1078.2,839.041L1080.4,837.771L1078.2,836.501L1076,837.771L1078.2,839.041Z" style="fill:rgb(150,154,158);fill-rule:nonzero;"/>
            <path d="M1081.4,835.241L1083.6,833.971L1081.4,832.701L1079.2,833.971L1081.4,835.241Z" style="fill:rgb(150,154,158);fill-rule:nonzero;"/>
            <path d="M1078.2,846.641L1080.4,845.371L1078.2,844.101L1076,845.371L1078.2,846.641Z" style="fill:rgb(150,154,158);fill-rule:nonzero;"/>
            <path d="M1081.4,842.841L1083.6,841.571L1081.4,840.301L1079.2,841.571L1081.4,842.841Z" style="fill:rgb(150,154,158);fill-rule:nonzero;"/>
            <path d="M1078.2,854.241L1080.4,852.971L1078.2,851.701L1076,852.971L1078.2,854.241Z" style="fill:rgb(150,154,158);fill-rule:nonzero;"/>
            <path d="M1081.4,850.441L1083.6,849.171L1081.4,847.901L1079.2,849.171L1081.4,850.441Z" style="fill:rgb(150,154,158);fill-rule:nonzero;"/>
            <path d="M1077.52,876.649C1078.32,876.323 1079.11,875.918 1079.88,875.472L1078.2,874.501L1076,875.771L1077.52,876.649Z" style="fill:rgb(150,154,158);fill-rule:nonzero;"/>
            <path d="M1081.4,873.241L1083.6,871.971L1081.4,870.701L1079.2,871.971L1081.4,873.241Z" style="fill:rgb(150,154,158);fill-rule:nonzero;"/>
            <path d="M1072.8,795.971L1075,797.241L1077.2,795.971L1075,794.701L1072.8,795.971Z" style="fill:rgb(150,154,158);fill-rule:nonzero;"/>
            <path d="M1071.8,793.441L1074,792.171L1071.8,790.901L1069.6,792.171L1071.8,793.441Z" style="fill:rgb(150,154,158);fill-rule:nonzero;"/>
            <path d="M1069.6,799.771L1071.8,801.041L1074,799.771L1071.8,798.501L1069.6,799.771Z" style="fill:rgb(150,154,158);fill-rule:nonzero;"/>
            <path d="M1071.8,808.641L1074,807.371L1071.8,806.101L1069.6,807.371L1071.8,808.641Z" style="fill:rgb(150,154,158);fill-rule:nonzero;"/>
            <path d="M1072.8,803.571L1075,804.841L1077.2,803.571L1075,802.301L1072.8,803.571Z" style="fill:rgb(150,154,158);fill-rule:nonzero;"/>
            <path d="M1071.8,816.241L1074,814.971L1071.8,813.701L1069.6,814.971L1071.8,816.241Z" style="fill:rgb(150,154,158);fill-rule:nonzero;"/>
            <path d="M1075,812.441L1077.2,811.171L1075,809.901L1072.8,811.171L1075,812.441Z" style="fill:rgb(150,154,158);fill-rule:nonzero;"/>
            <path d="M1072.8,826.371L1075,827.641L1077.2,826.371L1075,825.101L1072.8,826.371Z" style="fill:rgb(150,154,158);fill-rule:nonzero;"/>
            <path d="M1074,822.571L1071.8,821.301L1069.6,822.571L1071.8,823.841L1074,822.571Z" style="fill:rgb(150,154,158);fill-rule:nonzero;"/>
            <path d="M1077.2,818.771L1075,817.501L1072.8,818.771L1075,820.041L1077.2,818.771Z" style="fill:rgb(150,154,158);fill-rule:nonzero;"/>
            <path d="M1071.8,831.441L1074,830.171L1071.8,828.901L1069.6,830.171L1071.8,831.441Z" style="fill:rgb(150,154,158);fill-rule:nonzero;"/>
            <path d="M1074,837.771L1071.8,836.501L1069.6,837.771L1071.8,839.041L1074,837.771Z" style="fill:rgb(150,154,158);fill-rule:nonzero;"/>
            <path d="M1077.2,833.971L1075,832.701L1072.8,833.971L1075,835.241L1077.2,833.971Z" style="fill:rgb(150,154,158);fill-rule:nonzero;"/>
            <path d="M1071.8,846.641L1074,845.371L1071.8,844.101L1069.6,845.371L1071.8,846.641Z" style="fill:rgb(150,154,158);fill-rule:nonzero;"/>
            <path d="M1072.8,841.571L1075,842.841L1077.2,841.571L1075,840.301L1072.8,841.571Z" style="fill:rgb(150,154,158);fill-rule:nonzero;"/>
            <path d="M1071.8,854.241L1074,852.971L1071.8,851.701L1069.6,852.971L1071.8,854.241Z" style="fill:rgb(150,154,158);fill-rule:nonzero;"/>
            <path d="M1075,850.441L1077.2,849.171L1075,847.901L1072.8,849.171L1075,850.441Z" style="fill:rgb(150,154,158);fill-rule:nonzero;"/>
            <path d="M1071.8,877.041L1074,875.771L1071.8,874.501L1069.6,875.771L1071.8,877.041Z" style="fill:rgb(150,154,158);fill-rule:nonzero;"/>
            <path d="M1066.4,795.971L1068.6,797.241L1070.8,795.971L1068.6,794.701L1066.4,795.971Z" style="fill:rgb(150,154,158);fill-rule:nonzero;"/>
            <path d="M1064.29,792.802L1065.4,793.441L1067.6,792.171L1066.05,791.278C1065.34,791.688 1064.76,792.207 1064.29,792.802Z" style="fill:rgb(150,154,158);fill-rule:nonzero;"/>
            <path d="M1065.4,801.041L1067.6,799.771L1065.4,798.501L1063.2,799.771L1065.4,801.041Z" style="fill:rgb(150,154,158);fill-rule:nonzero;"/>
            <path d="M1065.4,808.641L1067.6,807.371L1065.4,806.101L1063.2,807.371L1065.4,808.641Z" style="fill:rgb(150,154,158);fill-rule:nonzero;"/>
            <path d="M1068.6,804.841L1070.8,803.571L1068.6,802.301L1066.4,803.571L1068.6,804.841Z" style="fill:rgb(150,154,158);fill-rule:nonzero;"/>
            <path d="M1065.4,816.241L1067.6,814.971L1065.4,813.701L1063.2,814.971L1065.4,816.241Z" style="fill:rgb(150,154,158);fill-rule:nonzero;"/>
            <path d="M1068.6,812.441L1070.8,811.171L1068.6,809.901L1066.4,811.171L1068.6,812.441Z" style="fill:rgb(150,154,158);fill-rule:nonzero;"/>
            <path d="M1065.4,823.841L1067.6,822.571L1065.4,821.301L1063.2,822.571L1065.4,823.841Z" style="fill:rgb(150,154,158);fill-rule:nonzero;"/>
            <path d="M1068.6,820.041L1070.8,818.771L1068.6,817.501L1066.4,818.771L1068.6,820.041Z" style="fill:rgb(150,154,158);fill-rule:nonzero;"/>
            <path d="M1067.6,830.171L1065.4,828.901L1063.2,830.171L1065.4,831.441L1067.6,830.171Z" style="fill:rgb(150,154,158);fill-rule:nonzero;"/>
            <path d="M1068.6,827.641L1070.8,826.371L1068.6,825.101L1066.4,826.371L1068.6,827.641Z" style="fill:rgb(150,154,158);fill-rule:nonzero;"/>
            <path d="M1065.4,839.041L1067.6,837.771L1065.4,836.501L1063.2,837.771L1065.4,839.041Z" style="fill:rgb(150,154,158);fill-rule:nonzero;"/>
            <path d="M1068.6,835.241L1070.8,833.971L1068.6,832.701L1066.4,833.971L1068.6,835.241Z" style="fill:rgb(150,154,158);fill-rule:nonzero;"/>
            <path d="M1067.6,845.371L1065.4,844.101L1063.2,845.371L1065.4,846.641L1067.6,845.371Z" style="fill:rgb(150,154,158);fill-rule:nonzero;"/>
            <path d="M1068.6,842.841L1070.8,841.571L1068.6,840.301L1066.4,841.571L1068.6,842.841Z" style="fill:rgb(150,154,158);fill-rule:nonzero;"/>
            <path d="M1065.4,854.241L1067.6,852.971L1065.4,851.701L1064.37,852.294C1064.48,852.807 1064.58,853.323 1064.69,853.835L1065.4,854.241Z" style="fill:rgb(150,154,158);fill-rule:nonzero;"/>
            <path d="M1068.6,850.441L1070.8,849.171L1068.6,847.901L1066.4,849.171L1068.6,850.441Z" style="fill:rgb(150,154,158);fill-rule:nonzero;"/>
            <path d="M1065.4,861.841L1067.6,860.571L1065.4,859.301L1063.2,860.571L1065.4,861.841Z" style="fill:rgb(150,154,158);fill-rule:nonzero;"/>
            <path d="M1065.4,869.441L1067.6,868.171L1065.4,866.901L1063.2,868.171L1065.4,869.441Z" style="fill:rgb(150,154,158);fill-rule:nonzero;"/>
            <path d="M1068.6,873.241L1070.8,871.971L1068.6,870.701L1066.4,871.971L1068.6,873.241Z" style="fill:rgb(150,154,158);fill-rule:nonzero;"/>
            <path d="M1062.36,797.146L1064.4,795.971L1062.98,795.155C1062.73,795.802 1062.53,796.471 1062.36,797.146Z" style="fill:rgb(150,154,158);fill-rule:nonzero;"/>
            <path d="M1060.51,807.766L1061.2,807.371L1060.62,807.037C1060.58,807.28 1060.55,807.523 1060.51,807.766Z" style="fill:rgb(150,154,158);fill-rule:nonzero;"/>
            <path d="M1061.25,802.85C1061.18,803.291 1061.11,803.732 1061.04,804.174L1062.2,804.841L1064.4,803.571L1062.2,802.301L1061.25,802.85Z" style="fill:rgb(150,154,158);fill-rule:nonzero;"/>
            <path d="M1059.42,816L1061.2,814.971L1059.65,814.076C1059.57,814.717 1059.49,815.359 1059.42,816Z" style="fill:rgb(150,154,158);fill-rule:nonzero;"/>
            <path d="M1060.03,811.19L1062.2,812.441L1064.4,811.171L1062.2,809.901L1060.04,811.149L1060.03,811.19Z" style="fill:rgb(150,154,158);fill-rule:nonzero;"/>
            <path d="M1058.83,821.4C1058.76,822.142 1058.7,822.886 1058.63,823.63L1059,823.841L1061.2,822.571L1059,821.301L1058.83,821.4Z" style="fill:rgb(150,154,158);fill-rule:nonzero;"/>
            <path d="M1062.2,820.041L1064.4,818.771L1062.2,817.501L1060,818.771L1062.2,820.041Z" style="fill:rgb(150,154,158);fill-rule:nonzero;"/>
            <path d="M1058.16,830.956L1059,831.441L1061.2,830.171L1059,828.901L1058.23,829.344C1058.2,829.881 1058.18,830.418 1058.16,830.956Z" style="fill:rgb(150,154,158);fill-rule:nonzero;"/>
            <path d="M1062.2,827.641L1064.4,826.371L1062.2,825.101L1060,826.371L1062.2,827.641Z" style="fill:rgb(150,154,158);fill-rule:nonzero;"/>
            <path d="M1059,839.041L1061.2,837.771L1059,836.501L1058.07,837.037C1058.17,837.736 1058.39,838.357 1058.72,838.883L1059,839.041Z" style="fill:rgb(150,154,158);fill-rule:nonzero;"/>
            <path d="M1064.4,833.971L1062.2,832.701L1060,833.971L1062.2,835.241L1064.4,833.971Z" style="fill:rgb(150,154,158);fill-rule:nonzero;"/>
            <path d="M1062.51,842.661L1064.4,841.571L1062.2,840.301L1061.29,840.825C1061.6,840.927 1061.91,841.01 1062.23,841.057C1062.31,841.593 1062.42,842.126 1062.51,842.661Z" style="fill:rgb(150,154,158);fill-rule:nonzero;"/>
            <path d="M1064.4,849.171L1063.62,848.723C1063.68,848.99 1063.74,849.256 1063.79,849.522L1064.4,849.171Z" style="fill:rgb(150,154,158);fill-rule:nonzero;"/>
            <path d="M1061.2,860.571L1059,859.301L1056.8,860.571L1059,861.841L1061.2,860.571Z" style="fill:rgb(150,154,158);fill-rule:nonzero;"/>
            <path d="M1064.4,856.771L1062.25,855.529C1061.54,855.977 1060.82,856.412 1060.09,856.822L1062.2,858.041L1064.4,856.771Z" style="fill:rgb(150,154,158);fill-rule:nonzero;"/>
            <path d="M1059,869.441L1061.2,868.171L1059,866.901L1056.8,868.171L1059,869.441Z" style="fill:rgb(150,154,158);fill-rule:nonzero;"/>
            <path d="M1062.2,865.641L1064.4,864.371L1062.2,863.101L1060,864.371L1062.2,865.641Z" style="fill:rgb(150,154,158);fill-rule:nonzero;"/>
            <path d="M1060.73,872.396C1061.63,872.154 1062.51,871.897 1063.39,871.607C1063.6,871.804 1063.82,871.99 1064.03,872.183L1064.4,871.971L1062.2,870.701L1060,871.971L1060.73,872.396Z" style="fill:rgb(150,154,158);fill-rule:nonzero;"/>
            <path d="M1052.6,869.441L1054.8,868.171L1052.6,866.901L1050.4,868.171L1052.6,869.441Z" style="fill:rgb(150,154,158);fill-rule:nonzero;"/>
            <path d="M1058,864.371L1055.85,863.134C1055.87,863.238 1055.88,863.344 1055.91,863.447C1055.58,863.512 1055.25,863.549 1054.92,863.605L1053.6,864.371L1055.8,865.641L1058,864.371Z" style="fill:rgb(150,154,158);fill-rule:nonzero;"/>
            <path d="M1053.6,871.971L1055.8,873.241L1058,871.971L1055.8,870.701L1053.6,871.971Z" style="fill:rgb(150,154,158);fill-rule:nonzero;"/>
            <path d="M1046.2,869.441L1048.4,868.171L1046.2,866.901L1044,868.171L1046.2,869.441Z" style="fill:rgb(150,154,158);fill-rule:nonzero;"/>
            <path d="M1051.6,864.371L1051.08,864.075C1049.9,864.159 1048.71,864.208 1047.52,864.185L1047.2,864.371L1049.4,865.641L1051.6,864.371Z" style="fill:rgb(150,154,158);fill-rule:nonzero;"/>
            <path d="M1049.4,873.241L1051.6,871.971L1049.4,870.701L1047.2,871.971L1049.4,873.241Z" style="fill:rgb(150,154,158);fill-rule:nonzero;"/>
            <path d="M1043,870.701L1040.8,871.971L1043,873.241L1045.2,871.971L1043,870.701Z" style="fill:rgb(150,154,158);fill-rule:nonzero;"/>
            <path d="M1039.8,869.441L1042,868.171L1039.8,866.901L1037.6,868.171L1039.8,869.441Z" style="fill:rgb(150,154,158);fill-rule:nonzero;"/>
            <path d="M1034.4,871.971L1035.45,872.579C1035.99,872.719 1036.52,872.855 1037.06,872.976L1038.8,871.971L1036.6,870.701L1034.4,871.971Z" style="fill:rgb(150,154,158);fill-rule:nonzero;"/>
            <path d="M1045.2,864.371L1044.59,864.02C1043.71,863.94 1042.83,863.837 1041.96,863.7L1040.8,864.371L1043,865.641L1045.2,864.371Z" style="fill:rgb(150,154,158);fill-rule:nonzero;"/>
            <path d="M1033.81,861.601L1033.69,861.558C1033.23,861.393 1032.8,861.302 1032.39,861.261L1033.4,861.841L1033.81,861.601Z" style="fill:rgb(150,154,158);fill-rule:nonzero;"/>
            <path d="M1031.2,868.171L1033.4,869.441L1035.6,868.171L1033.4,866.901L1031.2,868.171Z" style="fill:rgb(150,154,158);fill-rule:nonzero;"/>
            <path d="M1038.8,864.371L1036.6,863.101L1034.4,864.371L1036.6,865.641L1038.8,864.371Z" style="fill:rgb(150,154,158);fill-rule:nonzero;"/>
            <path d="M1029.2,868.171L1027.72,867.318C1027.81,867.812 1027.97,868.295 1028.2,868.749L1029.2,868.171Z" style="fill:rgb(150,154,158);fill-rule:nonzero;"/>
            <path d="M1032.4,864.371L1030.2,863.101L1028,864.371L1030.2,865.641L1032.4,864.371Z" style="fill:rgb(150,154,158);fill-rule:nonzero;"/>
            <path d="M1030.1,870.76C1030.38,870.927 1030.69,871.077 1031.03,871.201L1031.12,871.232L1030.2,870.701L1030.1,870.76Z" style="fill:rgb(150,154,158);fill-rule:nonzero;"/>
            <path d="M1088.8,807.371L1091,808.641L1093.2,807.371L1091,806.101L1088.8,807.371Z" style="fill:rgb(150,154,158);fill-rule:nonzero;"/>
            <path d="M1085.6,811.171L1087.8,812.441L1090,811.171L1087.8,809.901L1085.6,811.171Z" style="fill:rgb(150,154,158);fill-rule:nonzero;"/>
            <path d="M1094.2,804.841L1096.4,803.571L1094.2,802.301L1092,803.571L1094.2,804.841Z" style="fill:rgb(150,154,158);fill-rule:nonzero;"/>
            <path d="M1087.8,804.841L1090,803.571L1087.8,802.301L1085.6,803.571L1087.8,804.841Z" style="fill:rgb(150,154,158);fill-rule:nonzero;"/>
            <path d="M1092,818.771L1094.2,820.041L1096.4,818.771L1094.2,817.501L1092,818.771Z" style="fill:rgb(150,154,158);fill-rule:nonzero;"/>
            <path d="M1088.8,814.971L1091,816.241L1093.2,814.971L1091,813.701L1088.8,814.971Z" style="fill:rgb(150,154,158);fill-rule:nonzero;"/>
            <path d="M1090,818.771L1087.8,817.501L1085.6,818.771L1087.8,820.041L1090,818.771Z" style="fill:rgb(150,154,158);fill-rule:nonzero;"/>
            <path d="M1092.44,811.165L1092.33,810.979L1092,811.171L1094.2,812.441L1096.4,811.171L1094.2,809.901L1093.5,810.305L1093.99,810.511C1093.65,810.696 1093.33,810.932 1093.02,811.23C1092.82,811.199 1092.63,811.178 1092.44,811.165Z" style="fill:rgb(150,154,158);fill-rule:nonzero;"/>
            <path d="M1086.8,860.571L1084.98,859.524C1084.42,860.029 1083.83,860.542 1083.24,861.055L1084.6,861.841L1086.8,860.571Z" style="fill:rgb(150,154,158);fill-rule:nonzero;"/>
            <path d="M1082.97,860.902C1083.64,860.44 1084.3,859.986 1084.97,859.514L1084.6,859.301L1082.4,860.571L1082.97,860.902Z" style="fill:rgb(150,154,158);fill-rule:nonzero;"/>
            <path d="M1085.6,856.771L1087.8,858.041L1090,856.771L1087.8,855.501L1085.6,856.771Z" style="fill:rgb(150,154,158);fill-rule:nonzero;"/>
            <path d="M1084.6,869.441L1086.8,868.171L1084.6,866.901L1082.4,868.171L1084.6,869.441Z" style="fill:rgb(150,154,158);fill-rule:nonzero;"/>
            <path d="M1087.8,865.641L1090,864.371L1087.8,863.101L1085.6,864.371L1087.8,865.641Z" style="fill:rgb(150,154,158);fill-rule:nonzero;"/>
            <path d="M1078.2,861.841L1080.4,860.571L1078.2,859.301L1076,860.571L1078.2,861.841Z" style="fill:rgb(150,154,158);fill-rule:nonzero;"/>
            <path d="M1081.4,858.041L1083.6,856.771L1081.4,855.501L1079.2,856.771L1081.4,858.041Z" style="fill:rgb(150,154,158);fill-rule:nonzero;"/>
            <path d="M1072.8,856.771L1075,858.041L1077.2,856.771L1075,855.501L1072.8,856.771Z" style="fill:rgb(150,154,158);fill-rule:nonzero;"/>
            <path d="M1078.2,869.441L1080.4,868.171L1078.2,866.901L1076,868.171L1078.2,869.441Z" style="fill:rgb(150,154,158);fill-rule:nonzero;"/>
            <path d="M1072.8,871.971L1075,873.241L1077.2,871.971L1075,870.701L1072.8,871.971Z" style="fill:rgb(150,154,158);fill-rule:nonzero;"/>
            <path d="M1081.4,865.641L1083.6,864.371L1081.4,863.101L1079.2,864.371L1081.4,865.641Z" style="fill:rgb(150,154,158);fill-rule:nonzero;"/>
            <path d="M1071.8,861.841L1074,860.571L1071.8,859.301L1069.6,860.571L1071.8,861.841Z" style="fill:rgb(150,154,158);fill-rule:nonzero;"/>
            <path d="M1068.6,858.041L1070.8,856.771L1068.6,855.501L1066.4,856.771L1068.6,858.041Z" style="fill:rgb(150,154,158);fill-rule:nonzero;"/>
            <path d="M1071.8,869.441L1074,868.171L1071.8,866.901L1069.6,868.171L1071.8,869.441Z" style="fill:rgb(150,154,158);fill-rule:nonzero;"/>
            <path d="M1075,865.641L1077.2,864.371L1075,863.101L1072.8,864.371L1075,865.641Z" style="fill:rgb(150,154,158);fill-rule:nonzero;"/>
            <path d="M1068.6,865.641L1070.8,864.371L1068.6,863.101L1066.4,864.371L1068.6,865.641Z" style="fill:rgb(150,154,158);fill-rule:nonzero;"/>
            <path d="M1182.41,723.943C1184.21,724.605 1185.55,726.58 1185.41,728.345L1180.89,783.215C1180.81,784.058 1180.43,784.699 1179.85,785.08L1179.78,785.11C1179.14,785.501 1178.27,785.572 1177.35,785.231L1094.9,755.234C1093.1,754.572 1091.76,752.597 1091.9,750.832L1096.42,695.962C1096.5,695.099 1096.91,694.438 1097.54,694.067L1097.59,694.027C1098.23,693.676 1099.07,693.616 1099.96,693.937L1182.41,723.943Z" style="fill:rgb(255,97,0);fill-rule:nonzero;"/>
            <path d="M1142.42,808.52L1162.28,790.033L1095.48,765.65L1075.62,784.138L1142.42,808.52ZM1179.27,787.376C1179.27,787.757 1179.09,788.148 1178.69,788.499L1144.93,819.93C1143.85,820.932 1141.52,821.233 1139.72,820.581L1058.4,790.895C1057.23,790.474 1056.59,789.752 1056.59,789.01C1056.59,788.629 1056.77,788.238 1057.15,787.877L1090.92,756.457C1092.01,755.444 1094.33,755.154 1096.12,755.805L1177.46,785.491C1178.62,785.912 1179.27,786.634 1179.27,787.376Z" style="fill:white;fill-rule:nonzero;"/>
            <path d="M1162.28,790.033L1142.42,808.52L1075.62,784.138L1095.48,765.65L1162.28,790.033Z" style="fill:rgb(218,224,229);fill-rule:nonzero;"/>
            <path d="M1179.85,786.33C1179.44,786.33 1179.04,786.131 1178.8,785.765C1178.42,785.188 1178.59,784.413 1179.16,784.034C1179.44,783.852 1179.6,783.536 1179.65,783.097L1184.17,728.242C1184.26,727.043 1183.24,725.581 1181.98,725.116L1099.54,695.111C1099.03,694.929 1098.53,694.932 1098.19,695.124C1097.58,695.455 1096.82,695.233 1096.49,694.627C1096.16,694.021 1096.38,693.262 1096.99,692.93C1097.98,692.389 1099.18,692.329 1100.39,692.76L1182.84,722.769C1185.17,723.627 1186.84,726.119 1186.66,728.444L1182.14,783.318C1182.02,784.532 1181.45,785.523 1180.53,786.126C1180.32,786.264 1180.08,786.33 1179.85,786.33Z" style="fill:rgb(55,58,58);fill-rule:nonzero;"/>
            <path d="M1178.51,786.697C1177.99,786.697 1177.45,786.6 1176.92,786.403L1094.47,756.409C1092.15,755.55 1090.47,753.058 1090.66,750.733L1095.18,695.859C1095.29,694.616 1095.92,693.577 1096.9,692.994C1097.49,692.64 1098.26,692.833 1098.61,693.426C1098.96,694.019 1098.77,694.786 1098.18,695.14C1097.81,695.36 1097.7,695.771 1097.67,696.077L1093.15,750.935C1093.05,752.134 1094.07,753.597 1095.33,754.061L1177.78,784.056C1178.31,784.25 1178.79,784.245 1179.13,784.043C1179.71,783.684 1180.49,783.869 1180.84,784.46C1181.2,785.049 1181.02,785.818 1180.43,786.178C1179.86,786.523 1179.2,786.697 1178.51,786.697Z" style="fill:rgb(55,58,58);fill-rule:nonzero;"/>
            <path d="M1094.06,756.704C1093.09,756.704 1092.2,756.976 1091.77,757.374L1058,788.792C1057.88,788.907 1057.84,788.994 1057.84,789.015C1057.84,789.101 1058.08,789.452 1058.82,789.72L1140.15,819.407C1141.59,819.929 1143.41,819.629 1144.08,819.013L1177.84,787.584C1177.97,787.469 1178.01,787.394 1178.02,787.373C1178.01,787.276 1177.77,786.931 1177.04,786.667L1095.69,756.979C1095.17,756.788 1094.6,756.704 1094.06,756.704ZM1141.79,822.182C1140.95,822.182 1140.09,822.044 1139.3,821.756L1057.97,792.069C1056.32,791.475 1055.34,790.331 1055.34,789.01C1055.34,788.491 1055.51,787.715 1056.29,786.97L1090.07,755.542C1091.51,754.203 1094.3,753.813 1096.55,754.63L1177.89,784.317C1179.53,784.913 1180.52,786.057 1180.52,787.376C1180.52,788.129 1180.17,788.858 1179.53,789.429L1145.78,820.845C1144.84,821.712 1143.34,822.182 1141.79,822.182Z" style="fill:rgb(55,58,58);fill-rule:nonzero;"/>
            <path d="M1077.03,783.853L1142.25,807.658L1160.88,790.317L1095.66,766.513L1077.03,783.853ZM1142.42,809.271L1142.16,809.225L1075.36,784.842C1075.12,784.753 1074.94,784.542 1074.89,784.287C1074.83,784.031 1074.92,783.767 1075.11,783.589L1094.97,765.102C1095.18,764.909 1095.47,764.849 1095.74,764.946L1162.54,789.328C1162.78,789.417 1162.97,789.628 1163.02,789.884C1163.07,790.14 1162.98,790.404 1162.79,790.582L1142.93,809.069C1142.79,809.201 1142.61,809.271 1142.42,809.271Z" style="fill:rgb(55,58,58);fill-rule:nonzero;"/>
            <path d="M1146.4,749.406C1146.01,749.406 1145.62,749.217 1145.38,748.875L1135.67,735.083L1127.62,742.641C1127.36,742.88 1127.02,743.003 1126.67,742.976C1126.32,742.949 1125.99,742.777 1125.78,742.501L1118.43,733.143L1110.96,739.314C1110.43,739.753 1109.64,739.68 1109.21,739.147C1108.77,738.615 1108.84,737.827 1109.37,737.387L1117.82,730.399C1118.08,730.184 1118.41,730.081 1118.75,730.12C1119.09,730.155 1119.4,730.325 1119.6,730.59L1126.9,739.883L1135.01,732.275C1135.27,732.028 1135.63,731.904 1135.99,731.943C1136.35,731.98 1136.68,732.171 1136.89,732.467L1146.81,746.568L1165.62,737.466C1166.24,737.166 1166.99,737.425 1167.29,738.046C1167.59,738.667 1167.33,739.415 1166.71,739.716L1146.95,749.281C1146.77,749.365 1146.59,749.406 1146.4,749.406Z" style="fill:white;fill-rule:nonzero;"/>
            <path d="M1158.6,735.274L1168.59,737.214L1166.3,746.39L1158.6,735.274Z" style="fill:white;fill-rule:nonzero;"/>
            <path d="M1123.71,796.315C1124.87,795.994 1125.15,796.047 1125.67,796.047C1128.33,796.047 1129.91,798.028 1130.47,800.352L1130.47,800.363C1132.89,800.534 1134.22,801.766 1134.22,804.389L1134.22,804.432C1134.87,804.667 1135.39,805.181 1135.63,805.856L1135.64,805.899C1136.09,807.162 1135.43,808.576 1134.15,808.983C1123.32,812.559 1124.7,817.988 1114.45,824.584L1114.44,824.584C1112.79,817.602 1103.75,808.886 1097.38,807.537C1103.16,799.667 1107.42,795.094 1118.36,795.094C1121.89,795.094 1123.27,795.234 1123.71,796.315Z" style="fill:white;fill-rule:nonzero;"/>
            <path d="M1074.15,824.413L1092.68,808.479C1093.45,807.74 1094.42,807.397 1095.54,807.355C1096.12,807.333 1096.74,807.399 1097.38,807.537C1103.75,808.901 1112.75,817.613 1114.44,824.584C1114.67,825.528 1114.76,826.447 1114.69,827.304C1114.6,828.267 1114.33,829.156 1113.82,829.948C1113.82,829.948 1099.14,849.308 1082.2,868.186C1074.58,876.667 1060.98,874.94 1055.5,864.963C1055.37,864.715 1055.25,864.481 1055.12,864.246C1043.49,870.596 1026.39,871.184 1016.53,865.488L966.661,836.694C962.206,834.125 959.92,830.699 959.872,827.1C959.869,826.875 959.871,826.651 959.872,826.426C959.968,795.447 973.203,748.376 1000.94,745.164C1005.22,744.65 1010.09,745.592 1015.01,747.305C1014.92,747.53 1014.82,747.755 1014.74,747.991C1019.75,753.591 1033.49,760.401 1042.2,762.757C1044.08,764.224 1045.13,765.177 1045.06,765.252C1057.41,775.906 1065.12,788.338 1069.06,802.686C1070.52,808.03 1072.51,816.821 1074.15,824.413Z" style="fill:rgb(255,97,0);fill-rule:nonzero;"/>
            <path d="M1079.34,697.236C1079.34,697.236 1076.19,698.146 1070.79,698.927C1069.56,699.109 1068.2,699.292 1066.75,699.452C1072.7,711.188 1062.84,716.135 1060.79,723.459C1052.47,709.56 1046.24,724.337 1048.7,733.749C1043.43,742.905 1034.66,746.095 1017.2,741.491C995.733,717.623 1005.64,688.894 1018.92,685.66C1043.94,660.133 1079.34,697.236 1079.34,697.236Z" style="fill:rgb(55,58,58);fill-rule:nonzero;"/>
            <path d="M1042.2,762.757C1033.52,760.281 1019.75,753.591 1014.74,747.991C1014.82,747.755 1014.92,747.53 1015.01,747.305C1016.31,743.917 1017.2,741.491 1017.2,741.491C1034.66,746.095 1043.43,742.905 1048.7,733.749C1046.24,724.337 1052.47,709.56 1060.79,723.459C1062.84,716.135 1072.7,711.188 1066.75,699.452C1068.2,699.292 1069.56,699.109 1070.79,698.927C1075.3,708.2 1073.61,724.691 1070.32,736.212C1066.41,749.897 1058.29,757.82 1045.07,756.375L1045.07,756.386C1044.27,758.399 1043.53,760.637 1042.85,762.928C1042.63,762.875 1042.42,762.818 1042.2,762.757Z" style="fill:white;fill-rule:nonzero;"/>
            <path d="M959.872,826.426L959.872,827.1C959.861,826.875 959.861,826.651 959.872,826.426Z" style="fill:white;fill-rule:nonzero;"/>
            <path d="M1134.22,805.655C1133.53,805.655 1132.97,805.111 1132.97,804.421C1132.97,802.521 1132.24,801.742 1130.38,801.61C1129.69,801.561 1129.17,800.963 1129.22,800.274C1129.27,799.586 1129.87,799.077 1130.56,799.116C1133.72,799.34 1135.47,801.213 1135.47,804.389C1135.47,805.079 1134.91,805.655 1134.22,805.655Z" style="fill:rgb(55,58,58);fill-rule:nonzero;"/>
            <path d="M1014.74,749.241C1014.6,749.241 1014.45,749.217 1014.31,749.165C1013.66,748.928 1013.33,748.21 1013.56,747.562C1013.62,747.403 1013.68,747.248 1013.75,747.094L1016.03,741.061C1016.27,740.413 1016.98,740.078 1017.63,740.318C1018.28,740.556 1018.61,741.274 1018.38,741.922C1018.38,741.922 1015.96,748.285 1015.91,748.419C1015.73,748.926 1015.25,749.241 1014.74,749.241Z" style="fill:rgb(55,58,58);fill-rule:nonzero;"/>
            <path d="M1017.88,740.377C1033.21,744.352 1042.08,742.307 1047.37,733.552C1045.98,727.404 1047.81,718.804 1052.36,716.892C1054.28,716.085 1057.16,716.213 1060.5,720.757C1061.28,719.173 1062.3,717.688 1063.29,716.236C1066.42,711.685 1069.37,707.386 1065.63,700.018C1065.45,699.652 1065.45,699.218 1065.65,698.857C1065.84,698.497 1066.2,698.255 1066.61,698.209C1067.85,698.073 1069.16,697.903 1070.61,697.69C1073.29,697.298 1075.42,696.876 1076.86,696.556C1071.87,691.858 1055.85,678.052 1039.59,677.946C1032.14,677.9 1025.44,680.788 1019.81,686.536C1019.64,686.702 1019.44,686.82 1019.21,686.875C1014.2,688.095 1009.69,693.375 1007.44,700.655C1003.43,713.659 1007.33,728.482 1017.88,740.377ZM1031.03,744.852C1026.96,744.852 1022.29,744.125 1016.88,742.7C1016.65,742.638 1016.44,742.508 1016.27,742.327C1004.94,729.726 1000.74,713.872 1005.06,699.917C1007.51,691.963 1012.55,686.111 1018.27,684.537C1024.29,678.503 1031.4,675.446 1039.4,675.446L1039.62,675.446C1060.18,675.585 1079.43,695.524 1080.24,696.373C1080.55,696.689 1080.66,697.141 1080.55,697.563C1080.43,697.985 1080.1,698.316 1079.68,698.437C1079.55,698.475 1076.39,699.372 1070.98,700.164C1070.14,700.286 1069.36,700.394 1068.6,700.49C1071.81,708.25 1068.39,713.227 1065.35,717.651C1063.93,719.724 1062.59,721.683 1062,723.795C1061.86,724.276 1061.46,724.631 1060.96,724.698C1060.47,724.767 1059.98,724.53 1059.72,724.101C1058.37,721.835 1055.73,718.188 1053.33,719.196C1050.26,720.487 1048.47,727.938 1049.91,733.432C1050.32,734.99 1051.18,737.087 1052.96,738.222C1053.54,738.594 1053.71,739.367 1053.33,739.949C1052.96,740.531 1052.19,740.699 1051.61,740.327C1050.28,739.475 1049.19,738.189 1048.4,736.544C1044.4,742.146 1038.86,744.851 1031.03,744.852Z" style="fill:rgb(55,58,58);fill-rule:nonzero;"/>
            <path d="M1042.85,764.179C1042.73,764.179 1042.61,764.162 1042.49,764.126C1041.83,763.928 1041.45,763.231 1041.65,762.57C1042.43,759.974 1043.16,757.812 1043.9,755.961C1043.97,755.767 1044.08,755.589 1044.24,755.45C1044.5,755.212 1044.86,755.094 1045.21,755.132C1057.05,756.426 1065.1,749.946 1069.12,735.869C1072.37,724.48 1073.93,708.234 1069.67,699.474C1069.37,698.853 1069.63,698.105 1070.25,697.803C1070.87,697.5 1071.62,697.76 1071.92,698.381C1076.49,707.782 1075.01,724.328 1071.53,736.555C1067.29,751.385 1058.45,758.68 1045.9,757.708C1045.3,759.304 1044.69,761.14 1044.04,763.286C1043.88,763.828 1043.39,764.179 1042.85,764.179Z" style="fill:rgb(55,58,58);fill-rule:nonzero;"/>
            <path d="M1033.6,870.673C1026.98,870.673 1020.66,869.318 1015.9,866.57L966.036,837.777C961.411,835.109 958.779,831.334 958.623,827.146C958.613,826.886 958.611,826.626 958.624,826.366C958.657,825.677 959.251,825.145 959.932,825.177C960.622,825.21 961.154,825.796 961.121,826.485C961.112,826.675 961.114,826.865 961.121,827.054C961.246,830.398 963.377,833.357 967.285,835.612L1017.15,864.405C1026.55,869.833 1043.31,869.269 1054.52,863.148C1055.13,862.817 1055.89,863.044 1056.22,863.65C1056.55,864.256 1056.32,865.012 1055.72,865.343C1049.25,868.876 1041.23,870.673 1033.6,870.673Z" style="fill:rgb(55,58,58);fill-rule:nonzero;"/>
            <path d="M959.872,828.35C959.182,828.35 958.622,827.791 958.622,827.1L958.622,826.42C958.719,795.109 972.19,747.235 1000.79,743.922C1004.88,743.431 1009.79,744.168 1015.39,746.113C1015.89,746.273 1016.26,746.747 1016.26,747.305C1016.26,747.996 1015.71,748.555 1015.02,748.555C1014.88,748.555 1014.73,748.532 1014.6,748.485C1009.35,746.659 1004.81,745.957 1001.09,746.405C973.981,749.544 961.216,796.013 961.122,826.43L961.122,827.1C961.122,827.791 960.563,828.35 959.872,828.35Z" style="fill:rgb(55,58,58);fill-rule:nonzero;"/>
            <path d="M1044.11,764.442M1044.11,764.442M1044.11,764.442L1044.05,764.516L1044.11,764.442ZM1044.05,764.516M1044.05,764.516M1077.21,840.193C1076.63,840.195 1076.1,839.785 1075.98,839.192C1075.97,839.126 1074.62,832.503 1072.92,824.677C1071.45,817.874 1069.37,808.593 1067.85,803.015C1063.87,788.513 1056.15,776.469 1044.25,766.198C1044.14,766.104 1044.05,765.994 1043.98,765.875C1043.76,765.65 1043.04,764.997 1041.5,763.791L1041.3,763.63C1040.81,763.142 1040.81,762.351 1041.3,761.863C1041.69,761.47 1042.28,761.392 1042.75,761.633L1042.98,761.773C1044.94,763.309 1045.73,764.021 1046.06,764.458C1058.25,775.031 1066.17,787.429 1070.27,802.355C1071.8,807.988 1073.89,817.315 1075.37,824.148C1077.07,831.99 1078.42,838.627 1078.43,838.693C1078.57,839.37 1078.13,840.03 1077.46,840.168L1077.21,840.193Z" style="fill:rgb(55,58,58);fill-rule:nonzero;"/>
            <path d="M1070.11,874.873C1069.42,874.873 1068.73,874.833 1068.03,874.753C1062.21,874.082 1057.25,870.733 1054.41,865.565L1054.02,864.839C1047.38,852.529 1035.71,829.635 1032.06,814.599C1031.9,813.928 1032.31,813.252 1032.98,813.089C1033.65,812.927 1034.33,813.338 1034.49,814.009C1038.21,829.323 1050.92,853.825 1056.22,863.65L1056.6,864.362C1059.04,868.811 1063.31,871.693 1068.32,872.269C1073.24,872.835 1077.95,871.043 1081.27,867.351C1097.98,848.73 1112.68,829.387 1112.82,829.193C1113.15,828.682 1113.37,828.004 1113.44,827.194C1113.5,826.499 1113.43,825.72 1113.22,824.879C1111.68,818.508 1103.25,810.072 1097.12,808.759C1096.56,808.639 1096.04,808.589 1095.59,808.604C1094.71,808.637 1094.07,808.884 1093.55,809.382L1074.96,825.36C1074.44,825.81 1073.65,825.75 1073.2,825.228C1072.75,824.704 1072.81,823.915 1073.33,823.465L1091.87,807.532C1092.78,806.656 1094.01,806.161 1095.49,806.106C1096.16,806.079 1096.88,806.151 1097.64,806.315C1104.64,807.813 1113.9,817.051 1115.65,824.289C1115.92,825.395 1116.02,826.446 1115.93,827.413C1115.82,828.623 1115.47,829.705 1114.87,830.629C1114.67,830.898 1099.91,850.321 1083.13,869.021C1079.74,872.801 1075.08,874.873 1070.11,874.873Z" style="fill:rgb(55,58,58);fill-rule:nonzero;"/>
            <path d="M1114.45,825.834C1114.04,825.834 1113.64,825.632 1113.4,825.261C1113.03,824.68 1113.19,823.907 1113.77,823.533C1118.08,820.762 1120.29,818.168 1122.24,815.879C1124.96,812.685 1127.31,809.925 1133.76,807.795C1134.05,807.703 1134.28,807.506 1134.41,807.236C1134.55,806.952 1134.57,806.617 1134.46,806.318L1134.43,806.227C1134.32,805.938 1134.09,805.714 1133.79,805.607C1133.57,805.517 1133.4,805.494 1133.22,805.514C1128.58,806.01 1124.41,807.145 1120.81,808.887C1120.19,809.19 1119.44,808.928 1119.14,808.306C1118.84,807.685 1119.1,806.937 1119.72,806.637C1123.58,804.77 1128.03,803.555 1132.95,803.028C1133.56,802.963 1134.16,803.051 1134.71,803.281C1135.66,803.625 1136.45,804.422 1136.81,805.444L1136.84,805.542C1137.15,806.46 1137.08,807.478 1136.65,808.346C1136.21,809.228 1135.46,809.877 1134.53,810.173C1128.76,812.079 1126.72,814.472 1124.14,817.5C1122.08,819.921 1119.74,822.664 1115.13,825.635C1114.92,825.77 1114.68,825.834 1114.45,825.834Z" style="fill:rgb(55,58,58);fill-rule:nonzero;"/>
            <path d="M1116.69,804.676C1116.15,804.676 1115.65,804.327 1115.49,803.787C1115.29,803.125 1115.67,802.428 1116.33,802.229C1116.68,802.122 1117.03,802.013 1117.38,801.903C1118.17,801.656 1118.96,801.41 1119.77,801.199C1120.34,801.045 1120.92,800.884 1121.5,800.723C1124.53,799.878 1127.4,799.081 1129.82,799.081C1130.06,799.081 1130.31,799.092 1130.54,799.104C1131.22,799.14 1131.75,799.729 1131.72,800.418C1131.68,801.107 1131.11,801.651 1130.4,801.6C1130.22,801.591 1130.02,801.581 1129.82,801.581C1127.74,801.581 1124.91,802.369 1122.17,803.131C1121.58,803.294 1120.99,803.458 1120.41,803.615C1119.63,803.818 1118.88,804.054 1118.12,804.29C1117.77,804.401 1117.41,804.513 1117.05,804.622C1116.93,804.658 1116.81,804.676 1116.69,804.676Z" style="fill:rgb(55,58,58);fill-rule:nonzero;"/>
            <path d="M1130.47,801.607C1129.85,801.607 1129.34,801.166 1129.24,800.58C1128.98,799.542 1128.13,797.297 1125.67,797.297L1125.47,797.297C1125.12,797.293 1124.89,797.289 1124.04,797.521C1122.6,797.918 1119.7,798.93 1114.35,800.904C1113.7,801.142 1112.98,800.812 1112.74,800.164C1112.5,799.516 1112.83,798.797 1113.48,798.558C1118.97,796.532 1121.84,795.533 1123.38,795.11C1124.48,794.807 1124.94,794.794 1125.5,794.796L1125.67,794.797C1128.6,794.797 1130.91,796.815 1131.69,800.061C1131.71,800.156 1131.72,800.254 1131.72,800.352C1131.72,801.042 1131.16,801.607 1130.47,801.607Z" style="fill:rgb(55,58,58);fill-rule:nonzero;"/>
            <path d="M1097.38,808.787C1097.12,808.787 1096.86,808.708 1096.64,808.544C1096.09,808.136 1095.97,807.354 1096.37,806.797C1102.12,798.973 1106.76,793.845 1118.36,793.845C1121.67,793.845 1124.06,793.845 1124.87,795.845C1125.13,796.485 1124.82,797.214 1124.18,797.474C1123.54,797.734 1122.81,797.426 1122.55,796.786C1122.38,796.345 1119.66,796.345 1118.36,796.345C1108.26,796.345 1104.35,800.166 1098.39,808.277C1098.14,808.61 1097.77,808.787 1097.38,808.787Z" style="fill:rgb(55,58,58);fill-rule:nonzero;"/>
            <path d="M1042.85,764.179C1042.75,764.179 1042.65,764.167 1042.54,764.141C1042.32,764.083 1042.09,764.024 1041.86,763.958C1032.65,761.333 1018.86,754.471 1013.81,748.824C1013.35,748.31 1013.39,747.52 1013.91,747.059C1014.42,746.6 1015.21,746.643 1015.67,747.157C1020.3,752.333 1033.68,759.027 1042.55,761.555C1042.75,761.613 1042.95,761.666 1043.15,761.716C1043.82,761.883 1044.23,762.563 1044.06,763.232C1043.92,763.8 1043.41,764.179 1042.85,764.179Z" style="fill:rgb(55,58,58);fill-rule:nonzero;"/>
        </g>
    </g>
</svg>
