<?xml version="1.0" encoding="UTF-8" standalone="no"?>
<!DOCTYPE svg PUBLIC "-//W3C//DTD SVG 1.1//EN" "http://www.w3.org/Graphics/SVG/1.1/DTD/svg11.dtd">
<svg width="100%" height="100%" viewBox="0 0 239 194" version="1.1" xmlns="http://www.w3.org/2000/svg" xmlns:xlink="http://www.w3.org/1999/xlink" xml:space="preserve" xmlns:serif="http://www.serif.com/" style="fill-rule:evenodd;clip-rule:evenodd;stroke-linejoin:round;stroke-miterlimit:2;">
    <g transform="matrix(1,0,0,1,-1157.95,-654.489)">
        <g id="cyber-risk-icon" transform="matrix(1,0,0,1,-102.784,-320.617)">
            <path d="M1449.4,1072.1L1447.2,1073.37L1449.4,1074.64L1450.52,1074C1450.45,1073.5 1450.33,1073.02 1450.16,1072.54L1449.4,1072.1Z" style="fill:rgb(150,154,158);fill-rule:nonzero;"/>
            <path d="M1446.2,1075.9L1444,1077.17L1446.2,1078.44L1448.4,1077.17L1446.2,1075.9Z" style="fill:rgb(150,154,158);fill-rule:nonzero;"/>
            <path d="M1448.85,1080.02L1447.2,1080.97L1447.62,1081.22C1448.09,1080.85 1448.49,1080.45 1448.85,1080.02Z" style="fill:rgb(150,154,158);fill-rule:nonzero;"/>
            <path d="M1440.8,1065.77L1443,1067.04L1443.35,1066.84L1440.87,1065.73L1440.8,1065.77Z" style="fill:rgb(150,154,158);fill-rule:nonzero;"/>
            <path d="M1443,1072.1L1440.8,1073.37L1443,1074.64L1445.2,1073.37L1443,1072.1Z" style="fill:rgb(150,154,158);fill-rule:nonzero;"/>
            <path d="M1448.08,1069.39L1446.2,1068.3L1444,1069.57L1446.2,1070.84L1448.32,1069.61L1448.08,1069.39Z" style="fill:rgb(150,154,158);fill-rule:nonzero;"/>
            <path d="M1443,1079.7L1440.8,1080.97L1443,1082.24L1445.2,1080.97L1443,1079.7Z" style="fill:rgb(150,154,158);fill-rule:nonzero;"/>
            <path d="M1436.6,1064.5L1434.4,1065.77L1436.6,1067.04L1438.8,1065.77L1436.6,1064.5Z" style="fill:rgb(150,154,158);fill-rule:nonzero;"/>
            <path d="M1439.8,1075.9L1437.6,1077.17L1439.8,1078.44L1442,1077.17L1439.8,1075.9Z" style="fill:rgb(150,154,158);fill-rule:nonzero;"/>
            <path d="M1436.6,1072.1L1434.4,1073.37L1436.6,1074.64L1438.8,1073.37L1436.6,1072.1Z" style="fill:rgb(150,154,158);fill-rule:nonzero;"/>
            <path d="M1439.8,1068.3L1437.6,1069.57L1439.8,1070.84L1442,1069.57L1439.8,1068.3Z" style="fill:rgb(150,154,158);fill-rule:nonzero;"/>
            <path d="M1436.6,1079.7L1434.4,1080.97L1436.6,1082.24L1438.8,1080.97L1436.6,1079.7Z" style="fill:rgb(150,154,158);fill-rule:nonzero;"/>
            <path d="M1434.4,1088.57L1436.42,1089.74L1438.32,1088.3L1436.6,1087.3L1434.4,1088.57Z" style="fill:rgb(150,154,158);fill-rule:nonzero;"/>
            <path d="M1439.8,1083.5L1437.6,1084.77L1439.8,1086.04L1442,1084.77L1439.8,1083.5Z" style="fill:rgb(150,154,158);fill-rule:nonzero;"/>
            <path d="M1430.2,1064.5L1428,1065.77L1430.2,1067.04L1432.4,1065.77L1430.2,1064.5Z" style="fill:rgb(150,154,158);fill-rule:nonzero;"/>
            <path d="M1433.4,1075.9L1431.2,1077.17L1433.4,1078.44L1435.6,1077.17L1433.4,1075.9Z" style="fill:rgb(150,154,158);fill-rule:nonzero;"/>
            <path d="M1430.2,1072.1L1428,1073.37L1430.2,1074.64L1432.4,1073.37L1430.2,1072.1Z" style="fill:rgb(150,154,158);fill-rule:nonzero;"/>
            <path d="M1433.4,1068.3L1431.2,1069.57L1433.4,1070.84L1435.6,1069.57L1433.4,1068.3Z" style="fill:rgb(150,154,158);fill-rule:nonzero;"/>
            <path d="M1432.4,1080.97L1430.2,1079.7L1428,1080.97L1430.2,1082.24L1432.4,1080.97Z" style="fill:rgb(150,154,158);fill-rule:nonzero;"/>
            <path d="M1432.4,1088.57L1430.2,1087.3L1428,1088.57L1430.2,1089.84L1432.4,1088.57Z" style="fill:rgb(150,154,158);fill-rule:nonzero;"/>
            <path d="M1433.4,1083.5L1431.2,1084.77L1433.4,1086.04L1435.6,1084.77L1433.4,1083.5Z" style="fill:rgb(150,154,158);fill-rule:nonzero;"/>
            <path d="M1434.1,1091.51L1433.4,1091.1L1431.2,1092.37L1432.2,1092.95L1434.1,1091.51Z" style="fill:rgb(150,154,158);fill-rule:nonzero;"/>
            <path d="M1427,1060.7L1424.8,1061.97L1427,1063.24L1429.2,1061.97L1427,1060.7Z" style="fill:rgb(150,154,158);fill-rule:nonzero;"/>
            <path d="M1425.09,1058.69L1422.61,1057.59L1421.6,1058.17L1423.8,1059.44L1425.09,1058.69Z" style="fill:rgb(150,154,158);fill-rule:nonzero;"/>
            <path d="M1423.8,1067.04L1426,1065.77L1423.8,1064.5L1421.6,1065.77L1423.8,1067.04Z" style="fill:rgb(150,154,158);fill-rule:nonzero;"/>
            <path d="M1423.8,1074.64L1426,1073.37L1423.8,1072.1L1421.6,1073.37L1423.8,1074.64Z" style="fill:rgb(150,154,158);fill-rule:nonzero;"/>
            <path d="M1427,1068.3L1424.8,1069.57L1427,1070.84L1429.2,1069.57L1427,1068.3Z" style="fill:rgb(150,154,158);fill-rule:nonzero;"/>
            <path d="M1426,1080.97L1423.8,1079.7L1421.6,1080.97L1423.8,1082.24L1426,1080.97Z" style="fill:rgb(150,154,158);fill-rule:nonzero;"/>
            <path d="M1429.2,1077.17L1427,1075.9L1424.8,1077.17L1427,1078.44L1429.2,1077.17Z" style="fill:rgb(150,154,158);fill-rule:nonzero;"/>
            <path d="M1426,1088.57L1423.8,1087.3L1421.6,1088.57L1423.8,1089.84L1426,1088.57Z" style="fill:rgb(150,154,158);fill-rule:nonzero;"/>
            <path d="M1429.2,1084.77L1427,1083.5L1424.8,1084.77L1427,1086.04L1429.2,1084.77Z" style="fill:rgb(150,154,158);fill-rule:nonzero;"/>
            <path d="M1426,1096.17L1423.8,1094.9L1421.6,1096.17L1423.8,1097.44L1426,1096.17Z" style="fill:rgb(150,154,158);fill-rule:nonzero;"/>
            <path d="M1429.2,1092.37L1427,1091.1L1424.8,1092.37L1427,1093.64L1429.2,1092.37Z" style="fill:rgb(150,154,158);fill-rule:nonzero;"/>
            <path d="M1419.6,1058.17L1417.4,1056.9L1415.2,1058.17L1417.4,1059.44L1419.6,1058.17Z" style="fill:rgb(150,154,158);fill-rule:nonzero;"/>
            <path d="M1419.6,1065.77L1417.4,1064.5L1415.2,1065.77L1417.4,1067.04L1419.6,1065.77Z" style="fill:rgb(150,154,158);fill-rule:nonzero;"/>
            <path d="M1422.8,1061.97L1420.6,1060.7L1418.4,1061.97L1420.6,1063.24L1422.8,1061.97Z" style="fill:rgb(150,154,158);fill-rule:nonzero;"/>
            <path d="M1417.4,1074.64L1419.6,1073.37L1417.4,1072.1L1415.2,1073.37L1417.4,1074.64Z" style="fill:rgb(150,154,158);fill-rule:nonzero;"/>
            <path d="M1420.6,1070.84L1422.8,1069.57L1420.6,1068.3L1418.4,1069.57L1420.6,1070.84Z" style="fill:rgb(150,154,158);fill-rule:nonzero;"/>
            <path d="M1417.4,1082.24L1419.6,1080.97L1417.4,1079.7L1415.2,1080.97L1417.4,1082.24Z" style="fill:rgb(150,154,158);fill-rule:nonzero;"/>
            <path d="M1420.6,1078.44L1422.8,1077.17L1420.6,1075.9L1418.4,1077.17L1420.6,1078.44Z" style="fill:rgb(150,154,158);fill-rule:nonzero;"/>
            <path d="M1417.4,1089.84L1419.6,1088.57L1417.4,1087.3L1415.2,1088.57L1417.4,1089.84Z" style="fill:rgb(150,154,158);fill-rule:nonzero;"/>
            <path d="M1422.8,1084.77L1420.6,1083.5L1418.4,1084.77L1420.6,1086.04L1422.8,1084.77Z" style="fill:rgb(150,154,158);fill-rule:nonzero;"/>
            <path d="M1419.6,1096.17L1417.4,1094.9L1415.2,1096.17L1417.4,1097.44L1419.6,1096.17Z" style="fill:rgb(150,154,158);fill-rule:nonzero;"/>
            <path d="M1422.8,1092.37L1420.6,1091.1L1418.4,1092.37L1420.6,1093.64L1422.8,1092.37Z" style="fill:rgb(150,154,158);fill-rule:nonzero;"/>
            <path d="M1418.67,1103.23L1417.4,1102.5L1415.2,1103.77L1416.77,1104.68L1418.67,1103.23Z" style="fill:rgb(150,154,158);fill-rule:nonzero;"/>
            <path d="M1422.8,1099.97L1420.6,1098.7L1418.4,1099.97L1420.6,1101.24L1422.8,1099.97Z" style="fill:rgb(150,154,158);fill-rule:nonzero;"/>
            <path d="M1413.2,1058.17L1411,1056.9L1408.8,1058.17L1411,1059.44L1413.2,1058.17Z" style="fill:rgb(150,154,158);fill-rule:nonzero;"/>
            <path d="M1414.2,1055.64L1415.96,1054.62L1413.48,1053.52L1412,1054.37L1414.2,1055.64Z" style="fill:rgb(150,154,158);fill-rule:nonzero;"/>
            <path d="M1413.2,1065.77L1411,1064.5L1408.8,1065.77L1411,1067.04L1413.2,1065.77Z" style="fill:rgb(150,154,158);fill-rule:nonzero;"/>
            <path d="M1416.4,1061.97L1414.2,1060.7L1412,1061.97L1414.2,1063.24L1416.4,1061.97Z" style="fill:rgb(150,154,158);fill-rule:nonzero;"/>
            <path d="M1413.2,1073.37L1411,1072.1L1408.8,1073.37L1411,1074.64L1413.2,1073.37Z" style="fill:rgb(150,154,158);fill-rule:nonzero;"/>
            <path d="M1416.4,1069.57L1414.2,1068.3L1412,1069.57L1414.2,1070.84L1416.4,1069.57Z" style="fill:rgb(150,154,158);fill-rule:nonzero;"/>
            <path d="M1411,1082.24L1413.2,1080.97L1411,1079.7L1408.8,1080.97L1411,1082.24Z" style="fill:rgb(150,154,158);fill-rule:nonzero;"/>
            <path d="M1414.2,1078.44L1416.4,1077.17L1414.2,1075.9L1412,1077.17L1414.2,1078.44Z" style="fill:rgb(150,154,158);fill-rule:nonzero;"/>
            <path d="M1411,1089.84L1413.2,1088.57L1411,1087.3L1408.8,1088.57L1411,1089.84Z" style="fill:rgb(150,154,158);fill-rule:nonzero;"/>
            <path d="M1414.2,1086.04L1416.4,1084.77L1414.2,1083.5L1412,1084.77L1414.2,1086.04Z" style="fill:rgb(150,154,158);fill-rule:nonzero;"/>
            <path d="M1411,1097.44L1413.2,1096.17L1411,1094.9L1408.8,1096.17L1411,1097.44Z" style="fill:rgb(150,154,158);fill-rule:nonzero;"/>
            <path d="M1414.2,1093.64L1416.4,1092.37L1414.2,1091.1L1412,1092.37L1414.2,1093.64Z" style="fill:rgb(150,154,158);fill-rule:nonzero;"/>
            <path d="M1411,1105.04L1413.2,1103.77L1411,1102.5L1408.8,1103.77L1411,1105.04Z" style="fill:rgb(150,154,158);fill-rule:nonzero;"/>
            <path d="M1414.2,1098.7L1412,1099.97L1414.2,1101.24L1416.4,1099.97L1414.2,1098.7Z" style="fill:rgb(150,154,158);fill-rule:nonzero;"/>
            <path d="M1412.54,1107.89L1414.44,1106.44L1414.2,1106.3L1412,1107.57L1412.54,1107.89Z" style="fill:rgb(150,154,158);fill-rule:nonzero;"/>
            <path d="M1406.8,1050.57L1406.54,1050.42L1404.35,1049.44L1402.4,1050.57L1404.6,1051.84L1406.8,1050.57Z" style="fill:rgb(150,154,158);fill-rule:nonzero;"/>
            <path d="M1406.8,1058.17L1404.6,1056.9L1402.4,1058.17L1404.6,1059.44L1406.8,1058.17Z" style="fill:rgb(150,154,158);fill-rule:nonzero;"/>
            <path d="M1410,1054.37L1407.8,1053.1L1405.6,1054.37L1407.8,1055.64L1410,1054.37Z" style="fill:rgb(150,154,158);fill-rule:nonzero;"/>
            <path d="M1406.8,1065.77L1404.6,1064.5L1402.4,1065.77L1404.6,1067.04L1406.8,1065.77Z" style="fill:rgb(150,154,158);fill-rule:nonzero;"/>
            <path d="M1410,1061.97L1407.8,1060.7L1405.6,1061.97L1407.8,1063.24L1410,1061.97Z" style="fill:rgb(150,154,158);fill-rule:nonzero;"/>
            <path d="M1406.8,1073.37L1404.6,1072.1L1402.4,1073.37L1404.6,1074.64L1406.8,1073.37Z" style="fill:rgb(150,154,158);fill-rule:nonzero;"/>
            <path d="M1410,1069.57L1407.8,1068.3L1405.6,1069.57L1407.8,1070.84L1410,1069.57Z" style="fill:rgb(150,154,158);fill-rule:nonzero;"/>
            <path d="M1406.8,1080.97L1404.6,1079.7L1402.4,1080.97L1404.6,1082.24L1406.8,1080.97Z" style="fill:rgb(150,154,158);fill-rule:nonzero;"/>
            <path d="M1410,1077.17L1407.8,1075.9L1405.6,1077.17L1407.8,1078.44L1410,1077.17Z" style="fill:rgb(150,154,158);fill-rule:nonzero;"/>
            <path d="M1405.6,1092.37L1407.8,1093.64L1410,1092.37L1407.8,1091.1L1405.6,1092.37Z" style="fill:rgb(150,154,158);fill-rule:nonzero;"/>
            <path d="M1404.6,1089.84L1406.8,1088.57L1404.6,1087.3L1402.4,1088.57L1404.6,1089.84Z" style="fill:rgb(150,154,158);fill-rule:nonzero;"/>
            <path d="M1407.8,1086.04L1410,1084.77L1407.8,1083.5L1405.6,1084.77L1407.8,1086.04Z" style="fill:rgb(150,154,158);fill-rule:nonzero;"/>
            <path d="M1404.6,1097.44L1406.8,1096.17L1404.6,1094.9L1402.4,1096.17L1404.6,1097.44Z" style="fill:rgb(150,154,158);fill-rule:nonzero;"/>
            <path d="M1404.6,1105.04L1406.8,1103.77L1404.6,1102.5L1402.4,1103.77L1404.6,1105.04Z" style="fill:rgb(150,154,158);fill-rule:nonzero;"/>
            <path d="M1407.8,1101.24L1410,1099.97L1407.8,1098.7L1405.6,1099.97L1407.8,1101.24Z" style="fill:rgb(150,154,158);fill-rule:nonzero;"/>
            <path d="M1405.6,1107.57L1407.8,1108.84L1410,1107.57L1407.8,1106.3L1405.6,1107.57Z" style="fill:rgb(150,154,158);fill-rule:nonzero;"/>
            <path d="M1400.4,1050.57L1398.2,1049.3L1396,1050.57L1398.2,1051.84L1400.4,1050.57Z" style="fill:rgb(150,154,158);fill-rule:nonzero;"/>
            <path d="M1400.4,1058.17L1398.2,1056.9L1396,1058.17L1398.2,1059.44L1400.4,1058.17Z" style="fill:rgb(150,154,158);fill-rule:nonzero;"/>
            <path d="M1401.4,1055.64L1403.6,1054.37L1401.4,1053.1L1399.2,1054.37L1401.4,1055.64Z" style="fill:rgb(150,154,158);fill-rule:nonzero;"/>
            <path d="M1400.4,1065.77L1398.2,1064.5L1396,1065.77L1398.2,1067.04L1400.4,1065.77Z" style="fill:rgb(150,154,158);fill-rule:nonzero;"/>
            <path d="M1403.6,1061.97L1401.4,1060.7L1399.2,1061.97L1401.4,1063.24L1403.6,1061.97Z" style="fill:rgb(150,154,158);fill-rule:nonzero;"/>
            <path d="M1400.4,1073.37L1398.2,1072.1L1396,1073.37L1398.2,1074.64L1400.4,1073.37Z" style="fill:rgb(150,154,158);fill-rule:nonzero;"/>
            <path d="M1403.6,1069.57L1401.4,1068.3L1399.2,1069.57L1401.4,1070.84L1403.6,1069.57Z" style="fill:rgb(150,154,158);fill-rule:nonzero;"/>
            <path d="M1400.4,1080.97L1398.2,1079.7L1396,1080.97L1398.2,1082.24L1400.4,1080.97Z" style="fill:rgb(150,154,158);fill-rule:nonzero;"/>
            <path d="M1403.6,1077.17L1401.4,1075.9L1399.2,1077.17L1401.4,1078.44L1403.6,1077.17Z" style="fill:rgb(150,154,158);fill-rule:nonzero;"/>
            <path d="M1400.4,1088.57L1398.2,1087.3L1396,1088.57L1398.2,1089.84L1400.4,1088.57Z" style="fill:rgb(150,154,158);fill-rule:nonzero;"/>
            <path d="M1403.6,1084.77L1401.4,1083.5L1399.2,1084.77L1401.4,1086.04L1403.6,1084.77Z" style="fill:rgb(150,154,158);fill-rule:nonzero;"/>
            <path d="M1398.2,1097.44L1400.4,1096.17L1398.2,1094.9L1396,1096.17L1398.2,1097.44Z" style="fill:rgb(150,154,158);fill-rule:nonzero;"/>
            <path d="M1401.4,1093.64L1403.6,1092.37L1401.4,1091.1L1399.2,1092.37L1401.4,1093.64Z" style="fill:rgb(150,154,158);fill-rule:nonzero;"/>
            <path d="M1401.4,1101.24L1403.6,1099.97L1401.4,1098.7L1399.2,1099.97L1401.4,1101.24Z" style="fill:rgb(150,154,158);fill-rule:nonzero;"/>
            <path d="M1391.8,1044.24L1392.18,1044.02L1389.7,1042.91L1389.6,1042.97L1391.8,1044.24Z" style="fill:rgb(150,154,158);fill-rule:nonzero;"/>
            <path d="M1391.8,1051.84L1394,1050.57L1391.8,1049.3L1389.6,1050.57L1391.8,1051.84Z" style="fill:rgb(150,154,158);fill-rule:nonzero;"/>
            <path d="M1395,1048.04L1397.2,1046.77L1395,1045.5L1392.8,1046.77L1395,1048.04Z" style="fill:rgb(150,154,158);fill-rule:nonzero;"/>
            <path d="M1394,1058.17L1391.8,1056.9L1389.6,1058.17L1391.8,1059.44L1394,1058.17Z" style="fill:rgb(150,154,158);fill-rule:nonzero;"/>
            <path d="M1397.2,1054.37L1395,1053.1L1392.8,1054.37L1395,1055.64L1397.2,1054.37Z" style="fill:rgb(150,154,158);fill-rule:nonzero;"/>
            <path d="M1394,1065.77L1391.8,1064.5L1389.6,1065.77L1391.8,1067.04L1394,1065.77Z" style="fill:rgb(150,154,158);fill-rule:nonzero;"/>
            <path d="M1397.2,1061.97L1395,1060.7L1392.8,1061.97L1395,1063.24L1397.2,1061.97Z" style="fill:rgb(150,154,158);fill-rule:nonzero;"/>
            <path d="M1394,1073.37L1391.8,1072.1L1389.6,1073.37L1391.8,1074.64L1394,1073.37Z" style="fill:rgb(150,154,158);fill-rule:nonzero;"/>
            <path d="M1397.2,1069.57L1395,1068.3L1392.8,1069.57L1395,1070.84L1397.2,1069.57Z" style="fill:rgb(150,154,158);fill-rule:nonzero;"/>
            <path d="M1394,1080.97L1391.8,1079.7L1389.6,1080.97L1391.8,1082.24L1394,1080.97Z" style="fill:rgb(150,154,158);fill-rule:nonzero;"/>
            <path d="M1397.2,1077.17L1395,1075.9L1392.8,1077.17L1395,1078.44L1397.2,1077.17Z" style="fill:rgb(150,154,158);fill-rule:nonzero;"/>
            <path d="M1394,1088.57L1391.8,1087.3L1389.6,1088.57L1391.8,1089.84L1394,1088.57Z" style="fill:rgb(150,154,158);fill-rule:nonzero;"/>
            <path d="M1397.2,1084.77L1395,1083.5L1392.8,1084.77L1395,1086.04L1397.2,1084.77Z" style="fill:rgb(150,154,158);fill-rule:nonzero;"/>
            <path d="M1394,1096.17L1391.8,1094.9L1391.01,1095.36L1392.74,1096.9L1394,1096.17Z" style="fill:rgb(150,154,158);fill-rule:nonzero;"/>
            <path d="M1397.2,1092.37L1395,1091.1L1392.8,1092.37L1395,1093.64L1397.2,1092.37Z" style="fill:rgb(150,154,158);fill-rule:nonzero;"/>
            <path d="M1397.2,1099.97L1395,1098.7L1394.86,1098.78L1396.59,1100.32L1397.2,1099.97Z" style="fill:rgb(150,154,158);fill-rule:nonzero;"/>
            <path d="M1384.31,1042.33L1383.97,1043.42L1385.4,1044.24L1387.6,1042.97L1385.4,1041.7L1384.31,1042.33Z" style="fill:rgb(150,154,158);fill-rule:nonzero;"/>
            <path d="M1387.6,1050.57L1385.4,1049.3L1383.2,1050.57L1385.4,1051.84L1387.6,1050.57Z" style="fill:rgb(150,154,158);fill-rule:nonzero;"/>
            <path d="M1390.8,1046.77L1388.6,1045.5L1386.4,1046.77L1388.6,1048.04L1390.8,1046.77Z" style="fill:rgb(150,154,158);fill-rule:nonzero;"/>
            <path d="M1385.4,1059.44L1387.6,1058.17L1385.4,1056.9L1383.2,1058.17L1385.4,1059.44Z" style="fill:rgb(150,154,158);fill-rule:nonzero;"/>
            <path d="M1386.4,1054.37L1388.6,1055.64L1390.8,1054.37L1388.6,1053.1L1386.4,1054.37Z" style="fill:rgb(150,154,158);fill-rule:nonzero;"/>
            <path d="M1387.6,1065.77L1385.4,1064.5L1383.2,1065.77L1385.4,1067.04L1387.6,1065.77Z" style="fill:rgb(150,154,158);fill-rule:nonzero;"/>
            <path d="M1390.8,1061.97L1388.6,1060.7L1386.4,1061.97L1388.6,1063.24L1390.8,1061.97Z" style="fill:rgb(150,154,158);fill-rule:nonzero;"/>
            <path d="M1387.6,1073.37L1385.4,1072.1L1383.2,1073.37L1385.4,1074.64L1387.6,1073.37Z" style="fill:rgb(150,154,158);fill-rule:nonzero;"/>
            <path d="M1390.8,1069.57L1388.6,1068.3L1386.4,1069.57L1388.6,1070.84L1390.8,1069.57Z" style="fill:rgb(150,154,158);fill-rule:nonzero;"/>
            <path d="M1385.4,1082.24L1387.6,1080.97L1385.4,1079.7L1383.2,1080.97L1385.4,1082.24Z" style="fill:rgb(150,154,158);fill-rule:nonzero;"/>
            <path d="M1388.6,1078.44L1390.8,1077.17L1388.6,1075.9L1386.4,1077.17L1388.6,1078.44Z" style="fill:rgb(150,154,158);fill-rule:nonzero;"/>
            <path d="M1385.4,1089.84L1387.6,1088.57L1385.4,1087.3L1383.3,1088.51L1383.7,1088.86L1385.4,1089.84Z" style="fill:rgb(150,154,158);fill-rule:nonzero;"/>
            <path d="M1390.8,1084.77L1388.6,1083.5L1386.4,1084.77L1388.6,1086.04L1390.8,1084.77Z" style="fill:rgb(150,154,158);fill-rule:nonzero;"/>
            <path d="M1390.8,1092.37L1388.6,1091.1L1387.16,1091.93L1388.89,1093.47L1390.8,1092.37Z" style="fill:rgb(150,154,158);fill-rule:nonzero;"/>
            <path d="M1383.16,1046.06L1382.63,1047.79L1384.4,1046.77L1383.16,1046.06Z" style="fill:rgb(150,154,158);fill-rule:nonzero;"/>
            <path d="M1379.05,1059.41L1381.2,1058.17L1379.7,1057.31L1379.05,1059.41Z" style="fill:rgb(150,154,158);fill-rule:nonzero;"/>
            <path d="M1380.51,1054.67L1382.2,1055.64L1384.4,1054.37L1382.2,1053.1L1380.73,1053.95L1380.51,1054.67Z" style="fill:rgb(150,154,158);fill-rule:nonzero;"/>
            <path d="M1381.2,1065.77L1379,1064.5L1377.16,1065.56L1377.05,1065.92L1379,1067.04L1381.2,1065.77Z" style="fill:rgb(150,154,158);fill-rule:nonzero;"/>
            <path d="M1384.4,1061.97L1382.2,1060.7L1380,1061.97L1382.2,1063.24L1384.4,1061.97Z" style="fill:rgb(150,154,158);fill-rule:nonzero;"/>
            <path d="M1381.2,1073.37L1379,1072.1L1376.8,1073.37L1379,1074.64L1381.2,1073.37Z" style="fill:rgb(150,154,158);fill-rule:nonzero;"/>
            <path d="M1384.4,1069.57L1382.2,1068.3L1380,1069.57L1382.2,1070.84L1384.4,1069.57Z" style="fill:rgb(150,154,158);fill-rule:nonzero;"/>
            <path d="M1381.2,1080.97L1379,1079.7L1376.8,1080.97L1379,1082.24L1381.2,1080.97Z" style="fill:rgb(150,154,158);fill-rule:nonzero;"/>
            <path d="M1384.4,1077.17L1382.2,1075.9L1380,1077.17L1382.2,1078.44L1384.4,1077.17Z" style="fill:rgb(150,154,158);fill-rule:nonzero;"/>
            <path d="M1382.2,1086.04L1384.4,1084.77L1382.2,1083.5L1380,1084.77L1382.2,1086.04Z" style="fill:rgb(150,154,158);fill-rule:nonzero;"/>
            <path d="M1374.8,1073.37L1374.76,1073.35L1374.75,1073.4L1374.8,1073.37Z" style="fill:rgb(150,154,158);fill-rule:nonzero;"/>
            <path d="M1375.57,1070.71L1375.8,1070.84L1378,1069.57L1376.24,1068.56L1375.57,1070.71Z" style="fill:rgb(150,154,158);fill-rule:nonzero;"/>
            <path d="M1375.8,1078.44L1378,1077.17L1375.8,1075.9L1373.6,1077.17L1375.8,1078.44Z" style="fill:rgb(150,154,158);fill-rule:nonzero;"/>
            <path d="M1488.07,1036.49C1487.42,1035.99 1486.82,1035.49 1486.26,1034.99L1485.6,1035.37L1487.8,1036.64L1488.07,1036.49Z" style="fill:rgb(150,154,158);fill-rule:nonzero;"/>
            <path d="M1487.8,1041.7L1485.6,1042.97L1487.8,1044.24L1490,1042.97L1487.8,1041.7Z" style="fill:rgb(150,154,158);fill-rule:nonzero;"/>
            <path d="M1490.5,1038.19L1488.8,1039.17L1491,1040.44L1492.65,1039.49C1491.89,1039.06 1491.17,1038.62 1490.5,1038.19Z" style="fill:rgb(150,154,158);fill-rule:nonzero;"/>
            <path d="M1481.61,1028.92C1481.32,1028.32 1481.06,1027.71 1480.83,1027.09C1480.68,1027.09 1480.54,1027.08 1480.39,1027.08L1479.2,1027.77L1481.4,1029.04L1481.61,1028.92Z" style="fill:rgb(150,154,158);fill-rule:nonzero;"/>
            <path d="M1483.6,1035.37L1481.4,1034.1L1479.2,1035.37L1481.4,1036.64L1483.6,1035.37Z" style="fill:rgb(150,154,158);fill-rule:nonzero;"/>
            <path d="M1482.97,1031.24L1482.4,1031.57L1483.81,1032.39C1483.51,1032.01 1483.23,1031.63 1482.97,1031.24Z" style="fill:rgb(150,154,158);fill-rule:nonzero;"/>
            <path d="M1481.4,1041.7L1479.2,1042.97L1481.4,1044.24L1483.6,1042.97L1481.4,1041.7Z" style="fill:rgb(150,154,158);fill-rule:nonzero;"/>
            <path d="M1486.8,1039.17L1484.6,1037.9L1482.4,1039.17L1484.6,1040.44L1486.8,1039.17Z" style="fill:rgb(150,154,158);fill-rule:nonzero;"/>
            <path d="M1479.2,1050.57L1479.92,1050.99C1480.01,1050.92 1480.12,1050.86 1480.21,1050.8L1481.87,1049.57L1481.4,1049.3L1479.2,1050.57Z" style="fill:rgb(150,154,158);fill-rule:nonzero;"/>
            <path d="M1486.17,1046.41L1484.6,1045.5L1482.4,1046.77L1484.24,1047.83L1486.17,1046.41Z" style="fill:rgb(150,154,158);fill-rule:nonzero;"/>
            <path d="M1477.2,1027.77L1475.88,1027.01C1475.33,1026.99 1474.78,1026.97 1474.24,1026.94L1472.8,1027.77L1475,1029.04L1477.2,1027.77Z" style="fill:rgb(150,154,158);fill-rule:nonzero;"/>
            <path d="M1478.2,1037.9L1476,1039.17L1478.2,1040.44L1480.4,1039.17L1478.2,1037.9Z" style="fill:rgb(150,154,158);fill-rule:nonzero;"/>
            <path d="M1475,1034.1L1472.8,1035.37L1475,1036.64L1477.2,1035.37L1475,1034.1Z" style="fill:rgb(150,154,158);fill-rule:nonzero;"/>
            <path d="M1480.4,1031.57L1478.2,1030.3L1476,1031.57L1478.2,1032.84L1480.4,1031.57Z" style="fill:rgb(150,154,158);fill-rule:nonzero;"/>
            <path d="M1478.2,1045.5L1476,1046.77L1478.2,1048.04L1480.4,1046.77L1478.2,1045.5Z" style="fill:rgb(150,154,158);fill-rule:nonzero;"/>
            <path d="M1475,1041.7L1472.8,1042.97L1475,1044.24L1477.2,1042.97L1475,1041.7Z" style="fill:rgb(150,154,158);fill-rule:nonzero;"/>
            <path d="M1475,1049.3L1472.8,1050.57L1475,1051.84L1477.2,1050.57L1475,1049.3Z" style="fill:rgb(150,154,158);fill-rule:nonzero;"/>
            <path d="M1468.6,1026.5L1466.4,1027.77L1468.6,1029.04L1470.8,1027.77L1468.6,1026.5Z" style="fill:rgb(150,154,158);fill-rule:nonzero;"/>
            <path d="M1468.6,1034.1L1466.4,1035.37L1468.6,1036.64L1470.8,1035.37L1468.6,1034.1Z" style="fill:rgb(150,154,158);fill-rule:nonzero;"/>
            <path d="M1471.8,1030.3L1469.6,1031.57L1471.8,1032.84L1474,1031.57L1471.8,1030.3Z" style="fill:rgb(150,154,158);fill-rule:nonzero;"/>
            <path d="M1471.8,1045.5L1469.6,1046.77L1471.8,1048.04L1474,1046.77L1471.8,1045.5Z" style="fill:rgb(150,154,158);fill-rule:nonzero;"/>
            <path d="M1468.6,1041.7L1466.4,1042.97L1468.6,1044.24L1470.8,1042.97L1468.6,1041.7Z" style="fill:rgb(150,154,158);fill-rule:nonzero;"/>
            <path d="M1474,1039.17L1471.8,1037.9L1469.6,1039.17L1471.8,1040.44L1474,1039.17Z" style="fill:rgb(150,154,158);fill-rule:nonzero;"/>
            <path d="M1468.6,1049.3L1466.4,1050.57L1468.6,1051.84L1470.8,1050.57L1468.6,1049.3Z" style="fill:rgb(150,154,158);fill-rule:nonzero;"/>
            <path d="M1469.6,1054.37L1469.76,1054.46C1470.89,1054.29 1471.99,1054.07 1473.04,1053.82L1471.8,1053.1L1469.6,1054.37Z" style="fill:rgb(150,154,158);fill-rule:nonzero;"/>
            <path d="M1462.2,1026.5L1460,1027.77L1462.2,1029.04L1464.4,1027.77L1462.2,1026.5Z" style="fill:rgb(150,154,158);fill-rule:nonzero;"/>
            <path d="M1465.4,1037.9L1463.2,1039.17L1465.4,1040.44L1467.6,1039.17L1465.4,1037.9Z" style="fill:rgb(150,154,158);fill-rule:nonzero;"/>
            <path d="M1462.2,1034.1L1460,1035.37L1462.2,1036.64L1464.4,1035.37L1462.2,1034.1Z" style="fill:rgb(150,154,158);fill-rule:nonzero;"/>
            <path d="M1465.4,1030.3L1463.2,1031.57L1465.4,1032.84L1467.6,1031.57L1465.4,1030.3Z" style="fill:rgb(150,154,158);fill-rule:nonzero;"/>
            <path d="M1465.4,1045.5L1463.2,1046.77L1465.4,1048.04L1467.6,1046.77L1465.4,1045.5Z" style="fill:rgb(150,154,158);fill-rule:nonzero;"/>
            <path d="M1462.2,1041.7L1460,1042.97L1462.2,1044.24L1464.4,1042.97L1462.2,1041.7Z" style="fill:rgb(150,154,158);fill-rule:nonzero;"/>
            <path d="M1465.4,1053.1L1463.2,1054.37L1464.33,1055.02C1465.16,1054.98 1465.98,1054.91 1466.8,1054.83L1467.6,1054.37L1465.4,1053.1Z" style="fill:rgb(150,154,158);fill-rule:nonzero;"/>
            <path d="M1462.2,1049.3L1460,1050.57L1462.2,1051.84L1464.4,1050.57L1462.2,1049.3Z" style="fill:rgb(150,154,158);fill-rule:nonzero;"/>
            <path d="M1455.8,1026.5L1453.6,1027.77L1455.8,1029.04L1458,1027.77L1455.8,1026.5Z" style="fill:rgb(150,154,158);fill-rule:nonzero;"/>
            <path d="M1457.57,1023.52L1456.8,1023.97L1459,1025.24L1460.39,1024.44C1459.46,1024.16 1458.52,1023.85 1457.57,1023.52Z" style="fill:rgb(150,154,158);fill-rule:nonzero;"/>
            <path d="M1455.8,1034.1L1453.6,1035.37L1455.8,1036.64L1458,1035.37L1455.8,1034.1Z" style="fill:rgb(150,154,158);fill-rule:nonzero;"/>
            <path d="M1459,1030.3L1456.8,1031.57L1459,1032.84L1461.2,1031.57L1459,1030.3Z" style="fill:rgb(150,154,158);fill-rule:nonzero;"/>
            <path d="M1459,1045.5L1456.8,1046.77L1459,1048.04L1461.2,1046.77L1459,1045.5Z" style="fill:rgb(150,154,158);fill-rule:nonzero;"/>
            <path d="M1455.8,1041.7L1453.6,1042.97L1455.8,1044.24L1458,1042.97L1455.8,1041.7Z" style="fill:rgb(150,154,158);fill-rule:nonzero;"/>
            <path d="M1461.2,1039.17L1459,1037.9L1456.8,1039.17L1459,1040.44L1461.2,1039.17Z" style="fill:rgb(150,154,158);fill-rule:nonzero;"/>
            <path d="M1455.8,1049.3L1453.6,1050.57L1455.8,1051.84L1458,1050.57L1455.8,1049.3Z" style="fill:rgb(150,154,158);fill-rule:nonzero;"/>
            <path d="M1461.2,1054.37L1459,1053.1L1456.8,1054.37L1458.1,1055.12C1458.69,1055.14 1459.27,1055.14 1459.86,1055.15L1461.2,1054.37Z" style="fill:rgb(150,154,158);fill-rule:nonzero;"/>
            <path d="M1449.72,1026.69L1447.79,1028.11L1449.4,1029.04L1451.6,1027.77L1449.72,1026.69Z" style="fill:rgb(150,154,158);fill-rule:nonzero;"/>
            <path d="M1454.03,1023.53L1452.09,1024.95L1452.6,1025.24L1454.8,1023.97L1454.03,1023.53Z" style="fill:rgb(150,154,158);fill-rule:nonzero;"/>
            <path d="M1449.4,1034.1L1447.2,1035.37L1449.4,1036.64L1451.6,1035.37L1449.4,1034.1Z" style="fill:rgb(150,154,158);fill-rule:nonzero;"/>
            <path d="M1452.6,1030.3L1450.4,1031.57L1452.6,1032.84L1454.8,1031.57L1452.6,1030.3Z" style="fill:rgb(150,154,158);fill-rule:nonzero;"/>
            <path d="M1452.6,1045.5L1450.4,1046.77L1452.6,1048.04L1454.8,1046.77L1452.6,1045.5Z" style="fill:rgb(150,154,158);fill-rule:nonzero;"/>
            <path d="M1449.4,1041.7L1447.2,1042.97L1449.4,1044.24L1451.6,1042.97L1449.4,1041.7Z" style="fill:rgb(150,154,158);fill-rule:nonzero;"/>
            <path d="M1454.8,1039.17L1452.6,1037.9L1450.4,1039.17L1452.6,1040.44L1454.8,1039.17Z" style="fill:rgb(150,154,158);fill-rule:nonzero;"/>
            <path d="M1449.4,1049.3L1447.2,1050.57L1449.4,1051.84L1451.6,1050.57L1449.4,1049.3Z" style="fill:rgb(150,154,158);fill-rule:nonzero;"/>
            <path d="M1454.8,1054.37L1452.6,1053.1L1450.4,1054.37L1450.9,1054.66C1451.86,1054.76 1452.84,1054.85 1453.84,1054.92L1454.8,1054.37Z" style="fill:rgb(150,154,158);fill-rule:nonzero;"/>
            <path d="M1446.2,1037.9L1444,1039.17L1446.2,1040.44L1448.4,1039.17L1446.2,1037.9Z" style="fill:rgb(150,154,158);fill-rule:nonzero;"/>
            <path d="M1443,1034.1L1440.8,1035.37L1443,1036.64L1445.2,1035.37L1443,1034.1Z" style="fill:rgb(150,154,158);fill-rule:nonzero;"/>
            <path d="M1446.2,1030.3L1444,1031.57L1446.2,1032.84L1448.4,1031.57L1446.2,1030.3Z" style="fill:rgb(150,154,158);fill-rule:nonzero;"/>
            <path d="M1446.2,1045.5L1444,1046.77L1446.2,1048.04L1448.4,1046.77L1446.2,1045.5Z" style="fill:rgb(150,154,158);fill-rule:nonzero;"/>
            <path d="M1443,1041.7L1440.8,1042.97L1443,1044.24L1445.2,1042.97L1443,1041.7Z" style="fill:rgb(150,154,158);fill-rule:nonzero;"/>
            <path d="M1448.37,1054.35L1446.2,1053.1L1444.99,1053.8C1446.05,1054 1447.18,1054.19 1448.37,1054.35Z" style="fill:rgb(150,154,158);fill-rule:nonzero;"/>
            <path d="M1443,1049.3L1441.39,1050.23C1441.72,1050.67 1442.07,1051.1 1442.43,1051.51L1443,1051.84L1445.2,1050.57L1443,1049.3Z" style="fill:rgb(150,154,158);fill-rule:nonzero;"/>
            <path d="M1439.8,1045.5L1438.83,1046.06C1439.13,1046.72 1439.49,1047.37 1439.87,1048L1442,1046.77L1439.8,1045.5Z" style="fill:rgb(150,154,158);fill-rule:nonzero;"/>
            <path d="M1437.57,1042.26C1437.64,1042.63 1437.72,1042.99 1437.82,1043.36L1437.87,1043.51L1438.8,1042.97L1437.57,1042.26Z" style="fill:rgb(150,154,158);fill-rule:nonzero;"/>
            <path d="M1442,1039.17L1439.8,1037.9L1437.6,1039.17L1439.8,1040.44L1442,1039.17Z" style="fill:rgb(150,154,158);fill-rule:nonzero;"/>
            <path d="M1431.2,1061.97L1433.4,1063.24L1434.22,1062.77L1431.74,1061.66L1431.2,1061.97Z" style="fill:rgb(150,154,158);fill-rule:nonzero;"/>
            <path d="M1366.2,1150.64L1368.4,1149.37L1366.2,1148.1L1364,1149.37L1366.2,1150.64Z" style="fill:rgb(150,154,158);fill-rule:nonzero;"/>
            <path d="M1357.6,1141.77L1358.08,1142.05C1357.96,1141.93 1357.83,1141.82 1357.72,1141.7L1357.6,1141.77Z" style="fill:rgb(150,154,158);fill-rule:nonzero;"/>
            <path d="M1359.8,1150.64L1362,1149.37L1359.8,1148.1L1357.6,1149.37L1359.8,1150.64Z" style="fill:rgb(150,154,158);fill-rule:nonzero;"/>
            <path d="M1361.69,1145.06L1360.8,1145.57L1363,1146.84L1363.69,1146.44C1362.99,1145.98 1362.32,1145.52 1361.69,1145.06Z" style="fill:rgb(150,154,158);fill-rule:nonzero;"/>
            <path d="M1358.54,1157.52L1360.48,1156.09L1359.8,1155.7L1357.6,1156.97L1358.54,1157.52Z" style="fill:rgb(150,154,158);fill-rule:nonzero;"/>
            <path d="M1362.85,1154.35L1364.78,1152.93L1363,1151.9L1360.8,1153.17L1362.85,1154.35Z" style="fill:rgb(150,154,158);fill-rule:nonzero;"/>
            <path d="M1354.5,1137.91L1354.4,1137.97L1354.63,1138.11L1354.5,1137.91Z" style="fill:rgb(150,154,158);fill-rule:nonzero;"/>
            <path d="M1352.11,1133.64L1351.2,1134.17L1352.8,1135.1C1352.56,1134.62 1352.32,1134.14 1352.11,1133.64Z" style="fill:rgb(150,154,158);fill-rule:nonzero;"/>
            <path d="M1354.4,1145.57L1356.6,1146.84L1358.8,1145.57L1356.6,1144.3L1354.4,1145.57Z" style="fill:rgb(150,154,158);fill-rule:nonzero;"/>
            <path d="M1351.2,1141.77L1353.4,1143.04L1355.6,1141.77L1353.4,1140.5L1351.2,1141.77Z" style="fill:rgb(150,154,158);fill-rule:nonzero;"/>
            <path d="M1350.2,1139.24L1352.4,1137.97L1350.2,1136.7L1348,1137.97L1350.2,1139.24Z" style="fill:rgb(150,154,158);fill-rule:nonzero;"/>
            <path d="M1351.2,1149.37L1353.4,1150.64L1355.6,1149.37L1353.4,1148.1L1351.2,1149.37Z" style="fill:rgb(150,154,158);fill-rule:nonzero;"/>
            <path d="M1350.2,1146.84L1352.4,1145.57L1350.2,1144.3L1348,1145.57L1350.2,1146.84Z" style="fill:rgb(150,154,158);fill-rule:nonzero;"/>
            <path d="M1353.4,1158.24L1355.6,1156.97L1353.4,1155.7L1351.2,1156.97L1353.4,1158.24Z" style="fill:rgb(150,154,158);fill-rule:nonzero;"/>
            <path d="M1354.4,1153.17L1356.6,1154.44L1358.8,1153.17L1356.6,1151.9L1354.4,1153.17Z" style="fill:rgb(150,154,158);fill-rule:nonzero;"/>
            <path d="M1350.2,1154.44L1352.4,1153.17L1350.2,1151.9L1348,1153.17L1350.2,1154.44Z" style="fill:rgb(150,154,158);fill-rule:nonzero;"/>
            <path d="M1350.2,1162.04L1352.4,1160.77L1350.2,1159.5L1348,1160.77L1350.2,1162.04Z" style="fill:rgb(150,154,158);fill-rule:nonzero;"/>
            <path d="M1344.8,1134.17L1347,1135.44L1349.2,1134.17L1347,1132.9L1344.8,1134.17Z" style="fill:rgb(150,154,158);fill-rule:nonzero;"/>
            <path d="M1349.2,1141.77L1347,1140.5L1344.8,1141.77L1347,1143.04L1349.2,1141.77Z" style="fill:rgb(150,154,158);fill-rule:nonzero;"/>
            <path d="M1347,1150.64L1349.2,1149.37L1347,1148.1L1344.8,1149.37L1347,1150.64Z" style="fill:rgb(150,154,158);fill-rule:nonzero;"/>
            <path d="M1347,1158.24L1349.2,1156.97L1347,1155.7L1344.8,1156.97L1347,1158.24Z" style="fill:rgb(150,154,158);fill-rule:nonzero;"/>
            <path d="M1346.5,1165.55C1347.35,1165.2 1348.16,1164.82 1348.91,1164.4L1347,1163.3L1344.8,1164.57L1346.5,1165.55Z" style="fill:rgb(150,154,158);fill-rule:nonzero;"/>
            <path d="M1338.4,1134.17L1340.6,1135.44L1342.8,1134.17L1340.6,1132.9L1338.4,1134.17Z" style="fill:rgb(150,154,158);fill-rule:nonzero;"/>
            <path d="M1342.8,1141.77L1340.6,1140.5L1338.4,1141.77L1340.6,1143.04L1342.8,1141.77Z" style="fill:rgb(150,154,158);fill-rule:nonzero;"/>
            <path d="M1341.6,1137.97L1343.8,1139.24L1346,1137.97L1343.8,1136.7L1341.6,1137.97Z" style="fill:rgb(150,154,158);fill-rule:nonzero;"/>
            <path d="M1342.8,1149.37L1340.6,1148.1L1338.4,1149.37L1340.6,1150.64L1342.8,1149.37Z" style="fill:rgb(150,154,158);fill-rule:nonzero;"/>
            <path d="M1346,1145.57L1343.8,1144.3L1341.6,1145.57L1343.8,1146.84L1346,1145.57Z" style="fill:rgb(150,154,158);fill-rule:nonzero;"/>
            <path d="M1340.6,1158.24L1342.8,1156.97L1340.6,1155.7L1338.4,1156.97L1340.6,1158.24Z" style="fill:rgb(150,154,158);fill-rule:nonzero;"/>
            <path d="M1341.6,1153.17L1343.8,1154.44L1346,1153.17L1343.8,1151.9L1341.6,1153.17Z" style="fill:rgb(150,154,158);fill-rule:nonzero;"/>
            <path d="M1340.6,1165.84L1342.8,1164.57L1340.6,1163.3L1338.4,1164.57L1340.6,1165.84Z" style="fill:rgb(150,154,158);fill-rule:nonzero;"/>
            <path d="M1343.8,1162.04L1346,1160.77L1343.8,1159.5L1341.6,1160.77L1343.8,1162.04Z" style="fill:rgb(150,154,158);fill-rule:nonzero;"/>
            <path d="M1332,1134.17L1334.2,1135.44L1336.4,1134.17L1334.2,1132.9L1332,1134.17Z" style="fill:rgb(150,154,158);fill-rule:nonzero;"/>
            <path d="M1337.55,1131.55C1337.42,1131.54 1337.29,1131.52 1337.16,1131.5L1337.4,1131.64L1337.55,1131.55Z" style="fill:rgb(150,154,158);fill-rule:nonzero;"/>
            <path d="M1336.4,1141.77L1334.2,1140.5L1332,1141.77L1334.2,1143.04L1336.4,1141.77Z" style="fill:rgb(150,154,158);fill-rule:nonzero;"/>
            <path d="M1335.2,1137.97L1337.4,1139.24L1339.6,1137.97L1337.4,1136.7L1335.2,1137.97Z" style="fill:rgb(150,154,158);fill-rule:nonzero;"/>
            <path d="M1336.4,1149.37L1334.2,1148.1L1332,1149.37L1334.2,1150.64L1336.4,1149.37Z" style="fill:rgb(150,154,158);fill-rule:nonzero;"/>
            <path d="M1339.6,1145.57L1337.4,1144.3L1335.2,1145.57L1337.4,1146.84L1339.6,1145.57Z" style="fill:rgb(150,154,158);fill-rule:nonzero;"/>
            <path d="M1336.4,1156.97L1334.2,1155.7L1332,1156.97L1334.2,1158.24L1336.4,1156.97Z" style="fill:rgb(150,154,158);fill-rule:nonzero;"/>
            <path d="M1339.6,1153.17L1337.4,1151.9L1335.2,1153.17L1337.4,1154.44L1339.6,1153.17Z" style="fill:rgb(150,154,158);fill-rule:nonzero;"/>
            <path d="M1335.37,1168.27C1336.46,1168.13 1337.53,1167.97 1338.57,1167.78L1337.4,1167.1L1335.37,1168.27Z" style="fill:rgb(150,154,158);fill-rule:nonzero;"/>
            <path d="M1334.2,1165.84L1336.4,1164.57L1334.2,1163.3L1332,1164.57L1334.2,1165.84Z" style="fill:rgb(150,154,158);fill-rule:nonzero;"/>
            <path d="M1337.4,1162.04L1339.6,1160.77L1337.4,1159.5L1335.2,1160.77L1337.4,1162.04Z" style="fill:rgb(150,154,158);fill-rule:nonzero;"/>
            <path d="M1325.6,1134.17L1327.8,1135.44L1330,1134.17L1327.8,1132.9L1325.6,1134.17Z" style="fill:rgb(150,154,158);fill-rule:nonzero;"/>
            <path d="M1328.8,1130.37L1331,1131.64L1332.55,1130.75C1331.48,1130.54 1330.42,1130.3 1329.36,1130.05L1328.8,1130.37Z" style="fill:rgb(150,154,158);fill-rule:nonzero;"/>
            <path d="M1330,1141.77L1327.8,1140.5L1325.6,1141.77L1327.8,1143.04L1330,1141.77Z" style="fill:rgb(150,154,158);fill-rule:nonzero;"/>
            <path d="M1331,1139.24L1333.2,1137.97L1331,1136.7L1328.8,1137.97L1331,1139.24Z" style="fill:rgb(150,154,158);fill-rule:nonzero;"/>
            <path d="M1330,1149.37L1327.8,1148.1L1325.6,1149.37L1327.8,1150.64L1330,1149.37Z" style="fill:rgb(150,154,158);fill-rule:nonzero;"/>
            <path d="M1333.2,1145.57L1331,1144.3L1328.8,1145.57L1331,1146.84L1333.2,1145.57Z" style="fill:rgb(150,154,158);fill-rule:nonzero;"/>
            <path d="M1330,1156.97L1327.8,1155.7L1325.6,1156.97L1327.8,1158.24L1330,1156.97Z" style="fill:rgb(150,154,158);fill-rule:nonzero;"/>
            <path d="M1331,1154.44L1333.2,1153.17L1331,1151.9L1328.8,1153.17L1331,1154.44Z" style="fill:rgb(150,154,158);fill-rule:nonzero;"/>
            <path d="M1330,1164.57L1327.8,1163.3L1325.6,1164.57L1327.8,1165.84L1330,1164.57Z" style="fill:rgb(150,154,158);fill-rule:nonzero;"/>
            <path d="M1333.2,1160.77L1331,1159.5L1328.8,1160.77L1331,1162.04L1333.2,1160.77Z" style="fill:rgb(150,154,158);fill-rule:nonzero;"/>
            <path d="M1329.52,1168.79C1330.66,1168.73 1331.78,1168.66 1332.88,1168.55L1333.2,1168.37L1331,1167.1L1328.8,1168.37L1329.52,1168.79Z" style="fill:rgb(150,154,158);fill-rule:nonzero;"/>
            <path d="M1322.4,1130.37L1324.6,1131.64L1326.8,1130.37L1324.6,1129.1L1322.4,1130.37Z" style="fill:rgb(150,154,158);fill-rule:nonzero;"/>
            <path d="M1321.54,1127.76C1321.3,1127.68 1321.07,1127.6 1320.83,1127.51L1321.4,1127.84L1321.54,1127.76Z" style="fill:rgb(150,154,158);fill-rule:nonzero;"/>
            <path d="M1321.4,1135.44L1323.6,1134.17L1321.4,1132.9L1319.2,1134.17L1321.4,1135.44Z" style="fill:rgb(150,154,158);fill-rule:nonzero;"/>
            <path d="M1323.6,1141.77L1321.4,1140.5L1319.2,1141.77L1321.4,1143.04L1323.6,1141.77Z" style="fill:rgb(150,154,158);fill-rule:nonzero;"/>
            <path d="M1322.4,1137.97L1324.6,1139.24L1326.8,1137.97L1324.6,1136.7L1322.4,1137.97Z" style="fill:rgb(150,154,158);fill-rule:nonzero;"/>
            <path d="M1323.6,1149.37L1321.4,1148.1L1319.2,1149.37L1321.4,1150.64L1323.6,1149.37Z" style="fill:rgb(150,154,158);fill-rule:nonzero;"/>
            <path d="M1326.8,1145.57L1324.6,1144.3L1322.4,1145.57L1324.6,1146.84L1326.8,1145.57Z" style="fill:rgb(150,154,158);fill-rule:nonzero;"/>
            <path d="M1323.6,1156.97L1321.4,1155.7L1319.2,1156.97L1321.4,1158.24L1323.6,1156.97Z" style="fill:rgb(150,154,158);fill-rule:nonzero;"/>
            <path d="M1326.8,1153.17L1324.6,1151.9L1322.4,1153.17L1324.6,1154.44L1326.8,1153.17Z" style="fill:rgb(150,154,158);fill-rule:nonzero;"/>
            <path d="M1321.4,1163.3L1319.2,1164.57L1321.4,1165.84L1323.6,1164.57L1321.4,1163.3Z" style="fill:rgb(150,154,158);fill-rule:nonzero;"/>
            <path d="M1326.8,1160.77L1324.6,1159.5L1322.4,1160.77L1324.6,1162.04L1326.8,1160.77Z" style="fill:rgb(150,154,158);fill-rule:nonzero;"/>
            <path d="M1326.8,1168.37L1324.6,1167.1L1322.4,1168.37L1323.35,1168.92C1324.19,1168.93 1325.02,1168.92 1325.86,1168.91L1326.8,1168.37Z" style="fill:rgb(150,154,158);fill-rule:nonzero;"/>
            <path d="M1312.8,1134.17L1315,1135.44L1317.2,1134.17L1315,1132.9L1312.8,1134.17Z" style="fill:rgb(150,154,158);fill-rule:nonzero;"/>
            <path d="M1318.2,1131.64L1320.4,1130.37L1318.2,1129.1L1316,1130.37L1318.2,1131.64Z" style="fill:rgb(150,154,158);fill-rule:nonzero;"/>
            <path d="M1317.2,1141.77L1315,1140.5L1312.8,1141.77L1315,1143.04L1317.2,1141.77Z" style="fill:rgb(150,154,158);fill-rule:nonzero;"/>
            <path d="M1318.2,1139.24L1320.4,1137.97L1318.2,1136.7L1316,1137.97L1318.2,1139.24Z" style="fill:rgb(150,154,158);fill-rule:nonzero;"/>
            <path d="M1309.6,1137.97L1311.8,1139.24L1314,1137.97L1311.8,1136.7L1309.6,1137.97Z" style="fill:rgb(150,154,158);fill-rule:nonzero;"/>
            <path d="M1317.2,1149.37L1315,1148.1L1312.8,1149.37L1315,1150.64L1317.2,1149.37Z" style="fill:rgb(150,154,158);fill-rule:nonzero;"/>
            <path d="M1320.4,1145.57L1318.2,1144.3L1316,1145.57L1318.2,1146.84L1320.4,1145.57Z" style="fill:rgb(150,154,158);fill-rule:nonzero;"/>
            <path d="M1317.2,1156.97L1315,1155.7L1312.8,1156.97L1315,1158.24L1317.2,1156.97Z" style="fill:rgb(150,154,158);fill-rule:nonzero;"/>
            <path d="M1318.2,1154.44L1320.4,1153.17L1318.2,1151.9L1316,1153.17L1318.2,1154.44Z" style="fill:rgb(150,154,158);fill-rule:nonzero;"/>
            <path d="M1316,1168.37L1316.47,1168.64C1317.51,1168.72 1318.56,1168.77 1319.62,1168.82L1320.4,1168.37L1318.2,1167.1L1316,1168.37Z" style="fill:rgb(150,154,158);fill-rule:nonzero;"/>
            <path d="M1315,1163.3L1312.8,1164.57L1315,1165.84L1317.2,1164.57L1315,1163.3Z" style="fill:rgb(150,154,158);fill-rule:nonzero;"/>
            <path d="M1320.4,1160.77L1318.2,1159.5L1316,1160.77L1318.2,1162.04L1320.4,1160.77Z" style="fill:rgb(150,154,158);fill-rule:nonzero;"/>
            <path d="M1307.1,1134.58L1308.6,1135.44L1310.8,1134.17L1309.04,1133.16L1307.1,1134.58Z" style="fill:rgb(150,154,158);fill-rule:nonzero;"/>
            <path d="M1311.8,1131.64L1314,1130.37L1313.34,1129.99L1311.41,1131.42L1311.8,1131.64Z" style="fill:rgb(150,154,158);fill-rule:nonzero;"/>
            <path d="M1310.8,1141.77L1308.6,1140.5L1306.4,1141.77L1308.6,1143.04L1310.8,1141.77Z" style="fill:rgb(150,154,158);fill-rule:nonzero;"/>
            <path d="M1311.8,1151.9L1309.6,1153.17L1311.8,1154.44L1314,1153.17L1311.8,1151.9Z" style="fill:rgb(150,154,158);fill-rule:nonzero;"/>
            <path d="M1310.8,1149.37L1308.6,1148.1L1306.4,1149.37L1308.6,1150.64L1310.8,1149.37Z" style="fill:rgb(150,154,158);fill-rule:nonzero;"/>
            <path d="M1314,1145.57L1311.8,1144.3L1309.6,1145.57L1311.8,1146.84L1314,1145.57Z" style="fill:rgb(150,154,158);fill-rule:nonzero;"/>
            <path d="M1310.8,1156.97L1308.6,1155.7L1306.4,1156.97L1308.6,1158.24L1310.8,1156.97Z" style="fill:rgb(150,154,158);fill-rule:nonzero;"/>
            <path d="M1311.8,1167.1L1310.2,1168.02C1311.4,1168.18 1312.63,1168.31 1313.9,1168.43L1314,1168.37L1311.8,1167.1Z" style="fill:rgb(150,154,158);fill-rule:nonzero;"/>
            <path d="M1308.6,1163.3L1306.4,1164.57L1308.6,1165.84L1310.8,1164.57L1308.6,1163.3Z" style="fill:rgb(150,154,158);fill-rule:nonzero;"/>
            <path d="M1314,1160.77L1311.8,1159.5L1309.6,1160.77L1311.8,1162.04L1314,1160.77Z" style="fill:rgb(150,154,158);fill-rule:nonzero;"/>
            <path d="M1303.2,1145.57L1305.4,1146.84L1307.6,1145.57L1305.4,1144.3L1303.2,1145.57Z" style="fill:rgb(150,154,158);fill-rule:nonzero;"/>
            <path d="M1300,1141.77L1302.2,1143.04L1304.4,1141.77L1302.2,1140.5L1300,1141.77Z" style="fill:rgb(150,154,158);fill-rule:nonzero;"/>
            <path d="M1303.2,1137.97L1305.4,1139.24L1307.6,1137.97L1305.4,1136.7L1303.2,1137.97Z" style="fill:rgb(150,154,158);fill-rule:nonzero;"/>
            <path d="M1302.2,1150.64L1304.4,1149.37L1302.2,1148.1L1300,1149.37L1302.2,1150.64Z" style="fill:rgb(150,154,158);fill-rule:nonzero;"/>
            <path d="M1304.4,1156.97L1302.2,1155.7L1300,1156.97L1302.2,1158.24L1304.4,1156.97Z" style="fill:rgb(150,154,158);fill-rule:nonzero;"/>
            <path d="M1307.6,1153.17L1305.4,1151.9L1303.2,1153.17L1305.4,1154.44L1307.6,1153.17Z" style="fill:rgb(150,154,158);fill-rule:nonzero;"/>
            <path d="M1301.17,1163.89C1301.66,1164.47 1302.16,1165.03 1302.68,1165.56L1304.4,1164.57L1302.2,1163.3L1301.17,1163.89Z" style="fill:rgb(150,154,158);fill-rule:nonzero;"/>
            <path d="M1307.6,1160.77L1305.4,1159.5L1303.2,1160.77L1305.4,1162.04L1307.6,1160.77Z" style="fill:rgb(150,154,158);fill-rule:nonzero;"/>
            <path d="M1305.15,1167.24C1305.39,1167.29 1305.63,1167.33 1305.87,1167.37L1305.4,1167.1L1305.15,1167.24Z" style="fill:rgb(150,154,158);fill-rule:nonzero;"/>
            <path d="M1298,1141.77L1297.83,1141.67C1297.69,1141.81 1297.56,1141.95 1297.44,1142.09L1298,1141.77Z" style="fill:rgb(150,154,158);fill-rule:nonzero;"/>
            <path d="M1295.8,1148.1L1294.83,1148.66C1294.8,1149.13 1294.8,1149.6 1294.83,1150.08L1295.8,1150.64L1298,1149.37L1295.8,1148.1Z" style="fill:rgb(150,154,158);fill-rule:nonzero;"/>
            <path d="M1299,1146.84L1301.2,1145.57L1299,1144.3L1296.8,1145.57L1299,1146.84Z" style="fill:rgb(150,154,158);fill-rule:nonzero;"/>
            <path d="M1299,1159.5L1298.27,1159.92C1298.65,1160.55 1299.06,1161.16 1299.49,1161.76L1301.2,1160.77L1299,1159.5Z" style="fill:rgb(150,154,158);fill-rule:nonzero;"/>
            <path d="M1296.96,1157.57L1298,1156.97L1296.24,1155.95C1296.46,1156.5 1296.7,1157.03 1296.96,1157.57Z" style="fill:rgb(150,154,158);fill-rule:nonzero;"/>
            <path d="M1299,1154.44L1301.2,1153.17L1299,1151.9L1296.8,1153.17L1299,1154.44Z" style="fill:rgb(150,154,158);fill-rule:nonzero;"/>
            <path d="M1495.2,1122.77L1497.4,1124.04L1499.6,1122.77L1497.4,1121.5L1495.2,1122.77Z" style="fill:rgb(150,154,158);fill-rule:nonzero;"/>
            <path d="M1494.2,1117.7L1492,1118.97L1494.2,1120.24L1496.4,1118.97L1494.2,1117.7Z" style="fill:rgb(150,154,158);fill-rule:nonzero;"/>
            <path d="M1495.74,1126.19L1494.2,1125.3L1492,1126.57L1493.86,1127.65L1495.74,1126.19Z" style="fill:rgb(150,154,158);fill-rule:nonzero;"/>
            <path d="M1490,1118.97L1487.8,1117.7L1486.35,1118.54L1485.72,1119.04L1487.8,1120.24L1490,1118.97Z" style="fill:rgb(150,154,158);fill-rule:nonzero;"/>
            <path d="M1489.84,1115.77L1491,1116.44L1491.52,1116.14L1490.16,1115.52L1489.84,1115.77Z" style="fill:rgb(150,154,158);fill-rule:nonzero;"/>
            <path d="M1487.8,1125.3L1485.6,1126.57L1487.8,1127.84L1490,1126.57L1487.8,1125.3Z" style="fill:rgb(150,154,158);fill-rule:nonzero;"/>
            <path d="M1491,1121.5L1488.8,1122.77L1491,1124.04L1493.2,1122.77L1491,1121.5Z" style="fill:rgb(150,154,158);fill-rule:nonzero;"/>
            <path d="M1491.56,1129.43L1491,1129.1L1488.8,1130.37L1489.68,1130.88L1491.56,1129.43Z" style="fill:rgb(150,154,158);fill-rule:nonzero;"/>
            <path d="M1484.6,1129.1L1482.4,1130.37L1484.6,1131.64L1486.8,1130.37L1484.6,1129.1Z" style="fill:rgb(150,154,158);fill-rule:nonzero;"/>
            <path d="M1481.4,1125.3L1479.2,1126.57L1481.4,1127.84L1483.6,1126.57L1481.4,1125.3Z" style="fill:rgb(150,154,158);fill-rule:nonzero;"/>
            <path d="M1484.6,1121.5L1482.4,1122.77L1484.6,1124.04L1486.8,1122.77L1484.6,1121.5Z" style="fill:rgb(150,154,158);fill-rule:nonzero;"/>
            <path d="M1479.2,1134.17L1481.4,1135.44L1483.6,1134.17L1481.4,1132.9L1479.2,1134.17Z" style="fill:rgb(150,154,158);fill-rule:nonzero;"/>
            <path d="M1478.2,1129.1L1476,1130.37L1478.2,1131.64L1480.4,1130.37L1478.2,1129.1Z" style="fill:rgb(150,154,158);fill-rule:nonzero;"/>
            <path d="M1476.62,1126.24L1474.76,1127.7L1475,1127.84L1477.2,1126.57L1476.62,1126.24Z" style="fill:rgb(150,154,158);fill-rule:nonzero;"/>
            <path d="M1478.2,1136.7L1476,1137.97L1478.2,1139.24L1480.4,1137.97L1478.2,1136.7Z" style="fill:rgb(150,154,158);fill-rule:nonzero;"/>
            <path d="M1475,1132.9L1472.8,1134.17L1475,1135.44L1477.2,1134.17L1475,1132.9Z" style="fill:rgb(150,154,158);fill-rule:nonzero;"/>
            <path d="M1472.8,1141.77L1474.4,1142.7L1476.28,1141.24L1475,1140.5L1472.8,1141.77Z" style="fill:rgb(150,154,158);fill-rule:nonzero;"/>
            <path d="M1472.49,1129.5L1470.63,1130.97L1471.8,1131.64L1474,1130.37L1472.49,1129.5Z" style="fill:rgb(150,154,158);fill-rule:nonzero;"/>
            <path d="M1468.6,1132.9L1467.09,1133.77L1466.51,1134.23L1468.6,1135.44L1470.8,1134.17L1468.6,1132.9Z" style="fill:rgb(150,154,158);fill-rule:nonzero;"/>
            <path d="M1469.6,1145.57L1470.22,1145.93L1472.1,1144.48L1471.8,1144.3L1469.6,1145.57Z" style="fill:rgb(150,154,158);fill-rule:nonzero;"/>
            <path d="M1468.6,1140.5L1466.4,1141.77L1468.6,1143.04L1470.8,1141.77L1468.6,1140.5Z" style="fill:rgb(150,154,158);fill-rule:nonzero;"/>
            <path d="M1474,1137.97L1471.8,1136.7L1469.6,1137.97L1471.8,1139.24L1474,1137.97Z" style="fill:rgb(150,154,158);fill-rule:nonzero;"/>
            <path d="M1465.4,1136.7L1463.2,1137.97L1465.4,1139.24L1467.6,1137.97L1465.4,1136.7Z" style="fill:rgb(150,154,158);fill-rule:nonzero;"/>
            <path d="M1465.4,1144.3L1463.2,1145.57L1465.4,1146.84L1467.6,1145.57L1465.4,1144.3Z" style="fill:rgb(150,154,158);fill-rule:nonzero;"/>
            <path d="M1462.2,1140.5L1460,1141.77L1462.2,1143.04L1464.4,1141.77L1462.2,1140.5Z" style="fill:rgb(150,154,158);fill-rule:nonzero;"/>
            <path d="M1462.2,1148.1L1460,1149.37L1462.2,1150.64L1464.4,1149.37L1462.2,1148.1Z" style="fill:rgb(150,154,158);fill-rule:nonzero;"/>
            <path d="M1459,1144.3L1456.8,1145.57L1459,1146.84L1461.2,1145.57L1459,1144.3Z" style="fill:rgb(150,154,158);fill-rule:nonzero;"/>
            <path d="M1457.41,1141.43L1455.55,1142.9L1455.8,1143.04L1458,1141.77L1457.41,1141.43Z" style="fill:rgb(150,154,158);fill-rule:nonzero;"/>
            <path d="M1453.28,1144.7L1452.99,1144.93L1454.01,1146.02L1454.8,1145.57L1453.28,1144.7Z" style="fill:rgb(150,154,158);fill-rule:nonzero;"/>
            <path d="M1456.14,1148.3L1457.44,1149.69L1458,1149.37L1456.14,1148.3Z" style="fill:rgb(150,154,158);fill-rule:nonzero;"/>
            <path d="M1461,1153.06L1460.09,1152.53L1460.76,1153.25L1461,1153.06Z" style="fill:rgb(150,154,158);fill-rule:nonzero;"/>
            <path d="M1319.47,1043.13L1321.4,1044.24L1321.63,1044.11L1319.47,1043.13Z" style="fill:rgb(150,154,158);fill-rule:nonzero;"/>
            <path d="M1315,1044.24L1317.2,1042.97L1315,1041.7L1312.8,1042.97L1315,1044.24Z" style="fill:rgb(150,154,158);fill-rule:nonzero;"/>
            <path d="M1312.8,1050.57L1313.87,1051.19L1315.75,1049.74L1315,1049.3L1312.8,1050.57Z" style="fill:rgb(150,154,158);fill-rule:nonzero;"/>
            <path d="M1318.05,1047.96L1319.93,1046.5L1318.2,1045.5L1316,1046.77L1318.05,1047.96Z" style="fill:rgb(150,154,158);fill-rule:nonzero;"/>
            <path d="M1306.87,1043.24L1308.6,1044.24L1310.8,1042.97L1308.73,1041.78L1306.87,1043.24Z" style="fill:rgb(150,154,158);fill-rule:nonzero;"/>
            <path d="M1312.57,1039.99L1311.56,1039.53L1311,1039.98L1311.8,1040.44L1312.57,1039.99Z" style="fill:rgb(150,154,158);fill-rule:nonzero;"/>
            <path d="M1310.24,1054L1309.6,1054.37L1309.69,1054.42L1310.24,1054Z" style="fill:rgb(150,154,158);fill-rule:nonzero;"/>
            <path d="M1308.6,1051.84L1310.8,1050.57L1308.6,1049.3L1306.4,1050.57L1308.6,1051.84Z" style="fill:rgb(150,154,158);fill-rule:nonzero;"/>
            <path d="M1311.8,1048.04L1314,1046.77L1311.8,1045.5L1309.6,1046.77L1311.8,1048.04Z" style="fill:rgb(150,154,158);fill-rule:nonzero;"/>
            <path d="M1304.4,1050.57L1302.2,1049.3L1300,1050.57L1302.2,1051.84L1304.4,1050.57Z" style="fill:rgb(150,154,158);fill-rule:nonzero;"/>
            <path d="M1307.6,1046.77L1305.4,1045.5L1303.2,1046.77L1305.4,1048.04L1307.6,1046.77Z" style="fill:rgb(150,154,158);fill-rule:nonzero;"/>
            <path d="M1300,1058.17L1302.2,1059.44L1304.4,1058.17L1302.2,1056.9L1300,1058.17Z" style="fill:rgb(150,154,158);fill-rule:nonzero;"/>
            <path d="M1303.2,1054.37L1305.4,1055.64L1307.6,1054.37L1305.4,1053.1L1303.2,1054.37Z" style="fill:rgb(150,154,158);fill-rule:nonzero;"/>
            <path d="M1296.8,1054.37L1299,1055.64L1301.2,1054.37L1299,1053.1L1296.8,1054.37Z" style="fill:rgb(150,154,158);fill-rule:nonzero;"/>
            <path d="M1297.77,1050.44L1296.56,1051.4L1298,1050.57L1297.77,1050.44Z" style="fill:rgb(150,154,158);fill-rule:nonzero;"/>
            <path d="M1296.8,1061.97L1298.59,1063.01L1300.47,1061.55L1299,1060.7L1296.8,1061.97Z" style="fill:rgb(150,154,158);fill-rule:nonzero;"/>
            <path d="M1295.8,1059.44L1298,1058.17L1295.8,1056.9L1293.6,1058.17L1295.8,1059.44Z" style="fill:rgb(150,154,158);fill-rule:nonzero;"/>
            <path d="M1295.8,1064.5L1293.6,1065.77L1294.41,1066.24L1296.29,1064.79L1295.8,1064.5Z" style="fill:rgb(150,154,158);fill-rule:nonzero;"/>
            <path d="M1292.6,1060.7L1290.4,1061.97L1292.6,1063.24L1294.8,1061.97L1292.6,1060.7Z" style="fill:rgb(150,154,158);fill-rule:nonzero;"/>
            <path d="M1291.6,1058.17L1289.52,1056.97L1287.66,1058.44L1289.4,1059.44L1291.6,1058.17Z" style="fill:rgb(150,154,158);fill-rule:nonzero;"/>
            <path d="M1294.8,1054.37L1293.65,1053.71L1291.79,1055.17L1292.6,1055.64L1294.8,1054.37Z" style="fill:rgb(150,154,158);fill-rule:nonzero;"/>
            <path d="M1287.2,1065.77L1289.4,1067.04L1291.6,1065.77L1289.4,1064.5L1287.2,1065.77Z" style="fill:rgb(150,154,158);fill-rule:nonzero;"/>
            <path d="M1283,1064.5L1280.8,1065.77L1283,1067.04L1285.2,1065.77L1283,1064.5Z" style="fill:rgb(150,154,158);fill-rule:nonzero;"/>
            <path d="M1288.4,1061.97L1286.2,1060.7L1284,1061.97L1286.2,1063.24L1288.4,1061.97Z" style="fill:rgb(150,154,158);fill-rule:nonzero;"/>
            <path d="M1285.18,1073.38L1285.16,1073.35L1285.18,1073.38Z" style="fill:rgb(150,154,158);fill-rule:nonzero;"/>
            <path d="M1284,1069.57L1286.2,1070.84L1288.4,1069.57L1286.2,1068.3L1284,1069.57Z" style="fill:rgb(150,154,158);fill-rule:nonzero;"/>
            <path d="M1278.22,1065.91L1278.34,1066.04L1278.8,1065.77L1278.56,1065.64L1278.22,1065.91Z" style="fill:rgb(150,154,158);fill-rule:nonzero;"/>
            <path d="M1281.76,1069.71L1282,1069.57L1281.21,1069.11L1281.76,1069.71Z" style="fill:rgb(150,154,158);fill-rule:nonzero;"/>
            <path d="M1372.49,1064.79C1354.79,1064.79 1337.09,1068.69 1323.61,1076.46C1310.79,1083.87 1303.73,1093.63 1303.73,1103.96C1303.73,1114.29 1310.79,1124.06 1323.61,1131.46C1350.56,1147.02 1394.41,1147.02 1421.36,1131.46C1434.18,1124.06 1441.24,1114.29 1441.24,1103.96C1441.24,1093.63 1434.18,1083.87 1421.36,1076.47C1407.89,1068.69 1390.19,1064.79 1372.49,1064.79ZM1372.49,1145.59C1354.33,1145.59 1336.18,1141.6 1322.36,1133.62C1308.74,1125.76 1301.23,1115.22 1301.23,1103.96C1301.23,1092.7 1308.74,1082.17 1322.36,1074.3C1350,1058.34 1394.97,1058.34 1422.61,1074.3C1436.24,1082.17 1443.74,1092.7 1443.74,1103.96C1443.74,1115.22 1436.24,1125.76 1422.61,1133.62C1408.79,1141.6 1390.64,1145.59 1372.49,1145.59Z" style="fill:rgb(255,97,0);fill-rule:nonzero;"/>
            <path d="M1363.19,1076.16C1365.66,1075.6 1367.33,1073.5 1367.33,1070.38C1367.33,1065.75 1363.61,1060.62 1359.02,1058.95C1354.44,1057.29 1350.72,1059.7 1350.72,1064.34C1350.72,1067.45 1352.39,1070.78 1354.86,1073.13L1353.69,1084.69L1364.36,1088.56L1363.19,1076.16ZM1410.25,1041.16L1410.25,1108.55C1410.25,1109.94 1409.53,1111.33 1408.04,1112.54L1401.46,1117.89C1397.64,1121.01 1390.19,1121.73 1384.8,1119.53L1327.8,1096.17C1324.52,1094.82 1322.77,1092.7 1322.77,1090.54L1322.77,1023.15C1322.77,1025.3 1324.52,1027.43 1327.8,1028.78L1384.8,1052.13C1390.19,1054.34 1397.64,1053.6 1401.46,1050.5L1408.04,1045.14C1409.53,1043.93 1410.25,1042.54 1410.25,1041.16Z" style="fill:white;fill-rule:nonzero;"/>
            <path d="M1410.25,1041.16C1410.25,1042.54 1409.53,1043.93 1408.04,1045.14L1401.46,1050.5C1397.64,1053.6 1390.19,1054.34 1384.8,1052.13L1327.8,1028.78C1324.52,1027.43 1322.77,1025.3 1322.77,1023.15C1322.77,1021.77 1323.48,1020.37 1324.98,1019.16L1331.56,1013.81C1333.37,1012.33 1336.01,1011.39 1338.87,1011.04L1338.87,1023.83C1338.88,1025.13 1339.96,1026.41 1341.92,1027.2C1345.18,1028.55 1349.7,1028.09 1352.03,1026.21C1352.93,1025.47 1353.36,1024.64 1353.36,1023.8L1353.36,1014.28L1379.07,1024.81L1379.07,1040.08C1379.06,1040.2 1379.06,1040.32 1379.07,1040.43C1379.17,1041.7 1380.22,1042.9 1382.12,1043.67C1385.38,1045.02 1389.92,1044.57 1392.22,1042.69C1393.13,1041.96 1393.56,1041.11 1393.56,1040.27L1393.56,1030.75L1405.22,1035.53C1408.5,1036.87 1410.25,1039.01 1410.25,1041.16Z" style="fill:rgb(255,97,0);fill-rule:nonzero;"/>
            <path d="M1393.56,1012.6L1393.56,1040.27C1393.56,1041.11 1393.13,1041.96 1392.22,1042.69C1389.92,1044.57 1385.38,1045.02 1382.12,1043.67C1380.22,1042.9 1379.16,1041.7 1379.07,1040.43L1379.07,1012.6C1379.07,1003.29 1373.51,995.008 1364.89,991.478C1362.28,990.411 1359.42,990.701 1357.06,992.275C1354.71,993.859 1353.36,996.395 1353.36,999.221L1353.36,1023.8C1353.36,1024.64 1352.93,1025.47 1352.03,1026.21C1349.7,1028.09 1345.18,1028.55 1341.92,1027.2C1339.96,1026.41 1338.88,1025.13 1338.87,1023.83L1338.87,999.221C1338.87,991.591 1342.65,984.5 1348.98,980.245C1355.32,975.99 1363.32,975.172 1370.38,978.061C1384.46,983.827 1393.56,997.378 1393.56,1012.6Z" style="fill:rgb(55,58,58);fill-rule:nonzero;"/>
            <path d="M1379.07,1040.08L1379.07,1040.43C1379.06,1040.32 1379.06,1040.2 1379.07,1040.08Z" style="fill:white;fill-rule:nonzero;"/>
            <path d="M1367.33,1070.38C1367.33,1073.5 1365.66,1075.6 1363.19,1076.16L1364.36,1088.56L1353.69,1084.69L1354.86,1073.13C1352.39,1070.78 1350.72,1067.45 1350.72,1064.34C1350.72,1059.7 1354.44,1057.29 1359.02,1058.95C1363.61,1060.62 1367.33,1065.75 1367.33,1070.38Z" style="fill:rgb(255,97,0);fill-rule:nonzero;"/>
            <path d="M1379.07,1026.06C1378.91,1026.06 1378.75,1026.03 1378.59,1025.97L1352.89,1015.44C1352.25,1015.18 1351.94,1014.45 1352.21,1013.81C1352.47,1013.17 1353.2,1012.86 1353.84,1013.13L1379.54,1023.66C1380.18,1023.92 1380.48,1024.65 1380.22,1025.29C1380.02,1025.77 1379.56,1026.06 1379.07,1026.06Z" style="fill:rgb(55,58,58);fill-rule:nonzero;"/>
            <path d="M1391.72,1054.67C1389.17,1054.67 1386.6,1054.22 1384.33,1053.29L1327.33,1029.93C1323.69,1028.44 1321.52,1025.91 1321.52,1023.15C1321.52,1021.87 1321.98,1019.98 1324.19,1018.19L1330.77,1012.84C1332.7,1011.26 1335.52,1010.18 1338.72,1009.8C1339.4,1009.72 1340.03,1010.21 1340.11,1010.89C1340.19,1011.58 1339.7,1012.2 1339.02,1012.28C1336.28,1012.61 1333.92,1013.5 1332.35,1014.78L1325.76,1020.13C1324.62,1021.06 1324.02,1022.1 1324.02,1023.15C1324.02,1024.86 1325.61,1026.53 1328.28,1027.62L1385.28,1050.98C1390.18,1052.98 1397.23,1052.32 1400.67,1049.53L1407.25,1044.17C1408.4,1043.25 1409,1042.2 1409,1041.16C1409,1039.45 1407.41,1037.78 1404.74,1036.68L1393.09,1031.91C1392.45,1031.65 1392.14,1030.92 1392.4,1030.28C1392.67,1029.64 1393.4,1029.33 1394.03,1029.6L1405.69,1034.37C1409.33,1035.86 1411.5,1038.4 1411.5,1041.16C1411.5,1042.43 1411.04,1044.32 1408.83,1046.11L1402.25,1051.47C1399.68,1053.56 1395.73,1054.67 1391.72,1054.67Z" style="fill:rgb(55,58,58);fill-rule:nonzero;"/>
            <path d="M1391.73,1122.06C1389.18,1122.06 1386.6,1121.61 1384.33,1120.68L1327.33,1097.33C1323.69,1095.84 1321.52,1093.3 1321.52,1090.54L1321.52,1023.15C1321.52,1022.46 1322.08,1021.9 1322.77,1021.9C1323.46,1021.9 1324.02,1022.46 1324.02,1023.15L1324.02,1090.54C1324.02,1092.25 1325.61,1093.92 1328.28,1095.01L1385.28,1118.37C1390.27,1120.42 1397.18,1119.77 1400.67,1116.92L1407.25,1111.57C1408.4,1110.64 1409,1109.6 1409,1108.55L1409,1041.16C1409,1040.47 1409.56,1039.91 1410.25,1039.91C1410.94,1039.91 1411.5,1040.47 1411.5,1041.16L1411.5,1108.55C1411.5,1110.38 1410.58,1112.09 1408.83,1113.51L1402.25,1118.86C1399.68,1120.95 1395.74,1122.06 1391.73,1122.06Z" style="fill:rgb(55,58,58);fill-rule:nonzero;"/>
            <path d="M1386.32,1045.71C1384.71,1045.71 1383.08,1045.42 1381.64,1044.83C1379.36,1043.9 1377.97,1042.33 1377.82,1040.54C1377.81,1040.35 1377.81,1040.15 1377.82,1039.97C1377.88,1039.28 1378.48,1038.78 1379.18,1038.84C1379.87,1038.9 1380.37,1039.51 1380.31,1040.19L1380.31,1040.33C1380.38,1041.14 1381.23,1041.96 1382.59,1042.52C1385.43,1043.69 1389.47,1043.32 1391.43,1041.72C1391.83,1041.4 1392.31,1040.88 1392.31,1040.27L1392.31,1012.6C1392.31,997.894 1383.52,984.791 1369.91,979.218C1363.23,976.486 1355.67,977.259 1349.68,981.283C1343.69,985.304 1340.12,992.009 1340.12,999.221L1340.12,1023.75C1340.12,1024.44 1339.56,1025 1338.87,1025C1338.18,1025 1337.62,1024.44 1337.62,1023.75L1337.62,999.221C1337.62,991.175 1341.61,983.693 1348.29,979.207C1354.97,974.72 1363.41,973.858 1370.85,976.903C1385.41,982.864 1394.81,996.874 1394.81,1012.6L1394.81,1040.27C1394.81,1041.51 1394.17,1042.71 1393.02,1043.66C1391.38,1045 1388.87,1045.71 1386.32,1045.71Z" style="fill:rgb(55,58,58);fill-rule:nonzero;"/>
            <path d="M1379.07,1041.68C1378.38,1041.68 1377.82,1041.12 1377.82,1040.43L1377.82,1012.6C1377.82,1003.81 1372.56,995.97 1364.42,992.634C1362.19,991.729 1359.76,991.975 1357.75,993.314C1355.76,994.658 1354.61,996.812 1354.61,999.221L1354.61,1023.8C1354.61,1024.67 1354.3,1025.97 1352.82,1027.18C1350.12,1029.36 1345.13,1029.88 1341.45,1028.36C1339.07,1027.39 1337.63,1025.7 1337.62,1023.84L1338.87,1023.75L1340.12,1023.75C1340.13,1024.63 1341,1025.48 1342.39,1026.04C1345.21,1027.21 1349.26,1026.84 1351.24,1025.24C1351.64,1024.92 1352.11,1024.4 1352.11,1023.8L1352.11,999.221C1352.11,995.967 1353.66,993.057 1356.36,991.238C1359.07,989.427 1362.36,989.093 1365.37,990.32C1374.45,994.043 1380.32,1002.79 1380.32,1012.6L1380.32,1040.43C1380.32,1041.12 1379.76,1041.68 1379.07,1041.68Z" style="fill:rgb(55,58,58);fill-rule:nonzero;"/>
            <path d="M1355.03,1083.85L1362.93,1086.71L1361.94,1076.28C1361.88,1075.65 1362.3,1075.08 1362.91,1074.94C1364.89,1074.49 1366.08,1072.79 1366.08,1070.38C1366.08,1066.3 1362.65,1061.6 1358.6,1060.13C1356.7,1059.44 1354.96,1059.53 1353.72,1060.4C1352.59,1061.2 1351.97,1062.59 1351.97,1064.34C1351.97,1067 1353.41,1070.02 1355.72,1072.22C1356,1072.49 1356.15,1072.87 1356.11,1073.25L1355.03,1083.85ZM1364.36,1089.81C1364.21,1089.81 1364.07,1089.79 1363.93,1089.74L1353.27,1085.87C1352.73,1085.67 1352.39,1085.13 1352.45,1084.56L1353.56,1073.6C1350.99,1070.95 1349.47,1067.53 1349.47,1064.34C1349.47,1061.75 1350.47,1059.63 1352.29,1058.36C1354.19,1057.03 1356.8,1056.82 1359.45,1057.78C1364.57,1059.64 1368.58,1065.18 1368.58,1070.38C1368.58,1073.56 1367.05,1076.02 1364.53,1077.05L1365.6,1088.44C1365.64,1088.87 1365.46,1089.29 1365.12,1089.55C1364.9,1089.72 1364.63,1089.81 1364.36,1089.81Z" style="fill:rgb(55,58,58);fill-rule:nonzero;"/>
            <path d="M1463.05,1018.98L1463.05,1036.54C1463.05,1040.08 1461.41,1042.84 1458.96,1044.91L1453.66,1049.36C1456.11,1047.29 1457.75,1044.52 1457.75,1040.99L1457.75,1023.43C1449.91,1019.99 1444.29,1015.56 1438.89,1009.03L1444.18,1004.58C1449.59,1011.12 1455.21,1015.55 1463.05,1018.98Z" style="fill:rgb(95,100,107);fill-rule:nonzero;"/>
            <path d="M1457.75,1023.43L1457.75,1040.99C1457.75,1044.52 1456.11,1047.29 1453.66,1049.36C1449.75,1052.63 1443.76,1054.13 1438.89,1054.08C1430.94,1048.38 1420.03,1036.4 1420.03,1027.26L1420.03,1009.69C1427.86,1011.97 1433.49,1011.63 1438.89,1009.03C1444.29,1015.56 1449.91,1019.99 1457.75,1023.43Z" style="fill:rgb(255,97,0);fill-rule:nonzero;"/>
            <path d="M1444.18,1004.58L1438.89,1009.03C1433.49,1011.63 1427.86,1011.97 1420.03,1009.69L1425.32,1005.25C1433.16,1007.52 1438.78,1007.18 1444.18,1004.58Z" style="fill:white;fill-rule:nonzero;"/>
            <path d="M1421.28,1011.33L1421.28,1027.26C1421.28,1035.85 1431.7,1047.27 1439.29,1052.83C1444.38,1052.79 1449.67,1051.07 1452.85,1048.4C1455.27,1046.37 1456.5,1043.88 1456.5,1040.99L1456.5,1024.24C1449.31,1020.98 1443.87,1016.83 1438.54,1010.56C1433.35,1012.83 1428.06,1013.06 1421.28,1011.33ZM1439.1,1055.33L1438.87,1055.33C1438.62,1055.33 1438.37,1055.25 1438.16,1055.1C1430.66,1049.71 1418.78,1037.4 1418.78,1027.26L1418.78,1009.69C1418.78,1009.3 1418.96,1008.93 1419.27,1008.7C1419.59,1008.46 1420,1008.38 1420.37,1008.49C1427.7,1010.62 1433.07,1010.44 1438.34,1007.9C1438.86,1007.65 1439.48,1007.79 1439.85,1008.23C1445.29,1014.81 1450.79,1019.01 1458.25,1022.28C1458.7,1022.48 1459,1022.93 1459,1023.42L1459,1040.99C1459,1044.6 1457.43,1047.82 1454.46,1050.31C1450.05,1054.02 1443.68,1055.33 1439.1,1055.33Z" style="fill:rgb(55,58,58);fill-rule:nonzero;"/>
            <path d="M1453.66,1050.61C1453.3,1050.61 1452.95,1050.45 1452.7,1050.16C1452.26,1049.63 1452.32,1048.84 1452.85,1048.4L1458.15,1043.95C1460.57,1041.92 1461.79,1039.43 1461.79,1036.54L1461.79,1019.79C1454.61,1016.53 1449.16,1012.38 1443.84,1006.12C1438.41,1008.48 1432.87,1008.63 1425.62,1006.63L1420.83,1010.65C1420.3,1011.1 1419.51,1011.03 1419.07,1010.5C1418.62,1009.97 1418.69,1009.18 1419.22,1008.74L1424.52,1004.29C1424.84,1004.02 1425.27,1003.93 1425.67,1004.05C1433,1006.17 1438.37,1005.99 1443.64,1003.46C1444.16,1003.21 1444.78,1003.34 1445.15,1003.78C1450.59,1010.36 1456.09,1014.57 1463.55,1017.83C1464,1018.03 1464.29,1018.48 1464.29,1018.98L1464.29,1036.54C1464.29,1040.15 1462.73,1043.37 1459.76,1045.87L1454.46,1050.31C1454.23,1050.51 1453.94,1050.61 1453.66,1050.61Z" style="fill:rgb(55,58,58);fill-rule:nonzero;"/>
            <path d="M1438.89,1010.28C1438.53,1010.28 1438.18,1010.13 1437.93,1009.83C1437.48,1009.31 1437.55,1008.52 1438.08,1008.07L1443.38,1003.63C1443.91,1003.18 1444.7,1003.25 1445.15,1003.78C1445.59,1004.31 1445.52,1005.1 1444.99,1005.54L1439.69,1009.99C1439.46,1010.18 1439.17,1010.28 1438.89,1010.28Z" style="fill:rgb(55,58,58);fill-rule:nonzero;"/>
            <path d="M1334.17,1119.94L1334.17,1143.46C1334.17,1148.19 1331.99,1151.89 1328.7,1154.65L1321.61,1160.61C1324.9,1157.84 1327.08,1154.13 1327.08,1149.4L1327.08,1125.9C1316.59,1121.3 1309.06,1115.37 1301.83,1106.63L1308.93,1100.67C1316.16,1109.42 1323.68,1115.35 1334.17,1119.94Z" style="fill:rgb(95,100,107);fill-rule:nonzero;"/>
            <path d="M1327.08,1125.9L1327.08,1149.4C1327.08,1154.13 1324.9,1157.84 1321.61,1160.61C1316.38,1164.99 1308.36,1166.99 1301.83,1166.93C1291.2,1159.29 1276.59,1143.27 1276.59,1131.03L1276.59,1107.52C1287.07,1110.56 1294.6,1110.1 1301.83,1106.63C1309.06,1115.37 1316.59,1121.3 1327.08,1125.9Z" style="fill:rgb(255,97,0);fill-rule:nonzero;"/>
            <path d="M1308.93,1100.67L1301.83,1106.63C1294.6,1110.1 1287.07,1110.56 1276.59,1107.52L1283.68,1101.56C1294.17,1104.6 1301.7,1104.15 1308.93,1100.67Z" style="fill:white;fill-rule:nonzero;"/>
            <path d="M1277.84,1109.16L1277.84,1131.03C1277.84,1142.72 1292,1158.21 1302.24,1165.68C1309.19,1165.66 1316.44,1163.31 1320.8,1159.65C1324.14,1156.85 1325.83,1153.4 1325.83,1149.4L1325.83,1126.71C1316.06,1122.31 1308.7,1116.71 1301.49,1108.16C1294.41,1111.33 1287.2,1111.63 1277.84,1109.16ZM1302.11,1168.18L1301.82,1168.18C1301.56,1168.18 1301.31,1168.1 1301.1,1167.95C1291.14,1160.79 1275.34,1144.44 1275.34,1131.03L1275.34,1107.52C1275.34,1107.12 1275.52,1106.75 1275.84,1106.52C1276.15,1106.28 1276.56,1106.21 1276.94,1106.32C1286.85,1109.19 1294.13,1108.95 1301.29,1105.5C1301.81,1105.25 1302.43,1105.39 1302.8,1105.83C1310.13,1114.69 1317.54,1120.35 1327.58,1124.75C1328.04,1124.95 1328.33,1125.4 1328.33,1125.89L1328.33,1149.4C1328.33,1154.11 1326.28,1158.31 1322.41,1161.56C1316.59,1166.45 1308.17,1168.18 1302.11,1168.18Z" style="fill:rgb(55,58,58);fill-rule:nonzero;"/>
            <path d="M1321.61,1161.86C1321.25,1161.86 1320.9,1161.7 1320.65,1161.41C1320.2,1160.88 1320.27,1160.09 1320.8,1159.65L1327.9,1153.7C1331.23,1150.89 1332.92,1147.45 1332.92,1143.46L1332.92,1120.75C1323.15,1116.36 1315.79,1110.75 1308.58,1102.21C1301.26,1105.48 1293.81,1105.7 1283.98,1102.95L1277.39,1108.47C1276.86,1108.92 1276.08,1108.85 1275.63,1108.32C1275.19,1107.79 1275.26,1107 1275.78,1106.56L1282.88,1100.61C1283.2,1100.34 1283.63,1100.25 1284.03,1100.36C1293.94,1103.23 1301.22,1102.99 1308.38,1099.55C1308.9,1099.3 1309.52,1099.43 1309.89,1099.87C1317.21,1108.74 1324.63,1114.4 1334.67,1118.8C1335.13,1119 1335.42,1119.45 1335.42,1119.94L1335.42,1143.46C1335.42,1148.15 1333.38,1152.36 1329.5,1155.61L1322.41,1161.56C1322.18,1161.76 1321.89,1161.86 1321.61,1161.86Z" style="fill:rgb(55,58,58);fill-rule:nonzero;"/>
            <path d="M1301.83,1107.88C1301.48,1107.88 1301.12,1107.72 1300.88,1107.43C1300.43,1106.9 1300.5,1106.11 1301.03,1105.67L1308.12,1099.72C1308.65,1099.27 1309.44,1099.34 1309.89,1099.87C1310.33,1100.4 1310.26,1101.19 1309.73,1101.63L1302.64,1107.58C1302.4,1107.78 1302.12,1107.88 1301.83,1107.88Z" style="fill:rgb(55,58,58);fill-rule:nonzero;"/>
            <path d="M1298.28,1018.27L1298.28,1037.78C1298.28,1041.71 1297.07,1046.46 1295.27,1051.27C1292.38,1058.9 1287.95,1066.7 1284.36,1071.64C1281.93,1072.39 1279.12,1072.46 1276.67,1071.56L1276.4,1071.46C1273.06,1070.13 1270.43,1066.94 1270.43,1061.15L1270.43,1041.64C1276.22,1036.14 1280.37,1030 1284.36,1021.59C1288.35,1023.31 1292.49,1022.48 1298.28,1018.27Z" style="fill:rgb(255,97,0);fill-rule:nonzero;"/>
            <path d="M1289.84,1015.2L1298.28,1018.27C1292.49,1022.48 1288.35,1023.31 1284.36,1021.59L1277.08,1018.94C1280.73,1020.05 1284.62,1018.99 1289.84,1015.2Z" style="fill:rgb(95,100,107);fill-rule:nonzero;"/>
            <path d="M1277.08,1018.94L1284.36,1021.59C1280.37,1030 1276.22,1036.14 1270.43,1041.64L1261.99,1038.56C1267.77,1033.07 1271.92,1026.93 1275.91,1018.51C1276.3,1018.68 1276.69,1018.82 1277.08,1018.94Z" style="fill:rgb(194,199,204);fill-rule:nonzero;"/>
            <path d="M1275.91,1018.51L1277.08,1018.94C1276.69,1018.82 1276.3,1018.68 1275.91,1018.51Z" style="fill:white;fill-rule:nonzero;"/>
            <path d="M1276.4,1071.46L1268.22,1068.49C1264.76,1067.22 1261.99,1064.03 1261.99,1058.08L1261.99,1038.56L1270.43,1041.64L1270.43,1061.15C1270.43,1066.94 1273.06,1070.13 1276.4,1071.46Z" style="fill:white;fill-rule:nonzero;"/>
            <path d="M1276.96,1070.35L1277.1,1070.39C1279.04,1071.09 1281.38,1071.15 1283.6,1070.56C1286.63,1066.31 1291.11,1058.75 1294.1,1050.83C1296.04,1045.65 1297.03,1041.26 1297.03,1037.78L1297.03,1020.64C1292.46,1023.53 1288.64,1024.32 1284.99,1023.16C1281.05,1031.25 1277.02,1037.02 1271.68,1042.17L1271.68,1061.16C1271.68,1065.78 1273.48,1068.95 1276.86,1070.3L1276.96,1070.35ZM1280.55,1073.46C1279.04,1073.46 1277.57,1073.22 1276.24,1072.74L1276.11,1072.68L1275.94,1072.62C1273.42,1071.61 1269.18,1068.78 1269.18,1061.16L1269.18,1041.64C1269.18,1041.29 1269.32,1040.97 1269.57,1040.73C1275.09,1035.49 1279.18,1029.6 1283.23,1021.05C1283.52,1020.44 1284.24,1020.17 1284.85,1020.44C1288.51,1022.02 1292.3,1021.07 1297.54,1017.26C1297.92,1016.98 1298.43,1016.95 1298.85,1017.16C1299.27,1017.37 1299.53,1017.8 1299.53,1018.27L1299.53,1037.78C1299.53,1041.56 1298.49,1046.25 1296.44,1051.71C1293.28,1060.07 1288.65,1067.87 1285.37,1072.38C1285.21,1072.6 1284.98,1072.76 1284.72,1072.84C1283.36,1073.25 1281.94,1073.46 1280.55,1073.46Z" style="fill:rgb(55,58,58);fill-rule:nonzero;"/>
            <path d="M1270.43,1042.89C1270.29,1042.89 1270.15,1042.86 1270.01,1042.81L1261.56,1039.74C1260.91,1039.5 1260.58,1038.79 1260.81,1038.14C1261.05,1037.49 1261.76,1037.15 1262.41,1037.39L1270.86,1040.46C1271.51,1040.7 1271.84,1041.42 1271.61,1042.06C1271.42,1042.57 1270.94,1042.89 1270.43,1042.89Z" style="fill:rgb(55,58,58);fill-rule:nonzero;"/>
            <path d="M1284.36,1022.84C1284.21,1022.84 1284.07,1022.81 1283.93,1022.76L1275.48,1019.69C1274.83,1019.45 1274.5,1018.73 1274.73,1018.08C1274.97,1017.44 1275.69,1017.1 1276.34,1017.34L1284.78,1020.41C1285.43,1020.65 1285.77,1021.36 1285.53,1022.01C1285.35,1022.52 1284.87,1022.84 1284.36,1022.84Z" style="fill:rgb(55,58,58);fill-rule:nonzero;"/>
            <path d="M1276.67,1072.81C1276.53,1072.81 1276.39,1072.79 1276.24,1072.74L1267.8,1069.66C1265.16,1068.7 1260.74,1065.91 1260.74,1058.08L1260.74,1038.56C1260.74,1038.22 1260.88,1037.89 1261.13,1037.66C1266.64,1032.42 1270.73,1026.53 1274.78,1017.98C1275.07,1017.37 1275.79,1017.09 1276.41,1017.37C1276.74,1017.51 1277.08,1017.64 1277.45,1017.75C1280.74,1018.76 1284.34,1017.66 1289.11,1014.19C1289.44,1013.94 1289.88,1013.88 1290.27,1014.02L1298.71,1017.1C1299.36,1017.33 1299.69,1018.05 1299.45,1018.7C1299.22,1019.35 1298.5,1019.68 1297.85,1019.45L1290.03,1016.6C1284.82,1020.26 1280.7,1021.36 1276.72,1020.14L1276.54,1020.08C1272.6,1028.18 1268.57,1033.94 1263.24,1039.1L1263.24,1058.08C1263.24,1064.08 1266.18,1066.41 1268.65,1067.31L1277.1,1070.39C1277.75,1070.62 1278.08,1071.34 1277.85,1071.99C1277.66,1072.5 1277.18,1072.81 1276.67,1072.81Z" style="fill:rgb(55,58,58);fill-rule:nonzero;"/>
            <path d="M1475.56,1092.19L1475.56,1114.44C1475.56,1118.91 1474.19,1124.32 1472.12,1129.81C1468.83,1138.5 1463.79,1147.4 1459.69,1153.02C1456.92,1153.87 1453.72,1153.96 1450.92,1152.94L1450.61,1152.82C1446.8,1151.3 1443.82,1147.68 1443.82,1141.07L1443.82,1118.83C1450.41,1112.56 1455.14,1105.57 1459.69,1095.98C1464.24,1097.95 1468.97,1097 1475.56,1092.19Z" style="fill:rgb(255,97,0);fill-rule:nonzero;"/>
            <path d="M1465.94,1088.69L1475.56,1092.19C1468.97,1097 1464.24,1097.95 1459.69,1095.98L1451.32,1092.94C1455.5,1094.23 1459.94,1093.05 1465.94,1088.69Z" style="fill:rgb(95,100,107);fill-rule:nonzero;"/>
            <path d="M1451.32,1092.94L1459.69,1095.98C1455.14,1105.57 1450.41,1112.56 1443.82,1118.83L1434.19,1115.33C1440.78,1109.06 1445.52,1102.06 1450.06,1092.48C1450.48,1092.66 1450.9,1092.82 1451.32,1092.94Z" style="fill:rgb(194,199,204);fill-rule:nonzero;"/>
            <path d="M1450.06,1092.48L1451.32,1092.94C1450.9,1092.82 1450.48,1092.66 1450.06,1092.48Z" style="fill:white;fill-rule:nonzero;"/>
            <path d="M1450.61,1152.82L1441.31,1149.43C1437.34,1148 1434.19,1144.35 1434.19,1137.57L1434.19,1115.33L1443.82,1118.83L1443.82,1141.07C1443.82,1147.68 1446.8,1151.3 1450.61,1152.82Z" style="fill:white;fill-rule:nonzero;"/>
            <path d="M1451.21,1151.72L1451.35,1151.77C1453.62,1152.59 1456.36,1152.65 1458.93,1151.94C1463.41,1145.71 1468.1,1136.9 1470.95,1129.37C1473.18,1123.45 1474.31,1118.42 1474.31,1114.44L1474.31,1094.57C1468.97,1098.02 1464.55,1098.96 1460.32,1097.56C1455.81,1106.86 1451.19,1113.46 1445.07,1119.36L1445.07,1141.07C1445.07,1147.85 1448.33,1150.57 1451.07,1151.66L1451.21,1151.72ZM1455.33,1154.93C1453.64,1154.93 1451.99,1154.66 1450.5,1154.12L1450.32,1154.04L1450.14,1153.98C1447.31,1152.85 1442.57,1149.68 1442.57,1141.07L1442.57,1118.83C1442.57,1118.49 1442.71,1118.16 1442.95,1117.92C1449.26,1111.93 1453.93,1105.21 1458.56,1095.45C1458.85,1094.84 1459.57,1094.57 1460.19,1094.83C1464.42,1096.67 1468.8,1095.57 1474.83,1091.18C1475.21,1090.91 1475.71,1090.87 1476.13,1091.08C1476.55,1091.29 1476.81,1091.72 1476.81,1092.19L1476.81,1114.44C1476.81,1118.73 1475.63,1124.05 1473.29,1130.25C1469.68,1139.8 1464.42,1148.65 1460.7,1153.76C1460.54,1153.98 1460.31,1154.14 1460.06,1154.22C1458.51,1154.69 1456.91,1154.93 1455.33,1154.93Z" style="fill:rgb(55,58,58);fill-rule:nonzero;"/>
            <path d="M1443.82,1120.08C1443.67,1120.08 1443.53,1120.05 1443.39,1120L1433.76,1116.5C1433.11,1116.26 1432.78,1115.55 1433.01,1114.9C1433.25,1114.25 1433.97,1113.92 1434.62,1114.15L1444.24,1117.65C1444.89,1117.89 1445.23,1118.61 1444.99,1119.26C1444.81,1119.76 1444.33,1120.08 1443.82,1120.08Z" style="fill:rgb(55,58,58);fill-rule:nonzero;"/>
            <path d="M1459.69,1097.23C1459.55,1097.23 1459.4,1097.21 1459.26,1097.16L1449.64,1093.65C1448.99,1093.42 1448.65,1092.7 1448.89,1092.05C1449.12,1091.4 1449.84,1091.07 1450.49,1091.3L1460.12,1094.81C1460.77,1095.04 1461.1,1095.76 1460.86,1096.41C1460.68,1096.92 1460.2,1097.23 1459.69,1097.23Z" style="fill:rgb(55,58,58);fill-rule:nonzero;"/>
            <path d="M1450.92,1154.19C1450.78,1154.19 1450.64,1154.17 1450.5,1154.12L1440.88,1150.6C1437.92,1149.53 1432.94,1146.41 1432.94,1137.57L1432.94,1115.33C1432.94,1114.98 1433.08,1114.66 1433.33,1114.42C1439.64,1108.43 1444.3,1101.7 1448.93,1091.94C1449.22,1091.33 1449.95,1091.07 1450.57,1091.33C1450.92,1091.49 1451.28,1091.62 1451.68,1091.74C1455.57,1092.91 1459.74,1091.66 1465.2,1087.68C1465.54,1087.43 1465.97,1087.37 1466.36,1087.51L1475.99,1091.02C1476.64,1091.25 1476.97,1091.97 1476.74,1092.62C1476.5,1093.27 1475.78,1093.6 1475.14,1093.37L1466.13,1090.09C1460.23,1094.26 1455.53,1095.51 1450.96,1094.14C1450.87,1094.11 1450.78,1094.08 1450.69,1094.05C1446.18,1103.36 1441.56,1109.95 1435.44,1115.86L1435.44,1137.57C1435.44,1144.52 1438.86,1147.21 1441.73,1148.25L1451.35,1151.77C1452,1152 1452.33,1152.72 1452.1,1153.37C1451.91,1153.88 1451.43,1154.19 1450.92,1154.19Z" style="fill:rgb(55,58,58);fill-rule:nonzero;"/>
        </g>
    </g>
</svg>
