<?xml version="1.0" encoding="UTF-8" standalone="no"?>
<!DOCTYPE svg PUBLIC "-//W3C//DTD SVG 1.1//EN" "http://www.w3.org/Graphics/SVG/1.1/DTD/svg11.dtd">
<svg width="100%" height="100%" viewBox="0 0 219 222" version="1.1" xmlns="http://www.w3.org/2000/svg" xmlns:xlink="http://www.w3.org/1999/xlink" xml:space="preserve" xmlns:serif="http://www.serif.com/" style="fill-rule:evenodd;clip-rule:evenodd;stroke-linejoin:round;stroke-miterlimit:2;">
    <g transform="matrix(1,0,0,1,-786.409,-1033.69)">
        <g id="data-analytics-icon" transform="matrix(1,0,0,1,81.9836,77.165)">
            <path d="M918.198,1067.04L918.338,1066.96L917.535,1066.66L918.198,1067.04Z" style="fill:rgb(150,154,158);fill-rule:nonzero;"/>
            <path d="M915.998,1073.37L916.719,1073.79L918.555,1072.31L918.198,1072.1L915.998,1073.37Z" style="fill:rgb(150,154,158);fill-rule:nonzero;"/>
            <path d="M919.198,1069.57L920.802,1070.5L922.638,1069.02L921.398,1068.3L919.198,1069.57Z" style="fill:rgb(150,154,158);fill-rule:nonzero;"/>
            <path d="M913.998,1065.77L911.798,1064.5L909.598,1065.77L911.798,1067.04L913.998,1065.77Z" style="fill:rgb(150,154,158);fill-rule:nonzero;"/>
            <path d="M911.798,1072.1L909.598,1073.37L911.798,1074.64L913.998,1073.37L911.798,1072.1Z" style="fill:rgb(150,154,158);fill-rule:nonzero;"/>
            <path d="M917.198,1069.57L914.998,1068.3L912.798,1069.57L914.998,1070.84L917.198,1069.57Z" style="fill:rgb(150,154,158);fill-rule:nonzero;"/>
            <path d="M905.398,1064.5L903.198,1065.77L905.398,1067.04L907.598,1065.77L905.398,1064.5Z" style="fill:rgb(150,154,158);fill-rule:nonzero;"/>
            <path d="M907.598,1073.37L905.398,1072.1L903.198,1073.37L905.398,1074.64L907.598,1073.37Z" style="fill:rgb(150,154,158);fill-rule:nonzero;"/>
            <path d="M908.598,1068.3L906.398,1069.57L908.598,1070.84L910.798,1069.57L908.598,1068.3Z" style="fill:rgb(150,154,158);fill-rule:nonzero;"/>
            <path d="M905.398,1079.7L903.198,1080.97L905.398,1082.24L907.598,1080.97L905.398,1079.7Z" style="fill:rgb(150,154,158);fill-rule:nonzero;"/>
            <path d="M910.798,1077.17L908.598,1075.9L906.398,1077.17L908.598,1078.44L910.798,1077.17Z" style="fill:rgb(150,154,158);fill-rule:nonzero;"/>
            <path d="M903.121,1061.23L902.004,1060.81L899.998,1061.97L902.198,1063.24L904.398,1061.97L903.121,1061.23Z" style="fill:rgb(150,154,158);fill-rule:nonzero;"/>
            <path d="M901.198,1065.77L898.998,1064.5L896.798,1065.77L898.998,1067.04L901.198,1065.77Z" style="fill:rgb(150,154,158);fill-rule:nonzero;"/>
            <path d="M902.198,1075.9L899.998,1077.17L902.198,1078.44L904.398,1077.17L902.198,1075.9Z" style="fill:rgb(150,154,158);fill-rule:nonzero;"/>
            <path d="M898.998,1072.1L896.798,1073.37L898.998,1074.64L901.198,1073.37L898.998,1072.1Z" style="fill:rgb(150,154,158);fill-rule:nonzero;"/>
            <path d="M904.398,1069.57L902.198,1068.3L899.998,1069.57L902.198,1070.84L904.398,1069.57Z" style="fill:rgb(150,154,158);fill-rule:nonzero;"/>
            <path d="M898.998,1079.7L896.798,1080.97L898.998,1082.24L901.198,1080.97L898.998,1079.7Z" style="fill:rgb(150,154,158);fill-rule:nonzero;"/>
            <path d="M896.798,1088.57L897.717,1089.1L899.554,1087.62L898.998,1087.3L896.798,1088.57Z" style="fill:rgb(150,154,158);fill-rule:nonzero;"/>
            <path d="M902.198,1083.5L899.998,1084.77L901.8,1085.81L903.637,1084.33L902.198,1083.5Z" style="fill:rgb(150,154,158);fill-rule:nonzero;"/>
            <path d="M894.798,1058.17L894.452,1057.97L892.208,1057.13L890.398,1058.17L892.598,1059.44L894.798,1058.17Z" style="fill:rgb(150,154,158);fill-rule:nonzero;"/>
            <path d="M892.598,1064.5L890.398,1065.77L892.598,1067.04L894.798,1065.77L892.598,1064.5Z" style="fill:rgb(150,154,158);fill-rule:nonzero;"/>
            <path d="M897.998,1061.97L895.798,1060.7L893.598,1061.97L895.798,1063.24L897.998,1061.97Z" style="fill:rgb(150,154,158);fill-rule:nonzero;"/>
            <path d="M895.798,1075.9L893.598,1077.17L895.798,1078.44L897.998,1077.17L895.798,1075.9Z" style="fill:rgb(150,154,158);fill-rule:nonzero;"/>
            <path d="M892.598,1072.1L890.398,1073.37L892.598,1074.64L894.798,1073.37L892.598,1072.1Z" style="fill:rgb(150,154,158);fill-rule:nonzero;"/>
            <path d="M895.798,1068.3L893.598,1069.57L895.798,1070.84L897.998,1069.57L895.798,1068.3Z" style="fill:rgb(150,154,158);fill-rule:nonzero;"/>
            <path d="M892.598,1079.7L890.398,1080.97L892.598,1082.24L894.798,1080.97L892.598,1079.7Z" style="fill:rgb(150,154,158);fill-rule:nonzero;"/>
            <path d="M892.598,1087.3L890.398,1088.57L892.598,1089.84L894.798,1088.57L892.598,1087.3Z" style="fill:rgb(150,154,158);fill-rule:nonzero;"/>
            <path d="M895.798,1083.5L893.598,1084.77L895.798,1086.04L897.998,1084.77L895.798,1083.5Z" style="fill:rgb(150,154,158);fill-rule:nonzero;"/>
            <path d="M893.82,1092.24L893.598,1092.37L893.635,1092.39L893.82,1092.24Z" style="fill:rgb(150,154,158);fill-rule:nonzero;"/>
            <path d="M893.216,1125.66L892.486,1125.37L890.398,1126.57L891.471,1127.19L893.332,1125.72L893.216,1125.66Z" style="fill:rgb(150,154,158);fill-rule:nonzero;"/>
            <path d="M889.398,1060.7L887.198,1061.97L889.398,1063.24L891.598,1061.97L889.398,1060.7Z" style="fill:rgb(150,154,158);fill-rule:nonzero;"/>
            <path d="M886.198,1056.9L883.998,1058.17L886.198,1059.44L888.398,1058.17L886.198,1056.9Z" style="fill:rgb(150,154,158);fill-rule:nonzero;"/>
            <path d="M886.198,1064.5L883.998,1065.77L886.198,1067.04L888.398,1065.77L886.198,1064.5Z" style="fill:rgb(150,154,158);fill-rule:nonzero;"/>
            <path d="M889.398,1075.9L887.198,1077.17L889.398,1078.44L891.598,1077.17L889.398,1075.9Z" style="fill:rgb(150,154,158);fill-rule:nonzero;"/>
            <path d="M886.198,1072.1L883.998,1073.37L886.198,1074.64L888.398,1073.37L886.198,1072.1Z" style="fill:rgb(150,154,158);fill-rule:nonzero;"/>
            <path d="M889.398,1068.3L887.198,1069.57L889.398,1070.84L891.598,1069.57L889.398,1068.3Z" style="fill:rgb(150,154,158);fill-rule:nonzero;"/>
            <path d="M886.198,1079.7L883.998,1080.97L886.198,1082.24L888.398,1080.97L886.198,1079.7Z" style="fill:rgb(150,154,158);fill-rule:nonzero;"/>
            <path d="M888.398,1088.57L886.198,1087.3L883.998,1088.57L886.198,1089.84L888.398,1088.57Z" style="fill:rgb(150,154,158);fill-rule:nonzero;"/>
            <path d="M889.398,1083.5L887.198,1084.77L889.398,1086.04L891.598,1084.77L889.398,1083.5Z" style="fill:rgb(150,154,158);fill-rule:nonzero;"/>
            <path d="M882.998,1086.04L885.198,1084.77L882.998,1083.5L880.798,1084.77L882.998,1086.04Z" style="fill:rgb(150,154,158);fill-rule:nonzero;"/>
            <path d="M886.198,1094.9L883.998,1096.17L886.198,1097.44L888.398,1096.17L886.198,1094.9Z" style="fill:rgb(150,154,158);fill-rule:nonzero;"/>
            <path d="M891.598,1092.37L889.398,1091.1L887.198,1092.37L889.398,1093.64L891.598,1092.37Z" style="fill:rgb(150,154,158);fill-rule:nonzero;"/>
            <path d="M882.998,1098.7L880.798,1099.97L882.799,1101.13L884.635,1099.65L882.998,1098.7Z" style="fill:rgb(150,154,158);fill-rule:nonzero;"/>
            <path d="M888.08,1129.86L887.198,1130.37L887.334,1130.45L888.08,1129.86Z" style="fill:rgb(150,154,158);fill-rule:nonzero;"/>
            <path d="M886.198,1125.3L883.998,1126.57L886.198,1127.84L888.398,1126.57L886.198,1125.3Z" style="fill:rgb(150,154,158);fill-rule:nonzero;"/>
            <path d="M882.998,1060.7L880.798,1061.97L882.998,1063.24L885.198,1061.97L882.998,1060.7Z" style="fill:rgb(150,154,158);fill-rule:nonzero;"/>
            <path d="M879.798,1056.9L877.598,1058.17L879.798,1059.44L881.998,1058.17L879.798,1056.9Z" style="fill:rgb(150,154,158);fill-rule:nonzero;"/>
            <path d="M882.411,1053.44L880.798,1054.37L882.998,1055.64L885.075,1054.44L882.411,1053.44Z" style="fill:rgb(150,154,158);fill-rule:nonzero;"/>
            <path d="M879.798,1064.5L877.598,1065.77L879.798,1067.04L881.998,1065.77L879.798,1064.5Z" style="fill:rgb(150,154,158);fill-rule:nonzero;"/>
            <path d="M882.998,1075.9L880.798,1077.17L882.998,1078.44L885.198,1077.17L882.998,1075.9Z" style="fill:rgb(150,154,158);fill-rule:nonzero;"/>
            <path d="M879.798,1072.1L877.598,1073.37L879.798,1074.64L881.998,1073.37L879.798,1072.1Z" style="fill:rgb(150,154,158);fill-rule:nonzero;"/>
            <path d="M882.998,1068.3L880.798,1069.57L882.998,1070.84L885.198,1069.57L882.998,1068.3Z" style="fill:rgb(150,154,158);fill-rule:nonzero;"/>
            <path d="M881.998,1080.97L879.798,1079.7L877.598,1080.97L879.798,1082.24L881.998,1080.97Z" style="fill:rgb(150,154,158);fill-rule:nonzero;"/>
            <path d="M882.998,1091.1L880.798,1092.37L882.998,1093.64L885.198,1092.37L882.998,1091.1Z" style="fill:rgb(150,154,158);fill-rule:nonzero;"/>
            <path d="M879.798,1087.3L877.598,1088.57L879.798,1089.84L881.998,1088.57L879.798,1087.3Z" style="fill:rgb(150,154,158);fill-rule:nonzero;"/>
            <path d="M879.798,1094.9L877.598,1096.17L879.798,1097.44L881.998,1096.17L879.798,1094.9Z" style="fill:rgb(150,154,158);fill-rule:nonzero;"/>
            <path d="M877.598,1103.77L878.716,1104.42L880.552,1102.94L879.798,1102.5L877.598,1103.77Z" style="fill:rgb(150,154,158);fill-rule:nonzero;"/>
            <path d="M882.998,1129.1L880.798,1130.37L882.998,1131.64L885.198,1130.37L882.998,1129.1Z" style="fill:rgb(150,154,158);fill-rule:nonzero;"/>
            <path d="M879.798,1125.3L877.598,1126.57L879.798,1127.84L881.998,1126.57L879.798,1125.3Z" style="fill:rgb(150,154,158);fill-rule:nonzero;"/>
            <path d="M883.391,1121.73L882.927,1121.54L880.798,1122.77L882.998,1124.04L885.198,1122.77L883.391,1121.73Z" style="fill:rgb(150,154,158);fill-rule:nonzero;"/>
            <path d="M881.998,1134.17L879.798,1132.9L877.598,1134.17L879.798,1135.44L881.998,1134.17Z" style="fill:rgb(150,154,158);fill-rule:nonzero;"/>
            <path d="M876.598,1053.1L874.398,1054.37L876.598,1055.64L878.798,1054.37L876.598,1053.1Z" style="fill:rgb(150,154,158);fill-rule:nonzero;"/>
            <path d="M872.615,1049.75L871.198,1050.57L873.398,1051.84L875.279,1050.76L872.615,1049.75Z" style="fill:rgb(150,154,158);fill-rule:nonzero;"/>
            <path d="M876.598,1060.7L874.398,1061.97L876.598,1063.24L878.798,1061.97L876.598,1060.7Z" style="fill:rgb(150,154,158);fill-rule:nonzero;"/>
            <path d="M873.398,1056.9L871.198,1058.17L873.398,1059.44L875.598,1058.17L873.398,1056.9Z" style="fill:rgb(150,154,158);fill-rule:nonzero;"/>
            <path d="M873.398,1064.5L871.198,1065.77L873.398,1067.04L875.598,1065.77L873.398,1064.5Z" style="fill:rgb(150,154,158);fill-rule:nonzero;"/>
            <path d="M875.598,1073.37L873.398,1072.1L871.198,1073.37L873.398,1074.64L875.598,1073.37Z" style="fill:rgb(150,154,158);fill-rule:nonzero;"/>
            <path d="M876.598,1068.3L874.398,1069.57L876.598,1070.84L878.798,1069.57L876.598,1068.3Z" style="fill:rgb(150,154,158);fill-rule:nonzero;"/>
            <path d="M873.398,1079.7L871.198,1080.97L873.398,1082.24L875.598,1080.97L873.398,1079.7Z" style="fill:rgb(150,154,158);fill-rule:nonzero;"/>
            <path d="M878.798,1077.17L876.598,1075.9L874.398,1077.17L876.598,1078.44L878.798,1077.17Z" style="fill:rgb(150,154,158);fill-rule:nonzero;"/>
            <path d="M876.598,1091.1L874.398,1092.37L876.598,1093.64L878.798,1092.37L876.598,1091.1Z" style="fill:rgb(150,154,158);fill-rule:nonzero;"/>
            <path d="M873.398,1087.3L871.198,1088.57L873.398,1089.84L875.598,1088.57L873.398,1087.3Z" style="fill:rgb(150,154,158);fill-rule:nonzero;"/>
            <path d="M876.598,1083.5L874.398,1084.77L876.598,1086.04L878.798,1084.77L876.598,1083.5Z" style="fill:rgb(150,154,158);fill-rule:nonzero;"/>
            <path d="M873.398,1094.9L871.198,1096.17L873.398,1097.44L875.598,1096.17L873.398,1094.9Z" style="fill:rgb(150,154,158);fill-rule:nonzero;"/>
            <path d="M875.821,1106.75L874.398,1107.57L874.633,1107.71L875.821,1106.75Z" style="fill:rgb(150,154,158);fill-rule:nonzero;"/>
            <path d="M871.198,1103.77L873.398,1105.04L875.598,1103.77L873.398,1102.5L871.198,1103.77Z" style="fill:rgb(150,154,158);fill-rule:nonzero;"/>
            <path d="M876.598,1098.7L874.398,1099.97L876.598,1101.24L878.798,1099.97L876.598,1098.7Z" style="fill:rgb(150,154,158);fill-rule:nonzero;"/>
            <path d="M873.566,1117.8L873.368,1117.72L871.198,1118.97L873.398,1120.24L875.598,1118.97L873.566,1117.8Z" style="fill:rgb(150,154,158);fill-rule:nonzero;"/>
            <path d="M876.598,1129.1L874.398,1130.37L876.598,1131.64L878.798,1130.37L876.598,1129.1Z" style="fill:rgb(150,154,158);fill-rule:nonzero;"/>
            <path d="M875.598,1126.57L873.398,1125.3L871.198,1126.57L873.398,1127.84L875.598,1126.57Z" style="fill:rgb(150,154,158);fill-rule:nonzero;"/>
            <path d="M876.598,1121.5L874.398,1122.77L876.598,1124.04L878.798,1122.77L876.598,1121.5Z" style="fill:rgb(150,154,158);fill-rule:nonzero;"/>
            <path d="M873.398,1132.9L871.198,1134.17L873.398,1135.44L875.598,1134.17L873.398,1132.9Z" style="fill:rgb(150,154,158);fill-rule:nonzero;"/>
            <path d="M878.215,1137.63L876.598,1136.7L874.398,1137.97L876.354,1139.1L878.215,1137.63Z" style="fill:rgb(150,154,158);fill-rule:nonzero;"/>
            <path d="M866.998,1049.3L864.798,1050.57L866.998,1051.84L869.198,1050.57L866.998,1049.3Z" style="fill:rgb(150,154,158);fill-rule:nonzero;"/>
            <path d="M870.198,1060.7L867.998,1061.97L870.198,1063.24L872.398,1061.97L870.198,1060.7Z" style="fill:rgb(150,154,158);fill-rule:nonzero;"/>
            <path d="M866.998,1056.9L864.798,1058.17L866.998,1059.44L869.198,1058.17L866.998,1056.9Z" style="fill:rgb(150,154,158);fill-rule:nonzero;"/>
            <path d="M872.398,1054.37L870.198,1053.1L867.998,1054.37L870.198,1055.64L872.398,1054.37Z" style="fill:rgb(150,154,158);fill-rule:nonzero;"/>
            <path d="M869.198,1065.77L866.998,1064.5L864.798,1065.77L866.998,1067.04L869.198,1065.77Z" style="fill:rgb(150,154,158);fill-rule:nonzero;"/>
            <path d="M870.198,1075.9L867.998,1077.17L870.198,1078.44L872.398,1077.17L870.198,1075.9Z" style="fill:rgb(150,154,158);fill-rule:nonzero;"/>
            <path d="M866.998,1072.1L864.798,1073.37L866.998,1074.64L869.198,1073.37L866.998,1072.1Z" style="fill:rgb(150,154,158);fill-rule:nonzero;"/>
            <path d="M872.398,1069.57L870.198,1068.3L867.998,1069.57L870.198,1070.84L872.398,1069.57Z" style="fill:rgb(150,154,158);fill-rule:nonzero;"/>
            <path d="M866.998,1079.7L864.798,1080.97L866.998,1082.24L869.198,1080.97L866.998,1079.7Z" style="fill:rgb(150,154,158);fill-rule:nonzero;"/>
            <path d="M870.198,1091.1L867.998,1092.37L870.198,1093.64L872.398,1092.37L870.198,1091.1Z" style="fill:rgb(150,154,158);fill-rule:nonzero;"/>
            <path d="M866.998,1087.3L864.798,1088.57L866.998,1089.84L869.198,1088.57L866.998,1087.3Z" style="fill:rgb(150,154,158);fill-rule:nonzero;"/>
            <path d="M870.198,1083.5L867.998,1084.77L870.198,1086.04L872.398,1084.77L870.198,1083.5Z" style="fill:rgb(150,154,158);fill-rule:nonzero;"/>
            <path d="M866.998,1094.9L864.798,1096.17L866.998,1097.44L869.198,1096.17L866.998,1094.9Z" style="fill:rgb(150,154,158);fill-rule:nonzero;"/>
            <path d="M866.998,1102.5L864.798,1103.77L866.998,1105.04L869.198,1103.77L866.998,1102.5Z" style="fill:rgb(150,154,158);fill-rule:nonzero;"/>
            <path d="M870.198,1098.7L867.998,1099.97L870.198,1101.24L872.398,1099.97L870.198,1098.7Z" style="fill:rgb(150,154,158);fill-rule:nonzero;"/>
            <path d="M866.998,1110.1L864.798,1111.37L866.998,1112.64L869.198,1111.37L866.998,1110.1Z" style="fill:rgb(150,154,158);fill-rule:nonzero;"/>
            <path d="M870.198,1106.3L867.998,1107.57L870.198,1108.84L872.398,1107.57L870.198,1106.3Z" style="fill:rgb(150,154,158);fill-rule:nonzero;"/>
            <path d="M869.198,1118.97L866.998,1117.7L864.798,1118.97L866.998,1120.24L869.198,1118.97Z" style="fill:rgb(150,154,158);fill-rule:nonzero;"/>
            <path d="M870.198,1129.1L867.998,1130.37L870.198,1131.64L872.398,1130.37L870.198,1129.1Z" style="fill:rgb(150,154,158);fill-rule:nonzero;"/>
            <path d="M866.998,1125.3L864.798,1126.57L866.998,1127.84L869.198,1126.57L866.998,1125.3Z" style="fill:rgb(150,154,158);fill-rule:nonzero;"/>
            <path d="M872.398,1122.77L870.198,1121.5L867.998,1122.77L870.198,1124.04L872.398,1122.77Z" style="fill:rgb(150,154,158);fill-rule:nonzero;"/>
            <path d="M867.566,1135.11L869.198,1134.17L866.998,1132.9L865.701,1133.65C866.333,1134.14 866.958,1134.63 867.566,1135.11Z" style="fill:rgb(150,154,158);fill-rule:nonzero;"/>
            <path d="M872.398,1137.97L870.198,1136.7L869.828,1136.92C870.49,1137.45 871.104,1137.95 871.649,1138.4L872.398,1137.97Z" style="fill:rgb(150,154,158);fill-rule:nonzero;"/>
            <path d="M863.798,1053.1L861.598,1054.37L863.798,1055.64L865.998,1054.37L863.798,1053.1Z" style="fill:rgb(150,154,158);fill-rule:nonzero;"/>
            <path d="M860.598,1049.3L858.398,1050.57L860.598,1051.84L862.798,1050.57L860.598,1049.3Z" style="fill:rgb(150,154,158);fill-rule:nonzero;"/>
            <path d="M862.819,1046.07L861.598,1046.77L863.798,1048.04L865.483,1047.07L862.819,1046.07Z" style="fill:rgb(150,154,158);fill-rule:nonzero;"/>
            <path d="M862.798,1058.17L860.598,1056.9L858.398,1058.17L860.598,1059.44L862.798,1058.17Z" style="fill:rgb(150,154,158);fill-rule:nonzero;"/>
            <path d="M860.598,1064.5L858.398,1065.77L860.598,1067.04L862.798,1065.77L860.598,1064.5Z" style="fill:rgb(150,154,158);fill-rule:nonzero;"/>
            <path d="M865.998,1061.97L863.798,1060.7L861.598,1061.97L863.798,1063.24L865.998,1061.97Z" style="fill:rgb(150,154,158);fill-rule:nonzero;"/>
            <path d="M863.798,1075.9L861.598,1077.17L863.798,1078.44L865.998,1077.17L863.798,1075.9Z" style="fill:rgb(150,154,158);fill-rule:nonzero;"/>
            <path d="M860.598,1072.1L858.398,1073.37L860.598,1074.64L862.798,1073.37L860.598,1072.1Z" style="fill:rgb(150,154,158);fill-rule:nonzero;"/>
            <path d="M863.798,1068.3L861.598,1069.57L863.798,1070.84L865.998,1069.57L863.798,1068.3Z" style="fill:rgb(150,154,158);fill-rule:nonzero;"/>
            <path d="M860.598,1079.7L858.398,1080.97L860.598,1082.24L862.798,1080.97L860.598,1079.7Z" style="fill:rgb(150,154,158);fill-rule:nonzero;"/>
            <path d="M863.798,1091.1L861.598,1092.37L863.798,1093.64L865.998,1092.37L863.798,1091.1Z" style="fill:rgb(150,154,158);fill-rule:nonzero;"/>
            <path d="M862.798,1088.57L860.598,1087.3L858.398,1088.57L860.598,1089.84L862.798,1088.57Z" style="fill:rgb(150,154,158);fill-rule:nonzero;"/>
            <path d="M863.798,1083.5L861.598,1084.77L863.798,1086.04L865.998,1084.77L863.798,1083.5Z" style="fill:rgb(150,154,158);fill-rule:nonzero;"/>
            <path d="M862.798,1096.17L860.598,1094.9L858.398,1096.17L860.598,1097.44L862.798,1096.17Z" style="fill:rgb(150,154,158);fill-rule:nonzero;"/>
            <path d="M862.798,1103.77L860.598,1102.5L858.398,1103.77L860.598,1105.04L862.798,1103.77Z" style="fill:rgb(150,154,158);fill-rule:nonzero;"/>
            <path d="M865.998,1099.97L863.798,1098.7L861.598,1099.97L863.798,1101.24L865.998,1099.97Z" style="fill:rgb(150,154,158);fill-rule:nonzero;"/>
            <path d="M862.798,1111.37L860.598,1110.1L858.398,1111.37L860.598,1112.64L862.798,1111.37Z" style="fill:rgb(150,154,158);fill-rule:nonzero;"/>
            <path d="M863.798,1108.84L865.998,1107.57L863.798,1106.3L861.598,1107.57L863.798,1108.84Z" style="fill:rgb(150,154,158);fill-rule:nonzero;"/>
            <path d="M862.798,1118.97L861.921,1118.46L860.311,1120.08L860.598,1120.24L862.798,1118.97Z" style="fill:rgb(150,154,158);fill-rule:nonzero;"/>
            <path d="M859.714,1119.73L861.551,1118.25L860.598,1117.7L858.398,1118.97L859.714,1119.73Z" style="fill:rgb(150,154,158);fill-rule:nonzero;"/>
            <path d="M865.998,1115.17L863.798,1113.9L861.598,1115.17L863.797,1116.44L864.562,1115.82L864.145,1116.24L865.998,1115.17Z" style="fill:rgb(150,154,158);fill-rule:nonzero;"/>
            <path d="M863.798,1129.1L861.598,1130.37L863.798,1131.64L865.998,1130.37L863.798,1129.1Z" style="fill:rgb(150,154,158);fill-rule:nonzero;"/>
            <path d="M862.798,1126.57L860.598,1125.3L858.398,1126.57L860.598,1127.84L862.798,1126.57Z" style="fill:rgb(150,154,158);fill-rule:nonzero;"/>
            <path d="M863.798,1124.04L865.998,1122.77L863.798,1121.5L861.598,1122.77L863.798,1124.04Z" style="fill:rgb(150,154,158);fill-rule:nonzero;"/>
            <path d="M857.398,1045.5L855.198,1046.77L857.398,1048.04L859.598,1046.77L857.398,1045.5Z" style="fill:rgb(150,154,158);fill-rule:nonzero;"/>
            <path d="M853.023,1042.38L851.998,1042.97L854.198,1044.24L855.687,1043.38L853.023,1042.38Z" style="fill:rgb(150,154,158);fill-rule:nonzero;"/>
            <path d="M856.398,1050.57L854.198,1049.3L851.998,1050.57L854.198,1051.84L856.398,1050.57Z" style="fill:rgb(150,154,158);fill-rule:nonzero;"/>
            <path d="M857.398,1060.7L855.198,1061.97L857.398,1063.24L859.598,1061.97L857.398,1060.7Z" style="fill:rgb(150,154,158);fill-rule:nonzero;"/>
            <path d="M854.198,1056.9L851.998,1058.17L854.198,1059.44L856.398,1058.17L854.198,1056.9Z" style="fill:rgb(150,154,158);fill-rule:nonzero;"/>
            <path d="M859.598,1054.37L857.398,1053.1L855.198,1054.37L857.398,1055.64L859.598,1054.37Z" style="fill:rgb(150,154,158);fill-rule:nonzero;"/>
            <path d="M856.398,1065.77L854.198,1064.5L851.998,1065.77L854.198,1067.04L856.398,1065.77Z" style="fill:rgb(150,154,158);fill-rule:nonzero;"/>
            <path d="M856.398,1073.37L854.198,1072.1L851.998,1073.37L854.198,1074.64L856.398,1073.37Z" style="fill:rgb(150,154,158);fill-rule:nonzero;"/>
            <path d="M857.398,1068.3L855.198,1069.57L857.398,1070.84L859.598,1069.57L857.398,1068.3Z" style="fill:rgb(150,154,158);fill-rule:nonzero;"/>
            <path d="M856.398,1080.97L854.198,1079.7L851.998,1080.97L854.198,1082.24L856.398,1080.97Z" style="fill:rgb(150,154,158);fill-rule:nonzero;"/>
            <path d="M859.598,1077.17L857.398,1075.9L855.198,1077.17L857.398,1078.44L859.598,1077.17Z" style="fill:rgb(150,154,158);fill-rule:nonzero;"/>
            <path d="M856.398,1088.57L854.198,1087.3L851.998,1088.57L854.198,1089.84L856.398,1088.57Z" style="fill:rgb(150,154,158);fill-rule:nonzero;"/>
            <path d="M859.598,1084.77L857.398,1083.5L855.198,1084.77L857.398,1086.04L859.598,1084.77Z" style="fill:rgb(150,154,158);fill-rule:nonzero;"/>
            <path d="M856.398,1096.17L854.198,1094.9L851.998,1096.17L854.198,1097.44L856.398,1096.17Z" style="fill:rgb(150,154,158);fill-rule:nonzero;"/>
            <path d="M859.598,1092.37L857.398,1091.1L855.198,1092.37L857.398,1093.64L859.598,1092.37Z" style="fill:rgb(150,154,158);fill-rule:nonzero;"/>
            <path d="M856.398,1103.77L854.198,1102.5L851.998,1103.77L854.198,1105.04L856.398,1103.77Z" style="fill:rgb(150,154,158);fill-rule:nonzero;"/>
            <path d="M859.598,1099.97L857.398,1098.7L855.198,1099.97L857.398,1101.24L859.598,1099.97Z" style="fill:rgb(150,154,158);fill-rule:nonzero;"/>
            <path d="M856.398,1111.37L854.198,1110.1L851.998,1111.37L854.198,1112.64L856.398,1111.37Z" style="fill:rgb(150,154,158);fill-rule:nonzero;"/>
            <path d="M859.598,1107.57L857.398,1106.3L855.198,1107.57L857.398,1108.84L859.598,1107.57Z" style="fill:rgb(150,154,158);fill-rule:nonzero;"/>
            <path d="M854.198,1117.7L851.998,1118.97L854.198,1120.24L856.398,1118.97L854.198,1117.7Z" style="fill:rgb(150,154,158);fill-rule:nonzero;"/>
            <path d="M859.598,1115.17L857.398,1113.9L855.198,1115.17L857.398,1116.44L859.598,1115.17Z" style="fill:rgb(150,154,158);fill-rule:nonzero;"/>
            <path d="M859.598,1122.77L858.341,1122.05L856.73,1123.66L857.398,1124.04L859.598,1122.77Z" style="fill:rgb(150,154,158);fill-rule:nonzero;"/>
            <path d="M855.198,1122.77L855.632,1123.02L857.468,1121.54L857.398,1121.5L855.198,1122.77Z" style="fill:rgb(150,154,158);fill-rule:nonzero;"/>
            <path d="M849.998,1042.97L847.798,1041.7L845.598,1042.97L847.798,1044.24L849.998,1042.97Z" style="fill:rgb(150,154,158);fill-rule:nonzero;"/>
            <path d="M847.798,1049.3L845.598,1050.57L847.798,1051.84L849.998,1050.57L847.798,1049.3Z" style="fill:rgb(150,154,158);fill-rule:nonzero;"/>
            <path d="M853.198,1046.77L850.998,1045.5L848.798,1046.77L850.998,1048.04L853.198,1046.77Z" style="fill:rgb(150,154,158);fill-rule:nonzero;"/>
            <path d="M849.998,1058.17L847.798,1056.9L845.598,1058.17L847.798,1059.44L849.998,1058.17Z" style="fill:rgb(150,154,158);fill-rule:nonzero;"/>
            <path d="M853.198,1054.37L850.998,1053.1L848.798,1054.37L850.998,1055.64L853.198,1054.37Z" style="fill:rgb(150,154,158);fill-rule:nonzero;"/>
            <path d="M849.998,1065.77L847.798,1064.5L845.598,1065.77L847.798,1067.04L849.998,1065.77Z" style="fill:rgb(150,154,158);fill-rule:nonzero;"/>
            <path d="M853.198,1061.97L850.998,1060.7L848.798,1061.97L850.998,1063.24L853.198,1061.97Z" style="fill:rgb(150,154,158);fill-rule:nonzero;"/>
            <path d="M849.998,1073.37L847.798,1072.1L845.598,1073.37L847.798,1074.64L849.998,1073.37Z" style="fill:rgb(150,154,158);fill-rule:nonzero;"/>
            <path d="M853.198,1069.57L850.998,1068.3L848.798,1069.57L850.998,1070.84L853.198,1069.57Z" style="fill:rgb(150,154,158);fill-rule:nonzero;"/>
            <path d="M849.998,1080.97L847.798,1079.7L845.598,1080.97L847.798,1082.24L849.998,1080.97Z" style="fill:rgb(150,154,158);fill-rule:nonzero;"/>
            <path d="M853.198,1077.17L850.998,1075.9L848.798,1077.17L850.998,1078.44L853.198,1077.17Z" style="fill:rgb(150,154,158);fill-rule:nonzero;"/>
            <path d="M849.998,1088.57L847.798,1087.3L845.598,1088.57L847.798,1089.84L849.998,1088.57Z" style="fill:rgb(150,154,158);fill-rule:nonzero;"/>
            <path d="M853.198,1084.77L850.998,1083.5L848.798,1084.77L850.998,1086.04L853.198,1084.77Z" style="fill:rgb(150,154,158);fill-rule:nonzero;"/>
            <path d="M849.998,1096.17L847.798,1094.9L845.598,1096.17L847.798,1097.44L849.998,1096.17Z" style="fill:rgb(150,154,158);fill-rule:nonzero;"/>
            <path d="M853.198,1092.37L850.998,1091.1L848.798,1092.37L850.998,1093.64L853.198,1092.37Z" style="fill:rgb(150,154,158);fill-rule:nonzero;"/>
            <path d="M849.998,1103.77L847.798,1102.5L845.598,1103.77L847.798,1105.04L849.998,1103.77Z" style="fill:rgb(150,154,158);fill-rule:nonzero;"/>
            <path d="M853.198,1099.97L850.998,1098.7L848.798,1099.97L850.998,1101.24L853.198,1099.97Z" style="fill:rgb(150,154,158);fill-rule:nonzero;"/>
            <path d="M849.998,1111.37L847.798,1110.1L845.598,1111.37L847.798,1112.64L849.998,1111.37Z" style="fill:rgb(150,154,158);fill-rule:nonzero;"/>
            <path d="M853.198,1107.57L850.998,1106.3L848.798,1107.57L850.998,1108.84L853.198,1107.57Z" style="fill:rgb(150,154,158);fill-rule:nonzero;"/>
            <path d="M849.998,1118.97L847.798,1117.7L845.598,1118.97L847.798,1120.24L849.998,1118.97Z" style="fill:rgb(150,154,158);fill-rule:nonzero;"/>
            <path d="M853.198,1115.17L850.998,1113.9L848.798,1115.17L850.998,1116.44L853.198,1115.17Z" style="fill:rgb(150,154,158);fill-rule:nonzero;"/>
            <path d="M849.998,1126.57L847.798,1125.3L845.598,1126.57L847.798,1127.84L849.998,1126.57Z" style="fill:rgb(150,154,158);fill-rule:nonzero;"/>
            <path d="M853.198,1122.77L850.998,1121.5L848.798,1122.77L850.998,1124.04L853.198,1122.77Z" style="fill:rgb(150,154,158);fill-rule:nonzero;"/>
            <path d="M842.398,1039.17L844.598,1040.44L845.89,1039.7L843.227,1038.69L842.398,1039.17Z" style="fill:rgb(150,154,158);fill-rule:nonzero;"/>
            <path d="M844.598,1045.5L842.398,1046.77L844.598,1048.04L846.798,1046.77L844.598,1045.5Z" style="fill:rgb(150,154,158);fill-rule:nonzero;"/>
            <path d="M841.398,1044.24L843.598,1042.97L841.398,1041.7L839.198,1042.97L841.398,1044.24Z" style="fill:rgb(150,154,158);fill-rule:nonzero;"/>
            <path d="M844.598,1053.1L842.398,1054.37L844.598,1055.64L846.798,1054.37L844.598,1053.1Z" style="fill:rgb(150,154,158);fill-rule:nonzero;"/>
            <path d="M841.398,1051.84L843.598,1050.57L841.398,1049.3L839.198,1050.57L841.398,1051.84Z" style="fill:rgb(150,154,158);fill-rule:nonzero;"/>
            <path d="M841.398,1059.44L843.598,1058.17L841.398,1056.9L839.198,1058.17L841.398,1059.44Z" style="fill:rgb(150,154,158);fill-rule:nonzero;"/>
            <path d="M843.598,1065.77L841.398,1064.5L839.198,1065.77L841.398,1067.04L843.598,1065.77Z" style="fill:rgb(150,154,158);fill-rule:nonzero;"/>
            <path d="M846.798,1061.97L844.598,1060.7L842.398,1061.97L844.598,1063.24L846.798,1061.97Z" style="fill:rgb(150,154,158);fill-rule:nonzero;"/>
            <path d="M843.598,1073.37L841.398,1072.1L839.198,1073.37L841.398,1074.64L843.598,1073.37Z" style="fill:rgb(150,154,158);fill-rule:nonzero;"/>
            <path d="M846.798,1069.57L844.598,1068.3L842.398,1069.57L844.598,1070.84L846.798,1069.57Z" style="fill:rgb(150,154,158);fill-rule:nonzero;"/>
            <path d="M843.598,1080.97L841.398,1079.7L839.198,1080.97L841.398,1082.24L843.598,1080.97Z" style="fill:rgb(150,154,158);fill-rule:nonzero;"/>
            <path d="M846.798,1077.17L844.598,1075.9L842.398,1077.17L844.598,1078.44L846.798,1077.17Z" style="fill:rgb(150,154,158);fill-rule:nonzero;"/>
            <path d="M843.598,1088.57L841.398,1087.3L839.198,1088.57L841.398,1089.84L843.598,1088.57Z" style="fill:rgb(150,154,158);fill-rule:nonzero;"/>
            <path d="M846.798,1084.77L844.598,1083.5L842.398,1084.77L844.598,1086.04L846.798,1084.77Z" style="fill:rgb(150,154,158);fill-rule:nonzero;"/>
            <path d="M843.598,1096.17L841.398,1094.9L839.198,1096.17L841.398,1097.44L843.598,1096.17Z" style="fill:rgb(150,154,158);fill-rule:nonzero;"/>
            <path d="M846.798,1092.37L844.598,1091.1L842.398,1092.37L844.598,1093.64L846.798,1092.37Z" style="fill:rgb(150,154,158);fill-rule:nonzero;"/>
            <path d="M843.598,1103.77L841.398,1102.5L839.198,1103.77L841.398,1105.04L843.598,1103.77Z" style="fill:rgb(150,154,158);fill-rule:nonzero;"/>
            <path d="M846.798,1099.97L844.598,1098.7L842.398,1099.97L844.598,1101.24L846.798,1099.97Z" style="fill:rgb(150,154,158);fill-rule:nonzero;"/>
            <path d="M843.598,1111.37L841.398,1110.1L839.198,1111.37L841.398,1112.64L843.598,1111.37Z" style="fill:rgb(150,154,158);fill-rule:nonzero;"/>
            <path d="M846.798,1107.57L844.598,1106.3L842.398,1107.57L844.598,1108.84L846.798,1107.57Z" style="fill:rgb(150,154,158);fill-rule:nonzero;"/>
            <path d="M843.598,1118.97L841.398,1117.7L839.198,1118.97L841.398,1120.24L843.598,1118.97Z" style="fill:rgb(150,154,158);fill-rule:nonzero;"/>
            <path d="M846.798,1115.17L844.598,1113.9L842.398,1115.17L844.598,1116.44L846.798,1115.17Z" style="fill:rgb(150,154,158);fill-rule:nonzero;"/>
            <path d="M843.598,1126.57L841.398,1125.3L839.198,1126.57L841.398,1127.84L843.598,1126.57Z" style="fill:rgb(150,154,158);fill-rule:nonzero;"/>
            <path d="M846.798,1122.77L844.598,1121.5L842.398,1122.77L844.598,1124.04L846.798,1122.77Z" style="fill:rgb(150,154,158);fill-rule:nonzero;"/>
            <path d="M842.549,1133.57L841.398,1132.9L839.198,1134.17L840.713,1135.05L842.549,1133.57Z" style="fill:rgb(150,154,158);fill-rule:nonzero;"/>
            <path d="M846.632,1130.28L844.598,1129.1L842.398,1130.37L844.598,1131.64L845.792,1130.95L846.632,1130.28Z" style="fill:rgb(150,154,158);fill-rule:nonzero;"/>
            <path d="M834.998,1036.64L836.094,1036.01L833.43,1035.01L832.798,1035.37L834.998,1036.64Z" style="fill:rgb(150,154,158);fill-rule:nonzero;"/>
            <path d="M834.998,1044.24L837.198,1042.97L834.998,1041.7L832.798,1042.97L834.998,1044.24Z" style="fill:rgb(150,154,158);fill-rule:nonzero;"/>
            <path d="M835.998,1039.17L838.198,1040.44L840.398,1039.17L838.198,1037.9L835.998,1039.17Z" style="fill:rgb(150,154,158);fill-rule:nonzero;"/>
            <path d="M834.998,1051.84L837.198,1050.57L834.998,1049.3L832.798,1050.57L834.998,1051.84Z" style="fill:rgb(150,154,158);fill-rule:nonzero;"/>
            <path d="M838.198,1048.04L840.398,1046.77L838.198,1045.5L835.998,1046.77L838.198,1048.04Z" style="fill:rgb(150,154,158);fill-rule:nonzero;"/>
            <path d="M837.198,1058.17L834.998,1056.9L832.798,1058.17L834.998,1059.44L837.198,1058.17Z" style="fill:rgb(150,154,158);fill-rule:nonzero;"/>
            <path d="M835.998,1054.37L838.198,1055.64L840.398,1054.37L838.198,1053.1L835.998,1054.37Z" style="fill:rgb(150,154,158);fill-rule:nonzero;"/>
            <path d="M834.998,1067.04L837.198,1065.77L834.998,1064.5L832.798,1065.77L834.998,1067.04Z" style="fill:rgb(150,154,158);fill-rule:nonzero;"/>
            <path d="M838.198,1063.24L840.398,1061.97L838.198,1060.7L835.998,1061.97L838.198,1063.24Z" style="fill:rgb(150,154,158);fill-rule:nonzero;"/>
            <path d="M834.998,1074.64L837.198,1073.37L834.998,1072.1L832.798,1073.37L834.998,1074.64Z" style="fill:rgb(150,154,158);fill-rule:nonzero;"/>
            <path d="M838.198,1070.84L840.398,1069.57L838.198,1068.3L835.998,1069.57L838.198,1070.84Z" style="fill:rgb(150,154,158);fill-rule:nonzero;"/>
            <path d="M834.998,1082.24L837.198,1080.97L834.998,1079.7L832.798,1080.97L834.998,1082.24Z" style="fill:rgb(150,154,158);fill-rule:nonzero;"/>
            <path d="M840.398,1077.17L838.198,1075.9L835.998,1077.17L838.198,1078.44L840.398,1077.17Z" style="fill:rgb(150,154,158);fill-rule:nonzero;"/>
            <path d="M837.198,1088.57L834.998,1087.3L832.798,1088.57L834.998,1089.84L837.198,1088.57Z" style="fill:rgb(150,154,158);fill-rule:nonzero;"/>
            <path d="M840.398,1084.77L838.198,1083.5L835.998,1084.77L838.198,1086.04L840.398,1084.77Z" style="fill:rgb(150,154,158);fill-rule:nonzero;"/>
            <path d="M837.198,1096.17L834.998,1094.9L832.798,1096.17L834.998,1097.44L837.198,1096.17Z" style="fill:rgb(150,154,158);fill-rule:nonzero;"/>
            <path d="M840.398,1092.37L838.198,1091.1L835.998,1092.37L838.198,1093.64L840.398,1092.37Z" style="fill:rgb(150,154,158);fill-rule:nonzero;"/>
            <path d="M837.198,1103.77L834.998,1102.5L832.798,1103.77L834.998,1105.04L837.198,1103.77Z" style="fill:rgb(150,154,158);fill-rule:nonzero;"/>
            <path d="M840.398,1099.97L838.198,1098.7L835.998,1099.97L838.198,1101.24L840.398,1099.97Z" style="fill:rgb(150,154,158);fill-rule:nonzero;"/>
            <path d="M837.198,1111.37L834.998,1110.1L832.798,1111.37L834.998,1112.64L837.198,1111.37Z" style="fill:rgb(150,154,158);fill-rule:nonzero;"/>
            <path d="M840.398,1107.57L838.198,1106.3L835.998,1107.57L838.198,1108.84L840.398,1107.57Z" style="fill:rgb(150,154,158);fill-rule:nonzero;"/>
            <path d="M837.198,1118.97L834.998,1117.7L832.798,1118.97L834.998,1120.24L837.198,1118.97Z" style="fill:rgb(150,154,158);fill-rule:nonzero;"/>
            <path d="M840.398,1115.17L838.198,1113.9L835.998,1115.17L838.198,1116.44L840.398,1115.17Z" style="fill:rgb(150,154,158);fill-rule:nonzero;"/>
            <path d="M838.198,1129.1L835.998,1130.37L838.198,1131.64L840.398,1130.37L838.198,1129.1Z" style="fill:rgb(150,154,158);fill-rule:nonzero;"/>
            <path d="M834.998,1125.3L832.798,1126.57L834.998,1127.84L837.198,1126.57L834.998,1125.3Z" style="fill:rgb(150,154,158);fill-rule:nonzero;"/>
            <path d="M840.398,1122.77L838.198,1121.5L835.998,1122.77L838.198,1124.04L840.398,1122.77Z" style="fill:rgb(150,154,158);fill-rule:nonzero;"/>
            <path d="M837.198,1134.17L834.998,1132.9L832.798,1134.17L834.998,1135.44L837.198,1134.17Z" style="fill:rgb(150,154,158);fill-rule:nonzero;"/>
            <path d="M838.467,1136.86L838.198,1136.7L835.998,1137.97L836.63,1138.34L838.467,1136.86Z" style="fill:rgb(150,154,158);fill-rule:nonzero;"/>
            <path d="M828.598,1036.64L830.798,1035.37L828.598,1034.1L826.398,1035.37L828.598,1036.64Z" style="fill:rgb(150,154,158);fill-rule:nonzero;"/>
            <path d="M828.598,1044.24L830.798,1042.97L828.598,1041.7L826.398,1042.97L828.598,1044.24Z" style="fill:rgb(150,154,158);fill-rule:nonzero;"/>
            <path d="M831.798,1040.44L833.998,1039.17L831.798,1037.9L829.598,1039.17L831.798,1040.44Z" style="fill:rgb(150,154,158);fill-rule:nonzero;"/>
            <path d="M826.398,1050.57L828.598,1051.84L830.798,1050.57L828.598,1049.3L826.398,1050.57Z" style="fill:rgb(150,154,158);fill-rule:nonzero;"/>
            <path d="M831.798,1048.04L833.998,1046.77L831.798,1045.5L829.598,1046.77L831.798,1048.04Z" style="fill:rgb(150,154,158);fill-rule:nonzero;"/>
            <path d="M828.598,1059.44L830.798,1058.17L828.598,1056.9L826.398,1058.17L828.598,1059.44Z" style="fill:rgb(150,154,158);fill-rule:nonzero;"/>
            <path d="M831.798,1055.64L833.998,1054.37L831.798,1053.1L829.598,1054.37L831.798,1055.64Z" style="fill:rgb(150,154,158);fill-rule:nonzero;"/>
            <path d="M830.798,1065.77L828.598,1064.5L826.398,1065.77L828.598,1067.04L830.798,1065.77Z" style="fill:rgb(150,154,158);fill-rule:nonzero;"/>
            <path d="M833.998,1061.97L831.798,1060.7L829.598,1061.97L831.798,1063.24L833.998,1061.97Z" style="fill:rgb(150,154,158);fill-rule:nonzero;"/>
            <path d="M828.598,1074.64L830.798,1073.37L828.598,1072.1L826.398,1073.37L828.598,1074.64Z" style="fill:rgb(150,154,158);fill-rule:nonzero;"/>
            <path d="M831.798,1070.84L833.998,1069.57L831.798,1068.3L829.598,1069.57L831.798,1070.84Z" style="fill:rgb(150,154,158);fill-rule:nonzero;"/>
            <path d="M828.598,1082.24L830.798,1080.97L828.598,1079.7L826.398,1080.97L828.598,1082.24Z" style="fill:rgb(150,154,158);fill-rule:nonzero;"/>
            <path d="M831.798,1078.44L833.998,1077.17L831.798,1075.9L829.598,1077.17L831.798,1078.44Z" style="fill:rgb(150,154,158);fill-rule:nonzero;"/>
            <path d="M828.598,1089.84L830.798,1088.57L828.598,1087.3L826.398,1088.57L828.598,1089.84Z" style="fill:rgb(150,154,158);fill-rule:nonzero;"/>
            <path d="M831.798,1086.04L833.998,1084.77L831.798,1083.5L829.598,1084.77L831.798,1086.04Z" style="fill:rgb(150,154,158);fill-rule:nonzero;"/>
            <path d="M828.598,1097.44L830.798,1096.17L828.598,1094.9L826.398,1096.17L828.598,1097.44Z" style="fill:rgb(150,154,158);fill-rule:nonzero;"/>
            <path d="M831.798,1093.64L833.998,1092.37L831.798,1091.1L829.598,1092.37L831.798,1093.64Z" style="fill:rgb(150,154,158);fill-rule:nonzero;"/>
            <path d="M828.598,1105.04L830.798,1103.77L828.598,1102.5L826.398,1103.77L828.598,1105.04Z" style="fill:rgb(150,154,158);fill-rule:nonzero;"/>
            <path d="M833.998,1099.97L831.798,1098.7L829.598,1099.97L831.798,1101.24L833.998,1099.97Z" style="fill:rgb(150,154,158);fill-rule:nonzero;"/>
            <path d="M830.798,1111.37L828.598,1110.1L826.398,1111.37L828.598,1112.64L830.798,1111.37Z" style="fill:rgb(150,154,158);fill-rule:nonzero;"/>
            <path d="M833.998,1107.57L831.798,1106.3L829.598,1107.57L831.798,1108.84L833.998,1107.57Z" style="fill:rgb(150,154,158);fill-rule:nonzero;"/>
            <path d="M828.598,1117.7L826.398,1118.97L828.598,1120.24L830.798,1118.97L828.598,1117.7Z" style="fill:rgb(150,154,158);fill-rule:nonzero;"/>
            <path d="M833.998,1115.17L831.798,1113.9L829.598,1115.17L831.798,1116.44L833.998,1115.17Z" style="fill:rgb(150,154,158);fill-rule:nonzero;"/>
            <path d="M830.798,1126.57L828.598,1125.3L826.398,1126.57L828.598,1127.84L830.798,1126.57Z" style="fill:rgb(150,154,158);fill-rule:nonzero;"/>
            <path d="M831.798,1121.5L829.598,1122.77L831.798,1124.04L833.998,1122.77L831.798,1121.5Z" style="fill:rgb(150,154,158);fill-rule:nonzero;"/>
            <path d="M831.798,1136.7L829.598,1137.97L831.798,1139.24L833.998,1137.97L831.798,1136.7Z" style="fill:rgb(150,154,158);fill-rule:nonzero;"/>
            <path d="M830.798,1134.17L828.598,1132.9L826.398,1134.17L828.598,1135.44L830.798,1134.17Z" style="fill:rgb(150,154,158);fill-rule:nonzero;"/>
            <path d="M833.998,1130.37L831.798,1129.1L829.598,1130.37L831.798,1131.64L833.998,1130.37Z" style="fill:rgb(150,154,158);fill-rule:nonzero;"/>
            <path d="M828.598,1140.5L826.398,1141.77L828.598,1143.04L830.798,1141.77L828.598,1140.5Z" style="fill:rgb(150,154,158);fill-rule:nonzero;"/>
            <path d="M822.198,1036.64L824.398,1035.37L822.198,1034.1L819.998,1035.37L822.198,1036.64Z" style="fill:rgb(150,154,158);fill-rule:nonzero;"/>
            <path d="M823.198,1031.57L825.398,1032.84L826.298,1032.32L823.634,1031.32L823.198,1031.57Z" style="fill:rgb(150,154,158);fill-rule:nonzero;"/>
            <path d="M823.198,1046.77L825.398,1048.04L827.598,1046.77L825.398,1045.5L823.198,1046.77Z" style="fill:rgb(150,154,158);fill-rule:nonzero;"/>
            <path d="M819.998,1042.97L822.198,1044.24L824.398,1042.97L822.198,1041.7L819.998,1042.97Z" style="fill:rgb(150,154,158);fill-rule:nonzero;"/>
            <path d="M823.198,1039.17L825.398,1040.44L827.598,1039.17L825.398,1037.9L823.198,1039.17Z" style="fill:rgb(150,154,158);fill-rule:nonzero;"/>
            <path d="M822.198,1051.84L824.398,1050.57L822.198,1049.3L819.998,1050.57L822.198,1051.84Z" style="fill:rgb(150,154,158);fill-rule:nonzero;"/>
            <path d="M822.198,1059.44L824.398,1058.17L822.198,1056.9L819.998,1058.17L822.198,1059.44Z" style="fill:rgb(150,154,158);fill-rule:nonzero;"/>
            <path d="M823.198,1054.37L825.398,1055.64L827.598,1054.37L825.398,1053.1L823.198,1054.37Z" style="fill:rgb(150,154,158);fill-rule:nonzero;"/>
            <path d="M822.198,1067.04L824.398,1065.77L822.198,1064.5L819.998,1065.77L822.198,1067.04Z" style="fill:rgb(150,154,158);fill-rule:nonzero;"/>
            <path d="M825.398,1063.24L827.598,1061.97L825.398,1060.7L823.198,1061.97L825.398,1063.24Z" style="fill:rgb(150,154,158);fill-rule:nonzero;"/>
            <path d="M824.398,1073.37L822.198,1072.1L819.998,1073.37L822.198,1074.64L824.398,1073.37Z" style="fill:rgb(150,154,158);fill-rule:nonzero;"/>
            <path d="M827.598,1069.57L825.398,1068.3L823.198,1069.57L825.398,1070.84L827.598,1069.57Z" style="fill:rgb(150,154,158);fill-rule:nonzero;"/>
            <path d="M822.198,1082.24L824.398,1080.97L822.198,1079.7L819.998,1080.97L822.198,1082.24Z" style="fill:rgb(150,154,158);fill-rule:nonzero;"/>
            <path d="M825.398,1078.44L827.598,1077.17L825.398,1075.9L823.198,1077.17L825.398,1078.44Z" style="fill:rgb(150,154,158);fill-rule:nonzero;"/>
            <path d="M822.198,1089.84L824.398,1088.57L822.198,1087.3L819.998,1088.57L822.198,1089.84Z" style="fill:rgb(150,154,158);fill-rule:nonzero;"/>
            <path d="M825.398,1086.04L827.598,1084.77L825.398,1083.5L823.198,1084.77L825.398,1086.04Z" style="fill:rgb(150,154,158);fill-rule:nonzero;"/>
            <path d="M822.198,1097.44L824.398,1096.17L822.198,1094.9L819.998,1096.17L822.198,1097.44Z" style="fill:rgb(150,154,158);fill-rule:nonzero;"/>
            <path d="M825.398,1093.64L827.598,1092.37L825.398,1091.1L823.198,1092.37L825.398,1093.64Z" style="fill:rgb(150,154,158);fill-rule:nonzero;"/>
            <path d="M822.198,1105.04L824.398,1103.77L822.198,1102.5L819.998,1103.77L822.198,1105.04Z" style="fill:rgb(150,154,158);fill-rule:nonzero;"/>
            <path d="M825.398,1101.24L827.598,1099.97L825.398,1098.7L823.198,1099.97L825.398,1101.24Z" style="fill:rgb(150,154,158);fill-rule:nonzero;"/>
            <path d="M822.198,1112.64L824.398,1111.37L822.198,1110.1L819.998,1111.37L822.198,1112.64Z" style="fill:rgb(150,154,158);fill-rule:nonzero;"/>
            <path d="M823.198,1107.57L825.398,1108.84L827.598,1107.57L825.398,1106.3L823.198,1107.57Z" style="fill:rgb(150,154,158);fill-rule:nonzero;"/>
            <path d="M822.198,1120.24L824.398,1118.97L822.198,1117.7L819.998,1118.97L822.198,1120.24Z" style="fill:rgb(150,154,158);fill-rule:nonzero;"/>
            <path d="M825.398,1116.44L827.598,1115.17L825.398,1113.9L823.198,1115.17L825.398,1116.44Z" style="fill:rgb(150,154,158);fill-rule:nonzero;"/>
            <path d="M824.398,1126.57L822.198,1125.3L819.998,1126.57L822.198,1127.84L824.398,1126.57Z" style="fill:rgb(150,154,158);fill-rule:nonzero;"/>
            <path d="M827.598,1122.77L825.398,1121.5L823.198,1122.77L825.398,1124.04L827.598,1122.77Z" style="fill:rgb(150,154,158);fill-rule:nonzero;"/>
            <path d="M824.398,1134.17L822.198,1132.9L819.998,1134.17L822.198,1135.44L824.398,1134.17Z" style="fill:rgb(150,154,158);fill-rule:nonzero;"/>
            <path d="M827.598,1130.37L825.398,1129.1L823.198,1130.37L825.398,1131.64L827.598,1130.37Z" style="fill:rgb(150,154,158);fill-rule:nonzero;"/>
            <path d="M822.371,1142.94L824.398,1141.77L822.198,1140.5L820.983,1141.2C821.469,1141.81 821.935,1142.39 822.371,1142.94Z" style="fill:rgb(150,154,158);fill-rule:nonzero;"/>
            <path d="M827.598,1137.97L825.398,1136.7L823.198,1137.97L825.398,1139.24L827.598,1137.97Z" style="fill:rgb(150,154,158);fill-rule:nonzero;"/>
            <path d="M825.398,1146.84L827.598,1145.57L825.398,1144.3L824.051,1145.08C824.647,1145.85 825.095,1146.44 825.351,1146.81L825.398,1146.84Z" style="fill:rgb(150,154,158);fill-rule:nonzero;"/>
            <path d="M816.502,1028.64L814.838,1028.01L814.813,1028.47L815.798,1029.04L816.502,1028.64Z" style="fill:rgb(150,154,158);fill-rule:nonzero;"/>
            <path d="M814.401,1035.83L815.798,1036.64L817.998,1035.37L815.798,1034.1L814.455,1034.88L814.401,1035.83Z" style="fill:rgb(150,154,158);fill-rule:nonzero;"/>
            <path d="M818.998,1032.84L821.198,1031.57L818.998,1030.3L816.798,1031.57L818.998,1032.84Z" style="fill:rgb(150,154,158);fill-rule:nonzero;"/>
            <path d="M813.99,1043.2L815.798,1044.24L817.998,1042.97L815.798,1041.7L814.016,1042.73L813.99,1043.2Z" style="fill:rgb(150,154,158);fill-rule:nonzero;"/>
            <path d="M818.998,1040.44L821.198,1039.17L818.998,1037.9L816.798,1039.17L818.998,1040.44Z" style="fill:rgb(150,154,158);fill-rule:nonzero;"/>
            <path d="M815.798,1051.84L817.998,1050.57L815.798,1049.3L813.598,1050.57L815.798,1051.84Z" style="fill:rgb(150,154,158);fill-rule:nonzero;"/>
            <path d="M818.998,1048.04L821.198,1046.77L818.998,1045.5L816.798,1046.77L818.998,1048.04Z" style="fill:rgb(150,154,158);fill-rule:nonzero;"/>
            <path d="M813.598,1058.17L815.798,1059.44L817.998,1058.17L815.798,1056.9L813.598,1058.17Z" style="fill:rgb(150,154,158);fill-rule:nonzero;"/>
            <path d="M818.998,1055.64L821.198,1054.37L818.998,1053.1L816.798,1054.37L818.998,1055.64Z" style="fill:rgb(150,154,158);fill-rule:nonzero;"/>
            <path d="M817.998,1065.77L815.798,1064.5L813.598,1065.77L815.798,1067.04L817.998,1065.77Z" style="fill:rgb(150,154,158);fill-rule:nonzero;"/>
            <path d="M821.198,1061.97L818.998,1060.7L816.798,1061.97L818.998,1063.24L821.198,1061.97Z" style="fill:rgb(150,154,158);fill-rule:nonzero;"/>
            <path d="M815.798,1074.64L817.998,1073.37L815.798,1072.1L813.598,1073.37L815.798,1074.64Z" style="fill:rgb(150,154,158);fill-rule:nonzero;"/>
            <path d="M818.998,1070.84L821.198,1069.57L818.998,1068.3L816.798,1069.57L818.998,1070.84Z" style="fill:rgb(150,154,158);fill-rule:nonzero;"/>
            <path d="M817.998,1080.97L815.798,1079.7L813.598,1080.97L815.798,1082.24L817.998,1080.97Z" style="fill:rgb(150,154,158);fill-rule:nonzero;"/>
            <path d="M821.198,1077.17L818.998,1075.9L816.798,1077.17L818.998,1078.44L821.198,1077.17Z" style="fill:rgb(150,154,158);fill-rule:nonzero;"/>
            <path d="M815.798,1089.84L817.998,1088.57L815.798,1087.3L813.598,1088.57L815.798,1089.84Z" style="fill:rgb(150,154,158);fill-rule:nonzero;"/>
            <path d="M818.998,1086.04L821.198,1084.77L818.998,1083.5L816.798,1084.77L818.998,1086.04Z" style="fill:rgb(150,154,158);fill-rule:nonzero;"/>
            <path d="M815.798,1097.44L817.998,1096.17L815.798,1094.9L813.598,1096.17L815.798,1097.44Z" style="fill:rgb(150,154,158);fill-rule:nonzero;"/>
            <path d="M818.998,1093.64L821.198,1092.37L818.998,1091.1L816.798,1092.37L818.998,1093.64Z" style="fill:rgb(150,154,158);fill-rule:nonzero;"/>
            <path d="M815.798,1105.04L817.998,1103.77L815.798,1102.5L813.598,1103.77L815.798,1105.04Z" style="fill:rgb(150,154,158);fill-rule:nonzero;"/>
            <path d="M818.998,1101.24L821.198,1099.97L818.998,1098.7L816.798,1099.97L818.998,1101.24Z" style="fill:rgb(150,154,158);fill-rule:nonzero;"/>
            <path d="M815.798,1112.64L817.998,1111.37L815.798,1110.1L813.598,1111.37L815.798,1112.64Z" style="fill:rgb(150,154,158);fill-rule:nonzero;"/>
            <path d="M818.998,1108.84L821.198,1107.57L818.998,1106.3L816.798,1107.57L818.998,1108.84Z" style="fill:rgb(150,154,158);fill-rule:nonzero;"/>
            <path d="M817.998,1118.97L815.798,1117.7L813.598,1118.97L815.798,1120.24L817.998,1118.97Z" style="fill:rgb(150,154,158);fill-rule:nonzero;"/>
            <path d="M818.998,1116.44L821.198,1115.17L818.998,1113.9L816.798,1115.17L818.998,1116.44Z" style="fill:rgb(150,154,158);fill-rule:nonzero;"/>
            <path d="M815.798,1127.84L817.998,1126.57L815.798,1125.3L813.598,1126.57L815.798,1127.84Z" style="fill:rgb(150,154,158);fill-rule:nonzero;"/>
            <path d="M818.998,1124.04L821.198,1122.77L818.998,1121.5L816.798,1122.77L818.998,1124.04Z" style="fill:rgb(150,154,158);fill-rule:nonzero;"/>
            <path d="M817.998,1134.17L815.798,1132.9L814.748,1133.51L816.156,1135.23L817.998,1134.17Z" style="fill:rgb(150,154,158);fill-rule:nonzero;"/>
            <path d="M821.198,1130.37L818.998,1129.1L816.798,1130.37L818.998,1131.64L821.198,1130.37Z" style="fill:rgb(150,154,158);fill-rule:nonzero;"/>
            <path d="M821.198,1137.97L818.998,1136.7L817.874,1137.35L819.275,1139.08L821.198,1137.97Z" style="fill:rgb(150,154,158);fill-rule:nonzero;"/>
            <path d="M814.233,1038.84L814.195,1039.52L814.798,1039.17L814.233,1038.84Z" style="fill:rgb(150,154,158);fill-rule:nonzero;"/>
            <path d="M814.634,1031.67L814.798,1031.57L814.644,1031.48L814.634,1031.67Z" style="fill:rgb(150,154,158);fill-rule:nonzero;"/>
            <path d="M813.41,1053.57L813.317,1055.23L814.798,1054.37L813.41,1053.57Z" style="fill:rgb(150,154,158);fill-rule:nonzero;"/>
            <path d="M813.756,1047.37L814.798,1046.77L813.821,1046.21L813.756,1047.37Z" style="fill:rgb(150,154,158);fill-rule:nonzero;"/>
            <path d="M812.999,1060.93L812.879,1063.08L814.798,1061.97L812.999,1060.93Z" style="fill:rgb(150,154,158);fill-rule:nonzero;"/>
            <path d="M812.598,1070.84L814.798,1069.57L812.598,1068.3L812.586,1068.31L812.45,1070.76L812.598,1070.84Z" style="fill:rgb(150,154,158);fill-rule:nonzero;"/>
            <path d="M812.038,1078.12L812.598,1078.44L814.798,1077.17L812.598,1075.9L812.148,1076.16L812.038,1078.12Z" style="fill:rgb(150,154,158);fill-rule:nonzero;"/>
            <path d="M811.449,1088.66L811.598,1088.57L811.458,1088.49L811.449,1088.66Z" style="fill:rgb(150,154,158);fill-rule:nonzero;"/>
            <path d="M814.798,1084.77L812.598,1083.5L811.709,1084.01L811.627,1085.48L812.598,1086.04L814.798,1084.77Z" style="fill:rgb(150,154,158);fill-rule:nonzero;"/>
            <path d="M811.01,1096.51L811.598,1096.17L811.047,1095.85L811.01,1096.51Z" style="fill:rgb(150,154,158);fill-rule:nonzero;"/>
            <path d="M811.215,1092.84L812.598,1093.64L814.798,1092.37L812.598,1091.1L811.27,1091.87L811.215,1092.84Z" style="fill:rgb(150,154,158);fill-rule:nonzero;"/>
            <path d="M810.572,1104.36L811.598,1103.77L810.636,1103.22L810.572,1104.36Z" style="fill:rgb(150,154,158);fill-rule:nonzero;"/>
            <path d="M810.804,1100.21L812.598,1101.24L814.798,1099.97L812.598,1098.7L810.831,1099.72L810.804,1100.21Z" style="fill:rgb(150,154,158);fill-rule:nonzero;"/>
            <path d="M810.133,1112.22L811.598,1111.37L810.224,1110.58L810.133,1112.22Z" style="fill:rgb(150,154,158);fill-rule:nonzero;"/>
            <path d="M812.598,1108.84L814.798,1107.57L812.598,1106.3L810.398,1107.57L812.598,1108.84Z" style="fill:rgb(150,154,158);fill-rule:nonzero;"/>
            <path d="M809.694,1120.07L811.598,1118.97L809.813,1117.94L809.694,1120.07Z" style="fill:rgb(150,154,158);fill-rule:nonzero;"/>
            <path d="M810.398,1115.17L812.598,1116.44L814.798,1115.17L812.598,1113.9L810.398,1115.17Z" style="fill:rgb(150,154,158);fill-rule:nonzero;"/>
            <path d="M811.598,1126.57L809.401,1125.3L809.314,1126.87L809.88,1127.56L811.598,1126.57Z" style="fill:rgb(150,154,158);fill-rule:nonzero;"/>
            <path d="M812.598,1124.04L814.798,1122.77L812.598,1121.5L810.398,1122.77L812.598,1124.04Z" style="fill:rgb(150,154,158);fill-rule:nonzero;"/>
            <path d="M814.798,1130.37L812.598,1129.1L811.611,1129.67L813.023,1131.4L814.798,1130.37Z" style="fill:rgb(150,154,158);fill-rule:nonzero;"/>
            <path d="M883.605,991.586L883.605,1096.75C883.605,1097.8 883.241,1098.62 882.653,1099.13L847.495,1128.62C848.03,1128.12 848.351,1127.33 848.351,1126.33L848.351,1021.17C848.351,1018.97 846.778,1016.62 844.841,1015.91L765.267,986.952C764.304,986.599 763.437,986.727 762.805,987.198L797.963,957.691C798.605,957.156 799.515,957.006 800.521,957.37L880.095,986.331C882.032,987.038 883.605,989.392 883.605,991.586Z" style="fill:white;fill-rule:nonzero;"/>
            <path d="M838.151,1037.29C838.151,1035.76 836.921,1034.06 835.401,1033.52C833.892,1032.96 832.661,1033.75 832.661,1035.3C832.661,1036.83 833.892,1038.52 835.401,1039.07C836.921,1039.62 838.151,1038.83 838.151,1037.29ZM827.534,1122.72L827.534,1065.08L838.151,1068.94L838.151,1058.13L827.534,1054.27L827.534,1038.63C827.534,1036.74 826.368,1034.74 824.795,1033.78L824.805,1033.77C825.019,1033.45 825.137,1033.04 825.137,1032.56C825.137,1031.03 823.906,1029.33 822.397,1028.78C820.877,1028.23 819.647,1029.02 819.647,1030.55C819.647,1031 819.754,1031.46 819.936,1031.9L761.756,1010.72L761.756,989.649C761.756,988.6 762.12,987.776 762.709,987.273L762.805,987.198C763.437,986.727 764.304,986.599 765.267,986.952L844.841,1015.91C846.778,1016.62 848.351,1018.97 848.351,1021.17L848.351,1126.33C848.351,1127.33 848.03,1128.12 847.495,1128.62L847.398,1128.71C846.756,1129.24 845.847,1129.39 844.841,1129.03L827.534,1122.72Z" style="fill:rgb(218,224,229);fill-rule:nonzero;"/>
            <path d="M838.151,1058.13L838.151,1068.94L827.534,1065.08L827.534,1054.27L838.151,1058.13Z" style="fill:rgb(218,224,229);fill-rule:nonzero;"/>
            <path d="M835.401,1033.52C836.921,1034.06 838.151,1035.76 838.151,1037.29C838.151,1038.83 836.921,1039.62 835.401,1039.07C833.892,1038.52 832.661,1036.83 832.661,1035.3C832.661,1033.75 833.892,1032.96 835.401,1033.52Z" style="fill:rgb(218,224,229);fill-rule:nonzero;"/>
            <path d="M827.534,1038.63L827.534,1143.8C827.534,1144.86 827.171,1145.68 826.582,1146.17L791.413,1175.67C791.948,1175.17 792.269,1174.38 792.269,1173.38L792.269,1068.23C792.269,1066.03 790.707,1063.68 788.759,1062.97L709.185,1034.01C708.233,1033.66 707.366,1033.78 706.734,1034.25L741.892,1004.75C742.535,1004.2 743.444,1004.05 744.45,1004.43L824.024,1033.39C824.292,1033.49 824.546,1033.62 824.795,1033.78C826.354,1034.76 827.534,1036.74 827.534,1038.63Z" style="fill:rgb(255,97,0);fill-rule:nonzero;"/>
            <path d="M825.137,1032.56C825.137,1033.04 825.019,1033.45 824.805,1033.77L824.795,1033.78C824.548,1033.62 824.292,1033.49 824.024,1033.39L819.936,1031.9C819.754,1031.46 819.647,1031 819.647,1030.55C819.647,1029.02 820.877,1028.23 822.397,1028.78C823.906,1029.33 825.137,1031.03 825.137,1032.56Z" style="fill:rgb(218,224,229);fill-rule:nonzero;"/>
            <path d="M755.988,1086.1L755.988,1065.09L719.235,1051.71L719.235,1072.73L755.988,1086.1ZM769.066,1079.61C769.066,1078.07 767.835,1076.38 766.316,1075.84C764.807,1075.28 763.576,1076.08 763.576,1077.61C763.576,1079.14 764.807,1080.83 766.316,1081.39C767.835,1081.94 769.066,1081.15 769.066,1079.61ZM782.07,1084.35C782.07,1082.82 780.839,1081.12 779.33,1080.57C777.81,1080.01 776.579,1080.81 776.579,1082.34C776.579,1083.89 777.81,1085.58 779.33,1086.12C780.839,1086.68 782.07,1085.88 782.07,1084.35ZM782.07,1116L782.07,1105.19L719.235,1082.32L719.235,1093.13L782.07,1116ZM792.269,1068.23L792.269,1173.38C792.269,1174.38 791.948,1175.17 791.413,1175.67L791.317,1175.76C790.675,1176.29 789.776,1176.44 788.759,1176.08L709.185,1147.12C707.248,1146.41 705.675,1144.07 705.675,1141.86L705.675,1036.71C705.675,1035.65 706.039,1034.82 706.638,1034.33L706.734,1034.25C707.366,1033.78 708.233,1033.66 709.185,1034.01L788.759,1062.97C790.707,1063.68 792.269,1066.03 792.269,1068.23Z" style="fill:white;fill-rule:nonzero;"/>
            <path d="M782.07,1105.19L782.07,1116L719.235,1093.13L719.235,1082.32L782.07,1105.19Z" style="fill:rgb(255,97,0);fill-rule:nonzero;"/>
            <path d="M779.33,1080.57C780.839,1081.12 782.07,1082.82 782.07,1084.35C782.07,1085.88 780.839,1086.68 779.33,1086.12C777.81,1085.58 776.579,1083.89 776.579,1082.34C776.579,1080.81 777.81,1080.01 779.33,1080.57Z" style="fill:rgb(255,97,0);fill-rule:nonzero;"/>
            <path d="M766.316,1075.84C767.835,1076.38 769.066,1078.07 769.066,1079.61C769.066,1081.15 767.835,1081.94 766.316,1081.39C764.807,1080.83 763.576,1079.14 763.576,1077.61C763.576,1076.08 764.807,1075.28 766.316,1075.84Z" style="fill:rgb(255,97,0);fill-rule:nonzero;"/>
            <path d="M755.988,1065.09L755.988,1086.1L719.235,1072.73L719.235,1051.71L755.988,1065.09Z" style="fill:rgb(255,97,0);fill-rule:nonzero;"/>
            <path d="M845.918,1130.48C845.43,1130.48 844.923,1130.39 844.415,1130.2L827.106,1123.9C826.458,1123.66 826.124,1122.95 826.36,1122.3C826.596,1121.65 827.316,1121.32 827.962,1121.55L845.268,1127.85C845.65,1127.99 846.191,1128.09 846.596,1127.75C847.127,1127.31 847.916,1127.38 848.359,1127.91C848.801,1128.44 848.731,1129.23 848.2,1129.67C847.557,1130.2 846.765,1130.48 845.918,1130.48Z" style="fill:rgb(194,199,204);fill-rule:nonzero;"/>
            <path d="M847.495,1129.87C847.162,1129.87 846.83,1129.74 846.584,1129.48C846.111,1128.97 846.136,1128.18 846.639,1127.71C846.937,1127.43 847.101,1126.94 847.101,1126.33L847.101,1021.17C847.101,1019.52 845.845,1017.61 844.413,1017.09L764.839,988.127C764.474,987.993 763.958,987.898 763.552,988.2C762.999,988.611 762.215,988.498 761.803,987.945C761.391,987.392 761.504,986.608 762.058,986.196C763.06,985.449 764.388,985.299 765.697,985.778L845.268,1014.74C847.698,1015.62 849.601,1018.45 849.601,1021.17L849.601,1126.33C849.601,1127.64 849.157,1128.78 848.351,1129.53C848.109,1129.76 847.802,1129.87 847.495,1129.87Z" style="fill:rgb(194,199,204);fill-rule:nonzero;"/>
            <path d="M761.756,1011.97C761.066,1011.97 760.506,1011.41 760.506,1010.72L760.506,989.649C760.506,988.271 761.001,987.089 761.897,986.323C762.423,985.875 763.211,985.937 763.66,986.462C764.108,986.986 764.046,987.775 763.521,988.224C763.189,988.507 763.006,989.014 763.006,989.649L763.006,1010.72C763.006,1011.41 762.447,1011.97 761.756,1011.97Z" style="fill:rgb(194,199,204);fill-rule:nonzero;"/>
            <path d="M838.151,1070.19C838.007,1070.19 837.863,1070.17 837.724,1070.12L827.107,1066.26C826.458,1066.02 826.124,1065.3 826.359,1064.65C826.596,1064.01 827.312,1063.67 827.961,1063.91L836.901,1067.16L836.901,1059.01L827.107,1055.45C826.458,1055.21 826.124,1054.49 826.359,1053.84C826.596,1053.2 827.312,1052.86 827.961,1053.1L838.579,1056.96C839.073,1057.14 839.401,1057.61 839.401,1058.13L839.401,1068.94C839.401,1069.35 839.203,1069.73 838.868,1069.97C838.655,1070.12 838.404,1070.19 838.151,1070.19Z" style="fill:rgb(194,199,204);fill-rule:nonzero;"/>
            <path d="M824.804,1035.01C824.559,1035.01 824.311,1034.94 824.094,1034.79C823.526,1034.4 823.384,1033.62 823.777,1033.05C823.803,1033.02 823.887,1032.87 823.887,1032.56C823.887,1031.55 822.989,1030.33 821.964,1029.95C821.614,1029.83 821.294,1029.82 821.117,1029.95C820.925,1030.08 820.897,1030.39 820.897,1030.55C820.897,1030.82 820.963,1031.12 821.09,1031.42C821.355,1032.06 821.053,1032.79 820.415,1033.06C819.776,1033.32 819.046,1033.02 818.781,1032.38C818.526,1031.77 818.397,1031.15 818.397,1030.55C818.397,1029.44 818.864,1028.47 819.679,1027.9C820.533,1027.3 821.676,1027.19 822.82,1027.6C824.825,1028.34 826.387,1030.51 826.387,1032.56C826.387,1033.29 826.195,1033.95 825.833,1034.48C825.59,1034.83 825.2,1035.01 824.804,1035.01Z" style="fill:rgb(194,199,204);fill-rule:nonzero;"/>
            <path d="M834.465,1034.59C834.33,1034.59 834.216,1034.62 834.134,1034.68C833.94,1034.81 833.911,1035.12 833.911,1035.3C833.911,1036.31 834.81,1037.52 835.834,1037.9C836.183,1038.03 836.503,1038.03 836.678,1037.91C836.873,1037.77 836.901,1037.46 836.901,1037.29C836.901,1036.27 836.003,1035.06 834.978,1034.7C834.79,1034.63 834.614,1034.59 834.465,1034.59ZM836.327,1040.49C835.889,1040.49 835.434,1040.41 834.978,1040.25C832.974,1039.51 831.411,1037.34 831.411,1035.3C831.411,1034.17 831.882,1033.2 832.704,1032.63C833.56,1032.03 834.699,1031.93 835.834,1032.35C837.83,1033.06 839.401,1035.23 839.401,1037.29C839.401,1038.4 838.933,1039.38 838.117,1039.95C837.604,1040.31 836.986,1040.49 836.327,1040.49Z" style="fill:rgb(194,199,204);fill-rule:nonzero;"/>
            <path d="M838.077,1087.45C837.935,1087.45 837.791,1087.42 837.649,1087.37L827.107,1083.54C826.459,1083.3 826.124,1082.59 826.359,1081.94C826.595,1081.29 827.312,1080.96 827.961,1081.19L838.504,1085.02C839.152,1085.26 839.487,1085.98 839.252,1086.62C839.067,1087.13 838.587,1087.45 838.077,1087.45Z" style="fill:rgb(194,199,204);fill-rule:nonzero;"/>
            <path d="M838.077,1095.42C837.935,1095.42 837.79,1095.4 837.648,1095.35L827.106,1091.5C826.458,1091.27 826.124,1090.55 826.36,1089.9C826.597,1089.25 827.314,1088.92 827.962,1089.15L838.505,1093C839.153,1093.23 839.487,1093.95 839.251,1094.6C839.066,1095.11 838.587,1095.42 838.077,1095.42Z" style="fill:rgb(194,199,204);fill-rule:nonzero;"/>
            <path d="M838.077,1103.38C837.935,1103.38 837.79,1103.36 837.648,1103.31L827.106,1099.47C826.458,1099.23 826.124,1098.51 826.36,1097.86C826.596,1097.21 827.314,1096.88 827.962,1097.12L838.505,1100.96C839.153,1101.19 839.487,1101.91 839.251,1102.56C839.066,1103.07 838.587,1103.38 838.077,1103.38Z" style="fill:rgb(194,199,204);fill-rule:nonzero;"/>
            <path d="M838.077,1111.35C837.935,1111.35 837.791,1111.32 837.65,1111.27L827.107,1107.44C826.459,1107.2 826.124,1106.49 826.359,1105.84C826.595,1105.19 827.314,1104.86 827.961,1105.09L838.503,1108.92C839.152,1109.16 839.487,1109.87 839.252,1110.52C839.067,1111.03 838.587,1111.35 838.077,1111.35Z" style="fill:rgb(194,199,204);fill-rule:nonzero;"/>
            <path d="M805.394,960.394C805.252,960.394 805.107,960.369 804.966,960.318L801.207,958.95C800.559,958.714 800.224,957.996 800.46,957.348C800.697,956.699 801.415,956.368 802.063,956.601L805.821,957.969C806.47,958.205 806.804,958.923 806.568,959.571C806.383,960.079 805.904,960.394 805.394,960.394ZM791.75,964.155C791.394,964.155 791.039,964.004 790.792,963.709C790.348,963.18 790.417,962.392 790.946,961.948L794.01,959.377C794.539,958.933 795.327,959.001 795.771,959.53C796.215,960.06 796.146,960.848 795.617,961.291L792.553,963.862C792.319,964.06 792.034,964.155 791.75,964.155ZM816.67,964.497C816.528,964.497 816.384,964.473 816.243,964.422L812.484,963.055C811.835,962.818 811.501,962.102 811.736,961.452C811.972,960.805 812.69,960.471 813.338,960.705L817.097,962.072C817.746,962.309 818.081,963.025 817.845,963.675C817.66,964.182 817.181,964.497 816.67,964.497ZM827.946,968.602C827.804,968.602 827.66,968.577 827.519,968.526L823.76,967.158C823.111,966.922 822.777,966.204 823.013,965.556C823.25,964.906 823.969,964.577 824.615,964.809L828.374,966.177C829.023,966.413 829.357,967.131 829.121,967.779C828.936,968.287 828.457,968.602 827.946,968.602ZM782.558,971.869C782.201,971.869 781.847,971.718 781.6,971.423C781.156,970.894 781.225,970.105 781.753,969.662L784.817,967.091C785.346,966.646 786.136,966.715 786.579,967.244C787.023,967.773 786.954,968.562 786.425,969.005L783.361,971.576C783.127,971.773 782.841,971.869 782.558,971.869ZM839.223,972.706C839.081,972.706 838.936,972.682 838.795,972.631L835.036,971.263C834.388,971.026 834.053,970.309 834.289,969.66C834.526,969.012 835.245,968.682 835.892,968.913L839.65,970.281C840.299,970.518 840.633,971.235 840.398,971.884C840.212,972.392 839.733,972.706 839.223,972.706ZM850.499,976.81C850.357,976.81 850.212,976.785 850.071,976.734L846.313,975.366C845.664,975.13 845.33,974.412 845.565,973.764C845.802,973.115 846.521,972.784 847.168,973.017L850.927,974.385C851.575,974.621 851.91,975.339 851.674,975.987C851.489,976.495 851.009,976.81 850.499,976.81ZM773.365,979.582C773.008,979.582 772.654,979.43 772.407,979.136C771.963,978.606 772.032,977.818 772.561,977.374L775.626,974.804C776.154,974.361 776.943,974.431 777.386,974.958C777.83,975.487 777.761,976.275 777.232,976.72L774.168,979.29C773.934,979.486 773.648,979.582 773.365,979.582ZM861.775,980.914C861.633,980.914 861.489,980.89 861.348,980.839L857.589,979.471C856.94,979.234 856.606,978.517 856.842,977.868C857.079,977.219 857.797,976.889 858.444,977.121L862.203,978.489C862.852,978.726 863.186,979.443 862.95,980.092C862.765,980.6 862.286,980.914 861.775,980.914ZM873.052,985.018C872.91,985.018 872.765,984.993 872.624,984.942L868.865,983.574C868.217,983.338 867.882,982.62 868.118,981.972C868.355,981.323 869.073,980.993 869.721,981.225L873.48,982.593C874.128,982.829 874.462,983.547 874.227,984.195C874.042,984.703 873.562,985.018 873.052,985.018ZM764.172,987.296C763.816,987.296 763.461,987.145 763.214,986.85C762.771,986.32 762.839,985.532 763.368,985.089L766.432,982.518C766.961,982.073 767.751,982.143 768.193,982.671C768.637,983.2 768.568,983.988 768.04,984.432L764.976,987.003C764.741,987.2 764.456,987.296 764.172,987.296ZM883.155,990.726C882.668,990.726 882.204,990.438 882.003,989.961C881.573,988.939 880.819,988.075 879.986,987.647C879.372,987.332 879.129,986.578 879.445,985.964C879.76,985.351 880.512,985.107 881.128,985.423C882.487,986.121 883.646,987.422 884.307,988.99C884.575,989.627 884.276,990.359 883.64,990.628C883.481,990.694 883.317,990.726 883.155,990.726ZM883.605,1002.66C882.915,1002.66 882.355,1002.1 882.355,1001.41L882.355,997.413C882.355,996.723 882.915,996.163 883.605,996.163C884.295,996.163 884.855,996.723 884.855,997.413L884.855,1001.41C884.855,1002.1 884.295,1002.66 883.605,1002.66ZM883.605,1014.66C882.915,1014.66 882.355,1014.1 882.355,1013.41L882.355,1009.41C882.355,1008.72 882.915,1008.16 883.605,1008.16C884.295,1008.16 884.855,1008.72 884.855,1009.41L884.855,1013.41C884.855,1014.1 884.295,1014.66 883.605,1014.66ZM883.605,1026.66C882.915,1026.66 882.355,1026.1 882.355,1025.41L882.355,1021.41C882.355,1020.72 882.915,1020.16 883.605,1020.16C884.295,1020.16 884.855,1020.72 884.855,1021.41L884.855,1025.41C884.855,1026.1 884.295,1026.66 883.605,1026.66ZM883.605,1038.66C882.915,1038.66 882.355,1038.1 882.355,1037.41L882.355,1033.41C882.355,1032.72 882.915,1032.16 883.605,1032.16C884.295,1032.16 884.855,1032.72 884.855,1033.41L884.855,1037.41C884.855,1038.1 884.295,1038.66 883.605,1038.66ZM883.605,1050.66C882.915,1050.66 882.355,1050.1 882.355,1049.41L882.355,1045.41C882.355,1044.72 882.915,1044.16 883.605,1044.16C884.295,1044.16 884.855,1044.72 884.855,1045.41L884.855,1049.41C884.855,1050.1 884.295,1050.66 883.605,1050.66ZM883.605,1062.66C882.915,1062.66 882.355,1062.1 882.355,1061.41L882.355,1057.41C882.355,1056.72 882.915,1056.16 883.605,1056.16C884.295,1056.16 884.855,1056.72 884.855,1057.41L884.855,1061.41C884.855,1062.1 884.295,1062.66 883.605,1062.66ZM883.605,1074.66C882.915,1074.66 882.355,1074.1 882.355,1073.41L882.355,1069.41C882.355,1068.72 882.915,1068.16 883.605,1068.16C884.295,1068.16 884.855,1068.72 884.855,1069.41L884.855,1073.41C884.855,1074.1 884.295,1074.66 883.605,1074.66ZM883.605,1086.66C882.915,1086.66 882.355,1086.1 882.355,1085.41L882.355,1081.41C882.355,1080.72 882.915,1080.16 883.605,1080.16C884.295,1080.16 884.855,1080.72 884.855,1081.41L884.855,1085.41C884.855,1086.1 884.295,1086.66 883.605,1086.66ZM883.555,1098.66L883.355,1098.64C882.673,1098.53 882.21,1097.89 882.319,1097.21C882.343,1097.06 882.355,1096.91 882.355,1096.75L882.355,1093.41C882.355,1092.72 882.915,1092.16 883.605,1092.16C884.295,1092.16 884.855,1092.72 884.855,1093.41L884.855,1096.75C884.855,1097.05 884.832,1097.33 884.787,1097.61C884.689,1098.22 884.158,1098.66 883.555,1098.66ZM874.977,1106.82C874.62,1106.82 874.266,1106.67 874.019,1106.37C873.575,1105.84 873.644,1105.05 874.172,1104.61L877.236,1102.04C877.765,1101.59 878.554,1101.66 878.998,1102.19C879.441,1102.72 879.373,1103.51 878.844,1103.95L875.78,1106.52C875.545,1106.72 875.26,1106.82 874.977,1106.82ZM865.784,1114.53C865.428,1114.53 865.073,1114.38 864.826,1114.08C864.382,1113.56 864.451,1112.77 864.98,1112.32L868.044,1109.75C868.573,1109.31 869.362,1109.38 869.805,1109.91C870.249,1110.44 870.18,1111.22 869.651,1111.67L866.587,1114.24C866.353,1114.44 866.068,1114.53 865.784,1114.53ZM856.591,1122.24C856.235,1122.24 855.88,1122.09 855.633,1121.8C855.19,1121.27 855.259,1120.48 855.788,1120.04L858.852,1117.47C859.381,1117.02 860.169,1117.09 860.613,1117.62C861.057,1118.15 860.987,1118.94 860.459,1119.38L857.394,1121.95C857.16,1122.15 856.875,1122.24 856.591,1122.24ZM847.399,1129.96C847.043,1129.96 846.688,1129.81 846.441,1129.51C845.997,1128.98 846.068,1128.19 846.596,1127.75L849.659,1125.18C850.188,1124.74 850.977,1124.8 851.42,1125.33C851.864,1125.86 851.795,1126.65 851.266,1127.09L848.2,1129.67C847.966,1129.86 847.683,1129.96 847.399,1129.96Z" style="fill:rgb(194,199,204);fill-rule:nonzero;"/>
            <path d="M791.414,1176.92C791.081,1176.92 790.748,1176.79 790.502,1176.53C790.029,1176.02 790.054,1175.23 790.557,1174.76C790.856,1174.48 791.02,1173.99 791.02,1173.38L791.02,1068.23C791.02,1066.54 789.789,1064.68 788.333,1064.15L708.758,1035.19C708.456,1035.08 707.899,1034.94 707.482,1035.25C706.929,1035.66 706.147,1035.55 705.733,1035C705.32,1034.44 705.433,1033.66 705.986,1033.25C706.983,1032.5 708.308,1032.35 709.621,1032.84L789.187,1061.8C791.615,1062.68 793.52,1065.5 793.52,1068.23L793.52,1173.38C793.52,1174.69 793.076,1175.82 792.269,1176.58C792.028,1176.81 791.72,1176.92 791.414,1176.92Z" style="fill:rgb(55,58,58);fill-rule:nonzero;"/>
            <path d="M789.835,1177.53C789.349,1177.53 788.844,1177.44 788.337,1177.25L708.758,1148.29C706.328,1147.41 704.425,1144.58 704.425,1141.86L704.425,1036.71C704.425,1035.3 704.929,1034.12 705.845,1033.37C706.378,1032.93 707.166,1033.01 707.605,1033.54C708.043,1034.07 707.965,1034.86 707.431,1035.3C707.105,1035.57 706.925,1036.07 706.925,1036.71L706.925,1141.86C706.925,1143.54 708.156,1145.41 709.614,1145.94L789.187,1174.9C789.565,1175.04 790.11,1175.13 790.515,1174.8C791.046,1174.35 791.835,1174.43 792.277,1174.96C792.719,1175.49 792.649,1176.27 792.119,1176.71C791.477,1177.25 790.684,1177.53 789.835,1177.53Z" style="fill:rgb(55,58,58);fill-rule:nonzero;"/>
            <path d="M720.485,1071.86L754.738,1084.32L754.738,1065.97L720.485,1053.5L720.485,1071.86ZM755.988,1087.35C755.844,1087.35 755.699,1087.33 755.561,1087.28L718.808,1073.91C718.314,1073.73 717.985,1073.26 717.985,1072.73L717.985,1051.71C717.985,1051.3 718.184,1050.92 718.518,1050.69C718.852,1050.46 719.279,1050.4 719.663,1050.54L756.416,1063.92C756.909,1064.1 757.238,1064.57 757.238,1065.09L757.238,1086.1C757.238,1086.51 757.039,1086.89 756.705,1087.12C756.492,1087.27 756.241,1087.35 755.988,1087.35Z" style="fill:rgb(55,58,58);fill-rule:nonzero;"/>
            <path d="M720.485,1092.26L780.82,1114.22L780.82,1106.07L720.485,1084.11L720.485,1092.26ZM782.07,1117.25C781.926,1117.25 781.781,1117.23 781.642,1117.18L718.807,1094.31C718.314,1094.13 717.985,1093.66 717.985,1093.13L717.985,1082.32C717.985,1081.91 718.184,1081.53 718.518,1081.3C718.852,1081.06 719.279,1081.01 719.663,1081.15L782.498,1104.02C782.991,1104.2 783.32,1104.67 783.32,1105.19L783.32,1116C783.32,1116.41 783.121,1116.79 782.787,1117.03C782.574,1117.18 782.323,1117.25 782.07,1117.25Z" style="fill:rgb(55,58,58);fill-rule:nonzero;"/>
            <path d="M765.385,1076.91C765.249,1076.91 765.134,1076.94 765.05,1077C764.855,1077.13 764.826,1077.44 764.826,1077.61C764.826,1078.62 765.724,1079.84 766.748,1080.22C767.099,1080.34 767.419,1080.35 767.596,1080.22C767.788,1080.09 767.816,1079.78 767.816,1079.62C767.816,1078.6 766.918,1077.38 765.893,1077.01C765.707,1076.94 765.533,1076.91 765.385,1076.91ZM767.243,1082.81C766.805,1082.81 766.349,1082.73 765.893,1082.57C763.888,1081.83 762.326,1079.65 762.326,1077.61C762.326,1076.49 762.798,1075.52 763.621,1074.95C764.477,1074.35 765.616,1074.25 766.748,1074.66C768.745,1075.38 770.316,1077.56 770.316,1079.62C770.316,1080.73 769.849,1081.69 769.035,1082.27C768.521,1082.63 767.902,1082.81 767.243,1082.81Z" style="fill:rgb(55,58,58);fill-rule:nonzero;"/>
            <path d="M778.397,1081.64C778.257,1081.64 778.139,1081.67 778.053,1081.73C777.859,1081.87 777.83,1082.17 777.83,1082.34C777.83,1083.36 778.728,1084.58 779.752,1084.95C780.11,1085.08 780.421,1085.08 780.595,1084.96C780.791,1084.83 780.82,1084.52 780.82,1084.35C780.82,1083.34 779.921,1082.12 778.898,1081.74C778.716,1081.67 778.544,1081.64 778.397,1081.64ZM780.257,1087.55C779.815,1087.55 779.356,1087.46 778.898,1087.29C776.901,1086.58 775.33,1084.4 775.33,1082.34C775.33,1081.22 775.8,1080.25 776.622,1079.68C777.479,1079.08 778.623,1078.98 779.76,1079.39C781.757,1080.13 783.32,1082.31 783.32,1084.35C783.32,1085.47 782.848,1086.44 782.024,1087.01C781.515,1087.37 780.906,1087.55 780.257,1087.55Z" style="fill:rgb(55,58,58);fill-rule:nonzero;"/>
            <path d="M782.006,1134.51C781.864,1134.51 781.719,1134.48 781.578,1134.43L755.56,1124.96C754.912,1124.72 754.577,1124 754.813,1123.36C755.05,1122.71 755.769,1122.38 756.416,1122.61L782.434,1132.08C783.082,1132.32 783.417,1133.04 783.181,1133.68C782.996,1134.19 782.516,1134.51 782.006,1134.51Z" style="fill:rgb(55,58,58);fill-rule:nonzero;"/>
            <path d="M782.006,1142.47C781.864,1142.47 781.719,1142.44 781.578,1142.39L755.56,1132.92C754.912,1132.69 754.577,1131.97 754.813,1131.32C755.05,1130.67 755.769,1130.34 756.416,1130.57L782.434,1140.04C783.082,1140.28 783.417,1141 783.181,1141.65C782.996,1142.15 782.516,1142.47 782.006,1142.47Z" style="fill:rgb(55,58,58);fill-rule:nonzero;"/>
            <path d="M782.006,1150.43C781.864,1150.43 781.72,1150.41 781.579,1150.36L755.561,1140.9C754.912,1140.66 754.577,1139.94 754.813,1139.29C755.048,1138.64 755.765,1138.31 756.415,1138.55L782.433,1148.01C783.082,1148.24 783.417,1148.96 783.181,1149.61C782.996,1150.12 782.517,1150.43 782.006,1150.43Z" style="fill:rgb(55,58,58);fill-rule:nonzero;"/>
            <path d="M782.006,1158.41C781.864,1158.41 781.719,1158.38 781.578,1158.33L755.56,1148.86C754.912,1148.62 754.577,1147.9 754.813,1147.26C755.05,1146.61 755.769,1146.28 756.416,1146.51L782.434,1155.98C783.082,1156.22 783.417,1156.93 783.181,1157.58C782.996,1158.09 782.516,1158.41 782.006,1158.41Z" style="fill:rgb(55,58,58);fill-rule:nonzero;"/>
            <path d="M791.317,1177.01C790.961,1177.01 790.606,1176.85 790.359,1176.56C789.916,1176.03 789.986,1175.24 790.515,1174.8L825.779,1145.22C826.101,1144.95 826.284,1144.43 826.284,1143.8L826.284,1038.63C826.284,1037.22 825.377,1035.62 824.127,1034.83C823.936,1034.71 823.764,1034.63 823.603,1034.57L744.023,1005.6C743.637,1005.46 743.102,1005.36 742.702,1005.7L707.442,1035.29C706.914,1035.73 706.125,1035.67 705.681,1035.14C705.237,1034.61 705.306,1033.82 705.835,1033.37L741.089,1003.79C742.101,1002.93 743.488,1002.74 744.887,1003.26L824.452,1032.22C824.779,1032.33 825.111,1032.5 825.46,1032.72C827.449,1033.98 828.784,1036.35 828.784,1038.63L828.784,1143.8C828.784,1145.19 828.287,1146.38 827.384,1147.13L792.119,1176.71C791.885,1176.91 791.601,1177.01 791.317,1177.01Z" style="fill:rgb(55,58,58);fill-rule:nonzero;"/>
            <path d="M873.393,1119.99L873.393,1140.14L860.111,1151.28L860.111,1131.13L873.393,1119.99Z" style="fill:rgb(95,100,107);fill-rule:nonzero;"/>
            <path d="M873.393,1119.99L860.111,1131.13L840.215,1123.9L853.497,1112.75L873.393,1119.99Z" style="fill:white;fill-rule:nonzero;"/>
            <path d="M860.111,1131.13L860.111,1151.28L840.215,1144.05L840.215,1123.9L860.111,1131.13Z" style="fill:rgb(218,224,229);fill-rule:nonzero;"/>
            <path d="M841.465,1143.17L858.861,1149.5L858.861,1132.01L841.465,1125.68L841.465,1143.17ZM860.111,1152.53C859.967,1152.53 859.822,1152.51 859.684,1152.46L839.788,1145.22C839.294,1145.04 838.965,1144.57 838.965,1144.05L838.965,1123.9C838.965,1123.49 839.164,1123.11 839.498,1122.87C839.832,1122.64 840.26,1122.58 840.642,1122.72L860.538,1129.96C861.032,1130.14 861.361,1130.61 861.361,1131.13L861.361,1151.28C861.361,1151.69 861.162,1152.07 860.828,1152.31C860.615,1152.46 860.364,1152.53 860.111,1152.53Z" style="fill:rgb(55,58,58);fill-rule:nonzero;"/>
            <path d="M860.111,1152.53C859.755,1152.53 859.4,1152.38 859.153,1152.09C858.71,1151.56 858.779,1150.77 859.308,1150.33L872.143,1139.56L872.143,1120.87L853.747,1114.18L841.018,1124.85C840.491,1125.3 839.702,1125.23 839.257,1124.7C838.814,1124.17 838.883,1123.38 839.412,1122.94L852.693,1111.8C853.035,1111.51 853.504,1111.43 853.924,1111.58L873.82,1118.82C874.314,1119 874.643,1119.46 874.643,1119.99L874.643,1140.14C874.643,1140.51 874.479,1140.86 874.196,1141.1L860.914,1152.24C860.68,1152.44 860.395,1152.53 860.111,1152.53Z" style="fill:rgb(55,58,58);fill-rule:nonzero;"/>
            <path d="M860.111,1132.38C859.755,1132.38 859.4,1132.23 859.153,1131.93C858.71,1131.41 858.779,1130.62 859.308,1130.17L872.589,1119.03C873.118,1118.59 873.906,1118.66 874.35,1119.19C874.794,1119.72 874.725,1120.5 874.196,1120.95L860.914,1132.09C860.68,1132.29 860.395,1132.38 860.111,1132.38Z" style="fill:rgb(55,58,58);fill-rule:nonzero;"/>
        </g>
    </g>
</svg>
