<?xml version="1.0" encoding="UTF-8" standalone="no"?>
<!DOCTYPE svg PUBLIC "-//W3C//DTD SVG 1.1//EN" "http://www.w3.org/Graphics/SVG/1.1/DTD/svg11.dtd">
<svg width="100%" height="100%" viewBox="0 0 176 216" version="1.1" xmlns="http://www.w3.org/2000/svg" xmlns:xlink="http://www.w3.org/1999/xlink" xml:space="preserve" xmlns:serif="http://www.serif.com/" style="fill-rule:evenodd;clip-rule:evenodd;stroke-linejoin:round;stroke-miterlimit:2;">
    <g transform="matrix(1,0,0,1,-1070.08,-1039.5)">
        <g id="grc-icon" transform="matrix(1,0,0,1,76.9555,68.635)">
            <path d="M1165.6,1042.97L1165.84,1043.11L1165.7,1042.91L1165.6,1042.97Z" style="fill:rgb(150,154,158);fill-rule:nonzero;"/>
            <path d="M1167.78,1051.83C1167.91,1051.02 1167.97,1050.2 1167.93,1049.38L1167.8,1049.3L1165.6,1050.57L1167.78,1051.83Z" style="fill:rgb(150,154,158);fill-rule:nonzero;"/>
            <path d="M1165.6,1080.97L1166.7,1081.61C1166.59,1081.25 1166.47,1080.9 1166.34,1080.54L1165.6,1080.97Z" style="fill:rgb(150,154,158);fill-rule:nonzero;"/>
            <path d="M1167.8,1087.3L1165.6,1088.57L1167.8,1089.84L1168.26,1089.58C1168.18,1088.86 1168.08,1088.14 1167.98,1087.4L1167.8,1087.3Z" style="fill:rgb(150,154,158);fill-rule:nonzero;"/>
            <path d="M1168.74,1095.45L1167.8,1094.9L1165.6,1096.17L1167.8,1097.44L1168.8,1096.86C1168.79,1096.39 1168.77,1095.92 1168.74,1095.45Z" style="fill:rgb(150,154,158);fill-rule:nonzero;"/>
            <path d="M1168.8,1103.08L1167.8,1102.5L1165.6,1103.77L1167.8,1105.04L1168.76,1104.48C1168.79,1104.02 1168.79,1103.55 1168.8,1103.08Z" style="fill:rgb(150,154,158);fill-rule:nonzero;"/>
            <path d="M1168.8,1099.97L1168.87,1100.01L1168.87,1099.93L1168.8,1099.97Z" style="fill:rgb(150,154,158);fill-rule:nonzero;"/>
            <path d="M1168.02,1112.51C1168.12,1111.8 1168.19,1111.09 1168.27,1110.37L1167.8,1110.1L1165.6,1111.37L1167.8,1112.64L1168.02,1112.51Z" style="fill:rgb(150,154,158);fill-rule:nonzero;"/>
            <path d="M1167.05,1118.13L1165.6,1118.97L1166.75,1119.63C1166.85,1119.13 1166.95,1118.63 1167.05,1118.13Z" style="fill:rgb(150,154,158);fill-rule:nonzero;"/>
            <path d="M1162.4,1046.77L1164.6,1048.04L1166.8,1046.77L1164.6,1045.5L1162.4,1046.77Z" style="fill:rgb(150,154,158);fill-rule:nonzero;"/>
            <path d="M1161.4,1041.7L1159.2,1042.97L1161.4,1044.24L1163.6,1042.97L1161.4,1041.7Z" style="fill:rgb(150,154,158);fill-rule:nonzero;"/>
            <path d="M1164.6,1053.1L1162.4,1054.37L1164.6,1055.64L1166.8,1054.37L1164.6,1053.1Z" style="fill:rgb(150,154,158);fill-rule:nonzero;"/>
            <path d="M1159.2,1050.57L1161.4,1051.84L1163.6,1050.57L1161.4,1049.3L1159.2,1050.57Z" style="fill:rgb(150,154,158);fill-rule:nonzero;"/>
            <path d="M1159.2,1058.17L1161.4,1059.44L1163.6,1058.17L1161.4,1056.9L1159.2,1058.17Z" style="fill:rgb(150,154,158);fill-rule:nonzero;"/>
            <path d="M1162.4,1077.17L1164.6,1078.44L1165.27,1078.05C1164.93,1077.4 1164.55,1076.77 1164.13,1076.17L1162.4,1077.17Z" style="fill:rgb(150,154,158);fill-rule:nonzero;"/>
            <path d="M1159.2,1073.37L1161.4,1074.64L1162.33,1074.1C1161.75,1073.57 1161.13,1073.07 1160.44,1072.65L1159.2,1073.37Z" style="fill:rgb(150,154,158);fill-rule:nonzero;"/>
            <path d="M1161.4,1079.7L1159.2,1080.97L1161.4,1082.24L1163.6,1080.97L1161.4,1079.7Z" style="fill:rgb(150,154,158);fill-rule:nonzero;"/>
            <path d="M1164.6,1091.1L1162.4,1092.37L1164.6,1093.64L1166.8,1092.37L1164.6,1091.1Z" style="fill:rgb(150,154,158);fill-rule:nonzero;"/>
            <path d="M1161.4,1087.3L1159.2,1088.57L1161.4,1089.84L1163.6,1088.57L1161.4,1087.3Z" style="fill:rgb(150,154,158);fill-rule:nonzero;"/>
            <path d="M1162.4,1084.77L1164.6,1086.04L1166.8,1084.77L1164.6,1083.5L1162.4,1084.77Z" style="fill:rgb(150,154,158);fill-rule:nonzero;"/>
            <path d="M1161.4,1094.9L1159.2,1096.17L1161.4,1097.44L1163.6,1096.17L1161.4,1094.9Z" style="fill:rgb(150,154,158);fill-rule:nonzero;"/>
            <path d="M1161.4,1102.5L1159.2,1103.77L1161.4,1105.04L1163.6,1103.77L1161.4,1102.5Z" style="fill:rgb(150,154,158);fill-rule:nonzero;"/>
            <path d="M1164.6,1098.7L1162.4,1099.97L1164.6,1101.24L1166.8,1099.97L1164.6,1098.7Z" style="fill:rgb(150,154,158);fill-rule:nonzero;"/>
            <path d="M1163.6,1111.37L1161.4,1110.1L1159.2,1111.37L1161.4,1112.64L1163.6,1111.37Z" style="fill:rgb(150,154,158);fill-rule:nonzero;"/>
            <path d="M1164.6,1106.3L1162.4,1107.57L1164.6,1108.84L1166.8,1107.57L1164.6,1106.3Z" style="fill:rgb(150,154,158);fill-rule:nonzero;"/>
            <path d="M1161.4,1117.7L1159.2,1118.97L1161.4,1120.24L1163.6,1118.97L1161.4,1117.7Z" style="fill:rgb(150,154,158);fill-rule:nonzero;"/>
            <path d="M1166.8,1115.17L1164.6,1113.9L1162.4,1115.17L1164.6,1116.44L1166.8,1115.17Z" style="fill:rgb(150,154,158);fill-rule:nonzero;"/>
            <path d="M1163.99,1129.45L1162.4,1130.37L1163.4,1130.95C1163.61,1130.46 1163.8,1129.96 1163.99,1129.45Z" style="fill:rgb(150,154,158);fill-rule:nonzero;"/>
            <path d="M1159.2,1126.57L1161.4,1127.84L1163.6,1126.57L1161.4,1125.3L1159.2,1126.57Z" style="fill:rgb(150,154,158);fill-rule:nonzero;"/>
            <path d="M1166.1,1122.37L1164.6,1121.5L1162.4,1122.77L1164.6,1124.04L1165.86,1123.31C1165.95,1123 1166.02,1122.68 1166.1,1122.37Z" style="fill:rgb(150,154,158);fill-rule:nonzero;"/>
            <path d="M1162.29,1133.41L1161.4,1132.9L1159.2,1134.17L1161.25,1135.35C1161.61,1134.72 1161.96,1134.08 1162.29,1133.41Z" style="fill:rgb(150,154,158);fill-rule:nonzero;"/>
            <path d="M1158.69,1038.18L1158.09,1037.96L1156,1039.17L1158.2,1040.44L1160.4,1039.17L1158.69,1038.18Z" style="fill:rgb(150,154,158);fill-rule:nonzero;"/>
            <path d="M1156,1046.77L1158.2,1048.04L1160.4,1046.77L1158.2,1045.5L1156,1046.77Z" style="fill:rgb(150,154,158);fill-rule:nonzero;"/>
            <path d="M1152.8,1042.97L1155,1044.24L1157.2,1042.97L1155,1041.7L1152.8,1042.97Z" style="fill:rgb(150,154,158);fill-rule:nonzero;"/>
            <path d="M1152.8,1050.57L1155,1051.84L1157.2,1050.57L1155,1049.3L1152.8,1050.57Z" style="fill:rgb(150,154,158);fill-rule:nonzero;"/>
            <path d="M1156,1061.97L1158.2,1063.24L1159.76,1062.34L1160.27,1061.9L1158.2,1060.7L1156,1061.97Z" style="fill:rgb(150,154,158);fill-rule:nonzero;"/>
            <path d="M1152.8,1058.17L1155,1059.44L1157.2,1058.17L1155,1056.9L1152.8,1058.17Z" style="fill:rgb(150,154,158);fill-rule:nonzero;"/>
            <path d="M1156,1054.37L1158.2,1055.64L1160.4,1054.37L1158.2,1053.1L1156,1054.37Z" style="fill:rgb(150,154,158);fill-rule:nonzero;"/>
            <path d="M1152.8,1065.77L1154.6,1066.81L1156.36,1065.29L1155,1064.5L1152.8,1065.77Z" style="fill:rgb(150,154,158);fill-rule:nonzero;"/>
            <path d="M1158.2,1075.9L1156,1077.17L1158.2,1078.44L1160.4,1077.17L1158.2,1075.9Z" style="fill:rgb(150,154,158);fill-rule:nonzero;"/>
            <path d="M1152.8,1073.37L1155,1074.64L1157.2,1073.37L1155,1072.1L1152.8,1073.37Z" style="fill:rgb(150,154,158);fill-rule:nonzero;"/>
            <path d="M1155,1079.7L1152.8,1080.97L1155,1082.24L1157.2,1080.97L1155,1079.7Z" style="fill:rgb(150,154,158);fill-rule:nonzero;"/>
            <path d="M1158.2,1091.1L1156,1092.37L1158.2,1093.64L1160.4,1092.37L1158.2,1091.1Z" style="fill:rgb(150,154,158);fill-rule:nonzero;"/>
            <path d="M1155,1087.3L1152.8,1088.57L1155,1089.84L1157.2,1088.57L1155,1087.3Z" style="fill:rgb(150,154,158);fill-rule:nonzero;"/>
            <path d="M1158.2,1083.5L1156,1084.77L1158.2,1086.04L1160.4,1084.77L1158.2,1083.5Z" style="fill:rgb(150,154,158);fill-rule:nonzero;"/>
            <path d="M1155,1094.9L1152.8,1096.17L1155,1097.44L1157.2,1096.17L1155,1094.9Z" style="fill:rgb(150,154,158);fill-rule:nonzero;"/>
            <path d="M1157.2,1103.77L1155,1102.5L1152.8,1103.77L1155,1105.04L1157.2,1103.77Z" style="fill:rgb(150,154,158);fill-rule:nonzero;"/>
            <path d="M1158.2,1098.7L1156,1099.97L1158.2,1101.24L1160.4,1099.97L1158.2,1098.7Z" style="fill:rgb(150,154,158);fill-rule:nonzero;"/>
            <path d="M1155,1110.1L1152.8,1111.37L1155,1112.64L1157.2,1111.37L1155,1110.1Z" style="fill:rgb(150,154,158);fill-rule:nonzero;"/>
            <path d="M1160.4,1107.57L1158.2,1106.3L1156,1107.57L1158.2,1108.84L1160.4,1107.57Z" style="fill:rgb(150,154,158);fill-rule:nonzero;"/>
            <path d="M1155,1117.7L1152.8,1118.97L1155,1120.24L1157.2,1118.97L1155,1117.7Z" style="fill:rgb(150,154,158);fill-rule:nonzero;"/>
            <path d="M1158.2,1113.9L1156,1115.17L1158.2,1116.44L1160.4,1115.17L1158.2,1113.9Z" style="fill:rgb(150,154,158);fill-rule:nonzero;"/>
            <path d="M1156,1130.37L1158.2,1131.64L1160.4,1130.37L1158.2,1129.1L1156,1130.37Z" style="fill:rgb(150,154,158);fill-rule:nonzero;"/>
            <path d="M1155,1125.3L1152.8,1126.57L1155,1127.84L1157.2,1126.57L1155,1125.3Z" style="fill:rgb(150,154,158);fill-rule:nonzero;"/>
            <path d="M1158.2,1121.5L1156,1122.77L1158.2,1124.04L1160.4,1122.77L1158.2,1121.5Z" style="fill:rgb(150,154,158);fill-rule:nonzero;"/>
            <path d="M1152.8,1134.17L1155,1135.44L1157.2,1134.17L1155,1132.9L1152.8,1134.17Z" style="fill:rgb(150,154,158);fill-rule:nonzero;"/>
            <path d="M1155,1140.5L1152.8,1141.77L1154.75,1142.9C1155.37,1142.41 1155.95,1141.9 1156.51,1141.37L1155,1140.5Z" style="fill:rgb(150,154,158);fill-rule:nonzero;"/>
            <path d="M1158.82,1138.88C1159.15,1138.47 1159.47,1138.05 1159.78,1137.62L1158.2,1136.7L1156,1137.97L1158.2,1139.24L1158.82,1138.88Z" style="fill:rgb(150,154,158);fill-rule:nonzero;"/>
            <path d="M1149.6,1039.17L1151.8,1040.44L1154,1039.17L1151.8,1037.9L1149.6,1039.17Z" style="fill:rgb(150,154,158);fill-rule:nonzero;"/>
            <path d="M1148.16,1034.35L1146.4,1035.37L1148.6,1036.64L1150.8,1035.37L1150.52,1035.21L1148.16,1034.35Z" style="fill:rgb(150,154,158);fill-rule:nonzero;"/>
            <path d="M1149.6,1046.77L1151.8,1048.04L1154,1046.77L1151.8,1045.5L1149.6,1046.77Z" style="fill:rgb(150,154,158);fill-rule:nonzero;"/>
            <path d="M1146.4,1042.97L1148.6,1044.24L1150.8,1042.97L1148.6,1041.7L1146.4,1042.97Z" style="fill:rgb(150,154,158);fill-rule:nonzero;"/>
            <path d="M1149.6,1054.37L1151.8,1055.64L1154,1054.37L1151.8,1053.1L1149.6,1054.37Z" style="fill:rgb(150,154,158);fill-rule:nonzero;"/>
            <path d="M1146.4,1050.57L1148.6,1051.84L1150.8,1050.57L1148.6,1049.3L1146.4,1050.57Z" style="fill:rgb(150,154,158);fill-rule:nonzero;"/>
            <path d="M1149.6,1061.97L1151.8,1063.24L1154,1061.97L1151.8,1060.7L1149.6,1061.97Z" style="fill:rgb(150,154,158);fill-rule:nonzero;"/>
            <path d="M1146.4,1058.17L1148.6,1059.44L1150.8,1058.17L1148.6,1056.9L1146.4,1058.17Z" style="fill:rgb(150,154,158);fill-rule:nonzero;"/>
            <path d="M1146.4,1065.77L1148.6,1067.04L1150.8,1065.77L1148.6,1064.5L1146.4,1065.77Z" style="fill:rgb(150,154,158);fill-rule:nonzero;"/>
            <path d="M1149.6,1077.17L1151.8,1078.44L1154,1077.17L1151.8,1075.9L1149.6,1077.17Z" style="fill:rgb(150,154,158);fill-rule:nonzero;"/>
            <path d="M1148.6,1072.1L1146.4,1073.37L1148.6,1074.64L1150.8,1073.37L1148.6,1072.1Z" style="fill:rgb(150,154,158);fill-rule:nonzero;"/>
            <path d="M1153.36,1069.2L1151.8,1068.3L1149.6,1069.57L1151.8,1070.84L1153.64,1069.78C1153.54,1069.59 1153.45,1069.4 1153.36,1069.2Z" style="fill:rgb(150,154,158);fill-rule:nonzero;"/>
            <path d="M1146.4,1080.97L1148.6,1082.24L1150.8,1080.97L1148.6,1079.7L1146.4,1080.97Z" style="fill:rgb(150,154,158);fill-rule:nonzero;"/>
            <path d="M1151.8,1091.1L1149.6,1092.37L1151.8,1093.64L1154,1092.37L1151.8,1091.1Z" style="fill:rgb(150,154,158);fill-rule:nonzero;"/>
            <path d="M1148.6,1087.3L1146.4,1088.57L1148.6,1089.84L1150.8,1088.57L1148.6,1087.3Z" style="fill:rgb(150,154,158);fill-rule:nonzero;"/>
            <path d="M1151.8,1083.5L1149.6,1084.77L1151.8,1086.04L1154,1084.77L1151.8,1083.5Z" style="fill:rgb(150,154,158);fill-rule:nonzero;"/>
            <path d="M1150.8,1096.17L1148.6,1094.9L1146.4,1096.17L1148.6,1097.44L1150.8,1096.17Z" style="fill:rgb(150,154,158);fill-rule:nonzero;"/>
            <path d="M1148.6,1102.5L1146.4,1103.77L1148.6,1105.04L1150.8,1103.77L1148.6,1102.5Z" style="fill:rgb(150,154,158);fill-rule:nonzero;"/>
            <path d="M1154,1099.97L1151.8,1098.7L1149.6,1099.97L1151.8,1101.24L1154,1099.97Z" style="fill:rgb(150,154,158);fill-rule:nonzero;"/>
            <path d="M1148.6,1110.1L1146.4,1111.37L1148.6,1112.64L1150.8,1111.37L1148.6,1110.1Z" style="fill:rgb(150,154,158);fill-rule:nonzero;"/>
            <path d="M1151.8,1106.3L1149.6,1107.57L1151.8,1108.84L1154,1107.57L1151.8,1106.3Z" style="fill:rgb(150,154,158);fill-rule:nonzero;"/>
            <path d="M1148.6,1117.7L1146.4,1118.97L1148.6,1120.24L1150.8,1118.97L1148.6,1117.7Z" style="fill:rgb(150,154,158);fill-rule:nonzero;"/>
            <path d="M1151.8,1113.9L1149.6,1115.17L1151.8,1116.44L1154,1115.17L1151.8,1113.9Z" style="fill:rgb(150,154,158);fill-rule:nonzero;"/>
            <path d="M1151.8,1129.1L1149.6,1130.37L1151.8,1131.64L1154,1130.37L1151.8,1129.1Z" style="fill:rgb(150,154,158);fill-rule:nonzero;"/>
            <path d="M1148.6,1125.3L1146.4,1126.57L1148.6,1127.84L1150.8,1126.57L1148.6,1125.3Z" style="fill:rgb(150,154,158);fill-rule:nonzero;"/>
            <path d="M1151.8,1121.5L1149.6,1122.77L1151.8,1124.04L1154,1122.77L1151.8,1121.5Z" style="fill:rgb(150,154,158);fill-rule:nonzero;"/>
            <path d="M1148.6,1132.9L1146.4,1134.17L1148.6,1135.44L1150.8,1134.17L1148.6,1132.9Z" style="fill:rgb(150,154,158);fill-rule:nonzero;"/>
            <path d="M1149.6,1145.57L1150.06,1145.84L1150.09,1145.82C1150.87,1145.43 1151.59,1145.02 1152.29,1144.59L1151.8,1144.3L1149.6,1145.57Z" style="fill:rgb(150,154,158);fill-rule:nonzero;"/>
            <path d="M1148.6,1140.5L1146.4,1141.77L1148.6,1143.04L1150.8,1141.77L1148.6,1140.5Z" style="fill:rgb(150,154,158);fill-rule:nonzero;"/>
            <path d="M1154,1137.97L1151.8,1136.7L1149.6,1137.97L1151.8,1139.24L1154,1137.97Z" style="fill:rgb(150,154,158);fill-rule:nonzero;"/>
            <path d="M1145.4,1037.9L1143.2,1039.17L1145.4,1040.44L1147.6,1039.17L1145.4,1037.9Z" style="fill:rgb(150,154,158);fill-rule:nonzero;"/>
            <path d="M1140,1035.37L1142.2,1036.64L1144.4,1035.37L1142.2,1034.1L1140,1035.37Z" style="fill:rgb(150,154,158);fill-rule:nonzero;"/>
            <path d="M1143.2,1046.77L1145.4,1048.04L1147.6,1046.77L1145.4,1045.5L1143.2,1046.77Z" style="fill:rgb(150,154,158);fill-rule:nonzero;"/>
            <path d="M1140,1042.97L1142.2,1044.24L1144.4,1042.97L1142.2,1041.7L1140,1042.97Z" style="fill:rgb(150,154,158);fill-rule:nonzero;"/>
            <path d="M1145.4,1053.1L1143.2,1054.37L1145.4,1055.64L1147.6,1054.37L1145.4,1053.1Z" style="fill:rgb(150,154,158);fill-rule:nonzero;"/>
            <path d="M1140,1050.57L1142.2,1051.84L1144.4,1050.57L1142.2,1049.3L1140,1050.57Z" style="fill:rgb(150,154,158);fill-rule:nonzero;"/>
            <path d="M1143.2,1061.97L1145.4,1063.24L1147.6,1061.97L1145.4,1060.7L1143.2,1061.97Z" style="fill:rgb(150,154,158);fill-rule:nonzero;"/>
            <path d="M1140,1058.17L1142.2,1059.44L1144.4,1058.17L1142.2,1056.9L1140,1058.17Z" style="fill:rgb(150,154,158);fill-rule:nonzero;"/>
            <path d="M1140,1065.77L1142.2,1067.04L1144.4,1065.77L1142.2,1064.5L1140,1065.77Z" style="fill:rgb(150,154,158);fill-rule:nonzero;"/>
            <path d="M1145.4,1075.9L1143.67,1076.9C1143.57,1077.03 1143.49,1077.16 1143.39,1077.28L1145.4,1078.44L1147.6,1077.17L1145.4,1075.9Z" style="fill:rgb(150,154,158);fill-rule:nonzero;"/>
            <path d="M1140,1073.37L1142.2,1074.64L1144.4,1073.37L1142.2,1072.1L1140,1073.37Z" style="fill:rgb(150,154,158);fill-rule:nonzero;"/>
            <path d="M1143.2,1069.57L1145.4,1070.84L1147.6,1069.57L1145.4,1068.3L1143.2,1069.57Z" style="fill:rgb(150,154,158);fill-rule:nonzero;"/>
            <path d="M1142.2,1079.7L1141.76,1079.95C1141.49,1080.48 1141.24,1081.02 1141.02,1081.56L1142.2,1082.24L1144.4,1080.97L1142.2,1079.7Z" style="fill:rgb(150,154,158);fill-rule:nonzero;"/>
            <path d="M1140,1088.57L1142.2,1089.84L1144.4,1088.57L1142.2,1087.3L1140,1088.57Z" style="fill:rgb(150,154,158);fill-rule:nonzero;"/>
            <path d="M1143.2,1084.77L1145.4,1086.04L1147.6,1084.77L1145.4,1083.5L1143.2,1084.77Z" style="fill:rgb(150,154,158);fill-rule:nonzero;"/>
            <path d="M1142.2,1094.9L1140,1096.17L1142.2,1097.44L1144.4,1096.17L1142.2,1094.9Z" style="fill:rgb(150,154,158);fill-rule:nonzero;"/>
            <path d="M1147.6,1092.37L1145.4,1091.1L1143.2,1092.37L1145.4,1093.64L1147.6,1092.37Z" style="fill:rgb(150,154,158);fill-rule:nonzero;"/>
            <path d="M1142.2,1102.5L1140,1103.77L1142.2,1105.04L1144.4,1103.77L1142.2,1102.5Z" style="fill:rgb(150,154,158);fill-rule:nonzero;"/>
            <path d="M1145.4,1098.7L1143.2,1099.97L1145.4,1101.24L1147.6,1099.97L1145.4,1098.7Z" style="fill:rgb(150,154,158);fill-rule:nonzero;"/>
            <path d="M1142.2,1110.1L1140,1111.37L1142.2,1112.64L1144.4,1111.37L1142.2,1110.1Z" style="fill:rgb(150,154,158);fill-rule:nonzero;"/>
            <path d="M1145.4,1106.3L1143.2,1107.57L1145.4,1108.84L1147.6,1107.57L1145.4,1106.3Z" style="fill:rgb(150,154,158);fill-rule:nonzero;"/>
            <path d="M1142.2,1117.7L1140,1118.97L1142.2,1120.24L1144.4,1118.97L1142.2,1117.7Z" style="fill:rgb(150,154,158);fill-rule:nonzero;"/>
            <path d="M1145.4,1113.9L1143.2,1115.17L1145.4,1116.44L1147.6,1115.17L1145.4,1113.9Z" style="fill:rgb(150,154,158);fill-rule:nonzero;"/>
            <path d="M1145.4,1129.1L1143.2,1130.37L1145.4,1131.64L1147.6,1130.37L1145.4,1129.1Z" style="fill:rgb(150,154,158);fill-rule:nonzero;"/>
            <path d="M1142.2,1125.3L1140,1126.57L1142.2,1127.84L1144.4,1126.57L1142.2,1125.3Z" style="fill:rgb(150,154,158);fill-rule:nonzero;"/>
            <path d="M1145.4,1121.5L1143.2,1122.77L1145.4,1124.04L1147.6,1122.77L1145.4,1121.5Z" style="fill:rgb(150,154,158);fill-rule:nonzero;"/>
            <path d="M1145.4,1136.7L1143.2,1137.97L1145.4,1139.24L1147.6,1137.97L1145.4,1136.7Z" style="fill:rgb(150,154,158);fill-rule:nonzero;"/>
            <path d="M1142.2,1132.9L1140,1134.17L1142.2,1135.44L1144.4,1134.17L1142.2,1132.9Z" style="fill:rgb(150,154,158);fill-rule:nonzero;"/>
            <path d="M1145.4,1144.3L1143.2,1145.57L1145.4,1146.84L1147.6,1145.57L1145.4,1144.3Z" style="fill:rgb(150,154,158);fill-rule:nonzero;"/>
            <path d="M1142.2,1140.5L1140,1141.77L1142.2,1143.04L1144.4,1141.77L1142.2,1140.5Z" style="fill:rgb(150,154,158);fill-rule:nonzero;"/>
            <path d="M1140,1149.37L1140.93,1149.91C1141.78,1149.56 1142.64,1149.21 1143.48,1148.84L1142.2,1148.1L1140,1149.37Z" style="fill:rgb(150,154,158);fill-rule:nonzero;"/>
            <path d="M1133.6,1035.37L1135.8,1036.64L1138,1035.37L1135.8,1034.1L1133.6,1035.37Z" style="fill:rgb(150,154,158);fill-rule:nonzero;"/>
            <path d="M1136.8,1031.57L1139,1032.84L1140.94,1031.72L1138.24,1030.74L1136.8,1031.57Z" style="fill:rgb(150,154,158);fill-rule:nonzero;"/>
            <path d="M1136.8,1046.77L1139,1048.04L1141.2,1046.77L1139,1045.5L1136.8,1046.77Z" style="fill:rgb(150,154,158);fill-rule:nonzero;"/>
            <path d="M1133.6,1042.97L1135.8,1044.24L1138,1042.97L1135.8,1041.7L1133.6,1042.97Z" style="fill:rgb(150,154,158);fill-rule:nonzero;"/>
            <path d="M1136.8,1039.17L1139,1040.44L1141.2,1039.17L1139,1037.9L1136.8,1039.17Z" style="fill:rgb(150,154,158);fill-rule:nonzero;"/>
            <path d="M1133.6,1050.57L1135.8,1051.84L1138,1050.57L1135.8,1049.3L1133.6,1050.57Z" style="fill:rgb(150,154,158);fill-rule:nonzero;"/>
            <path d="M1136.8,1061.97L1139,1063.24L1141.2,1061.97L1139,1060.7L1136.8,1061.97Z" style="fill:rgb(150,154,158);fill-rule:nonzero;"/>
            <path d="M1133.6,1058.17L1135.8,1059.44L1138,1058.17L1135.8,1056.9L1133.6,1058.17Z" style="fill:rgb(150,154,158);fill-rule:nonzero;"/>
            <path d="M1136.8,1054.37L1139,1055.64L1141.2,1054.37L1139,1053.1L1136.8,1054.37Z" style="fill:rgb(150,154,158);fill-rule:nonzero;"/>
            <path d="M1133.6,1065.77L1135.8,1067.04L1138,1065.77L1135.8,1064.5L1133.6,1065.77Z" style="fill:rgb(150,154,158);fill-rule:nonzero;"/>
            <path d="M1136.8,1077.17L1139,1078.44L1141.2,1077.17L1139,1075.9L1136.8,1077.17Z" style="fill:rgb(150,154,158);fill-rule:nonzero;"/>
            <path d="M1133.6,1073.37L1135.8,1074.64L1138,1073.37L1135.8,1072.1L1133.6,1073.37Z" style="fill:rgb(150,154,158);fill-rule:nonzero;"/>
            <path d="M1136.8,1069.57L1139,1070.84L1141.2,1069.57L1139,1068.3L1136.8,1069.57Z" style="fill:rgb(150,154,158);fill-rule:nonzero;"/>
            <path d="M1133.6,1080.97L1135.8,1082.24L1138,1080.97L1135.8,1079.7L1133.6,1080.97Z" style="fill:rgb(150,154,158);fill-rule:nonzero;"/>
            <path d="M1140.16,1084.17C1140.05,1084.63 1139.95,1085.08 1139.87,1085.54L1141.2,1084.77L1140.16,1084.17Z" style="fill:rgb(150,154,158);fill-rule:nonzero;"/>
            <path d="M1137.57,1096.42L1138,1096.17L1137.75,1096.03C1137.69,1096.16 1137.63,1096.29 1137.57,1096.42Z" style="fill:rgb(150,154,158);fill-rule:nonzero;"/>
            <path d="M1141.2,1092.37L1139.24,1091.24C1139.24,1091.24 1139.16,1092.41 1139.12,1093C1139.04,1093.19 1138.95,1093.38 1138.87,1093.57L1139,1093.64L1141.2,1092.37Z" style="fill:rgb(150,154,158);fill-rule:nonzero;"/>
            <path d="M1135.8,1102.5L1133.86,1103.62L1133.73,1103.85L1135.8,1105.04L1138,1103.77L1135.8,1102.5Z" style="fill:rgb(150,154,158);fill-rule:nonzero;"/>
            <path d="M1139,1101.24L1141.2,1099.97L1139,1098.7L1136.8,1099.97L1139,1101.24Z" style="fill:rgb(150,154,158);fill-rule:nonzero;"/>
            <path d="M1135.8,1110.1L1133.6,1111.37L1135.8,1112.64L1138,1111.37L1135.8,1110.1Z" style="fill:rgb(150,154,158);fill-rule:nonzero;"/>
            <path d="M1139,1106.3L1136.8,1107.57L1139,1108.84L1141.2,1107.57L1139,1106.3Z" style="fill:rgb(150,154,158);fill-rule:nonzero;"/>
            <path d="M1135.8,1117.7L1133.6,1118.97L1135.8,1120.24L1138,1118.97L1135.8,1117.7Z" style="fill:rgb(150,154,158);fill-rule:nonzero;"/>
            <path d="M1139,1113.9L1136.8,1115.17L1139,1116.44L1141.2,1115.17L1139,1113.9Z" style="fill:rgb(150,154,158);fill-rule:nonzero;"/>
            <path d="M1138,1126.57L1135.8,1125.3L1133.6,1126.57L1135.8,1127.84L1138,1126.57Z" style="fill:rgb(150,154,158);fill-rule:nonzero;"/>
            <path d="M1139,1121.5L1136.8,1122.77L1139,1124.04L1141.2,1122.77L1139,1121.5Z" style="fill:rgb(150,154,158);fill-rule:nonzero;"/>
            <path d="M1138,1134.17L1135.8,1132.9L1133.6,1134.17L1135.8,1135.44L1138,1134.17Z" style="fill:rgb(150,154,158);fill-rule:nonzero;"/>
            <path d="M1141.2,1130.37L1139,1129.1L1136.8,1130.37L1139,1131.64L1141.2,1130.37Z" style="fill:rgb(150,154,158);fill-rule:nonzero;"/>
            <path d="M1138,1141.77L1135.8,1140.5L1133.6,1141.77L1135.8,1143.04L1138,1141.77Z" style="fill:rgb(150,154,158);fill-rule:nonzero;"/>
            <path d="M1141.2,1137.97L1139,1136.7L1136.8,1137.97L1139,1139.24L1141.2,1137.97Z" style="fill:rgb(150,154,158);fill-rule:nonzero;"/>
            <path d="M1138,1149.37L1135.8,1148.1L1133.6,1149.37L1135.8,1150.64L1138,1149.37Z" style="fill:rgb(150,154,158);fill-rule:nonzero;"/>
            <path d="M1141.2,1145.57L1139,1144.3L1136.8,1145.57L1139,1146.84L1141.2,1145.57Z" style="fill:rgb(150,154,158);fill-rule:nonzero;"/>
            <path d="M1128.32,1027.13L1127.2,1027.77L1129.4,1029.04L1131.01,1028.11L1128.32,1027.13Z" style="fill:rgb(150,154,158);fill-rule:nonzero;"/>
            <path d="M1132.6,1037.9L1130.4,1039.17L1132.6,1040.44L1134.8,1039.17L1132.6,1037.9Z" style="fill:rgb(150,154,158);fill-rule:nonzero;"/>
            <path d="M1129.4,1034.1L1127.2,1035.37L1129.4,1036.64L1131.6,1035.37L1129.4,1034.1Z" style="fill:rgb(150,154,158);fill-rule:nonzero;"/>
            <path d="M1132.6,1030.3L1130.4,1031.57L1132.6,1032.84L1134.8,1031.57L1132.6,1030.3Z" style="fill:rgb(150,154,158);fill-rule:nonzero;"/>
            <path d="M1130.4,1046.77L1132.6,1048.04L1134.8,1046.77L1132.6,1045.5L1130.4,1046.77Z" style="fill:rgb(150,154,158);fill-rule:nonzero;"/>
            <path d="M1127.2,1042.97L1129.4,1044.24L1131.6,1042.97L1129.4,1041.7L1127.2,1042.97Z" style="fill:rgb(150,154,158);fill-rule:nonzero;"/>
            <path d="M1132.6,1053.1L1130.4,1054.37L1132.6,1055.64L1134.8,1054.37L1132.6,1053.1Z" style="fill:rgb(150,154,158);fill-rule:nonzero;"/>
            <path d="M1127.2,1050.57L1129.4,1051.84L1131.6,1050.57L1129.4,1049.3L1127.2,1050.57Z" style="fill:rgb(150,154,158);fill-rule:nonzero;"/>
            <path d="M1130.4,1061.97L1132.6,1063.24L1134.8,1061.97L1132.6,1060.7L1130.4,1061.97Z" style="fill:rgb(150,154,158);fill-rule:nonzero;"/>
            <path d="M1127.2,1058.17L1129.4,1059.44L1131.6,1058.17L1129.4,1056.9L1127.2,1058.17Z" style="fill:rgb(150,154,158);fill-rule:nonzero;"/>
            <path d="M1127.2,1065.77L1129.4,1067.04L1131.6,1065.77L1129.4,1064.5L1127.2,1065.77Z" style="fill:rgb(150,154,158);fill-rule:nonzero;"/>
            <path d="M1130.4,1077.17L1132.6,1078.44L1134.8,1077.17L1132.6,1075.9L1130.4,1077.17Z" style="fill:rgb(150,154,158);fill-rule:nonzero;"/>
            <path d="M1127.2,1073.37L1129.4,1074.64L1131.6,1073.37L1129.4,1072.1L1127.2,1073.37Z" style="fill:rgb(150,154,158);fill-rule:nonzero;"/>
            <path d="M1130.4,1069.57L1132.6,1070.84L1134.8,1069.57L1132.6,1068.3L1130.4,1069.57Z" style="fill:rgb(150,154,158);fill-rule:nonzero;"/>
            <path d="M1127.2,1080.97L1129.4,1082.24L1131.6,1080.97L1129.4,1079.7L1127.2,1080.97Z" style="fill:rgb(150,154,158);fill-rule:nonzero;"/>
            <path d="M1127.2,1088.57L1128.58,1089.37L1130.33,1087.84L1129.4,1087.3L1127.2,1088.57Z" style="fill:rgb(150,154,158);fill-rule:nonzero;"/>
            <path d="M1130.4,1084.77L1132.49,1085.98L1134.25,1084.45L1132.6,1083.5L1130.4,1084.77Z" style="fill:rgb(150,154,158);fill-rule:nonzero;"/>
            <path d="M1128.69,1112.23L1129.4,1112.64L1131.6,1111.37L1129.87,1110.37C1129.48,1110.99 1129.09,1111.62 1128.69,1112.23Z" style="fill:rgb(150,154,158);fill-rule:nonzero;"/>
            <path d="M1132.6,1106.3L1132.2,1106.53C1131.9,1107.05 1131.59,1107.57 1131.28,1108.08L1132.6,1108.84L1134.8,1107.57L1132.6,1106.3Z" style="fill:rgb(150,154,158);fill-rule:nonzero;"/>
            <path d="M1131.6,1118.97L1129.4,1117.7L1127.2,1118.97L1129.4,1120.24L1131.6,1118.97Z" style="fill:rgb(150,154,158);fill-rule:nonzero;"/>
            <path d="M1132.6,1116.44L1134.8,1115.17L1132.6,1113.9L1130.4,1115.17L1132.6,1116.44Z" style="fill:rgb(150,154,158);fill-rule:nonzero;"/>
            <path d="M1131.6,1126.57L1129.4,1125.3L1127.2,1126.57L1129.4,1127.84L1131.6,1126.57Z" style="fill:rgb(150,154,158);fill-rule:nonzero;"/>
            <path d="M1132.6,1124.04L1134.8,1122.77L1132.6,1121.5L1130.4,1122.77L1132.6,1124.04Z" style="fill:rgb(150,154,158);fill-rule:nonzero;"/>
            <path d="M1131.6,1134.17L1129.4,1132.9L1127.2,1134.17L1129.4,1135.44L1131.6,1134.17Z" style="fill:rgb(150,154,158);fill-rule:nonzero;"/>
            <path d="M1134.8,1130.37L1132.6,1129.1L1130.4,1130.37L1132.6,1131.64L1134.8,1130.37Z" style="fill:rgb(150,154,158);fill-rule:nonzero;"/>
            <path d="M1131.6,1141.77L1129.4,1140.5L1127.2,1141.77L1129.4,1143.04L1131.6,1141.77Z" style="fill:rgb(150,154,158);fill-rule:nonzero;"/>
            <path d="M1132.6,1139.24L1134.8,1137.97L1132.6,1136.7L1130.4,1137.97L1132.6,1139.24Z" style="fill:rgb(150,154,158);fill-rule:nonzero;"/>
            <path d="M1131.6,1149.37L1129.4,1148.1L1127.2,1149.37L1129.4,1150.64L1131.6,1149.37Z" style="fill:rgb(150,154,158);fill-rule:nonzero;"/>
            <path d="M1134.8,1145.57L1132.6,1144.3L1130.4,1145.57L1132.6,1146.84L1134.8,1145.57Z" style="fill:rgb(150,154,158);fill-rule:nonzero;"/>
            <path d="M1131.37,1153.73C1132.23,1153.38 1133.97,1152.69 1133.97,1152.69L1132.6,1151.9L1130.4,1153.17L1131.37,1153.73Z" style="fill:rgb(150,154,158);fill-rule:nonzero;"/>
            <path d="M1120.8,1027.77L1123,1029.04L1125.2,1027.77L1123,1026.5L1120.8,1027.77Z" style="fill:rgb(150,154,158);fill-rule:nonzero;"/>
            <path d="M1126.2,1037.9L1124,1039.17L1126.2,1040.44L1128.4,1039.17L1126.2,1037.9Z" style="fill:rgb(150,154,158);fill-rule:nonzero;"/>
            <path d="M1123,1034.1L1120.8,1035.37L1123,1036.64L1125.2,1035.37L1123,1034.1Z" style="fill:rgb(150,154,158);fill-rule:nonzero;"/>
            <path d="M1126.2,1030.3L1124,1031.57L1126.2,1032.84L1128.4,1031.57L1126.2,1030.3Z" style="fill:rgb(150,154,158);fill-rule:nonzero;"/>
            <path d="M1117.6,1031.57L1119.8,1032.84L1122,1031.57L1119.8,1030.3L1117.6,1031.57Z" style="fill:rgb(150,154,158);fill-rule:nonzero;"/>
            <path d="M1124,1046.77L1126.2,1048.04L1128.4,1046.77L1126.2,1045.5L1124,1046.77Z" style="fill:rgb(150,154,158);fill-rule:nonzero;"/>
            <path d="M1123,1041.7L1120.8,1042.97L1123,1044.24L1125.2,1042.97L1123,1041.7Z" style="fill:rgb(150,154,158);fill-rule:nonzero;"/>
            <path d="M1126.2,1053.1L1124,1054.37L1126.2,1055.64L1128.4,1054.37L1126.2,1053.1Z" style="fill:rgb(150,154,158);fill-rule:nonzero;"/>
            <path d="M1120.8,1050.57L1123,1051.84L1125.2,1050.57L1123,1049.3L1120.8,1050.57Z" style="fill:rgb(150,154,158);fill-rule:nonzero;"/>
            <path d="M1117.6,1054.37L1119.8,1055.64L1122,1054.37L1119.8,1053.1L1117.6,1054.37Z" style="fill:rgb(150,154,158);fill-rule:nonzero;"/>
            <path d="M1124,1061.97L1126.2,1063.24L1128.4,1061.97L1126.2,1060.7L1124,1061.97Z" style="fill:rgb(150,154,158);fill-rule:nonzero;"/>
            <path d="M1120.8,1058.17L1123,1059.44L1125.2,1058.17L1123,1056.9L1120.8,1058.17Z" style="fill:rgb(150,154,158);fill-rule:nonzero;"/>
            <path d="M1117.6,1061.97L1119.8,1063.24L1122,1061.97L1119.8,1060.7L1117.6,1061.97Z" style="fill:rgb(150,154,158);fill-rule:nonzero;"/>
            <path d="M1120.8,1065.77L1123,1067.04L1125.2,1065.77L1123,1064.5L1120.8,1065.77Z" style="fill:rgb(150,154,158);fill-rule:nonzero;"/>
            <path d="M1124,1077.17L1126.2,1078.44L1128.4,1077.17L1126.2,1075.9L1124,1077.17Z" style="fill:rgb(150,154,158);fill-rule:nonzero;"/>
            <path d="M1120.8,1073.37L1123,1074.64L1125.2,1073.37L1123,1072.1L1120.8,1073.37Z" style="fill:rgb(150,154,158);fill-rule:nonzero;"/>
            <path d="M1124,1069.57L1126.2,1070.84L1128.4,1069.57L1126.2,1068.3L1124,1069.57Z" style="fill:rgb(150,154,158);fill-rule:nonzero;"/>
            <path d="M1117.6,1069.57L1119.8,1070.84L1122,1069.57L1119.8,1068.3L1117.6,1069.57Z" style="fill:rgb(150,154,158);fill-rule:nonzero;"/>
            <path d="M1125.2,1080.97L1123,1079.7L1120.8,1080.97L1123,1082.24L1125.2,1080.97Z" style="fill:rgb(150,154,158);fill-rule:nonzero;"/>
            <path d="M1125.2,1088.57L1123,1087.3L1120.8,1088.57L1123,1089.84L1125.2,1088.57Z" style="fill:rgb(150,154,158);fill-rule:nonzero;"/>
            <path d="M1128.4,1084.77L1126.2,1083.5L1124,1084.77L1126.2,1086.04L1128.4,1084.77Z" style="fill:rgb(150,154,158);fill-rule:nonzero;"/>
            <path d="M1124.66,1092.76L1126.42,1091.23L1126.2,1091.1L1124,1092.37L1124.66,1092.76Z" style="fill:rgb(150,154,158);fill-rule:nonzero;"/>
            <path d="M1124.44,1118.54C1124.1,1119.03 1123.76,1119.52 1123.41,1120L1125.2,1118.97L1124.44,1118.54Z" style="fill:rgb(150,154,158);fill-rule:nonzero;"/>
            <path d="M1128.4,1115.17L1127.22,1114.49C1126.81,1115.1 1126.39,1115.71 1125.98,1116.32L1126.2,1116.44L1128.4,1115.17Z" style="fill:rgb(150,154,158);fill-rule:nonzero;"/>
            <path d="M1125.2,1126.57L1123,1125.3L1120.8,1126.57L1123,1127.84L1125.2,1126.57Z" style="fill:rgb(150,154,158);fill-rule:nonzero;"/>
            <path d="M1128.4,1122.77L1126.2,1121.5L1124,1122.77L1126.2,1124.04L1128.4,1122.77Z" style="fill:rgb(150,154,158);fill-rule:nonzero;"/>
            <path d="M1125.2,1134.17L1123,1132.9L1120.8,1134.17L1123,1135.44L1125.2,1134.17Z" style="fill:rgb(150,154,158);fill-rule:nonzero;"/>
            <path d="M1128.4,1130.37L1126.2,1129.1L1124,1130.37L1126.2,1131.64L1128.4,1130.37Z" style="fill:rgb(150,154,158);fill-rule:nonzero;"/>
            <path d="M1125.2,1141.77L1123,1140.5L1120.8,1141.77L1123,1143.04L1125.2,1141.77Z" style="fill:rgb(150,154,158);fill-rule:nonzero;"/>
            <path d="M1128.4,1137.97L1126.2,1136.7L1124,1137.97L1126.2,1139.24L1128.4,1137.97Z" style="fill:rgb(150,154,158);fill-rule:nonzero;"/>
            <path d="M1125.2,1149.37L1123,1148.1L1120.8,1149.37L1123,1150.64L1125.2,1149.37Z" style="fill:rgb(150,154,158);fill-rule:nonzero;"/>
            <path d="M1128.4,1145.57L1126.2,1144.3L1124,1145.57L1126.2,1146.84L1128.4,1145.57Z" style="fill:rgb(150,154,158);fill-rule:nonzero;"/>
            <path d="M1122.06,1157.7C1122.88,1157.32 1123.69,1156.94 1124.52,1156.58L1123,1155.7L1120.8,1156.97L1122.06,1157.7Z" style="fill:rgb(150,154,158);fill-rule:nonzero;"/>
            <path d="M1128.4,1153.17L1126.2,1151.9L1124,1153.17L1126.2,1154.44L1128.4,1153.17Z" style="fill:rgb(150,154,158);fill-rule:nonzero;"/>
            <path d="M1118.39,1023.51L1117.6,1023.97L1119.8,1025.24L1121.09,1024.5L1118.39,1023.51Z" style="fill:rgb(150,154,158);fill-rule:nonzero;"/>
            <path d="M1114.4,1027.77L1116.6,1029.04L1118.8,1027.77L1116.6,1026.5L1114.4,1027.77Z" style="fill:rgb(150,154,158);fill-rule:nonzero;"/>
            <path d="M1114.4,1035.37L1116.6,1036.64L1118.8,1035.37L1116.6,1034.1L1114.4,1035.37Z" style="fill:rgb(150,154,158);fill-rule:nonzero;"/>
            <path d="M1119.8,1045.5L1117.6,1046.77L1119.8,1048.04L1122,1046.77L1119.8,1045.5Z" style="fill:rgb(150,154,158);fill-rule:nonzero;"/>
            <path d="M1116.6,1041.7L1114.4,1042.97L1116.6,1044.24L1118.8,1042.97L1116.6,1041.7Z" style="fill:rgb(150,154,158);fill-rule:nonzero;"/>
            <path d="M1122,1039.17L1119.8,1037.9L1117.6,1039.17L1119.8,1040.44L1122,1039.17Z" style="fill:rgb(150,154,158);fill-rule:nonzero;"/>
            <path d="M1116.6,1049.3L1114.4,1050.57L1116.6,1051.84L1118.8,1050.57L1116.6,1049.3Z" style="fill:rgb(150,154,158);fill-rule:nonzero;"/>
            <path d="M1114.4,1058.17L1116.6,1059.44L1118.8,1058.17L1116.6,1056.9L1114.4,1058.17Z" style="fill:rgb(150,154,158);fill-rule:nonzero;"/>
            <path d="M1114.4,1065.77L1116.6,1067.04L1118.8,1065.77L1116.6,1064.5L1114.4,1065.77Z" style="fill:rgb(150,154,158);fill-rule:nonzero;"/>
            <path d="M1118.8,1073.37L1116.6,1072.1L1114.4,1073.37L1116.6,1074.64L1118.8,1073.37Z" style="fill:rgb(150,154,158);fill-rule:nonzero;"/>
            <path d="M1118.8,1080.97L1116.6,1079.7L1114.4,1080.97L1116.6,1082.24L1118.8,1080.97Z" style="fill:rgb(150,154,158);fill-rule:nonzero;"/>
            <path d="M1122,1077.17L1119.8,1075.9L1117.6,1077.17L1119.8,1078.44L1122,1077.17Z" style="fill:rgb(150,154,158);fill-rule:nonzero;"/>
            <path d="M1118.8,1088.57L1116.6,1087.3L1114.4,1088.57L1116.6,1089.84L1118.8,1088.57Z" style="fill:rgb(150,154,158);fill-rule:nonzero;"/>
            <path d="M1122,1084.77L1119.8,1083.5L1117.6,1084.77L1119.8,1086.04L1122,1084.77Z" style="fill:rgb(150,154,158);fill-rule:nonzero;"/>
            <path d="M1116.6,1094.9L1114.4,1096.17L1116.6,1097.44L1118.8,1096.17L1116.6,1094.9Z" style="fill:rgb(150,154,158);fill-rule:nonzero;"/>
            <path d="M1122,1092.37L1119.8,1091.1L1117.6,1092.37L1119.8,1093.64L1122,1092.37Z" style="fill:rgb(150,154,158);fill-rule:nonzero;"/>
            <path d="M1118.8,1126.57L1118.64,1126.48C1118.55,1126.59 1118.47,1126.7 1118.38,1126.81L1118.8,1126.57Z" style="fill:rgb(150,154,158);fill-rule:nonzero;"/>
            <path d="M1122,1122.77L1121.58,1122.53C1121.38,1122.81 1121.18,1123.09 1120.97,1123.36L1122,1122.77Z" style="fill:rgb(150,154,158);fill-rule:nonzero;"/>
            <path d="M1118.8,1134.17L1116.6,1132.9L1114.4,1134.17L1116.6,1135.44L1118.8,1134.17Z" style="fill:rgb(150,154,158);fill-rule:nonzero;"/>
            <path d="M1122,1130.37L1119.8,1129.1L1117.6,1130.37L1119.8,1131.64L1122,1130.37Z" style="fill:rgb(150,154,158);fill-rule:nonzero;"/>
            <path d="M1118.8,1141.77L1116.6,1140.5L1114.4,1141.77L1116.6,1143.04L1118.8,1141.77Z" style="fill:rgb(150,154,158);fill-rule:nonzero;"/>
            <path d="M1122,1137.97L1119.8,1136.7L1117.6,1137.97L1119.8,1139.24L1122,1137.97Z" style="fill:rgb(150,154,158);fill-rule:nonzero;"/>
            <path d="M1118.8,1149.37L1116.6,1148.1L1114.4,1149.37L1116.6,1150.64L1118.8,1149.37Z" style="fill:rgb(150,154,158);fill-rule:nonzero;"/>
            <path d="M1122,1145.57L1119.8,1144.3L1117.6,1145.57L1119.8,1146.84L1122,1145.57Z" style="fill:rgb(150,154,158);fill-rule:nonzero;"/>
            <path d="M1118.8,1156.97L1116.6,1155.7L1114.4,1156.97L1116.6,1158.24L1118.8,1156.97Z" style="fill:rgb(150,154,158);fill-rule:nonzero;"/>
            <path d="M1122,1153.17L1119.8,1151.9L1117.6,1153.17L1119.8,1154.44L1122,1153.17Z" style="fill:rgb(150,154,158);fill-rule:nonzero;"/>
            <path d="M1113.4,1022.7L1111.2,1023.97L1113.4,1025.24L1115.6,1023.97L1113.4,1022.7Z" style="fill:rgb(150,154,158);fill-rule:nonzero;"/>
            <path d="M1108,1020.17L1110.2,1021.44L1111.17,1020.88L1108.47,1019.9L1108,1020.17Z" style="fill:rgb(150,154,158);fill-rule:nonzero;"/>
            <path d="M1110.2,1026.5L1108,1027.77L1110.2,1029.04L1112.4,1027.77L1110.2,1026.5Z" style="fill:rgb(150,154,158);fill-rule:nonzero;"/>
            <path d="M1113.4,1037.9L1111.2,1039.17L1113.4,1040.44L1115.6,1039.17L1113.4,1037.9Z" style="fill:rgb(150,154,158);fill-rule:nonzero;"/>
            <path d="M1108,1035.37L1110.2,1036.64L1112.4,1035.37L1110.2,1034.1L1108,1035.37Z" style="fill:rgb(150,154,158);fill-rule:nonzero;"/>
            <path d="M1111.2,1031.57L1113.4,1032.84L1115.6,1031.57L1113.4,1030.3L1111.2,1031.57Z" style="fill:rgb(150,154,158);fill-rule:nonzero;"/>
            <path d="M1113.4,1045.5L1111.2,1046.77L1113.4,1048.04L1115.6,1046.77L1113.4,1045.5Z" style="fill:rgb(150,154,158);fill-rule:nonzero;"/>
            <path d="M1108,1042.97L1110.2,1044.24L1112.4,1042.97L1110.2,1041.7L1108,1042.97Z" style="fill:rgb(150,154,158);fill-rule:nonzero;"/>
            <path d="M1113.4,1053.1L1111.2,1054.37L1113.4,1055.64L1115.6,1054.37L1113.4,1053.1Z" style="fill:rgb(150,154,158);fill-rule:nonzero;"/>
            <path d="M1110.2,1049.3L1108,1050.57L1110.2,1051.84L1112.4,1050.57L1110.2,1049.3Z" style="fill:rgb(150,154,158);fill-rule:nonzero;"/>
            <path d="M1111.2,1061.97L1113.4,1063.24L1115.6,1061.97L1113.4,1060.7L1111.2,1061.97Z" style="fill:rgb(150,154,158);fill-rule:nonzero;"/>
            <path d="M1110.2,1059.44L1112.4,1058.17L1110.2,1056.9L1108,1058.17L1110.2,1059.44Z" style="fill:rgb(150,154,158);fill-rule:nonzero;"/>
            <path d="M1110.2,1067.04L1112.4,1065.77L1110.2,1064.5L1108,1065.77L1110.2,1067.04Z" style="fill:rgb(150,154,158);fill-rule:nonzero;"/>
            <path d="M1110.2,1074.64L1112.4,1073.37L1110.2,1072.1L1108,1073.37L1110.2,1074.64Z" style="fill:rgb(150,154,158);fill-rule:nonzero;"/>
            <path d="M1111.2,1069.57L1113.4,1070.84L1115.6,1069.57L1113.4,1068.3L1111.2,1069.57Z" style="fill:rgb(150,154,158);fill-rule:nonzero;"/>
            <path d="M1112.4,1080.97L1110.2,1079.7L1108,1080.97L1110.2,1082.24L1112.4,1080.97Z" style="fill:rgb(150,154,158);fill-rule:nonzero;"/>
            <path d="M1115.6,1077.17L1113.4,1075.9L1111.2,1077.17L1113.4,1078.44L1115.6,1077.17Z" style="fill:rgb(150,154,158);fill-rule:nonzero;"/>
            <path d="M1112.4,1088.57L1110.2,1087.3L1108,1088.57L1110.2,1089.84L1112.4,1088.57Z" style="fill:rgb(150,154,158);fill-rule:nonzero;"/>
            <path d="M1115.6,1084.77L1113.4,1083.5L1111.2,1084.77L1113.4,1086.04L1115.6,1084.77Z" style="fill:rgb(150,154,158);fill-rule:nonzero;"/>
            <path d="M1112.4,1096.17L1110.2,1094.9L1108,1096.17L1110.2,1097.44L1112.4,1096.17Z" style="fill:rgb(150,154,158);fill-rule:nonzero;"/>
            <path d="M1115.6,1092.37L1113.4,1091.1L1111.2,1092.37L1113.4,1093.64L1115.6,1092.37Z" style="fill:rgb(150,154,158);fill-rule:nonzero;"/>
            <path d="M1111.07,1104.54L1112.13,1103.62L1110.2,1102.5L1108,1103.77L1110.2,1105.04L1111.07,1104.54Z" style="fill:rgb(150,154,158);fill-rule:nonzero;"/>
            <path d="M1115.6,1099.97L1113.4,1098.7L1111.2,1099.97L1113.4,1101.24L1115.6,1099.97Z" style="fill:rgb(150,154,158);fill-rule:nonzero;"/>
            <path d="M1112.4,1141.77L1110.2,1140.5L1108,1141.77L1110.2,1143.04L1112.4,1141.77Z" style="fill:rgb(150,154,158);fill-rule:nonzero;"/>
            <path d="M1113.4,1139.24L1115.6,1137.97L1113.4,1136.7L1111.2,1137.97L1113.4,1139.24Z" style="fill:rgb(150,154,158);fill-rule:nonzero;"/>
            <path d="M1112.4,1149.37L1110.2,1148.1L1108,1149.37L1110.2,1150.64L1112.4,1149.37Z" style="fill:rgb(150,154,158);fill-rule:nonzero;"/>
            <path d="M1115.6,1145.57L1113.4,1144.3L1111.2,1145.57L1113.4,1146.84L1115.6,1145.57Z" style="fill:rgb(150,154,158);fill-rule:nonzero;"/>
            <path d="M1110.2,1155.7L1108,1156.97L1110.2,1158.24L1112.4,1156.97L1110.2,1155.7Z" style="fill:rgb(150,154,158);fill-rule:nonzero;"/>
            <path d="M1113.4,1154.44L1115.6,1153.17L1113.4,1151.9L1111.2,1153.17L1113.4,1154.44Z" style="fill:rgb(150,154,158);fill-rule:nonzero;"/>
            <path d="M1110.93,1163.72L1110.2,1163.3L1108,1164.57L1108.8,1165.03C1109.51,1164.59 1110.22,1164.15 1110.93,1163.72Z" style="fill:rgb(150,154,158);fill-rule:nonzero;"/>
            <path d="M1113.4,1162.04L1115.6,1160.77L1113.4,1159.5L1111.2,1160.77L1113.4,1162.04Z" style="fill:rgb(150,154,158);fill-rule:nonzero;"/>
            <path d="M1103.8,1021.44L1106,1020.17L1103.8,1018.9L1101.6,1020.17L1103.8,1021.44Z" style="fill:rgb(150,154,158);fill-rule:nonzero;"/>
            <path d="M1103.8,1029.04L1106,1027.77L1103.8,1026.5L1101.6,1027.77L1103.8,1029.04Z" style="fill:rgb(150,154,158);fill-rule:nonzero;"/>
            <path d="M1107,1025.24L1109.2,1023.97L1107,1022.7L1104.8,1023.97L1107,1025.24Z" style="fill:rgb(150,154,158);fill-rule:nonzero;"/>
            <path d="M1103.8,1036.64L1106,1035.37L1103.8,1034.1L1101.6,1035.37L1103.8,1036.64Z" style="fill:rgb(150,154,158);fill-rule:nonzero;"/>
            <path d="M1107,1032.84L1109.2,1031.57L1107,1030.3L1104.8,1031.57L1107,1032.84Z" style="fill:rgb(150,154,158);fill-rule:nonzero;"/>
            <path d="M1103.8,1044.24L1106,1042.97L1103.8,1041.7L1101.6,1042.97L1103.8,1044.24Z" style="fill:rgb(150,154,158);fill-rule:nonzero;"/>
            <path d="M1104.8,1039.17L1107,1040.44L1109.2,1039.17L1107,1037.9L1104.8,1039.17Z" style="fill:rgb(150,154,158);fill-rule:nonzero;"/>
            <path d="M1103.8,1051.84L1106,1050.57L1103.8,1049.3L1101.6,1050.57L1103.8,1051.84Z" style="fill:rgb(150,154,158);fill-rule:nonzero;"/>
            <path d="M1107,1048.04L1109.2,1046.77L1107,1045.5L1104.8,1046.77L1107,1048.04Z" style="fill:rgb(150,154,158);fill-rule:nonzero;"/>
            <path d="M1103.8,1059.44L1106,1058.17L1103.8,1056.9L1101.6,1058.17L1103.8,1059.44Z" style="fill:rgb(150,154,158);fill-rule:nonzero;"/>
            <path d="M1104.8,1054.37L1107,1055.64L1109.2,1054.37L1107,1053.1L1104.8,1054.37Z" style="fill:rgb(150,154,158);fill-rule:nonzero;"/>
            <path d="M1103.8,1067.04L1106,1065.77L1103.8,1064.5L1101.6,1065.77L1103.8,1067.04Z" style="fill:rgb(150,154,158);fill-rule:nonzero;"/>
            <path d="M1107,1063.24L1109.2,1061.97L1107,1060.7L1104.8,1061.97L1107,1063.24Z" style="fill:rgb(150,154,158);fill-rule:nonzero;"/>
            <path d="M1103.8,1074.64L1106,1073.37L1103.8,1072.1L1101.6,1073.37L1103.8,1074.64Z" style="fill:rgb(150,154,158);fill-rule:nonzero;"/>
            <path d="M1107,1070.84L1109.2,1069.57L1107,1068.3L1104.8,1069.57L1107,1070.84Z" style="fill:rgb(150,154,158);fill-rule:nonzero;"/>
            <path d="M1103.8,1082.24L1106,1080.97L1103.8,1079.7L1101.6,1080.97L1103.8,1082.24Z" style="fill:rgb(150,154,158);fill-rule:nonzero;"/>
            <path d="M1107,1078.44L1109.2,1077.17L1107,1075.9L1104.8,1077.17L1107,1078.44Z" style="fill:rgb(150,154,158);fill-rule:nonzero;"/>
            <path d="M1106,1088.57L1103.8,1087.3L1101.6,1088.57L1103.8,1089.84L1106,1088.57Z" style="fill:rgb(150,154,158);fill-rule:nonzero;"/>
            <path d="M1109.2,1084.77L1107,1083.5L1104.8,1084.77L1107,1086.04L1109.2,1084.77Z" style="fill:rgb(150,154,158);fill-rule:nonzero;"/>
            <path d="M1106,1096.17L1103.8,1094.9L1101.6,1096.17L1103.8,1097.44L1106,1096.17Z" style="fill:rgb(150,154,158);fill-rule:nonzero;"/>
            <path d="M1109.2,1092.37L1107,1091.1L1104.8,1092.37L1107,1093.64L1109.2,1092.37Z" style="fill:rgb(150,154,158);fill-rule:nonzero;"/>
            <path d="M1106,1103.77L1103.8,1102.5L1101.62,1103.76L1102.01,1104.01L1103.8,1105.04L1106,1103.77Z" style="fill:rgb(150,154,158);fill-rule:nonzero;"/>
            <path d="M1109.2,1099.97L1107,1098.7L1104.8,1099.97L1107,1101.24L1109.2,1099.97Z" style="fill:rgb(150,154,158);fill-rule:nonzero;"/>
            <path d="M1108.22,1107.01L1107,1106.3L1106.27,1106.72L1107.59,1107.56L1108.22,1107.01Z" style="fill:rgb(150,154,158);fill-rule:nonzero;"/>
            <path d="M1106,1141.77L1105.73,1141.62C1105.06,1142.08 1104.4,1142.54 1103.74,1143.01L1103.8,1143.04L1106,1141.77Z" style="fill:rgb(150,154,158);fill-rule:nonzero;"/>
            <path d="M1106,1149.37L1103.8,1148.1L1101.6,1149.37L1103.8,1150.64L1106,1149.37Z" style="fill:rgb(150,154,158);fill-rule:nonzero;"/>
            <path d="M1109.2,1145.57L1107,1144.3L1104.8,1145.57L1107,1146.84L1109.2,1145.57Z" style="fill:rgb(150,154,158);fill-rule:nonzero;"/>
            <path d="M1106,1156.97L1103.8,1155.7L1101.6,1156.97L1103.8,1158.24L1106,1156.97Z" style="fill:rgb(150,154,158);fill-rule:nonzero;"/>
            <path d="M1109.2,1153.17L1107,1151.9L1104.8,1153.17L1107,1154.44L1109.2,1153.17Z" style="fill:rgb(150,154,158);fill-rule:nonzero;"/>
            <path d="M1106,1164.57L1103.8,1163.3L1101.6,1164.57L1103.8,1165.84L1106,1164.57Z" style="fill:rgb(150,154,158);fill-rule:nonzero;"/>
            <path d="M1109.2,1160.77L1107,1159.5L1104.8,1160.77L1107,1162.04L1109.2,1160.77Z" style="fill:rgb(150,154,158);fill-rule:nonzero;"/>
            <path d="M1097.4,1021.44L1099.6,1020.17L1097.4,1018.9L1095.2,1020.17L1097.4,1021.44Z" style="fill:rgb(150,154,158);fill-rule:nonzero;"/>
            <path d="M1098.4,1016.37L1100.6,1017.64L1101.24,1017.27L1098.54,1016.29L1098.4,1016.37Z" style="fill:rgb(150,154,158);fill-rule:nonzero;"/>
            <path d="M1097.4,1029.04L1099.6,1027.77L1097.4,1026.5L1095.2,1027.77L1097.4,1029.04Z" style="fill:rgb(150,154,158);fill-rule:nonzero;"/>
            <path d="M1100.6,1025.24L1102.8,1023.97L1100.6,1022.7L1098.4,1023.97L1100.6,1025.24Z" style="fill:rgb(150,154,158);fill-rule:nonzero;"/>
            <path d="M1097.4,1036.64L1099.6,1035.37L1097.4,1034.1L1095.2,1035.37L1097.4,1036.64Z" style="fill:rgb(150,154,158);fill-rule:nonzero;"/>
            <path d="M1100.6,1032.84L1102.8,1031.57L1100.6,1030.3L1098.4,1031.57L1100.6,1032.84Z" style="fill:rgb(150,154,158);fill-rule:nonzero;"/>
            <path d="M1097.4,1044.24L1099.6,1042.97L1097.4,1041.7L1095.2,1042.97L1097.4,1044.24Z" style="fill:rgb(150,154,158);fill-rule:nonzero;"/>
            <path d="M1100.6,1040.44L1102.8,1039.17L1100.6,1037.9L1098.4,1039.17L1100.6,1040.44Z" style="fill:rgb(150,154,158);fill-rule:nonzero;"/>
            <path d="M1097.4,1051.84L1099.6,1050.57L1097.4,1049.3L1095.2,1050.57L1097.4,1051.84Z" style="fill:rgb(150,154,158);fill-rule:nonzero;"/>
            <path d="M1100.6,1048.04L1102.8,1046.77L1100.6,1045.5L1098.4,1046.77L1100.6,1048.04Z" style="fill:rgb(150,154,158);fill-rule:nonzero;"/>
            <path d="M1097.4,1059.44L1099.6,1058.17L1097.4,1056.9L1095.2,1058.17L1097.4,1059.44Z" style="fill:rgb(150,154,158);fill-rule:nonzero;"/>
            <path d="M1100.6,1055.64L1102.8,1054.37L1100.6,1053.1L1098.4,1054.37L1100.6,1055.64Z" style="fill:rgb(150,154,158);fill-rule:nonzero;"/>
            <path d="M1097.4,1067.04L1099.6,1065.77L1097.4,1064.5L1095.2,1065.77L1097.4,1067.04Z" style="fill:rgb(150,154,158);fill-rule:nonzero;"/>
            <path d="M1100.6,1063.24L1102.8,1061.97L1100.6,1060.7L1098.4,1061.97L1100.6,1063.24Z" style="fill:rgb(150,154,158);fill-rule:nonzero;"/>
            <path d="M1097.4,1074.64L1099.6,1073.37L1097.4,1072.1L1095.2,1073.37L1097.4,1074.64Z" style="fill:rgb(150,154,158);fill-rule:nonzero;"/>
            <path d="M1100.6,1070.84L1102.8,1069.57L1100.6,1068.3L1098.4,1069.57L1100.6,1070.84Z" style="fill:rgb(150,154,158);fill-rule:nonzero;"/>
            <path d="M1097.4,1082.24L1099.6,1080.97L1097.4,1079.7L1095.2,1080.97L1097.4,1082.24Z" style="fill:rgb(150,154,158);fill-rule:nonzero;"/>
            <path d="M1100.6,1078.44L1102.8,1077.17L1100.6,1075.9L1098.4,1077.17L1100.6,1078.44Z" style="fill:rgb(150,154,158);fill-rule:nonzero;"/>
            <path d="M1097.4,1089.84L1099.6,1088.57L1097.4,1087.3L1095.2,1088.57L1097.4,1089.84Z" style="fill:rgb(150,154,158);fill-rule:nonzero;"/>
            <path d="M1100.6,1086.04L1102.8,1084.77L1100.6,1083.5L1098.4,1084.77L1100.6,1086.04Z" style="fill:rgb(150,154,158);fill-rule:nonzero;"/>
            <path d="M1097.4,1097.44L1099.6,1096.17L1097.4,1094.9L1095.2,1096.17L1097.4,1097.44Z" style="fill:rgb(150,154,158);fill-rule:nonzero;"/>
            <path d="M1100.6,1093.64L1102.8,1092.37L1100.6,1091.1L1098.4,1092.37L1100.6,1093.64Z" style="fill:rgb(150,154,158);fill-rule:nonzero;"/>
            <path d="M1102.8,1099.97L1100.6,1098.7L1098.4,1099.97L1100.6,1101.24L1102.8,1099.97Z" style="fill:rgb(150,154,158);fill-rule:nonzero;"/>
            <path d="M1100.6,1151.9L1098.4,1153.17L1100.6,1154.44L1102.8,1153.17L1100.6,1151.9Z" style="fill:rgb(150,154,158);fill-rule:nonzero;"/>
            <path d="M1099.6,1149.37L1097.4,1148.1L1095.2,1149.37L1097.4,1150.64L1099.6,1149.37Z" style="fill:rgb(150,154,158);fill-rule:nonzero;"/>
            <path d="M1102.8,1145.57L1101.33,1144.72C1100.68,1145.19 1100.04,1145.67 1099.39,1146.14L1100.6,1146.84L1102.8,1145.57Z" style="fill:rgb(150,154,158);fill-rule:nonzero;"/>
            <path d="M1099.6,1156.97L1097.4,1155.7L1095.2,1156.97L1097.4,1158.24L1099.6,1156.97Z" style="fill:rgb(150,154,158);fill-rule:nonzero;"/>
            <path d="M1100.6,1167.1L1098.4,1168.37L1100.6,1169.64L1102.8,1168.37L1100.6,1167.1Z" style="fill:rgb(150,154,158);fill-rule:nonzero;"/>
            <path d="M1099.6,1164.57L1097.4,1163.3L1095.2,1164.57L1097.4,1165.84L1099.6,1164.57Z" style="fill:rgb(150,154,158);fill-rule:nonzero;"/>
            <path d="M1102.8,1160.77L1100.6,1159.5L1098.4,1160.77L1100.6,1162.04L1102.8,1160.77Z" style="fill:rgb(150,154,158);fill-rule:nonzero;"/>
            <path d="M1098.53,1171.55L1097.4,1170.9L1095.2,1172.17L1096.41,1172.87C1097.12,1172.44 1097.83,1172 1098.53,1171.55Z" style="fill:rgb(150,154,158);fill-rule:nonzero;"/>
            <path d="M1091,1021.44L1093.2,1020.17L1091,1018.9L1088.8,1020.17L1091,1021.44Z" style="fill:rgb(150,154,158);fill-rule:nonzero;"/>
            <path d="M1094.2,1017.64L1096.4,1016.37L1094.2,1015.1L1092,1016.37L1094.2,1017.64Z" style="fill:rgb(150,154,158);fill-rule:nonzero;"/>
            <path d="M1091,1029.04L1093.2,1027.77L1091,1026.5L1088.8,1027.77L1091,1029.04Z" style="fill:rgb(150,154,158);fill-rule:nonzero;"/>
            <path d="M1094.2,1025.24L1096.4,1023.97L1094.2,1022.7L1092,1023.97L1094.2,1025.24Z" style="fill:rgb(150,154,158);fill-rule:nonzero;"/>
            <path d="M1091,1036.64L1093.2,1035.37L1091,1034.1L1088.8,1035.37L1091,1036.64Z" style="fill:rgb(150,154,158);fill-rule:nonzero;"/>
            <path d="M1094.2,1032.84L1096.4,1031.57L1094.2,1030.3L1092,1031.57L1094.2,1032.84Z" style="fill:rgb(150,154,158);fill-rule:nonzero;"/>
            <path d="M1091,1044.24L1093.2,1042.97L1091,1041.7L1088.8,1042.97L1091,1044.24Z" style="fill:rgb(150,154,158);fill-rule:nonzero;"/>
            <path d="M1092,1039.17L1094.2,1040.44L1096.4,1039.17L1094.2,1037.9L1092,1039.17Z" style="fill:rgb(150,154,158);fill-rule:nonzero;"/>
            <path d="M1091,1051.84L1093.2,1050.57L1091,1049.3L1088.8,1050.57L1091,1051.84Z" style="fill:rgb(150,154,158);fill-rule:nonzero;"/>
            <path d="M1094.2,1048.04L1096.4,1046.77L1094.2,1045.5L1092,1046.77L1094.2,1048.04Z" style="fill:rgb(150,154,158);fill-rule:nonzero;"/>
            <path d="M1091,1059.44L1093.2,1058.17L1091,1056.9L1088.8,1058.17L1091,1059.44Z" style="fill:rgb(150,154,158);fill-rule:nonzero;"/>
            <path d="M1092,1054.37L1094.2,1055.64L1096.4,1054.37L1094.2,1053.1L1092,1054.37Z" style="fill:rgb(150,154,158);fill-rule:nonzero;"/>
            <path d="M1091,1067.04L1093.2,1065.77L1091,1064.5L1088.8,1065.77L1091,1067.04Z" style="fill:rgb(150,154,158);fill-rule:nonzero;"/>
            <path d="M1094.2,1063.24L1096.4,1061.97L1094.2,1060.7L1092,1061.97L1094.2,1063.24Z" style="fill:rgb(150,154,158);fill-rule:nonzero;"/>
            <path d="M1091,1074.64L1093.2,1073.37L1091,1072.1L1088.8,1073.37L1091,1074.64Z" style="fill:rgb(150,154,158);fill-rule:nonzero;"/>
            <path d="M1094.2,1070.84L1096.4,1069.57L1094.2,1068.3L1092,1069.57L1094.2,1070.84Z" style="fill:rgb(150,154,158);fill-rule:nonzero;"/>
            <path d="M1091,1082.24L1093.2,1080.97L1091,1079.7L1088.8,1080.97L1091,1082.24Z" style="fill:rgb(150,154,158);fill-rule:nonzero;"/>
            <path d="M1094.2,1078.44L1096.4,1077.17L1094.2,1075.9L1092,1077.17L1094.2,1078.44Z" style="fill:rgb(150,154,158);fill-rule:nonzero;"/>
            <path d="M1091,1089.84L1093.2,1088.57L1091,1087.3L1088.8,1088.57L1091,1089.84Z" style="fill:rgb(150,154,158);fill-rule:nonzero;"/>
            <path d="M1094.2,1086.04L1096.4,1084.77L1094.2,1083.5L1092,1084.77L1094.2,1086.04Z" style="fill:rgb(150,154,158);fill-rule:nonzero;"/>
            <path d="M1091.36,1097.23L1093.2,1096.17L1091,1094.9L1089.27,1095.9L1091.36,1097.23Z" style="fill:rgb(150,154,158);fill-rule:nonzero;"/>
            <path d="M1094.2,1093.64L1096.4,1092.37L1094.2,1091.1L1092,1092.37L1094.2,1093.64Z" style="fill:rgb(150,154,158);fill-rule:nonzero;"/>
            <path d="M1096.4,1099.97L1094.2,1098.7L1093.92,1098.86L1096.02,1100.19L1096.4,1099.97Z" style="fill:rgb(150,154,158);fill-rule:nonzero;"/>
            <path d="M1091,1158.24L1093.2,1156.97L1091,1155.7L1088.8,1156.97L1091,1158.24Z" style="fill:rgb(150,154,158);fill-rule:nonzero;"/>
            <path d="M1096.4,1153.17L1094.2,1151.9L1092,1153.17L1094.2,1154.44L1096.4,1153.17Z" style="fill:rgb(150,154,158);fill-rule:nonzero;"/>
            <path d="M1093.2,1164.57L1091,1163.3L1088.8,1164.57L1091,1165.84L1093.2,1164.57Z" style="fill:rgb(150,154,158);fill-rule:nonzero;"/>
            <path d="M1096.4,1160.77L1094.2,1159.5L1092,1160.77L1094.2,1162.04L1096.4,1160.77Z" style="fill:rgb(150,154,158);fill-rule:nonzero;"/>
            <path d="M1093.2,1172.17L1091,1170.9L1088.8,1172.17L1091,1173.44L1093.2,1172.17Z" style="fill:rgb(150,154,158);fill-rule:nonzero;"/>
            <path d="M1096.4,1168.37L1094.2,1167.1L1092,1168.37L1094.2,1169.64L1096.4,1168.37Z" style="fill:rgb(150,154,158);fill-rule:nonzero;"/>
            <path d="M1090,1016.37L1089.69,1016.19L1089.24,1016.81L1090,1016.37Z" style="fill:rgb(150,154,158);fill-rule:nonzero;"/>
            <path d="M1084.6,1029.04L1086.8,1027.77L1084.6,1026.5L1082.4,1027.77L1084.6,1029.04Z" style="fill:rgb(150,154,158);fill-rule:nonzero;"/>
            <path d="M1087.8,1025.24L1090,1023.97L1087.8,1022.7L1085.6,1023.97L1087.8,1025.24Z" style="fill:rgb(150,154,158);fill-rule:nonzero;"/>
            <path d="M1084.6,1036.64L1086.8,1035.37L1084.6,1034.1L1082.4,1035.37L1084.6,1036.64Z" style="fill:rgb(150,154,158);fill-rule:nonzero;"/>
            <path d="M1087.8,1032.84L1090,1031.57L1087.8,1030.3L1085.6,1031.57L1087.8,1032.84Z" style="fill:rgb(150,154,158);fill-rule:nonzero;"/>
            <path d="M1084.6,1044.24L1086.8,1042.97L1084.6,1041.7L1082.4,1042.97L1084.6,1044.24Z" style="fill:rgb(150,154,158);fill-rule:nonzero;"/>
            <path d="M1085.6,1039.17L1087.8,1040.44L1090,1039.17L1087.8,1037.9L1085.6,1039.17Z" style="fill:rgb(150,154,158);fill-rule:nonzero;"/>
            <path d="M1084.6,1051.84L1086.8,1050.57L1084.6,1049.3L1082.4,1050.57L1084.6,1051.84Z" style="fill:rgb(150,154,158);fill-rule:nonzero;"/>
            <path d="M1087.8,1048.04L1090,1046.77L1087.8,1045.5L1085.6,1046.77L1087.8,1048.04Z" style="fill:rgb(150,154,158);fill-rule:nonzero;"/>
            <path d="M1084.6,1059.44L1086.8,1058.17L1084.6,1056.9L1082.4,1058.17L1084.6,1059.44Z" style="fill:rgb(150,154,158);fill-rule:nonzero;"/>
            <path d="M1085.6,1054.37L1087.8,1055.64L1090,1054.37L1087.8,1053.1L1085.6,1054.37Z" style="fill:rgb(150,154,158);fill-rule:nonzero;"/>
            <path d="M1084.6,1067.04L1086.8,1065.77L1084.6,1064.5L1082.4,1065.77L1084.6,1067.04Z" style="fill:rgb(150,154,158);fill-rule:nonzero;"/>
            <path d="M1087.8,1063.24L1090,1061.97L1087.8,1060.7L1085.6,1061.97L1087.8,1063.24Z" style="fill:rgb(150,154,158);fill-rule:nonzero;"/>
            <path d="M1084.6,1074.64L1086.8,1073.37L1084.6,1072.1L1082.4,1073.37L1084.6,1074.64Z" style="fill:rgb(150,154,158);fill-rule:nonzero;"/>
            <path d="M1087.8,1070.84L1090,1069.57L1087.8,1068.3L1085.6,1069.57L1087.8,1070.84Z" style="fill:rgb(150,154,158);fill-rule:nonzero;"/>
            <path d="M1084.6,1082.24L1086.8,1080.97L1084.6,1079.7L1082.4,1080.97L1084.6,1082.24Z" style="fill:rgb(150,154,158);fill-rule:nonzero;"/>
            <path d="M1087.8,1078.44L1090,1077.17L1087.8,1075.9L1085.6,1077.17L1087.8,1078.44Z" style="fill:rgb(150,154,158);fill-rule:nonzero;"/>
            <path d="M1084.6,1089.84L1086.8,1088.57L1084.6,1087.3L1082.4,1088.57L1084.6,1089.84Z" style="fill:rgb(150,154,158);fill-rule:nonzero;"/>
            <path d="M1087.8,1086.04L1090,1084.77L1087.8,1083.5L1085.6,1084.77L1087.8,1086.04Z" style="fill:rgb(150,154,158);fill-rule:nonzero;"/>
            <path d="M1087.8,1093.64L1090,1092.37L1087.8,1091.1L1085.6,1092.37L1087.8,1093.64Z" style="fill:rgb(150,154,158);fill-rule:nonzero;"/>
            <path d="M1084.6,1158.24L1086.8,1156.97L1084.6,1155.7L1082.4,1156.97L1084.6,1158.24Z" style="fill:rgb(150,154,158);fill-rule:nonzero;"/>
            <path d="M1090,1153.17L1088.73,1152.44C1088.55,1152.53 1088.36,1152.63 1088.18,1152.72C1087.55,1153 1086.91,1153.28 1086.27,1153.56L1087.8,1154.44L1090,1153.17Z" style="fill:rgb(150,154,158);fill-rule:nonzero;"/>
            <path d="M1084.6,1165.84L1086.8,1164.57L1084.6,1163.3L1082.4,1164.57L1084.6,1165.84Z" style="fill:rgb(150,154,158);fill-rule:nonzero;"/>
            <path d="M1087.8,1162.04L1090,1160.77L1087.8,1159.5L1085.6,1160.77L1087.8,1162.04Z" style="fill:rgb(150,154,158);fill-rule:nonzero;"/>
            <path d="M1084.6,1170.9L1082.4,1172.17L1084.6,1173.44L1086.8,1172.17L1084.6,1170.9Z" style="fill:rgb(150,154,158);fill-rule:nonzero;"/>
            <path d="M1085.6,1168.37L1087.8,1169.64L1090,1168.37L1087.8,1167.1L1085.6,1168.37Z" style="fill:rgb(150,154,158);fill-rule:nonzero;"/>
            <path d="M1082.4,1179.77L1083.02,1180.13C1083.84,1179.77 1084.66,1179.39 1085.46,1179L1084.6,1178.5L1082.4,1179.77Z" style="fill:rgb(150,154,158);fill-rule:nonzero;"/>
            <path d="M1090,1175.97L1087.8,1174.7L1085.6,1175.97L1087.8,1177.24L1090,1175.97Z" style="fill:rgb(150,154,158);fill-rule:nonzero;"/>
            <path d="M1078.2,1036.64L1080.4,1035.37L1078.2,1034.1L1076,1035.37L1078.2,1036.64Z" style="fill:rgb(150,154,158);fill-rule:nonzero;"/>
            <path d="M1081.4,1032.84L1083.6,1031.57L1081.4,1030.3L1079.2,1031.57L1081.4,1032.84Z" style="fill:rgb(150,154,158);fill-rule:nonzero;"/>
            <path d="M1078.2,1044.24L1080.4,1042.97L1078.2,1041.7L1076,1042.97L1078.2,1044.24Z" style="fill:rgb(150,154,158);fill-rule:nonzero;"/>
            <path d="M1081.4,1040.44L1083.6,1039.17L1081.4,1037.9L1079.2,1039.17L1081.4,1040.44Z" style="fill:rgb(150,154,158);fill-rule:nonzero;"/>
            <path d="M1078.2,1051.84L1080.4,1050.57L1078.2,1049.3L1076,1050.57L1078.2,1051.84Z" style="fill:rgb(150,154,158);fill-rule:nonzero;"/>
            <path d="M1081.4,1048.04L1083.6,1046.77L1081.4,1045.5L1079.2,1046.77L1081.4,1048.04Z" style="fill:rgb(150,154,158);fill-rule:nonzero;"/>
            <path d="M1078.2,1059.44L1080.4,1058.17L1078.2,1056.9L1076,1058.17L1078.2,1059.44Z" style="fill:rgb(150,154,158);fill-rule:nonzero;"/>
            <path d="M1081.4,1055.64L1083.6,1054.37L1081.4,1053.1L1079.2,1054.37L1081.4,1055.64Z" style="fill:rgb(150,154,158);fill-rule:nonzero;"/>
            <path d="M1078.2,1067.04L1080.4,1065.77L1078.2,1064.5L1076,1065.77L1078.2,1067.04Z" style="fill:rgb(150,154,158);fill-rule:nonzero;"/>
            <path d="M1081.4,1063.24L1083.6,1061.97L1081.4,1060.7L1079.2,1061.97L1081.4,1063.24Z" style="fill:rgb(150,154,158);fill-rule:nonzero;"/>
            <path d="M1078.2,1074.64L1080.4,1073.37L1078.2,1072.1L1076,1073.37L1078.2,1074.64Z" style="fill:rgb(150,154,158);fill-rule:nonzero;"/>
            <path d="M1081.4,1070.84L1083.6,1069.57L1081.4,1068.3L1079.2,1069.57L1081.4,1070.84Z" style="fill:rgb(150,154,158);fill-rule:nonzero;"/>
            <path d="M1078.2,1082.24L1080.4,1080.97L1078.2,1079.7L1076,1080.97L1078.2,1082.24Z" style="fill:rgb(150,154,158);fill-rule:nonzero;"/>
            <path d="M1081.4,1078.44L1083.6,1077.17L1081.4,1075.9L1079.2,1077.17L1081.4,1078.44Z" style="fill:rgb(150,154,158);fill-rule:nonzero;"/>
            <path d="M1079.02,1089.37L1080.4,1088.57L1078.2,1087.3L1076.93,1088.04L1079.02,1089.37Z" style="fill:rgb(150,154,158);fill-rule:nonzero;"/>
            <path d="M1081.4,1086.04L1083.6,1084.77L1081.4,1083.5L1079.2,1084.77L1081.4,1086.04Z" style="fill:rgb(150,154,158);fill-rule:nonzero;"/>
            <path d="M1080.4,1156.97L1079.56,1156.49C1078.73,1156.85 1077.9,1157.22 1077.07,1157.59L1078.2,1158.24L1080.4,1156.97Z" style="fill:rgb(150,154,158);fill-rule:nonzero;"/>
            <path d="M1078.2,1165.84L1080.4,1164.57L1078.2,1163.3L1076,1164.57L1078.2,1165.84Z" style="fill:rgb(150,154,158);fill-rule:nonzero;"/>
            <path d="M1081.4,1162.04L1083.6,1160.77L1081.4,1159.5L1079.2,1160.77L1081.4,1162.04Z" style="fill:rgb(150,154,158);fill-rule:nonzero;"/>
            <path d="M1081.4,1174.7L1079.2,1175.97L1081.4,1177.24L1083.6,1175.97L1081.4,1174.7Z" style="fill:rgb(150,154,158);fill-rule:nonzero;"/>
            <path d="M1076,1172.17L1078.2,1173.44L1080.4,1172.17L1078.2,1170.9L1076,1172.17Z" style="fill:rgb(150,154,158);fill-rule:nonzero;"/>
            <path d="M1081.4,1169.64L1083.6,1168.37L1081.4,1167.1L1079.2,1168.37L1081.4,1169.64Z" style="fill:rgb(150,154,158);fill-rule:nonzero;"/>
            <path d="M1078.2,1181.04L1080.4,1179.77L1078.2,1178.5L1076,1179.77L1078.2,1181.04Z" style="fill:rgb(150,154,158);fill-rule:nonzero;"/>
            <path d="M1073.15,1038.97L1072.94,1039.26L1075,1040.44L1077.2,1039.17L1075,1037.9L1073.15,1038.97Z" style="fill:rgb(150,154,158);fill-rule:nonzero;"/>
            <path d="M1074,1042.97L1071.8,1041.7L1070.71,1042.33L1070.05,1043.23L1071.8,1044.24L1074,1042.97Z" style="fill:rgb(150,154,158);fill-rule:nonzero;"/>
            <path d="M1071.8,1051.84L1074,1050.57L1071.8,1049.3L1069.6,1050.57L1071.8,1051.84Z" style="fill:rgb(150,154,158);fill-rule:nonzero;"/>
            <path d="M1075,1048.04L1077.2,1046.77L1075,1045.5L1072.8,1046.77L1075,1048.04Z" style="fill:rgb(150,154,158);fill-rule:nonzero;"/>
            <path d="M1071.8,1059.44L1074,1058.17L1071.8,1056.9L1069.6,1058.17L1071.8,1059.44Z" style="fill:rgb(150,154,158);fill-rule:nonzero;"/>
            <path d="M1072.8,1054.37L1075,1055.64L1077.2,1054.37L1075,1053.1L1072.8,1054.37Z" style="fill:rgb(150,154,158);fill-rule:nonzero;"/>
            <path d="M1071.8,1067.04L1074,1065.77L1071.8,1064.5L1069.6,1065.77L1071.8,1067.04Z" style="fill:rgb(150,154,158);fill-rule:nonzero;"/>
            <path d="M1075,1063.24L1077.2,1061.97L1075,1060.7L1072.8,1061.97L1075,1063.24Z" style="fill:rgb(150,154,158);fill-rule:nonzero;"/>
            <path d="M1071.8,1074.64L1074,1073.37L1071.8,1072.1L1069.6,1073.37L1071.8,1074.64Z" style="fill:rgb(150,154,158);fill-rule:nonzero;"/>
            <path d="M1075,1070.84L1077.2,1069.57L1075,1068.3L1072.8,1069.57L1075,1070.84Z" style="fill:rgb(150,154,158);fill-rule:nonzero;"/>
            <path d="M1071.8,1082.24L1074,1080.97L1071.8,1079.7L1069.6,1080.97L1071.8,1082.24Z" style="fill:rgb(150,154,158);fill-rule:nonzero;"/>
            <path d="M1075,1078.44L1077.2,1077.17L1075,1075.9L1072.8,1077.17L1075,1078.44Z" style="fill:rgb(150,154,158);fill-rule:nonzero;"/>
            <path d="M1075,1086.04L1077.2,1084.77L1075,1083.5L1072.8,1084.77L1075,1086.04Z" style="fill:rgb(150,154,158);fill-rule:nonzero;"/>
            <path d="M1069.6,1164.57L1071.8,1165.84L1074,1164.57L1071.8,1163.3L1069.6,1164.57Z" style="fill:rgb(150,154,158);fill-rule:nonzero;"/>
            <path d="M1075,1162.04L1077.2,1160.77L1075,1159.5L1072.8,1160.77L1075,1162.04Z" style="fill:rgb(150,154,158);fill-rule:nonzero;"/>
            <path d="M1071.8,1173.44L1074,1172.17L1071.8,1170.9L1069.6,1172.17L1071.8,1173.44Z" style="fill:rgb(150,154,158);fill-rule:nonzero;"/>
            <path d="M1072.8,1168.37L1075,1169.64L1077.2,1168.37L1075,1167.1L1072.8,1168.37Z" style="fill:rgb(150,154,158);fill-rule:nonzero;"/>
            <path d="M1071.8,1181.04L1074,1179.77L1071.8,1178.5L1069.6,1179.77L1071.8,1181.04Z" style="fill:rgb(150,154,158);fill-rule:nonzero;"/>
            <path d="M1075,1177.24L1077.2,1175.97L1075,1174.7L1072.8,1175.97L1075,1177.24Z" style="fill:rgb(150,154,158);fill-rule:nonzero;"/>
            <path d="M1072.93,1183.65C1073.93,1183.4 1074.92,1183.12 1075.9,1182.82L1075,1182.3L1072.8,1183.57L1072.93,1183.65Z" style="fill:rgb(150,154,158);fill-rule:nonzero;"/>
            <path d="M1065.4,1051.84L1067.6,1050.57L1065.58,1049.4L1064.28,1051.19L1065.4,1051.84Z" style="fill:rgb(150,154,158);fill-rule:nonzero;"/>
            <path d="M1070.8,1046.77L1068.6,1045.5L1068.27,1045.69L1067.17,1047.21L1068.6,1048.04L1070.8,1046.77Z" style="fill:rgb(150,154,158);fill-rule:nonzero;"/>
            <path d="M1065.4,1059.44L1067.6,1058.17L1065.4,1056.9L1063.2,1058.17L1065.4,1059.44Z" style="fill:rgb(150,154,158);fill-rule:nonzero;"/>
            <path d="M1068.6,1055.64L1070.8,1054.37L1068.6,1053.1L1066.4,1054.37L1068.6,1055.64Z" style="fill:rgb(150,154,158);fill-rule:nonzero;"/>
            <path d="M1065.4,1067.04L1067.6,1065.77L1065.4,1064.5L1063.2,1065.77L1065.4,1067.04Z" style="fill:rgb(150,154,158);fill-rule:nonzero;"/>
            <path d="M1068.6,1063.24L1070.8,1061.97L1068.6,1060.7L1066.4,1061.97L1068.6,1063.24Z" style="fill:rgb(150,154,158);fill-rule:nonzero;"/>
            <path d="M1065.4,1074.64L1067.6,1073.37L1065.4,1072.1L1063.2,1073.37L1065.4,1074.64Z" style="fill:rgb(150,154,158);fill-rule:nonzero;"/>
            <path d="M1068.6,1070.84L1070.8,1069.57L1068.6,1068.3L1066.4,1069.57L1068.6,1070.84Z" style="fill:rgb(150,154,158);fill-rule:nonzero;"/>
            <path d="M1064.58,1080.17L1066.67,1081.51L1067.6,1080.97L1065.4,1079.7L1064.58,1080.17Z" style="fill:rgb(150,154,158);fill-rule:nonzero;"/>
            <path d="M1068.6,1078.44L1070.8,1077.17L1068.6,1075.9L1066.4,1077.17L1068.6,1078.44Z" style="fill:rgb(150,154,158);fill-rule:nonzero;"/>
            <path d="M1065.4,1165.84L1067.6,1164.57L1065.5,1163.36C1064.76,1163.78 1064.04,1164.2 1063.32,1164.64L1065.4,1165.84Z" style="fill:rgb(150,154,158);fill-rule:nonzero;"/>
            <path d="M1068.6,1162.04L1070.8,1160.77L1070.58,1160.65C1069.8,1161.04 1069.02,1161.44 1068.25,1161.84L1068.6,1162.04Z" style="fill:rgb(150,154,158);fill-rule:nonzero;"/>
            <path d="M1065.4,1173.44L1067.6,1172.17L1065.4,1170.9L1063.2,1172.17L1065.4,1173.44Z" style="fill:rgb(150,154,158);fill-rule:nonzero;"/>
            <path d="M1068.6,1169.64L1070.8,1168.37L1068.6,1167.1L1066.4,1168.37L1068.6,1169.64Z" style="fill:rgb(150,154,158);fill-rule:nonzero;"/>
            <path d="M1065.4,1181.04L1067.6,1179.77L1065.4,1178.5L1063.2,1179.77L1065.4,1181.04Z" style="fill:rgb(150,154,158);fill-rule:nonzero;"/>
            <path d="M1068.6,1177.24L1070.8,1175.97L1068.6,1174.7L1066.4,1175.97L1068.6,1177.24Z" style="fill:rgb(150,154,158);fill-rule:nonzero;"/>
            <path d="M1068.14,1184.58C1068.55,1184.52 1068.97,1184.46 1069.38,1184.39L1070.8,1183.57L1068.6,1182.3L1066.4,1183.57L1068.14,1184.58Z" style="fill:rgb(150,154,158);fill-rule:nonzero;"/>
            <path d="M1061.2,1058.17L1059.8,1057.36L1058.5,1059.15L1059,1059.44L1061.2,1058.17Z" style="fill:rgb(150,154,158);fill-rule:nonzero;"/>
            <path d="M1064.4,1054.37L1062.69,1053.38L1061.39,1055.17L1062.2,1055.64L1064.4,1054.37Z" style="fill:rgb(150,154,158);fill-rule:nonzero;"/>
            <path d="M1059,1067.04L1061.2,1065.77L1059,1064.5L1056.8,1065.77L1059,1067.04Z" style="fill:rgb(150,154,158);fill-rule:nonzero;"/>
            <path d="M1062.2,1063.24L1064.4,1061.97L1062.2,1060.7L1060,1061.97L1062.2,1063.24Z" style="fill:rgb(150,154,158);fill-rule:nonzero;"/>
            <path d="M1060,1077.17L1062.2,1078.44L1064.4,1077.17L1062.2,1075.9L1060,1077.17Z" style="fill:rgb(150,154,158);fill-rule:nonzero;"/>
            <path d="M1056.8,1073.37L1059,1074.64L1061.2,1073.37L1059,1072.1L1056.8,1073.37Z" style="fill:rgb(150,154,158);fill-rule:nonzero;"/>
            <path d="M1062.2,1070.84L1064.4,1069.57L1062.2,1068.3L1060,1069.57L1062.2,1070.84Z" style="fill:rgb(150,154,158);fill-rule:nonzero;"/>
            <path d="M1059,1173.44L1061.2,1172.17L1059,1170.9L1056.8,1172.17L1059,1173.44Z" style="fill:rgb(150,154,158);fill-rule:nonzero;"/>
            <path d="M1062.2,1169.64L1064.4,1168.37L1062.2,1167.1L1060,1168.37L1062.2,1169.64Z" style="fill:rgb(150,154,158);fill-rule:nonzero;"/>
            <path d="M1059,1181.04L1061.2,1179.77L1059,1178.5L1056.8,1179.77L1059,1181.04Z" style="fill:rgb(150,154,158);fill-rule:nonzero;"/>
            <path d="M1062.2,1177.24L1064.4,1175.97L1062.2,1174.7L1060,1175.97L1062.2,1177.24Z" style="fill:rgb(150,154,158);fill-rule:nonzero;"/>
            <path d="M1062.2,1184.84L1064.4,1183.57L1062.2,1182.3L1060,1183.57L1062.2,1184.84Z" style="fill:rgb(150,154,158);fill-rule:nonzero;"/>
            <path d="M1054.8,1065.77L1054.02,1065.32L1052.89,1066.87L1054.8,1065.77Z" style="fill:rgb(150,154,158);fill-rule:nonzero;"/>
            <path d="M1055.61,1063.13L1055.8,1063.24L1058,1061.97L1056.91,1061.34L1055.61,1063.13Z" style="fill:rgb(150,154,158);fill-rule:nonzero;"/>
            <path d="M1052.23,1072.31L1054.32,1073.64L1054.8,1073.37L1052.6,1072.1L1052.23,1072.31Z" style="fill:rgb(150,154,158);fill-rule:nonzero;"/>
            <path d="M1055.8,1070.84L1058,1069.57L1055.8,1068.3L1053.6,1069.57L1055.8,1070.84Z" style="fill:rgb(150,154,158);fill-rule:nonzero;"/>
            <path d="M1052.6,1173.44L1054.8,1172.17L1053.91,1171.66C1053.65,1171.98 1053.43,1172.31 1053.26,1172.64C1052.56,1172.37 1051.88,1172.05 1051.21,1171.7L1050.4,1172.17L1052.6,1173.44Z" style="fill:rgb(150,154,158);fill-rule:nonzero;"/>
            <path d="M1058,1168.37L1057.89,1168.31C1057.67,1168.47 1057.45,1168.64 1057.23,1168.81L1058,1168.37Z" style="fill:rgb(150,154,158);fill-rule:nonzero;"/>
            <path d="M1050.4,1179.77L1052.6,1181.04L1054.8,1179.77L1052.6,1178.5L1050.4,1179.77Z" style="fill:rgb(150,154,158);fill-rule:nonzero;"/>
            <path d="M1055.8,1177.24L1058,1175.97L1055.8,1174.7L1053.6,1175.97L1055.8,1177.24Z" style="fill:rgb(150,154,158);fill-rule:nonzero;"/>
            <path d="M1053.6,1183.57L1054.52,1184.1C1055.15,1184.25 1055.78,1184.37 1056.42,1184.48L1058,1183.57L1055.8,1182.3L1053.6,1183.57Z" style="fill:rgb(150,154,158);fill-rule:nonzero;"/>
            <path d="M1051.13,1069.3L1050.45,1070.23L1051.6,1069.57L1051.13,1069.3Z" style="fill:rgb(150,154,158);fill-rule:nonzero;"/>
            <path d="M1047.2,1175.97L1049.4,1177.24L1051.6,1175.97L1049.4,1174.7L1047.2,1175.97Z" style="fill:rgb(150,154,158);fill-rule:nonzero;"/>
            <path d="M1044,1172.17L1046.2,1173.44L1048.4,1172.17L1046.2,1170.9L1044,1172.17Z" style="fill:rgb(150,154,158);fill-rule:nonzero;"/>
            <path d="M1044,1179.77L1046.2,1181.04L1048.4,1179.77L1046.2,1178.5L1044,1179.77Z" style="fill:rgb(150,154,158);fill-rule:nonzero;"/>
            <path d="M1049.17,1182.44C1049.6,1182.61 1050.05,1182.77 1050.49,1182.93L1049.4,1182.3L1049.17,1182.44Z" style="fill:rgb(150,154,158);fill-rule:nonzero;"/>
            <path d="M1040.8,1160.77L1042.16,1161.56C1042.01,1161.11 1041.88,1160.67 1041.77,1160.21L1040.8,1160.77Z" style="fill:rgb(150,154,158);fill-rule:nonzero;"/>
            <path d="M1037.6,1156.97L1039.8,1158.24L1041.36,1157.34C1041.35,1157.1 1041.36,1156.85 1041.36,1156.6L1039.8,1155.7L1037.6,1156.97Z" style="fill:rgb(150,154,158);fill-rule:nonzero;"/>
            <path d="M1034.4,1160.77L1036.6,1162.04L1038.8,1160.77L1036.6,1159.5L1034.4,1160.77Z" style="fill:rgb(150,154,158);fill-rule:nonzero;"/>
            <path d="M1036.6,1154.44L1038.8,1153.17L1036.6,1151.9L1034.4,1153.17L1036.6,1154.44Z" style="fill:rgb(150,154,158);fill-rule:nonzero;"/>
            <path d="M1043,1167.1L1040.8,1168.37L1043,1169.64L1045.2,1168.37L1043,1167.1Z" style="fill:rgb(150,154,158);fill-rule:nonzero;"/>
            <path d="M1037.6,1164.57L1039.8,1165.84L1042,1164.57L1039.8,1163.3L1037.6,1164.57Z" style="fill:rgb(150,154,158);fill-rule:nonzero;"/>
            <path d="M1040.8,1175.97L1043,1177.24L1045.2,1175.97L1043,1174.7L1040.8,1175.97Z" style="fill:rgb(150,154,158);fill-rule:nonzero;"/>
            <path d="M1039.8,1170.9L1037.6,1172.17L1039.8,1173.44L1042,1172.17L1039.8,1170.9Z" style="fill:rgb(150,154,158);fill-rule:nonzero;"/>
            <path d="M1036.6,1169.64L1038.8,1168.37L1036.6,1167.1L1034.4,1168.37L1036.6,1169.64Z" style="fill:rgb(150,154,158);fill-rule:nonzero;"/>
            <path d="M1031.2,1156.97L1033.4,1158.24L1035.6,1156.97L1033.4,1155.7L1031.2,1156.97Z" style="fill:rgb(150,154,158);fill-rule:nonzero;"/>
            <path d="M1033.4,1165.84L1035.6,1164.57L1033.4,1163.3L1031.5,1164.4C1031.54,1164.54 1031.59,1164.68 1031.63,1164.82L1033.4,1165.84Z" style="fill:rgb(150,154,158);fill-rule:nonzero;"/>
            <path d="M1035.6,1172.17L1035.31,1172L1035.48,1172.24L1035.6,1172.17Z" style="fill:rgb(150,154,158);fill-rule:nonzero;"/>
            <path d="M1030.57,1159.72C1030.64,1160.38 1030.73,1161.03 1030.85,1161.67L1032.4,1160.77L1030.57,1159.72Z" style="fill:rgb(150,154,158);fill-rule:nonzero;"/>
            <path d="M1032.4,1153.17L1031.64,1152.73C1031.32,1153.12 1031.06,1153.56 1030.86,1154.06L1032.4,1153.17Z" style="fill:rgb(150,154,158);fill-rule:nonzero;"/>
            <path d="M1103.68,1075.86C1108.71,1075.32 1114.13,1075.28 1120.42,1075.42L1117.06,1049.34L1117.06,1049.33L1115.75,1039.17C1115.49,1037.17 1115.82,1035.22 1116.61,1033.51C1117.96,1030.58 1120.66,1028.32 1124.05,1027.68C1124.71,1027.55 1125.36,1027.49 1126.02,1027.49C1126.68,1027.49 1127.34,1027.55 1127.97,1027.68C1131.91,1028.44 1135.22,1031.47 1136.12,1035.65L1144.5,1074.27C1145.12,1077.1 1144.97,1080.02 1144.11,1082.75L1145.76,1090.34C1146.52,1093.84 1146.12,1097.45 1144.64,1100.66L1144.65,1100.68L1145.91,1109.39C1147.93,1123.31 1128.52,1136.7 1115.99,1142.67C1101.56,1149.54 1055.63,1179.49 1051.34,1182.29C1054.29,1180.03 1056.2,1176.48 1056.2,1172.47L1056.2,1142.67C1056.2,1134.83 1049.84,1128.46 1041.99,1128.46L1036.37,1128.46C1026.21,1128.46 1017.71,1135.57 1015.58,1145.09C1017.7,1132.37 1024.81,1120.41 1031.73,1111.29C1033.83,1108.51 1035.92,1106.01 1037.83,1103.83C1043.02,1097.95 1047.02,1094.43 1047.02,1094.43L1047.02,1059.75C1047.02,1055.01 1050.49,1051.04 1055.18,1050.33C1055.64,1050.26 1056.1,1050.23 1056.55,1050.23C1060.79,1050.23 1064.61,1053.06 1065.73,1057.28C1068.61,1068.03 1069.52,1076.49 1071.59,1089.1C1079.86,1083.28 1086.66,1079.83 1093.51,1077.83C1096.84,1076.87 1100.16,1076.25 1103.68,1075.86Z" style="fill:white;fill-rule:nonzero;"/>
            <path d="M1133.83,1011.96C1134.35,1013.49 1134.25,1015.24 1133.41,1016.89L1127.97,1027.68C1127.34,1027.55 1126.68,1027.49 1126.02,1027.49C1125.36,1027.49 1124.71,1027.55 1124.05,1027.68C1120.66,1028.32 1117.96,1030.58 1116.61,1033.51L1116.02,1033.2L1129.76,1005.94C1130.55,1004.37 1130.68,1002.73 1130.27,1001.28L1133.83,1011.96Z" style="fill:rgb(55,58,58);fill-rule:nonzero;"/>
            <path d="M1106.4,1019.21C1108.2,1015.63 1106.63,1011.64 1102.88,1010.3L1062.67,995.886C1058.94,994.535 1054.43,996.349 1052.63,999.927L1040.53,1023.93C1038.73,1027.49 1040.3,1031.49 1044.05,1032.82L1070.5,1042.31L1074.14,1054.78L1078.91,1045.32L1084.26,1047.25C1088,1048.59 1092.5,1046.77 1094.3,1043.19L1106.4,1019.21ZM1130.27,1001.28C1130.68,1002.73 1130.55,1004.37 1129.76,1005.94L1093.51,1077.83C1086.66,1079.83 1079.86,1083.28 1071.59,1089.1C1069.52,1076.49 1068.61,1068.03 1065.73,1057.28C1064.61,1053.06 1060.79,1050.23 1056.55,1050.23C1056.1,1050.23 1055.64,1050.26 1055.18,1050.33C1050.49,1051.04 1047.02,1055.01 1047.02,1059.75L1047.02,1080.9L1003.08,1065.15L1047.75,976.547C1049.53,973.005 1053.98,971.216 1057.68,972.543L1126.29,997.128C1128.35,997.87 1129.75,999.428 1130.27,1001.28Z" style="fill:white;fill-rule:nonzero;"/>
            <path d="M1115.75,1039.17L1117.06,1049.33L1117.06,1049.34L1103.68,1075.86C1100.16,1076.25 1096.84,1076.87 1093.51,1077.83L1116.02,1033.2L1116.61,1033.51C1115.82,1035.22 1115.49,1037.17 1115.75,1039.17Z" style="fill:rgb(55,58,58);fill-rule:nonzero;"/>
            <path d="M1102.88,1010.3C1106.63,1011.64 1108.2,1015.63 1106.4,1019.21L1094.3,1043.19C1092.5,1046.77 1088,1048.59 1084.26,1047.25L1078.91,1045.32L1074.14,1054.78L1070.5,1042.31L1044.05,1032.82C1040.3,1031.49 1038.73,1027.49 1040.53,1023.93L1052.63,999.927C1054.43,996.349 1058.94,994.535 1062.67,995.886L1102.88,1010.3Z" style="fill:rgb(255,97,0);fill-rule:nonzero;"/>
            <path d="M1051.32,1182.31C1049.25,1183.89 1046.66,1184.81 1043.86,1184.81C1027.95,1184.81 1015.06,1171.92 1015.06,1156.02L1015.06,1149.77C1015.06,1148.17 1015.24,1146.6 1015.58,1145.09C1017.71,1135.57 1026.21,1128.46 1036.37,1128.46L1041.99,1128.46C1049.84,1128.46 1056.2,1134.83 1056.2,1142.67L1056.2,1172.47C1056.2,1176.48 1054.29,1180.03 1051.34,1182.29L1051.32,1182.31Z" style="fill:rgb(218,224,229);fill-rule:nonzero;"/>
            <path d="M994.808,1086.24C994.163,1084.64 994.212,1082.74 995.113,1080.95L1003.08,1065.15L1047.02,1080.9L1047.02,1094.43C1047.02,1094.43 1043.02,1097.95 1037.83,1103.83L998.593,1089.76C996.756,1089.1 995.453,1087.81 994.808,1086.24Z" style="fill:rgb(218,224,229);fill-rule:nonzero;"/>
            <path d="M998.593,1089.76L1037.83,1103.83C1035.92,1106.01 1033.83,1108.51 1031.73,1111.29L1031.72,1111.28L1002.24,1100.71C1000.27,1100.01 998.91,1098.57 998.338,1096.83L994.808,1086.24C995.453,1087.81 996.756,1089.1 998.593,1089.76Z" style="fill:rgb(55,58,58);fill-rule:nonzero;"/>
            <path d="M1060.06,996.685C1057.49,996.685 1054.93,998.137 1053.75,1000.49L1041.65,1024.49C1040.94,1025.9 1040.84,1027.42 1041.38,1028.77C1041.91,1030.1 1043.01,1031.13 1044.47,1031.65L1070.92,1041.13C1071.3,1041.26 1071.59,1041.57 1071.7,1041.96L1074.45,1051.39L1077.79,1044.76C1078.08,1044.2 1078.74,1043.93 1079.33,1044.15L1084.69,1046.07C1087.85,1047.2 1091.66,1045.66 1093.19,1042.63L1105.29,1018.64C1106,1017.23 1106.09,1015.7 1105.55,1014.35C1105.02,1013.01 1103.92,1011.99 1102.46,1011.47L1062.25,997.063C1061.54,996.806 1060.8,996.685 1060.06,996.685ZM1074.14,1056.03L1074.02,1056.03C1073.51,1055.98 1073.08,1055.62 1072.94,1055.13L1069.48,1043.27L1043.63,1034C1041.49,1033.24 1039.86,1031.71 1039.06,1029.7C1038.25,1027.67 1038.38,1025.42 1039.42,1023.36L1051.52,999.364C1053.59,995.239 1058.79,993.15 1063.1,994.71L1103.31,1009.12C1105.45,1009.88 1107.07,1011.41 1107.87,1013.42C1108.69,1015.45 1108.56,1017.7 1107.52,1019.77L1095.42,1043.76C1093.35,1047.87 1088.15,1049.97 1083.84,1048.42L1079.53,1046.87L1075.25,1055.34C1075.04,1055.77 1074.61,1056.03 1074.14,1056.03Z" style="fill:rgb(255,97,0);fill-rule:nonzero;"/>
            <path d="M1047.02,1082.15C1046.88,1082.15 1046.74,1082.13 1046.6,1082.08L1002.66,1066.33C1002.01,1066.09 1001.67,1065.38 1001.91,1064.73C1002.14,1064.08 1002.86,1063.74 1003.51,1063.97L1047.44,1079.72C1048.09,1079.96 1048.43,1080.67 1048.2,1081.32C1048.01,1081.83 1047.53,1082.15 1047.02,1082.15Z" style="fill:rgb(255,97,0);fill-rule:nonzero;"/>
            <path d="M1037.83,1105.08C1037.69,1105.08 1037.55,1105.06 1037.41,1105.01L998.171,1090.94C996.055,1090.18 994.449,1088.68 993.65,1086.71C992.845,1084.73 992.971,1082.42 993.996,1080.39L1046.63,975.984C1048.68,971.905 1053.83,969.834 1058.1,971.366L1126.71,995.951C1129.08,996.806 1130.81,998.622 1131.47,1000.94C1131.98,1002.74 1131.77,1004.72 1130.87,1006.5L1094.63,1078.39C1094.32,1079.01 1093.56,1079.26 1092.95,1078.95C1092.33,1078.64 1092.09,1077.89 1092.4,1077.27L1128.64,1005.38C1129.26,1004.16 1129.41,1002.82 1129.07,1001.62C1128.63,1000.09 1127.46,998.881 1125.86,998.304L1057.26,973.72C1054.13,972.596 1050.37,974.117 1048.87,977.107L996.229,1081.51C995.518,1082.92 995.424,1084.44 995.966,1085.77C996.493,1087.07 997.576,1088.07 999.014,1088.58L1038.25,1102.65C1038.9,1102.89 1039.24,1103.6 1039.01,1104.25C1038.83,1104.76 1038.34,1105.08 1037.83,1105.08Z" style="fill:rgb(255,97,0);fill-rule:nonzero;"/>
            <path d="M1045.79,1093.94C1045.65,1093.94 1045.51,1093.92 1045.37,1093.87L1031.51,1088.9C1030.86,1088.67 1030.52,1087.96 1030.75,1087.3C1030.99,1086.65 1031.7,1086.32 1032.35,1086.55L1046.21,1091.52C1046.86,1091.75 1047.2,1092.46 1046.97,1093.11C1046.79,1093.63 1046.3,1093.94 1045.79,1093.94Z" style="fill:rgb(255,97,0);fill-rule:nonzero;"/>
            <path d="M1127.97,1028.93C1127.78,1028.93 1127.59,1028.88 1127.41,1028.79C1126.79,1028.48 1126.54,1027.73 1126.85,1027.11L1132.29,1016.33C1132.95,1015.04 1133.08,1013.63 1132.65,1012.36L1129,1001.41C1128.78,1000.75 1129.13,1000.04 1129.79,999.824C1130.45,999.603 1131.15,999.96 1131.37,1000.61L1135.02,1011.57C1135.66,1013.47 1135.48,1015.56 1134.52,1017.46L1129.08,1028.24C1128.86,1028.67 1128.42,1028.93 1127.97,1028.93Z" style="fill:rgb(255,97,0);fill-rule:nonzero;"/>
            <path d="M1103.68,1077.12C1102.99,1077.12 1102.43,1076.56 1102.43,1075.87C1102.43,1075.68 1102.47,1075.47 1102.56,1075.3L1115.95,1048.78C1116.26,1048.16 1117.01,1047.91 1117.63,1048.22C1118.24,1048.54 1118.49,1049.29 1118.18,1049.9L1104.81,1076.38C1104.61,1076.82 1104.18,1077.12 1103.68,1077.12Z" style="fill:rgb(255,97,0);fill-rule:nonzero;"/>
            <path d="M1031.72,1112.53C1031.58,1112.53 1031.44,1112.5 1031.3,1112.45L1001.82,1101.89C999.562,1101.08 997.859,1099.38 997.15,1097.22L993.501,1086.27C993.282,1085.62 993.636,1084.91 994.291,1084.69C994.947,1084.47 995.654,1084.83 995.873,1085.48L999.524,1096.43C999.999,1097.88 1001.11,1098.98 1002.67,1099.54L1032.14,1110.1C1032.79,1110.33 1033.13,1111.05 1032.9,1111.7C1032.72,1112.21 1032.23,1112.53 1031.72,1112.53Z" style="fill:rgb(255,97,0);fill-rule:nonzero;"/>
            <path d="M1036.37,1129.71C1026.92,1129.71 1018.87,1136.15 1016.8,1145.36C1016.48,1146.82 1016.31,1148.3 1016.31,1149.77L1016.31,1156.02C1016.31,1171.21 1028.67,1183.56 1043.86,1183.56C1046.32,1183.56 1048.63,1182.78 1050.56,1181.31L1050.65,1181.25C1053.38,1179.12 1054.95,1175.92 1054.95,1172.47L1054.95,1142.67C1054.95,1135.52 1049.14,1129.71 1041.99,1129.71L1036.37,1129.71ZM1043.86,1186.06C1027.29,1186.06 1013.81,1172.58 1013.81,1156.02L1013.81,1149.77C1013.81,1148.12 1014,1146.45 1014.36,1144.81C1016.69,1134.45 1025.74,1127.21 1036.37,1127.21L1041.99,1127.21C1050.52,1127.21 1057.45,1134.14 1057.45,1142.67L1057.45,1172.47C1057.45,1176.73 1055.5,1180.67 1052.1,1183.29L1052,1183.36C1049.65,1185.13 1046.84,1186.06 1043.86,1186.06Z" style="fill:rgb(55,58,58);fill-rule:nonzero;"/>
            <path d="M1015.59,1146.34L1015.38,1146.32C1014.7,1146.21 1014.24,1145.56 1014.35,1144.88C1016.15,1134.08 1021.66,1122.52 1030.74,1110.53C1032.66,1108 1034.73,1105.46 1036.89,1103C1041.15,1098.16 1044.6,1094.94 1045.77,1093.87L1045.77,1059.75C1045.77,1054.38 1049.65,1049.9 1054.99,1049.09C1055.48,1049.01 1055.99,1048.98 1056.55,1048.98C1061.42,1048.98 1065.69,1052.26 1066.94,1056.95C1069.14,1065.17 1070.17,1071.89 1071.48,1080.39C1071.81,1082.47 1072.14,1084.64 1072.51,1086.95C1080.11,1081.76 1086.54,1078.56 1093.16,1076.63C1096.45,1075.68 1099.84,1075.02 1103.54,1074.62C1107.75,1074.16 1112.31,1074.02 1119,1074.14L1114.51,1039.33C1114.23,1037.15 1114.57,1034.96 1115.48,1032.98C1117.05,1029.58 1120.16,1027.14 1123.82,1026.45C1125.25,1026.18 1126.79,1026.18 1128.21,1026.45C1132.78,1027.33 1136.36,1030.84 1137.34,1035.38L1145.72,1074C1146.38,1077.03 1146.24,1080.18 1145.3,1083.13C1144.78,1084.76 1144.04,1086.29 1143.1,1087.68L1140.36,1091.75C1139.97,1092.32 1139.2,1092.47 1138.63,1092.09C1138.05,1091.7 1137.9,1090.92 1138.29,1090.35L1141.03,1086.29C1141.83,1085.09 1142.47,1083.77 1142.92,1082.37C1143.72,1079.84 1143.84,1077.13 1143.28,1074.53L1134.9,1035.91C1134.13,1032.35 1131.32,1029.6 1127.73,1028.9C1126.63,1028.69 1125.41,1028.69 1124.28,1028.9C1121.42,1029.45 1118.98,1031.36 1117.75,1034.03C1117.03,1035.58 1116.77,1037.3 1116.99,1039.01L1121.66,1075.26C1121.71,1075.62 1121.6,1075.99 1121.35,1076.26C1121.11,1076.53 1120.75,1076.66 1120.39,1076.67C1113.01,1076.5 1108.21,1076.63 1103.81,1077.1C1100.26,1077.49 1097,1078.12 1093.86,1079.03C1087.04,1081.01 1080.4,1084.43 1072.31,1090.12C1071.96,1090.37 1071.51,1090.42 1071.11,1090.25C1070.71,1090.09 1070.43,1089.73 1070.36,1089.3C1069.86,1086.25 1069.42,1083.43 1069.01,1080.77C1067.71,1072.34 1066.69,1065.69 1064.52,1057.6C1063.56,1053.99 1060.28,1051.48 1056.55,1051.48C1056.12,1051.48 1055.73,1051.51 1055.36,1051.56C1051.25,1052.19 1048.27,1055.63 1048.27,1059.75L1048.27,1094.43C1048.27,1094.79 1048.12,1095.14 1047.84,1095.37C1047.8,1095.41 1043.82,1098.91 1038.77,1104.65C1036.65,1107.07 1034.62,1109.55 1032.73,1112.04C1023.9,1123.71 1018.55,1134.89 1016.82,1145.29C1016.71,1145.9 1016.19,1146.34 1015.59,1146.34Z" style="fill:rgb(55,58,58);fill-rule:nonzero;"/>
            <path d="M1140.58,1108.38C1140.34,1108.38 1140.09,1108.31 1139.88,1108.16C1139.31,1107.78 1139.16,1107 1139.54,1106.43L1142.28,1102.36C1142.74,1101.67 1143.16,1100.92 1143.5,1100.15C1144.87,1097.11 1145.23,1093.81 1144.54,1090.61L1142.89,1083.02C1142.74,1082.34 1143.17,1081.67 1143.84,1081.53C1144.51,1081.38 1145.18,1081.81 1145.33,1082.48L1146.98,1090.08C1147.79,1093.8 1147.37,1097.64 1145.78,1101.18C1145.38,1102.07 1144.9,1102.94 1144.36,1103.75L1141.61,1107.83C1141.37,1108.18 1140.98,1108.38 1140.58,1108.38Z" style="fill:rgb(55,58,58);fill-rule:nonzero;"/>
            <path d="M1051.03,1183.75C1050.61,1183.75 1050.2,1183.54 1049.96,1183.16C1049.6,1182.57 1049.78,1181.8 1050.36,1181.44C1050.37,1181.43 1050.46,1181.38 1050.61,1181.28L1050.71,1181.21C1056.09,1177.7 1101.04,1148.4 1115.46,1141.54C1127.22,1135.94 1146.61,1122.9 1144.67,1109.57L1143.42,1100.85C1143.32,1100.17 1143.79,1099.54 1144.48,1099.44C1145.16,1099.34 1145.79,1099.82 1145.89,1100.5L1147.15,1109.21C1149.78,1127.4 1119.94,1142.17 1116.53,1143.79C1102.21,1150.61 1057.12,1180.01 1052.02,1183.34L1051.96,1183.38C1051.78,1183.5 1051.69,1183.56 1051.69,1183.56C1051.48,1183.69 1051.25,1183.75 1051.03,1183.75Z" style="fill:rgb(55,58,58);fill-rule:nonzero;"/>
            <g transform="matrix(0.740583,0.206397,-0.445411,0.673971,820.089,159.756)">
                <text x="907.732px" y="1001.74px" style="font-family:'ArialMT', 'Arial', sans-serif;font-size:25.089px;fill:white;">GRC</text>
            </g>
        </g>
    </g>
</svg>
