<?xml version="1.0" encoding="UTF-8" standalone="no"?>
<!DOCTYPE svg PUBLIC "-//W3C//DTD SVG 1.1//EN" "http://www.w3.org/Graphics/SVG/1.1/DTD/svg11.dtd">
<svg width="100%" height="100%" viewBox="0 0 134 150" version="1.1" xmlns="http://www.w3.org/2000/svg" xmlns:xlink="http://www.w3.org/1999/xlink" xml:space="preserve" xmlns:serif="http://www.serif.com/" style="fill-rule:evenodd;clip-rule:evenodd;stroke-linejoin:round;stroke-miterlimit:2;">
    <g transform="matrix(1,0,0,1,-1581.08,-2057.76)">
        <g id="icon_chair.svg" transform="matrix(4.16667,0,0,4.16667,1647.75,2132.76)">
            <g transform="matrix(1,0,0,1,-16,-18)">
                <clipPath id="_clip1">
                    <rect x="0" y="0" width="32" height="36"/>
                </clipPath>
                <g clip-path="url(#_clip1)">
                    <path d="M25.983,27.462C24.145,27.462 23.609,25.253 21.626,24.799C20.821,24.613 16.237,25.088 15.576,25.15C9.547,25.811 7.338,25.707 4.984,19.472L0.131,6.587C-0.282,5.493 0.276,4.274 1.37,3.861C2.465,3.448 3.683,4.006 4.096,5.1L9.155,18.522C10.022,20.814 10.352,21.66 13.615,21.103C15.308,20.834 20.986,20.298 22.576,20.669C24.145,21.02 26.912,22.775 27.8,24.241C28.647,25.666 27.594,27.462 25.983,27.462Z" style="fill:rgb(255,97,0);"/>
                    <path d="M7.359,29.279L9.404,25.811C10.581,26.141 11.943,26.141 13.182,26.079L10.581,30.518C9.527,30.188 8.412,29.775 7.359,29.279Z" style="fill:rgb(255,97,0);"/>
                    <path d="M20.491,31.221L17.27,25.687C18.343,25.584 19.995,25.439 21.048,25.439L23.898,30.353C22.783,30.746 21.647,31.035 20.491,31.221Z" style="fill:rgb(255,97,0);"/>
                    <path d="M17.063,35.598C12.81,35.598 8.536,34.504 4.757,32.542C3.724,32.005 2.919,31.51 2.279,31.055C1.536,30.498 1.371,29.424 1.928,28.681C2.465,27.917 3.539,27.752 4.282,28.309C6.264,29.775 9.609,31.055 11.86,31.592C17.889,33.038 23.939,31.943 29.39,28.454C30.175,27.937 31.228,28.165 31.724,28.949C32.24,29.734 32.013,30.787 31.228,31.303C26.768,34.153 21.957,35.598 17.063,35.598Z" style="fill:rgb(255,97,0);"/>
                    <path d="M17.228,17.861C15.968,17.861 15.844,16.911 13.449,16.271C12.128,15.92 10.517,15.755 8.886,15.837L7.316,11.687C11.178,11.274 15.596,11.832 18.529,14.062C20.139,15.301 19.272,17.861 17.228,17.861Z" style="fill:rgb(255,97,0);"/>
                    <path d="M18.013,11.419C14.957,11.419 12.5,8.941 12.5,5.885C12.5,2.85 14.957,0.372 18.013,0.372C21.048,0.372 23.526,2.85 23.526,5.885C23.526,8.941 21.048,11.419 18.013,11.419ZM17.58,8.714C16.361,8.383 15.969,6.711 16.774,6.711C17.001,6.711 17.187,6.897 17.187,7.124C17.187,8.198 18.839,8.198 18.839,7.124C18.839,5.72 16.361,6.876 16.361,4.646C16.361,3.758 16.919,3.242 17.58,3.077C17.58,2.891 17.6,2.705 17.6,2.54C17.6,1.982 18.426,1.982 18.426,2.54L18.426,3.077C19.087,3.242 19.665,3.758 19.665,4.646C19.665,5.204 18.839,5.204 18.839,4.646C18.839,3.572 17.187,3.572 17.187,4.646C17.187,6.071 19.665,4.894 19.665,7.124C19.665,7.888 19.128,8.528 18.426,8.714C18.447,9.209 18.447,9.664 18.013,9.664C17.58,9.664 17.58,9.209 17.58,8.714Z" style="fill:rgb(255,97,0);"/>
                </g>
            </g>
        </g>
    </g>
</svg>
