<?xml version="1.0" encoding="UTF-8" standalone="no"?>
<!DOCTYPE svg PUBLIC "-//W3C//DTD SVG 1.1//EN" "http://www.w3.org/Graphics/SVG/1.1/DTD/svg11.dtd">
<svg width="100%" height="100%" viewBox="0 0 1690 300" version="1.1" xmlns="http://www.w3.org/2000/svg" xmlns:xlink="http://www.w3.org/1999/xlink" xml:space="preserve" xmlns:serif="http://www.serif.com/" style="fill-rule:evenodd;clip-rule:evenodd;stroke-linejoin:round;stroke-miterlimit:2;">
    <g transform="matrix(1,0,0,1,-16487,-5161.82)">
        <g>
            <g transform="matrix(0.191011,0,0,0.191011,13685.2,4575.87)">
                <g transform="matrix(1.05,0,0,1,-943.667,0)">
                    <text x="18873.3px" y="3872.35px" style="font-family:'Glancyr-Medium', 'Glancyr';font-weight:500;font-size:462.083px;fill:rgb(12,22,60);">N<tspan x="19253.2px 19633px 19967.1px 20312.3px 20646.3px 21004.5px 21170.8px 21527.1px 21900px 22279.8px 22625px 23004.8px " y="3872.35px 3872.35px 3872.35px 3872.35px 3872.35px 3872.35px 3872.35px 3872.35px 3872.35px 3872.35px 3872.35px 3872.35px ">DLELA KUNENE</tspan></text>
                </g>
                <g transform="matrix(0.374719,0,0,0.356876,11816.8,2771.26)">
                    <text x="18873.3px" y="3872.35px" style="font-family:'Glancyr-Bold', 'Glancyr';font-weight:1000;font-size:462.083px;fill:rgb(12,22,60);">MANAGED EX<tspan x="22057.4px " y="3872.35px ">C</tspan>ELLENCE</text>
                </g>
            </g>
            <g transform="matrix(0.269301,0,0,0.269301,21538.2,4827.89)">
                <path d="M-18513.4,1838.99L-18513.4,1242.23L-18756.8,1242.23L-18756.8,2353.08L-18506.8,2353.08C-18329.7,1976.91 -18091.5,1724.21 -17825.3,1653.25L-17825.3,2353.08L-17683.3,2353.08C-17352.9,2353.08 -17030.2,2238.23 -16743.8,2023.56C-16640.7,2118.63 -16545.4,2229.08 -16460,2353.08L-16094.1,2353.08C-16181.3,2189.06 -16281.9,2037.72 -16394.7,1902.85C-16425.6,1865.91 -16457.4,1830.72 -16489.8,1796.69C-16457.4,1762.64 -16425.7,1727.2 -16394.7,1690.24C-16281.9,1555.33 -16181.3,1404.01 -16094.1,1240L-16460,1240C-16737.7,1642.97 -17117.9,1904.24 -17541.3,1952.19L-17541.3,1240L-17825.3,1240L-17825.3,1240C-18052.1,1240.51 -18130.5,1355.32 -18312.9,1569.52C-18314.7,1571.67 -18315.4,1572.2 -18315.4,1572.2L-18425.7,1712.7L-18486.4,1796.39C-18495.5,1810.35 -18504.5,1824.55 -18513.4,1838.99Z" style="fill:rgb(235,78,54);"/>
            </g>
        </g>
    </g>
</svg>
